<svg width="233" height="97" viewBox="0 0 233 97" fill="none" xmlns="http://www.w3.org/2000/svg">
<path d="M231.616 68.3748C231.475 68.0746 231.203 67.84 230.884 67.6899C230.819 59.3403 222.263 55.4844 215.658 52.7262C208.396 49.6866 200.788 47.6039 193.17 45.6525C193.142 45.6525 193.123 45.615 193.086 45.615C192.654 45.5118 192.213 45.4086 191.782 45.296C191.097 45.1177 190.412 44.9395 189.736 44.7706C189.68 44.7518 189.624 44.7706 189.568 44.7706C189.136 44.6674 188.695 44.5642 188.264 44.4516C188.057 43.6073 187.569 42.7911 186.716 42.125C185.43 41.1212 183.704 40.7834 182.175 40.3612C179.754 39.7045 177.343 39.0197 174.942 38.3067C165.813 35.5954 156.807 32.4807 147.951 28.9813C138.766 25.3507 129.75 21.2978 120.932 16.8415C112.469 12.5635 104.429 7.64753 96.1923 2.98486C92.4303 0.855236 88.1616 -0.79593 83.8085 0.404918C79.8589 1.50257 76.5378 4.55159 74.774 8.20104C71.6875 14.6087 73.1322 22.5455 77.945 27.6492C77.748 27.7805 77.5416 27.9025 77.3352 28.0338C77.1945 28.0056 77.0631 27.9681 76.8849 27.9869C67.447 28.85 57.9434 28.8219 48.5243 27.7805C44.462 27.3302 40.062 26.7579 36.6002 24.4031C33.3073 22.1609 31.7687 18.4552 30.1081 14.984C29.1418 12.9575 27.5 10.0211 25.4736 7.9665C25.3892 7.85392 25.2954 7.76011 25.1828 7.68506C22.7905 5.40532 19.9103 4.42963 16.9926 7.62876C14.6754 10.1712 13.8779 14.0833 12.7615 17.2262C12.1705 18.9055 11.57 20.5754 10.979 22.2547C10.585 22.9771 10.2472 23.7182 9.9564 24.4875C9.81568 24.6564 9.70309 24.8534 9.62804 25.0786C9.60928 25.1536 9.58115 25.2193 9.553 25.2944C9.49671 25.4069 9.43103 25.5289 9.36536 25.6415C9.28092 25.7728 9.19649 25.8948 9.10267 26.0261C9.12144 26.0074 9.13083 25.9886 9.14021 25.998C9.14021 25.998 9.11207 26.0261 9.09331 26.0449C9.09331 26.0543 9.07455 26.073 9.06517 26.0824C8.96197 26.2231 9.01826 26.1387 9.06517 26.0637C9.01826 26.1199 8.97136 26.1856 8.95259 26.2044C8.51166 26.711 8.01442 27.1707 7.5641 27.6585C6.66347 28.6248 5.84726 29.8351 5.6221 31.1579C5.6221 31.1673 5.60335 31.1766 5.60335 31.186C2.55432 43.1007 1.4942 55.4281 2.55432 67.6805C2.55432 67.7181 2.53555 67.7556 2.54493 67.7837C-1.32968 72.9155 -0.429051 80.5052 2.89204 85.7026C6.84171 91.8757 13.8967 93.2736 20.7265 94.0335C29.5546 95.0186 38.5516 94.8685 47.4266 95.1218C56.9959 95.3939 66.5651 95.6565 76.1344 95.8629C115.077 96.7167 154.189 96.97 193.011 93.3956C202.345 92.5325 211.83 91.9602 220.471 88.0105C227.854 84.6425 235.688 77.0622 231.616 68.3842V68.3748ZM227.479 67.6993C227.479 67.8682 227.535 67.9995 227.573 68.1402C200.3 75.9833 172.287 79.2668 144.123 79.6703C148.41 74.5197 153.176 69.8008 159.931 68.1027C164.115 67.052 168.478 66.8831 172.765 66.5547C177.043 66.2264 181.321 65.898 185.599 65.5697C189.877 65.2413 194.155 64.913 198.433 64.5846C202.101 64.3032 206.145 64.4439 209.701 63.3931C212.196 62.6614 214.673 60.9633 215.461 58.3552C215.667 57.6703 215.724 56.9761 215.677 56.3006C221.184 58.4959 227.46 61.8076 227.469 67.6993H227.479ZM5.84725 65.9637C5.11548 55.4469 5.92231 44.9207 8.28648 34.6478C14.4033 39.3387 21.2519 42.9693 28.6446 45.2491C35.8028 47.4444 45.0624 48.1105 50.0816 40.9898C50.5601 40.305 50.9166 39.7327 51.395 39.2448C51.4044 39.2354 51.4044 39.2167 51.4138 39.2073C57.7089 39.5075 63.9946 38.2316 69.8675 35.8675C76.5378 33.1843 82.1105 29.0095 87.8802 24.9191C88.096 24.966 88.3211 24.9754 88.565 24.9285C93.556 23.9997 96.4456 29.7225 98.7535 33.1374C100.742 36.0832 103.144 38.7758 106.69 39.7514C110.696 40.8491 114.862 39.6951 118.849 39.1135C123.962 38.363 129.112 38.9915 134.085 40.2956C143.56 42.7817 152.294 47.4256 161.742 49.968C166.048 51.1314 170.532 51.91 174.998 51.7974C178.657 51.7036 183.404 51.3284 186.406 48.9923C186.866 48.6358 187.232 48.2137 187.541 47.7727C188.667 48.0448 189.793 48.3169 190.919 48.5889C197.579 50.287 204.231 52.0507 210.676 54.4337C210.798 54.5744 210.93 54.7057 211.117 54.8183C213.294 56.0379 211.971 58.4772 210.32 59.4622C208.716 60.4192 206.736 60.5224 204.916 60.6818C201.173 61.0102 197.429 61.2541 193.686 61.545C186.021 62.136 178.347 62.7177 170.682 63.3087C164.359 63.7965 157.83 64.2281 152.238 67.5492C147.172 70.5607 143.363 75.1295 139.723 79.6796C111.672 79.7828 83.499 77.156 55.795 73.4502C39.1051 71.208 22.4621 68.5906 5.8285 65.9637H5.84725ZM144.63 31.308C152.379 34.4414 160.241 37.2747 168.206 39.7984C171.705 40.9054 175.232 41.9655 178.769 42.9506C180.036 43.3071 183.254 43.551 184.183 44.5361C186.406 46.9096 180.28 47.8103 179.013 48.026C161.751 50.9625 146.224 38.5037 129.713 35.8956C125.472 35.2295 121.307 35.2764 117.066 35.9519C112.291 36.7212 107.356 37.8657 103.632 33.9348C99.9168 30.0133 97.4494 23.5869 92.3271 21.8795C99.3539 17.4419 108.398 14.1208 115.809 19.4965C116.663 20.1157 117.507 19.7498 117.967 19.0837C126.673 23.5306 135.558 27.6492 144.63 31.308ZM78.6486 8.21981C80.919 4.86119 84.7467 2.75971 88.8277 3.56653C92.9744 4.37335 96.6707 7.27227 100.236 9.38313C102.553 10.7528 104.908 12.0475 107.253 13.3609C102.591 13.3328 97.8153 14.8339 93.7343 17.0667C89.1373 19.5716 85.0188 22.7144 80.7877 25.6884C76.3126 21.1477 74.9429 13.7268 78.658 8.22919L78.6486 8.21981ZM32.2565 25.1536C36.9661 30.0321 44.1524 30.7732 50.5413 31.3737C57.2304 32.0116 63.9477 32.1336 70.6461 31.7958C69.7643 32.2086 68.8917 32.6308 67.963 32.9873C58.5907 36.6086 47.6987 37.2278 38.5985 32.4432C31.3653 28.6436 26.3086 21.5229 25.6519 13.5298C26.4493 15.0309 27.0779 16.5319 27.4719 17.3575C28.776 20.1063 30.1081 22.9396 32.2471 25.1536H32.2565ZM17.6493 13.6236C18.156 12.2258 18.8033 10.0023 20.2856 9.32684C20.9892 9.00787 21.6647 9.10168 22.312 9.43942C20.6796 24.4875 33.054 36.421 47.1733 38.7757C43.43 46.1028 33.5887 43.4103 27.4813 41.2807C21.5521 39.2167 15.9982 36.1677 10.979 32.3962C12.011 29.4879 13.043 26.589 14.0749 23.6807C14.2251 23.4274 14.3376 23.1554 14.4971 22.9021C14.6847 22.6206 14.7317 22.2453 14.7129 21.8888C14.9662 21.1665 15.2289 20.4347 15.4822 19.7123C16.2046 17.6859 16.9082 15.6501 17.64 13.6236H17.6493ZM214.504 86.6689C207.027 89.08 198.977 89.4553 191.2 90.1401C174.06 91.66 156.854 92.4011 139.648 92.7295C104.833 93.3956 70.0082 92.3448 35.2024 91.341C30.8305 91.219 26.4493 91.1534 22.0869 90.7406C18.0621 90.3559 13.5683 89.8587 9.94704 87.9073C3.82084 84.605 1.16584 74.9232 5.5752 69.3317C63.8163 78.5257 122.911 87.5977 181.922 80.6928C197.87 78.8259 213.66 75.7394 229.074 71.2549C231.447 79.1074 220.574 84.6988 214.495 86.6596L214.504 86.6689Z" fill="black"/>
<path d="M9.1026 26.0166C9.1026 26.0166 9.08335 26.0358 9.07373 26.0551C9.07373 26.0551 9.08337 26.0455 9.093 26.0358C9.093 26.0358 9.09298 26.0262 9.1026 26.0166Z" fill="black"/>
<path d="M179.689 41.2431C179.379 40.2486 178.891 39.2917 178.291 38.438C177.69 37.5843 177.034 36.8056 176.236 36.1301C175.711 35.6892 175.167 35.2295 174.491 35.0325C173.647 34.7885 172.699 34.9856 172.052 35.5954C171.461 36.1489 171.123 36.9557 171.142 37.7719C171.151 38.5693 171.47 39.2823 171.808 39.9953C172.108 40.6239 172.437 41.2337 172.756 41.8529C172.118 42.3877 171.93 43.2132 172.305 43.9825C172.634 44.6674 173.337 45.1552 174.088 45.2772C174.21 45.3241 174.313 45.4085 174.444 45.4367C175.673 45.7275 177.109 45.7932 178.244 45.174C179.661 44.3953 180.167 42.7629 179.698 41.2525L179.689 41.2431ZM176.649 42.1719C176.687 42.1719 176.687 42.1719 176.649 42.1719Z" fill="black"/>
<path d="M166.378 39.2731C166.387 38.6164 166.124 38.0066 165.702 37.5281C165.674 37.4625 165.655 37.3874 165.627 37.3217C165.383 36.7401 164.689 36.4399 164.042 36.468C164.023 36.4305 163.92 36.3085 163.91 36.2898C163.863 36.2241 163.826 36.1584 163.779 36.0927C163.685 35.9426 163.601 35.7832 163.516 35.633C163.441 35.4923 163.376 35.3422 163.3 35.1921C163.3 35.2109 163.3 35.2015 163.31 35.2296C163.31 35.2109 163.291 35.1827 163.282 35.164C163.282 35.164 163.282 35.164 163.282 35.1546C163.254 35.0701 163.216 34.9763 163.197 34.9013C162.906 33.9913 162.822 33.0812 162.184 32.3213C161.283 31.2518 159.698 31.1017 158.628 32.0024C156.987 33.3721 157.944 35.7081 158.582 37.3405C159.313 39.2074 160.373 41.4027 162.372 42.1626C163.629 42.6411 165.036 42.1439 165.73 40.9993C165.815 40.8586 165.843 40.7085 165.909 40.5584C166.181 40.1831 166.387 39.7703 166.396 39.3013L166.378 39.2731Z" fill="black"/>
<path d="M163.301 35.1825C163.273 35.0137 163.226 35.0137 163.282 35.1356C163.282 35.1356 163.282 35.145 163.282 35.1544C163.282 35.1638 163.292 35.1732 163.301 35.1825Z" fill="black"/>
<path d="M154.875 34.8448C154.744 34.5165 154.537 34.2444 154.293 34.0099C154.265 33.5596 154.19 33.0999 154.068 32.6589C153.702 31.3267 153.177 29.9945 152.436 28.8218C152.004 28.137 151.507 27.424 150.775 27.0393C149.921 26.589 148.833 26.5046 147.998 27.0581C146.722 27.9118 146.497 29.6756 146.61 31.1016C146.835 33.9067 148.327 36.5711 150.813 37.9877C151.225 38.2222 151.723 38.2691 152.173 38.1472C152.895 38.241 153.655 38.0158 154.209 37.528C154.969 36.8619 155.25 35.7736 154.884 34.8355L154.875 34.8448Z" fill="black"/>
<path d="M142.64 25.3131C142.18 24.2436 141.439 23.2304 140.547 22.4798C139.984 22.0107 139.328 21.4666 138.596 21.2884C137.47 21.0163 136.344 21.5229 135.866 22.583C135.416 23.5962 135.706 24.5438 136.176 25.4913C136.251 25.6508 136.335 25.8197 136.401 25.9886C136.419 26.0355 136.448 26.0918 136.466 26.1387C136.466 26.1574 136.485 26.1762 136.504 26.2325C136.626 26.5796 136.738 26.9173 136.823 27.2738C136.917 27.621 136.992 27.9775 137.048 28.334C137.057 28.409 137.067 28.4841 137.086 28.5685C137.086 28.5966 137.086 28.5873 137.086 28.5966C137.086 28.6154 137.086 28.6154 137.086 28.6529C137.104 28.8312 137.114 29.0188 137.123 29.1971C137.142 29.563 137.142 29.9195 137.123 30.2853C137.114 30.4636 137.104 30.6512 137.086 30.8295C137.086 30.9045 137.067 30.9796 137.057 31.064C137.057 31.1297 136.992 31.4956 137.057 31.1484C136.917 32.0209 137.236 33.0248 138.202 33.2687C138.324 33.2968 138.465 33.2875 138.596 33.2875C138.69 33.3437 138.774 33.4188 138.877 33.4657C139.816 33.8879 140.885 33.719 141.701 33.1092C142.94 32.1992 143.353 30.5668 143.409 29.1032C143.465 27.7898 143.165 26.5233 142.649 25.3225L142.64 25.3131Z" fill="black"/>
<path d="M131.74 20.3032C131.505 19.7778 131.224 19.2149 130.82 18.7928C130.07 18.0047 128.935 17.7045 127.931 18.1924C126.251 19.0179 126.204 21.2508 125.989 22.8644C125.792 24.3561 125.688 25.8478 125.67 27.3488C125.67 27.3676 125.67 27.377 125.679 27.3957C125.679 27.3957 125.679 27.4145 125.679 27.4239C125.679 28.5215 126.57 29.4503 127.659 29.5347C127.781 29.6004 127.903 29.6755 128.034 29.7224C129.507 30.2946 131.13 29.4128 131.843 28.09C132.462 26.9454 132.668 25.5006 132.631 24.2154C132.593 22.8456 132.284 21.551 131.74 20.3032Z" fill="black"/>
<path d="M123.379 15.3402C121.709 14.7398 119.786 15.6498 118.416 16.588C117.741 17.0571 117.094 17.5637 116.531 18.1641C115.893 18.8396 115.217 19.6183 114.936 20.5283C114.776 21.0443 114.823 21.5415 114.936 22.0106C114.851 22.2357 114.795 22.4703 114.786 22.7236C114.786 23.1927 114.936 23.5867 115.152 23.9526C115.414 24.9752 116.334 25.7257 117.431 25.7163C117.797 25.7163 118.135 25.6225 118.444 25.4724C119.692 25.4724 120.987 25.1253 122 24.5436C123.539 23.6617 124.693 22.1795 125.218 20.4908C125.818 18.5675 125.509 16.1189 123.36 15.3402H123.379Z" fill="black"/>
<path d="M113.426 36.7306C110.358 37.6031 107 37.528 104.148 35.9332C103.313 35.4641 102.347 35.708 101.802 36.4961C99.3257 40.108 97.0929 43.8325 94.269 47.1911C91.6421 50.3246 88.8652 53.3361 86.0882 56.3382C80.4311 62.4456 74.5582 68.3561 68.9386 74.4823C67.8034 75.7206 68.9386 77.4468 70.1863 77.4468C70.3083 77.5125 70.4397 77.5782 70.5898 77.6063C73.3105 78.1692 76.0968 78.0754 78.8362 78.6477C80.5437 79.0042 82.6733 80.3551 84.3057 79.2106C86.2946 77.8127 87.5987 74.7825 88.9778 72.8405C90.6852 70.4294 92.4771 68.0746 94.3159 65.7573C98.0592 61.0384 101.999 56.4883 105.93 51.9288C107.76 49.7992 109.533 47.632 111.259 45.418C112.892 43.3165 114.693 41.4495 115.481 38.8508C115.847 37.6406 114.683 36.3553 113.436 36.7118L113.426 36.7306Z" fill="black"/>
<path d="M139.431 40.5772C139.178 39.0292 137.771 38.5695 136.401 38.3631C134.581 38.1004 132.676 37.6876 130.828 37.8377C130.594 37.8565 130.397 37.9316 130.181 37.9785C129.693 37.0403 128.483 36.5056 127.601 37.5094C126.25 39.0574 124.608 40.3145 123.248 41.8625C121.888 43.4104 120.715 45.0897 119.505 46.7503C116.662 50.6624 113.829 54.5839 110.967 58.4773C108.209 62.23 105.338 65.9169 102.271 69.4257C100.92 70.9736 99.5499 72.5028 98.2271 74.0789C97.1201 75.3924 95.8817 76.5369 95.2344 78.16C94.906 78.9855 95.544 80.0738 96.379 80.2802C98.4617 80.8056 100.544 80.3459 102.655 80.3553C103.894 80.3553 105.123 80.3459 106.352 80.496C107.318 80.6179 108.181 80.7774 109.1 80.3646C110.63 79.6892 111.558 77.9629 112.525 76.687C114.213 74.4542 115.911 72.2308 117.591 70.0073C124.008 61.5263 130.612 53.1955 136.992 44.6863C137.864 43.5136 139.713 42.1908 139.441 40.5678L139.431 40.5772Z" fill="black"/>
<path d="M158.907 46.6002C158.072 46.4689 157.387 46.0092 156.589 45.7746C155.736 45.5307 154.929 45.4932 154.15 45.0335C153.494 44.6488 152.79 44.752 152.246 45.1648C151.917 44.4612 151.026 44.0109 150.238 44.161C149.675 43.448 148.615 43.1009 147.761 43.9077C145.238 46.2906 143.418 49.2364 141.738 52.2479C141.579 52.5294 141.41 52.7921 141.251 53.0735C139.083 55.6629 136.963 58.2991 134.815 60.8978C132.31 63.9281 129.561 66.7707 127.178 69.9042C126.024 71.424 124.917 72.9907 123.895 74.6044C122.975 76.0585 122.159 77.5596 120.808 78.6666C119.279 79.9144 121.155 82.2692 122.816 81.3873C124.054 80.7306 125.274 80.5804 126.381 79.8674C126.409 80.4585 126.587 81.0495 127.019 81.6218C127.535 82.3067 128.886 82.316 129.43 81.6687C129.561 81.5186 129.674 81.3404 129.796 81.1809C130.077 81.5937 130.537 81.8751 131.147 81.9689C134.965 82.5412 136.897 79.5109 138.933 76.8466C141.616 73.3378 144.375 69.8573 147.17 66.433C149.929 63.0462 152.762 59.7251 155.52 56.3383C157.227 54.2556 160.295 51.1691 160.136 48.2608C160.098 47.5947 159.676 46.7128 158.916 46.5908L158.907 46.6002Z" fill="black"/>
<path d="M38.4594 35.4921C33.5622 32.8465 29.6875 27.5365 26.9481 22.8363C25.4658 20.2938 24.7809 17.6107 24.3963 14.7024C24.1711 12.9856 24.7059 10.612 23.4863 9.20477C22.1447 7.64742 19.9119 8.41671 18.4859 9.3924C16.6564 10.6495 15.6902 12.6291 15.1085 14.7305C14.3392 17.5169 13.9076 20.3783 13.1008 23.1552C12.688 24.5719 12.1814 25.9416 11.6279 27.3113C11.2339 28.2964 10.6804 29.4503 10.7836 30.5573C9.73281 30.8576 8.9166 32.2742 9.836 33.4187C10.4739 34.2162 11.3746 34.6665 12.2565 35.145C13.4573 35.8017 14.63 36.5147 15.859 37.1339C18.4296 38.4285 21.0095 39.7607 23.6551 40.9053C26.4227 42.1061 29.2841 43.1193 32.1831 43.9543C34.444 44.6016 37.0427 45.324 39.4069 45.0238C41.8086 44.7236 46.4619 43.5884 47.7471 41.2712C50.2333 36.7867 40.5515 36.6085 38.4594 35.4733V35.4921Z" fill="black"/>
</svg>
