<svg width="206" height="142" viewBox="0 0 206 142" fill="none" xmlns="http://www.w3.org/2000/svg">
<path d="M198.598 94.6004C198.35 94.3691 198.076 94.2578 197.81 94.2064C197.708 94.155 197.639 94.095 197.519 94.0608C190.367 92.1336 183.078 90.7975 175.713 90.0694C173.905 89.8896 172.098 89.7525 170.291 89.6497C168.886 89.5727 167.028 89.1787 165.709 89.7953C165.64 89.8296 165.597 89.8639 165.537 89.8981C161.16 88.0823 156.784 86.2494 152.424 84.3822C152.604 83.3801 152.784 82.378 153.032 81.3759C153.263 80.4337 152.561 79.2517 151.482 79.3374C148.895 79.5515 146.369 80.0055 143.91 80.6479C139.457 78.6522 135.037 76.5794 130.677 74.3868C130.789 73.1448 130.909 71.9029 131.054 70.661C131.2 69.479 129.572 68.6139 128.63 69.2734C127.525 70.0529 126.412 70.8237 125.307 71.6031C123.191 70.4725 121.084 69.3163 119.003 68.1086C118.258 67.6803 117.504 67.2349 116.759 66.7981C116.828 65.7532 116.896 64.7168 116.99 63.6719C117.102 62.4813 115.534 61.6248 114.566 62.2843C113.744 62.8411 112.922 63.4064 112.108 63.9631C110.524 62.961 108.948 61.9332 107.389 60.8625C107.937 59.5264 108.477 58.1902 108.982 56.8455C109.445 55.6207 108.091 54.6272 107.003 54.867C105.051 55.2952 103.124 55.7749 101.214 56.3059C98.8153 54.3873 96.537 52.3488 94.4128 50.1647C94.9182 49.0598 95.4149 47.9635 95.9203 46.8586C96.5284 45.5225 95.5349 44.272 94.1045 44.4947C92.7683 44.7088 91.4407 44.9572 90.1303 45.2484C87.9719 42.4733 86.0704 39.4927 84.5459 36.2465C85.0255 35.587 85.5394 34.936 86.0961 34.3194C86.7214 33.617 86.7642 32.2552 85.7707 31.7927C84.3403 31.1331 82.8585 30.6621 81.3682 30.3109C80.2291 28.4951 78.9272 26.7821 77.3769 25.2918C77.2399 25.1633 77.0942 25.0605 76.9486 24.932C76.9401 24.9063 76.9401 24.8892 76.9315 24.8721C75.6981 22.7051 73.9252 20.9835 72.1865 19.2191C70.4049 17.4119 68.7176 15.5276 67.1245 13.5576C63.9297 9.60055 61.1718 5.29231 58.8335 0.769953C58.311 -0.240726 57.0691 -0.155074 56.3068 0.444481C49.6003 5.74626 45.9345 14.5169 46.8338 23.0135C43.1765 23.416 39.5021 23.6815 35.7506 23.6558C27.0399 23.5959 18.3978 22.5081 9.92693 20.4868C8.70212 20.1955 7.67431 21.2576 7.94839 22.4653C11.1432 36.6576 14.4236 51.5266 10.6807 65.9502C7.37453 78.6864 0.0513912 90.7803 2.60378 104.322C2.5267 104.322 2.44961 104.313 2.38109 104.305C2.17553 104.287 2.00423 104.33 1.84149 104.373C1.02781 104.365 0.205565 104.878 0.197 105.923C0.128479 115.713 0.0599555 125.512 0 135.302C0 136.107 0.479642 136.586 1.06207 136.766C1.31045 137.194 1.72158 137.537 2.33827 137.58C30.4917 139.713 58.7222 140.364 86.9526 140.698C112.699 141.006 138.763 142.094 164.355 138.668C178.068 136.835 191.489 133.511 204.191 127.97C204.568 127.807 204.765 127.559 204.894 127.285C205.211 127.028 205.433 126.651 205.476 126.154C206.393 115.628 207.086 102.514 198.633 94.5747L198.598 94.6004ZM169.075 92.8017C172.192 92.9473 175.31 93.2128 178.411 93.5811C183.07 94.1378 187.686 94.9772 192.252 96.0479C184.92 99.0199 177.374 101.307 169.691 103.054C168.98 101.812 168.21 100.673 167.404 99.5938C167.422 99.4996 167.456 99.4311 167.456 99.3283C167.456 97.6923 167.447 96.0564 167.447 94.4205C167.447 94.1378 167.567 92.8445 167.379 92.7075C167.721 92.6047 168.758 92.7931 169.075 92.8103V92.8017ZM164.227 92.8188C164.227 93.0501 164.227 93.2813 164.227 93.504C164.227 94.3177 164.227 95.1314 164.227 95.9536C160.664 92.442 156.475 89.9238 151.927 87.971C151.936 87.8768 151.953 87.774 151.962 87.6798C156.039 89.4185 160.141 91.1229 164.227 92.8274V92.8188ZM148.835 86.729C146.608 85.9068 144.322 85.1873 141.992 84.5278C142.523 84.348 143.062 84.1852 143.602 84.0225C145.358 84.8019 147.114 85.5813 148.878 86.3351C148.861 86.4635 148.844 86.592 148.835 86.7205V86.729ZM139.345 82.1039C138.506 82.4208 137.684 82.7806 136.87 83.1489C134.66 82.5836 132.442 82.0354 130.223 81.4615C130.266 80.2539 130.335 79.0462 130.403 77.8299C133.358 79.2946 136.339 80.7164 139.337 82.0953L139.345 82.1039ZM130.163 86.9261C130.163 86.1552 130.146 85.3929 130.155 84.622C131.02 84.8447 131.885 85.0589 132.75 85.2816C131.876 85.7955 131.011 86.3436 130.163 86.9261ZM127.286 76.2711C127.174 77.7186 127.08 79.1661 127.02 80.6222C124.887 80.0397 122.78 79.423 120.716 78.7293C122.318 77.6072 123.928 76.4852 125.53 75.3546C126.112 75.663 126.695 75.9713 127.277 76.2711H127.286ZM122.344 73.6759C120.579 74.9093 118.815 76.1512 117.042 77.3846C116.845 77.3075 116.656 77.2304 116.459 77.1533C116.434 74.9092 116.468 72.6652 116.554 70.4211C118.464 71.5346 120.391 72.6224 122.335 73.6759H122.344ZM106.49 71.6888C108.391 70.3955 110.284 69.0936 112.185 67.8002C112.596 68.0572 113.008 68.3056 113.419 68.554C113.29 70.9436 113.23 73.3247 113.239 75.7229C110.866 74.5752 108.605 73.2562 106.49 71.6888ZM109.213 65.9416C107.44 67.1493 105.667 68.3655 103.894 69.5732C103.8 69.4961 103.715 69.4105 103.62 69.3334C104.477 67.5347 105.308 65.7189 106.096 63.886C107.123 64.5883 108.168 65.265 109.213 65.9416ZM101.205 66.9437C99.4919 65.1108 97.9588 63.1323 96.5627 61.0595C97.8817 60.6313 99.2007 60.2287 100.537 59.8518C101.488 60.5884 102.455 61.3079 103.432 62.0102C102.721 63.6633 101.976 65.3078 101.214 66.9437H101.205ZM97.856 75.9799C97.856 75.9799 97.8645 75.9799 97.8731 75.9799C97.8731 75.9799 97.8731 75.9799 97.8731 75.9884C97.8731 75.9884 97.8646 75.9884 97.856 75.9884C97.856 75.9884 97.856 75.9799 97.8474 75.9713L97.856 75.9799ZM97.4962 57.4108C96.5884 57.6934 95.689 57.9932 94.7897 58.293C94.0017 56.974 93.248 55.6293 92.5371 54.2588C92.6827 53.9419 92.8283 53.6165 92.9739 53.2996C94.4214 54.7299 95.9288 56.0918 97.4962 57.4108ZM91.7234 59.3636C91.1067 59.5863 90.4986 59.8262 89.8905 60.066C90.2245 59.3294 90.5585 58.5928 90.8926 57.8562C91.1667 58.353 91.4322 58.8669 91.7148 59.3551L91.7234 59.3636ZM80.0835 48.289C80.3318 45.257 81.1455 42.3448 82.4731 39.664C83.4495 41.9251 84.4088 44.2035 85.3938 46.4732C83.6037 46.9957 81.8307 47.6124 80.0749 48.289H80.0835ZM56.992 4.14459C59.1076 7.98175 61.5229 11.6476 64.2381 15.0993C65.8055 17.0864 67.4757 19.005 69.2315 20.8294C69.3343 20.9321 69.4371 21.0349 69.5398 21.1377C67.0303 20.5895 64.3665 20.5724 61.5915 20.975C57.6943 21.5403 53.8572 22.1484 50.0115 22.6452C49.4034 15.716 51.9986 8.91534 56.992 4.14459ZM5.81569 104.313C2.6723 89.8724 12.0682 76.7936 14.5863 63.0466C16.9674 50.0363 14.4236 36.8974 11.5885 24.1526C24.7959 27.0048 38.4144 27.6557 51.8187 25.8571C58.4909 24.9663 66.465 21.8315 72.6918 25.7029C74.4048 26.765 75.8352 28.1696 77.0771 29.7627C73.6425 29.6428 70.2165 30.3366 67.0131 31.844C66.8504 31.7584 66.6791 31.6642 66.5078 31.6042C66.2509 31.51 65.9596 31.4843 65.6941 31.4586C65.42 31.4329 65.146 31.4843 64.8805 31.5271C64.6749 31.5614 64.495 31.6299 64.298 31.7156C64.1781 31.767 64.0582 31.8098 63.9383 31.8783C63.9383 31.8783 63.9212 31.8869 63.9212 31.8954C63.6899 32.0068 63.4758 32.1438 63.2788 32.3151C63.2188 32.3665 63.1589 32.4265 63.1075 32.4864C62.979 32.6492 62.8334 32.8119 62.7306 33.0003C62.5936 33.2573 62.4737 33.5399 62.4308 33.8397C62.3966 34.0453 62.3538 34.268 62.3623 34.4735C62.3623 34.6877 62.4051 34.9103 62.4394 35.1245C62.4565 35.193 62.4737 35.2615 62.4994 35.33C62.5679 35.5185 62.645 35.7155 62.7392 35.8953C62.8677 36.1352 63.0475 36.3664 63.2445 36.5634C63.6299 36.9574 64.1267 37.24 64.6492 37.4028C65.1717 37.5655 65.7798 37.5655 66.3108 37.4285C66.5078 37.3771 66.6962 37.2829 66.8847 37.1972C66.9532 37.163 67.0132 37.1287 67.0731 37.0944C67.2872 36.9488 67.5099 36.7861 67.6812 36.5805C68.0238 36.1694 68.315 35.7069 68.4264 35.1673C68.4521 35.0217 68.4607 34.8675 68.4778 34.7133C71.8952 33.1202 75.6639 32.5892 79.3297 33.1716C79.8693 34.1138 80.3661 35.0816 80.8372 36.0581C78.319 40.1265 76.9401 44.7516 76.8116 49.6166C76.7516 49.6337 76.6831 49.6166 76.6317 49.6423C75.938 49.8478 75.3727 50.2675 74.9701 50.8671C74.7217 51.2439 74.6361 51.6636 74.5932 52.109C74.5847 52.1947 74.5847 52.2803 74.5932 52.3745C74.6104 52.6058 74.6361 52.8542 74.7132 53.0769C74.9701 53.8049 75.4326 54.4301 76.1093 54.8156C76.529 55.0554 76.9315 55.1582 77.4026 55.201C77.5482 55.2096 77.6852 55.201 77.8308 55.1753C77.9079 55.1753 77.985 55.2096 78.0535 55.2096C78.1649 55.2096 78.2848 55.1924 78.3961 55.1753C78.4989 55.1582 78.6103 55.1582 78.7216 55.1239C78.9443 55.064 79.1756 54.9612 79.364 54.8327C79.7323 54.5758 80.0663 54.2588 80.2548 53.8477C80.349 53.6422 80.4518 53.4366 80.486 53.2139C80.5203 52.9741 80.5631 52.7343 80.5374 52.4944C80.5117 52.2461 80.486 52.0148 80.4004 51.7835C80.3832 51.7493 80.3661 51.715 80.349 51.6808V51.6636C82.4389 50.8414 84.5544 50.0962 86.7043 49.4795C87.4409 51.1155 88.2031 52.7343 88.9997 54.3445C87.9976 56.5457 86.9955 58.7384 85.9934 60.9396C85.9762 60.9396 85.9505 60.9396 85.9334 60.931C85.8906 60.931 85.8392 60.9482 85.7964 60.9482C85.7621 60.9482 85.7278 60.9482 85.6936 60.9482C85.6079 60.9482 85.5223 60.9824 85.4281 60.991C85.2996 61.0081 85.1711 60.991 85.0598 61.0338C84.6229 61.1709 84.3232 61.3679 83.972 61.6591C83.912 61.7105 83.8607 61.7619 83.8178 61.8218C83.6808 61.9845 83.5438 62.1473 83.441 62.3357C83.3382 62.5156 83.2611 62.7126 83.1926 62.901C83.1669 62.9781 83.1412 63.0638 83.1241 63.1494C83.047 63.6119 83.0298 63.9631 83.1326 64.4256C83.1926 64.6997 83.3125 64.9823 83.4838 65.2136C83.7493 65.5819 83.9806 65.8217 84.366 66.0701C84.6058 66.2243 84.8799 66.3442 85.154 66.4127C85.4366 66.4812 85.7364 66.524 86.0191 66.4983C86.2075 66.4812 86.4559 66.4641 86.6443 66.3956C86.8327 66.327 87.0383 66.25 87.2182 66.1472C87.458 66.0016 87.6978 65.8217 87.8691 65.6076C87.989 65.4534 88.1346 65.2907 88.2288 65.1108C88.3231 64.9309 88.4087 64.7339 88.4772 64.5369C88.4944 64.5027 88.4772 64.4599 88.4944 64.417C88.5201 64.3228 88.5372 64.2115 88.5543 64.1087C90.1646 63.432 91.7919 62.7982 93.4364 62.2072C95.2693 65.008 97.2993 67.6889 99.6975 70.1214C99.2264 71.0721 98.7296 72.0143 98.2414 72.9564C98.0872 72.9307 97.9331 72.8879 97.7875 72.8879C97.5733 72.8879 97.3592 72.9222 97.1451 72.9564C97.0509 72.9735 96.9652 72.9907 96.8796 73.0249C96.4428 73.1791 96.1687 73.3504 95.8175 73.6331C95.5948 73.8044 95.4321 74.0356 95.2693 74.2583C95.1923 74.3697 95.1494 74.4981 95.0895 74.618C95.0723 74.6523 95.0466 74.6866 95.0209 74.7294C95.0038 74.7636 94.9953 74.7979 94.9867 74.8322C94.961 74.9007 94.9182 74.9606 94.8839 75.0377C94.8582 75.1062 94.8497 75.1748 94.8325 75.2347C94.8154 75.3032 94.7897 75.3803 94.7811 75.4489C94.7811 75.466 94.7726 75.4831 94.764 75.5002C94.764 75.5516 94.7554 75.5945 94.7469 75.6458C94.7297 75.7486 94.704 75.8428 94.6955 75.9628C94.6955 76.0141 94.7126 76.057 94.7126 76.1084C94.7126 76.194 94.704 76.2797 94.7126 76.3739C94.7297 76.528 94.7554 76.6651 94.7811 76.7936C94.7811 76.8193 94.7811 76.8535 94.7811 76.8792C94.7983 76.9649 94.824 77.042 94.8582 77.1276C94.8582 77.1447 94.8753 77.1533 94.8753 77.1704C94.901 77.2389 94.9096 77.3075 94.9439 77.3846C95.0895 77.7272 95.2522 77.967 95.5006 78.2582C95.5177 78.2753 95.552 78.2839 95.5691 78.301C95.6034 78.3438 95.6462 78.3867 95.689 78.4295C95.9802 78.6864 96.2457 78.8578 96.5884 79.0034C96.9395 79.149 97.2393 79.2175 97.6419 79.2432C97.9331 79.2689 98.25 79.2175 98.5241 79.149C98.8067 79.089 99.0894 78.9605 99.3463 78.8235C99.5947 78.695 99.8345 78.5066 100.04 78.3181C100.254 78.1212 100.434 77.8813 100.588 77.6415C100.631 77.573 100.665 77.5045 100.7 77.4274C100.785 77.2389 100.879 77.042 100.931 76.8364C100.999 76.5452 101.051 76.2368 101.016 75.9371C100.999 75.7829 100.974 75.663 100.948 75.5259C101.864 74.9007 102.781 74.2754 103.697 73.6502C106.661 75.9199 109.881 77.7443 113.265 79.2432C113.265 79.5173 113.273 79.7913 113.282 80.0654C113.205 80.0826 113.11 80.074 113.033 80.0997C112.451 80.2796 111.868 80.6136 111.466 81.0761C111.2 81.3844 111.021 81.6585 110.866 82.0183C110.704 82.4037 110.635 82.7206 110.601 83.1489C110.592 83.2773 110.644 83.4058 110.678 83.5343C110.686 83.6628 110.695 83.7912 110.712 83.9368C110.764 84.2452 110.883 84.5193 111.012 84.8019C111.509 85.864 112.751 86.5834 113.924 86.5149C115.063 86.4464 116.168 85.864 116.751 84.8533C117.307 83.8683 117.273 82.575 116.673 81.6071C116.973 81.393 117.273 81.1874 117.573 80.9733C120.622 82.0868 123.757 83.0118 126.909 83.8598C126.892 85.0589 126.892 86.258 126.909 87.4571C126.737 87.5085 126.566 87.577 126.412 87.6541C126.378 87.6712 126.352 87.7055 126.318 87.7226C126.309 87.7226 126.292 87.7226 126.275 87.7226C125.564 87.9282 125.042 88.3735 124.613 88.956C124.254 89.4527 124.108 90.0694 124.057 90.6775C124.005 91.2771 124.185 91.8767 124.451 92.4077C124.716 92.9302 125.196 93.3841 125.692 93.6753C126.232 93.9837 126.832 94.1378 127.448 94.1635C128.733 94.2064 129.941 93.4955 130.592 92.4077C130.969 91.7824 131.114 91.0202 131.054 90.275C133.007 88.8446 135.063 87.5684 137.221 86.5235C141.007 87.5342 144.853 88.699 148.527 90.1893C148.45 92.1165 148.467 94.0436 148.63 95.9879C148.553 96.0821 148.476 96.1678 148.416 96.2706C148.398 96.3048 148.381 96.3391 148.364 96.3733C148.296 96.5275 148.219 96.6902 148.167 96.853C148.159 96.8958 148.15 96.9386 148.142 96.9729C148.116 97.1442 148.082 97.3326 148.073 97.5125C148.073 97.5553 148.073 97.6067 148.073 97.6495C148.09 97.8294 148.107 98.0093 148.15 98.1891C148.261 98.6345 148.501 98.9942 148.792 99.3368C148.895 99.4568 149.015 99.5424 149.135 99.6366C149.264 99.7308 149.375 99.8336 149.521 99.9021C149.932 100.091 150.368 100.253 150.831 100.202C150.977 100.202 151.097 100.151 151.234 100.116C151.508 100.065 151.765 99.9878 152.039 99.8422C152.424 99.6452 152.698 99.3368 152.938 98.9942C153.092 98.7801 153.203 98.5146 153.255 98.2491C153.298 98.0521 153.323 97.8465 153.332 97.641C153.332 97.4354 153.298 97.2213 153.263 97.0243C153.221 96.7502 153.101 96.4847 152.981 96.2448C152.921 96.1249 152.835 96.0222 152.75 95.9194C152.664 95.808 152.587 95.6881 152.475 95.6025C152.253 95.414 152.022 95.2684 151.773 95.1571C151.696 93.9665 151.662 92.776 151.679 91.5855C157.546 94.3691 162.745 98.2062 166.274 103.859C152.561 106.686 138.472 107.893 124.485 108.33C98.8924 109.135 73.18 108.245 47.6133 107.105C33.6522 106.489 19.6997 105.641 5.75573 104.639C5.75573 104.553 5.77286 104.484 5.75573 104.399L5.81569 104.313ZM118.823 128.372C101.154 124.338 82.7558 126.694 64.8205 126.728C46.2942 126.762 27.7851 125.64 9.30167 124.467C9.30167 123.979 9.30167 123.49 9.29311 123.002C9.28454 121.743 9.27598 120.493 9.26741 119.234C9.26741 118.043 9.43015 116.638 8.76208 115.585C8.52225 115.199 8.18821 114.925 7.82848 114.703C7.02336 113.855 5.97842 113.384 4.77075 113.315C4.2911 113.289 3.81146 113.341 3.34038 113.426C3.35751 111.482 3.36608 109.546 3.38321 107.602C30.1491 109.572 56.9663 110.857 83.7921 111.405C95.2008 111.636 106.652 111.842 118.095 111.636C117.958 117.229 118.232 122.822 118.832 128.372H118.823ZM48.7096 136.758C33.5237 136.295 18.3378 135.576 3.18621 134.445C3.18621 133.589 3.19477 132.724 3.20334 131.867C4.19689 131.884 5.18187 131.901 6.17542 131.918C7.42592 131.936 8.68499 131.619 9.1475 130.308C9.43015 129.512 9.38733 128.569 9.3445 127.679C27.4768 128.835 45.6176 129.931 63.7927 129.94C82.1648 129.94 101.136 127.319 119.192 131.756C119.466 133.777 119.8 135.79 120.159 137.794C96.3485 137.94 72.4948 137.477 48.7096 136.758ZM129.016 137.743C127.14 137.768 125.264 137.76 123.388 137.768C121.761 129.135 121.084 120.364 121.299 111.576C133.598 111.268 145.863 110.429 158.026 108.544C171.421 106.463 184.526 102.951 196.962 97.5296C203.789 104.673 203.095 116.107 202.299 125.298C179.25 135.302 153.872 137.417 129.016 137.734V137.743Z" fill="black"/>
<path d="M55.7673 78.9605C60.401 72.3911 61.3945 63.0895 56.778 56.2717C52.0501 49.2826 43.4079 46.2848 35.2882 48.4089C30.92 49.5481 26.9201 52.1776 24.2992 55.8691C21.3956 59.9546 20.582 65.1108 20.6676 70.0186C20.8903 78.0013 27.1514 85.4186 34.8942 87.0545C43.0567 88.7847 50.9366 85.804 55.7587 78.9605H55.7673ZM38.7399 84.3394C35.134 84.151 31.3568 83.029 28.7873 80.3738C26.1493 77.6501 23.9994 73.8815 23.8881 70.0186C23.7596 62.6441 26.2777 55.7492 33.3354 52.503C39.6393 49.5995 47.4592 50.7729 52.307 55.8177C62.4566 66.3956 52.9922 85.076 38.7399 84.3394Z" fill="black"/>
<path d="M69.9767 102.951C70.4049 103.388 70.9102 103.662 71.467 103.876C71.5954 103.928 71.7239 103.945 71.861 103.979C71.9124 103.996 71.9552 104.031 72.0066 104.039C73.1629 104.356 74.499 103.988 75.2613 103.046C75.6296 102.592 75.9294 102.103 76.0322 101.521C76.1435 100.913 76.1349 100.27 75.9122 99.6881C75.6981 99.1142 75.3983 98.5746 74.9358 98.1549C74.4819 97.7267 73.9337 97.4097 73.3256 97.2299C72.1351 96.8787 70.7561 97.1956 69.8824 98.0949C69.0345 98.96 68.7433 100.27 69.0773 101.427C69.2401 102.001 69.557 102.532 69.9681 102.951H69.9767Z" fill="black"/>
<path d="M90.4131 102.6C90.9013 103.337 91.5951 103.851 92.4345 104.116C92.7856 104.227 93.1796 104.279 93.5565 104.27C93.9248 104.27 94.3188 104.219 94.67 104.09C95.5093 103.791 96.1688 103.277 96.6742 102.532C97.0853 101.923 97.2994 101.101 97.2138 100.373C97.1538 99.8336 97.0425 99.3882 96.777 98.9086C96.5971 98.5831 96.3487 98.2662 96.0575 98.0264C95.6292 97.6838 95.2181 97.4439 94.6956 97.2726C94.3102 97.1527 93.8905 97.0928 93.488 97.0928C92.6058 97.0928 91.6722 97.3926 91.0469 98.0349C91.0041 98.0778 90.9784 98.1291 90.9441 98.172C90.2761 98.7458 89.9677 99.5938 89.8821 100.45C89.8478 100.819 89.8992 101.213 89.9849 101.572C90.0705 101.923 90.2247 102.292 90.4217 102.6H90.4131Z" fill="black"/>
<path d="M47.9561 62.7642C47.0482 62.6014 46.1403 62.4644 45.2324 62.3274C44.8813 62.276 44.5301 62.2332 44.1875 62.1818C43.862 60.5373 43.5194 58.8928 43.1169 57.2568C42.9712 56.6659 42.543 56.3147 42.0377 56.1776C41.3524 55.5353 40.1533 55.3982 39.5281 56.4346C38.5945 57.9849 37.7894 59.6122 37.0613 61.2739C35.9308 61.1454 34.8087 61.0083 33.6781 60.9056C32.1364 60.76 29.7468 60.306 29.1986 62.3274C28.6676 64.2545 31.0658 65.5393 32.3249 66.5071C33.1128 67.1152 33.9351 67.6805 34.7402 68.263C34.5775 68.9739 34.389 69.6848 34.2606 70.4042C34.0636 71.5348 33.6524 72.9309 34.0636 74.0358C34.3205 74.721 34.8601 75.1322 35.4682 75.2863C35.9479 75.5176 36.5646 75.5518 36.9928 75.2435C38.2776 74.3013 39.5709 73.3592 40.8557 72.417C41.2582 72.6654 41.6437 72.9395 42.0548 73.1879C42.3974 73.5134 42.7571 73.8217 43.0997 74.1557C44.0076 75.0551 46.0033 74.4641 45.8491 73.0166C45.8491 72.9909 45.8491 72.9652 45.8405 72.9395C45.9091 72.6911 45.9262 72.417 45.8148 72.1173C45.772 71.9888 45.7292 71.8603 45.6864 71.7404C45.5836 70.8667 45.4808 70.0017 45.3609 69.128C45.6778 68.8968 45.9862 68.6655 46.3031 68.4343C47.0568 67.8861 47.8105 67.3379 48.5642 66.7812C49.4036 66.1645 50.2173 65.3851 49.8918 64.2203C49.6434 63.3124 48.8041 62.9184 47.9561 62.7642Z" fill="black"/>
</svg>
