<svg width="236" height="118" viewBox="0 0 236 118" fill="none" xmlns="http://www.w3.org/2000/svg">
<path d="M230.693 65.4768C228.25 63.5841 225.09 63.2506 222.097 63.2506C220.329 63.2506 218.52 63.1422 216.752 63.1839C214.926 63.2339 213.134 63.5008 211.299 63.4674C204.587 63.3423 198.109 61.3913 191.873 59.0317C188.746 57.8561 185.669 56.5638 182.568 55.3298C181 54.7044 179.424 54.0875 177.848 53.5038C177.106 53.2287 176.348 52.9952 175.614 52.7034C174.497 52.2532 173.88 51.5945 173.029 50.744C170.711 48.4261 168.418 46.5001 165.634 44.7575C163.016 43.115 160.297 41.6392 157.554 40.2135C152.477 37.5537 147.257 35.0524 142.596 31.6923C140.287 30.0247 138.144 28.1154 136.318 25.9309C134.334 23.5463 133.133 20.7031 131.257 18.2435C128.064 14.0496 123.57 11.1648 118.167 11.3816C113.223 11.5817 109.379 13.9412 105.935 17.3347C101.258 21.9538 97.3058 27.3817 92.0364 31.3671C86.5501 35.511 79.8132 38.2374 72.968 35.8195C69.8163 34.7105 67.4067 32.5427 65.9142 29.5745C64.5552 26.8814 63.663 23.8632 61.4035 21.7454C57.2763 17.885 51.0314 18.1852 46.2288 20.478C43.494 21.7871 40.9844 23.7381 38.7916 25.8225C37.7994 26.773 37.0407 27.7569 36.8739 29.166C36.6655 30.9586 37.4575 32.6845 37.2574 34.4688C37.0656 36.1697 36.2402 37.7872 35.6482 39.3797C34.9562 41.2056 34.3058 43.0566 33.6972 44.9076C32.5466 48.3928 31.5377 51.9196 30.6623 55.4799C29.7785 59.0901 29.1448 62.7337 28.4444 66.3773C28.2276 67.5029 27.9442 69.2205 26.7936 69.7874C25.3595 70.4961 23.4918 69.4956 21.941 70.1459C19.6815 71.0964 19.8065 74.0313 17.8388 75.0735C17.6304 75.1903 17.497 75.332 17.3969 75.4988C14.2036 76.4826 11.0352 77.5415 7.89191 78.6921C5.55735 79.5509 2.6975 80.318 1.1717 82.4441C-1.95496 86.7881 1.84703 92.4827 4.74857 95.8012C8.36715 99.9284 13.103 102.938 17.9055 105.498C20.2234 106.732 22.6247 108.174 25.126 109.025C26.5434 109.508 28.0192 109.575 29.1531 108.808C31.7712 110.567 34.8478 111.126 37.9495 111.735C42.3268 112.593 46.7124 113.627 51.1231 114.319C51.9485 114.444 52.7239 114.519 53.541 114.369C54.3831 114.219 55.1835 113.569 56.0006 113.46C56.9928 113.327 57.4931 114.169 58.1518 114.694C58.8021 115.203 59.5442 115.52 60.353 115.703C64.1216 116.562 68.5239 116.17 72.3343 115.787C76.4865 115.362 80.6053 114.528 84.5824 113.26C88.6346 111.968 92.3448 109.967 96.2969 108.433C98.2813 107.666 100.366 107.04 102.517 107.099C104.61 107.157 106.544 107.974 108.503 108.625C110.196 109.183 111.964 109.642 113.756 109.475C114.473 109.408 115.157 109.2 115.857 109.05C117.466 108.716 117.592 110 118.15 111.143C118.851 112.577 120.218 113.127 121.677 113.511C124.137 114.161 126.646 114.653 129.148 115.128C134.259 116.104 139.42 116.812 144.606 117.296C145.206 117.354 145.898 116.687 145.823 116.079C145.448 113.002 149.467 115.603 150.759 116.087C152.201 116.629 153.719 116.921 155.253 117.004C156.879 117.096 158.546 116.912 160.114 116.47C160.781 116.287 161.465 115.853 162.132 115.728C163.007 115.57 164.166 115.937 165.033 116.054C168.043 116.479 172.004 117.713 174.947 116.529C176.873 115.753 178.174 113.619 177.632 111.66C177.957 111.643 178.274 111.626 178.599 111.626C178.699 111.626 178.799 111.618 178.907 111.618C179.608 111.718 180.275 111.935 180.892 112.368C181.942 113.119 182.584 113.686 183.96 113.527C185.627 113.335 187.32 112.627 188.929 112.168C190.889 111.601 192.873 111.084 194.824 110.476C195.866 110.15 196.583 109.375 197.567 109.117C199.41 108.641 201.269 108.408 203.087 107.824C204.096 107.507 205.655 107.216 206.163 106.132C206.197 106.057 206.213 105.982 206.23 105.915C206.355 105.948 206.489 105.99 206.614 106.023C206.939 106.14 207.522 106.165 207.898 106.173C211.249 106.282 214.418 104.197 217.294 102.73C218.812 101.954 220.379 101.229 221.855 100.362C223.297 99.5031 224.298 98.4192 225.507 97.2936C226.608 96.2681 228.067 95.7678 229.251 94.8423C230.351 93.9752 231.21 92.8496 231.877 91.624C233.411 88.8225 234.303 85.5374 234.795 82.4024C235.654 76.9495 235.504 69.2205 230.685 65.4935L230.693 65.4768Z" fill="#E6E6E2"/>
<path d="M194.865 90.9568C181.149 94.5253 167.092 94.9839 153.009 94.0417C138.985 93.1079 124.853 91.5737 111.029 89.0141C97.2467 86.4627 84.0064 81.8519 70.3492 78.792C56.3001 75.6403 41.9175 73.9644 27.6433 72.0467C28.5354 71.6716 29.2608 70.9962 29.7444 70.1541C31.0951 67.8445 31.1618 64.7762 31.6704 62.2082C32.3624 58.7314 33.1795 55.2796 34.13 51.8611C35.0805 48.4426 36.1645 45.0658 37.3651 41.7307C38.4657 38.6958 40.0999 35.7442 39.6246 32.4341C39.3078 30.2663 38.991 28.9323 40.7586 27.3148C42.0092 26.1642 43.3183 25.0803 44.7357 24.1381C47.262 22.4539 50.1385 21.1865 53.2235 21.1782C56.4502 21.1782 59.4351 22.5039 61.1693 25.297C62.7285 27.8067 63.4539 30.7332 65.2298 33.1178C68.6316 37.6953 74.5764 39.5129 80.096 39.0877C92.661 38.1205 99.9482 26.3893 108.228 18.5018C111.788 15.1083 116.315 12.9322 121.343 14.0411C124.044 14.6331 126.337 16.2839 128.171 18.2933C130.198 20.5112 131.323 23.2043 133.041 25.6139C139.427 34.5603 149.891 38.7708 159.221 43.8485C161.773 45.2409 164.29 46.7084 166.692 48.3509C168.109 49.3264 169.31 50.4603 170.527 51.6776C171.503 52.6532 172.461 53.9789 173.687 54.6125C175.046 55.3129 176.722 55.6714 178.164 56.2134C179.74 56.8054 181.308 57.4307 182.875 58.0644C185.869 59.265 188.845 60.499 191.863 61.6246C197.7 63.7924 203.736 65.5433 209.981 65.8685C213.258 66.0352 216.543 65.7518 219.82 65.7267C223.163 65.7017 227.149 65.3432 229.758 67.8862C231.96 70.0374 232.602 73.5309 232.735 76.5325C220.403 82.0437 207.989 87.5549 194.882 90.9651L194.865 90.9568Z" fill="white"/>
<path d="M42.9004 25.0553C43.5507 22.4206 44.5345 19.9693 45.485 17.4429C46.3605 15.1 46.4606 12.7321 46.3022 10.2475C46.0854 6.97908 45.3267 -1.1002 40.2073 0.125451C37.8977 0.675742 36.9138 3.052 36.6137 5.18646C36.2468 7.77116 36.3886 10.4559 36.3469 13.0656C36.2969 15.8671 36.2635 18.6769 36.2469 21.4867C36.2385 24.1798 35.9717 27.073 36.8722 29.6661C37.3808 31.1335 39.7403 30.5082 39.2234 29.0157C38.5063 26.9646 38.6815 24.7468 38.6815 22.6123C38.6815 20.3695 38.7065 18.1266 38.7398 15.8754C38.7732 13.7243 38.8065 11.5732 38.8482 9.42203C38.8816 7.51269 38.5564 4.76123 39.8487 3.17706C41.8331 0.750781 43.0337 5.00303 43.3422 6.37876C43.8008 8.47153 43.9843 10.6644 43.9426 12.7988C43.9009 14.8999 43.1755 16.6925 42.4084 18.6186C41.658 20.5029 41.0494 22.4372 40.5575 24.4133C40.1823 25.9391 42.5335 26.5811 42.9087 25.0636L42.9004 25.0553Z" fill="black"/>
<path d="M230.693 65.4768C228.25 63.5841 225.09 63.2506 222.097 63.2506C220.329 63.2506 218.52 63.1422 216.752 63.1839C214.926 63.2339 213.134 63.5008 211.299 63.4674C204.587 63.3423 198.109 61.3913 191.873 59.0317C188.746 57.8561 185.669 56.5638 182.568 55.3298C181 54.7044 179.424 54.0875 177.848 53.5038C177.106 53.2287 176.348 52.9952 175.614 52.7034C174.497 52.2532 173.88 51.5945 173.029 50.744C170.711 48.4261 168.418 46.5001 165.634 44.7575C163.016 43.115 160.297 41.6392 157.554 40.2135C152.477 37.5537 147.257 35.0524 142.596 31.6923C140.287 30.0247 138.144 28.1154 136.318 25.9309C134.334 23.5463 133.133 20.7031 131.257 18.2435C128.064 14.0496 123.57 11.1648 118.167 11.3816C113.223 11.5817 109.379 13.9412 105.935 17.3347C101.258 21.9538 97.3058 27.3817 92.0364 31.3671C86.5501 35.511 79.8132 38.2374 72.968 35.8195C69.8163 34.7105 67.4067 32.5427 65.9142 29.5745C64.5552 26.8814 63.663 23.8632 61.4035 21.7454C57.2763 17.885 51.0314 18.1852 46.2288 20.478C43.494 21.7871 40.9844 23.7381 38.7916 25.8225C37.7994 26.773 37.0407 27.7569 36.8739 29.166C36.6655 30.9586 37.4575 32.6845 37.2574 34.4688C37.0656 36.1697 36.2402 37.7872 35.6482 39.3797C34.9562 41.2056 34.3058 43.0566 33.6972 44.9076C32.5466 48.3928 31.5377 51.9196 30.6623 55.4799C29.7785 59.0901 29.1448 62.7337 28.4444 66.3773C28.2276 67.5029 27.9442 69.2205 26.7936 69.7874C25.3595 70.4961 23.4918 69.4956 21.941 70.1459C19.6815 71.0964 19.8065 74.0313 17.8388 75.0735C17.6304 75.1903 17.497 75.332 17.3969 75.4988C14.2036 76.4826 11.0352 77.5415 7.89191 78.6921C5.55735 79.5509 2.6975 80.318 1.1717 82.4441C-1.95496 86.7881 1.84703 92.4827 4.74857 95.8012C8.36715 99.9284 13.103 102.938 17.9055 105.498C20.2234 106.732 22.6247 108.174 25.126 109.025C26.5434 109.508 28.0192 109.575 29.1531 108.808C31.7712 110.567 34.8478 111.126 37.9495 111.735C42.3268 112.593 46.7124 113.627 51.1231 114.319C51.9485 114.444 52.7239 114.519 53.541 114.369C54.3831 114.219 55.1835 113.569 56.0006 113.46C56.9928 113.327 57.4931 114.169 58.1518 114.694C58.8021 115.203 59.5442 115.52 60.353 115.703C64.1216 116.562 68.5239 116.17 72.3343 115.787C76.4865 115.362 80.6053 114.528 84.5824 113.26C88.6346 111.968 92.3448 109.967 96.2969 108.433C98.2813 107.666 100.366 107.04 102.517 107.099C104.61 107.157 106.544 107.974 108.503 108.625C110.196 109.183 111.964 109.642 113.756 109.475C114.473 109.408 115.157 109.2 115.857 109.05C117.466 108.716 117.592 110 118.15 111.143C118.851 112.577 120.218 113.127 121.677 113.511C124.137 114.161 126.646 114.653 129.148 115.128C134.259 116.104 139.42 116.812 144.606 117.296C145.206 117.354 145.898 116.687 145.823 116.079C145.448 113.002 149.467 115.603 150.759 116.087C152.201 116.629 153.719 116.921 155.253 117.004C156.879 117.096 158.546 116.912 160.114 116.47C160.781 116.287 161.465 115.853 162.132 115.728C163.007 115.57 164.166 115.937 165.033 116.054C168.043 116.479 172.004 117.713 174.947 116.529C176.873 115.753 178.174 113.619 177.632 111.66C177.957 111.643 178.274 111.626 178.599 111.626C178.699 111.626 178.799 111.618 178.907 111.618C179.608 111.718 180.275 111.935 180.892 112.368C181.942 113.119 182.584 113.686 183.96 113.527C185.627 113.335 187.32 112.627 188.929 112.168C190.889 111.601 192.873 111.084 194.824 110.476C195.866 110.15 196.583 109.375 197.567 109.117C199.41 108.641 201.269 108.408 203.087 107.824C204.096 107.507 205.655 107.216 206.163 106.132C206.197 106.057 206.213 105.982 206.23 105.915C206.355 105.948 206.489 105.99 206.614 106.023C206.939 106.14 207.522 106.165 207.898 106.173C211.249 106.282 214.418 104.197 217.294 102.73C218.812 101.954 220.379 101.229 221.855 100.362C223.297 99.5031 224.298 98.4192 225.507 97.2936C226.608 96.2681 228.067 95.7678 229.251 94.8423C230.351 93.9752 231.21 92.8496 231.877 91.624C233.411 88.8225 234.303 85.5374 234.795 82.4024C235.654 76.9495 235.504 69.2205 230.685 65.4935L230.693 65.4768ZM56.9428 110.951C56.8344 110.934 56.7177 110.926 56.5926 110.917C56.5926 110.901 56.5926 110.892 56.5926 110.876C56.5926 110.867 56.5926 110.859 56.5926 110.842C56.7094 110.859 56.8344 110.867 56.9511 110.884C56.9511 110.901 56.9511 110.917 56.9428 110.943V110.951ZM85.8915 106.432C77.6454 108.458 69.0409 109.65 60.5614 108.866C50.7229 107.958 40.9177 106.298 31.1375 104.956C30.9458 104.931 30.7623 104.948 30.5956 104.989C30.4455 104.956 30.2871 104.923 30.137 104.898C29.9619 104.823 29.7785 104.764 29.6117 104.681C29.0281 104.389 28.5195 103.964 27.9358 103.672C27.2855 103.347 26.5935 103.097 25.9181 102.838C23.7503 102.013 21.5741 101.212 19.398 100.412C17.8388 99.5532 16.313 98.6193 14.8289 97.6438C11.2354 95.2842 7.82519 92.6412 4.43173 89.9981C4.25664 89.8564 4.06489 89.7897 3.88146 89.7563C3.61465 89.4895 3.3645 89.206 3.13104 88.9059C3.13938 88.9225 3.1477 88.9309 3.16438 88.9475C3.13936 88.9059 3.09768 88.8808 3.06433 88.8392C2.13884 86.5713 2.08048 84.2617 4.37336 82.8026C6.32439 81.5603 8.82572 80.9266 11.0019 80.1596C11.7856 79.8844 12.5777 79.651 13.3698 79.3842C13.4949 79.6676 13.72 79.9094 14.0618 80.0428C20.9404 82.7609 28.1026 84.6286 35.4398 85.5708C42.5019 86.4796 49.5306 86.5046 56.4676 88.3222C68.4156 91.4489 79.2796 97.7439 88.8346 105.473C87.8841 105.848 86.9087 106.182 85.8915 106.432ZM104.076 101.638C101.658 101.312 99.1985 101.371 96.8389 102.121C94.9212 102.73 93.1286 103.589 91.3277 104.406C81.5975 96.3765 70.575 89.7563 58.3769 86.3212C51.515 84.3868 44.6446 84.1283 37.6076 83.3946C30.3788 82.6442 23.2834 80.9016 16.4714 78.367C17.1218 78.1585 17.7554 77.9334 18.4058 77.7333C18.756 77.6249 18.9811 77.4081 19.1145 77.1496C20.4902 76.3909 21.0655 74.4816 22.0243 73.2809C22.1494 73.5561 22.3912 73.7729 22.8081 73.8312C36.9656 75.7989 51.2398 77.4165 65.2639 80.2096C79.2379 82.9861 92.7034 87.7803 106.652 90.6401C111.388 91.6156 116.166 92.4244 120.96 93.1247C116.699 92.9497 112.122 93.4749 108.27 95.1341C105.735 96.2264 103.459 99.0279 104.068 101.638H104.076ZM230.976 87.5802C230.843 87.9637 230.701 88.3389 230.551 88.7141C230.501 88.7641 230.451 88.7975 230.41 88.8642C228.367 91.9992 224.456 93.3666 221.396 95.2676C217.995 97.3853 214.718 99.87 210.933 101.279C209.132 101.946 207.289 102.205 205.405 102.513C203.437 102.847 201.786 103.572 199.977 104.381C197.317 105.573 194.415 106.082 191.714 107.132C189.688 107.591 187.654 108.024 185.603 108.399C184.127 108.675 182.626 109.016 181.125 109.175C180.558 109.233 179.983 109.233 179.416 109.225C178.282 109.058 177.123 109.117 175.981 109.217C175.714 109.242 175.505 109.35 175.33 109.483C174.597 109.608 173.863 109.759 173.138 109.934C171.028 110.025 168.86 110.526 166.784 110.617C163.307 110.759 159.814 110.742 156.329 110.759C153.027 110.776 149.717 110.767 146.415 110.751C142.13 110.476 137.844 110.134 133.558 109.825C132.641 109.65 131.716 109.517 130.799 109.325C126.838 108.491 122.928 107.457 119.076 106.24C115.174 105.006 111.388 103.363 107.436 102.321C107.378 102.305 107.311 102.296 107.253 102.28C107.211 102.23 107.194 102.18 107.144 102.13C104.968 100.12 107.961 97.8272 109.787 97.1602C111.997 96.3515 114.415 95.9096 116.758 95.6928C121.519 95.2509 126.329 95.8595 130.832 97.4687C132.916 98.2108 134.934 99.1863 137.102 99.6949C139.328 100.212 141.554 100.162 143.805 99.8366C148.966 99.0862 153.844 97.7855 159.122 98.1024C163.974 98.3859 168.685 100.27 173.588 100.012C178.307 99.7616 182.534 97.2853 187.17 96.5182C189.563 96.1263 192.014 96.0513 194.424 96.2514C196.775 96.4432 199.126 97.1019 201.503 96.9601C205.646 96.71 207.756 93.8001 210.691 91.3238C216.586 86.3462 227.808 90.6068 232.144 83.428C231.844 84.837 231.477 86.2378 231.001 87.6052L230.976 87.5802ZM127.98 94.0669C134.917 94.934 141.888 95.5927 148.825 96.1597C149.15 96.1847 149.483 96.2014 149.809 96.2264C145.356 97.0268 140.937 98.3525 136.46 96.9601C134.317 96.2931 132.291 95.3176 130.148 94.6506C129.431 94.4254 128.714 94.242 127.98 94.0669ZM167.068 96.8767C171.12 96.835 175.155 96.6349 179.182 96.2264C177.823 96.71 176.456 97.1602 175.03 97.3937C172.37 97.8356 169.686 97.3937 167.068 96.8767ZM193.565 93.7584C199.343 92.3577 204.996 90.5401 210.557 88.464C209.857 88.8808 209.173 89.3561 208.523 89.9397C207.089 91.2321 205.83 92.8246 204.104 93.7584C201.653 95.0841 198.768 94.3254 196.166 93.9752C195.299 93.8585 194.432 93.7918 193.565 93.7417V93.7584ZM232.594 80.4014C231.985 79.9845 230.943 80.0845 230.618 80.9933C229.075 85.2456 223.673 85.7709 219.829 86.0794C218.186 86.2128 216.602 86.3879 215.085 86.7214C221.021 84.3618 226.874 81.7771 232.694 79.1757C232.669 79.5843 232.644 79.9845 232.602 80.393L232.594 80.4014ZM194.866 90.9569C181.15 94.5255 167.093 94.9841 153.01 94.0419C138.986 93.1081 124.854 91.5739 111.03 89.0143C97.2474 86.4629 84.0071 81.8521 70.3499 78.7922C56.3008 75.6405 41.9182 73.9646 27.644 72.0469C28.5362 71.6717 29.2615 70.9964 29.7451 70.1543C31.0958 67.8447 31.1625 64.7764 31.6711 62.2084C32.3631 58.7316 33.1803 55.2798 34.1308 51.8613C35.0813 48.4428 36.1652 45.066 37.3658 41.7309C38.4664 38.696 40.1006 35.7444 39.6253 32.4343C39.3085 30.2665 38.9917 28.9325 40.7593 27.315C42.0099 26.1644 43.319 25.0805 44.7364 24.1383C47.2627 22.4541 50.1392 21.1867 53.2242 21.1784C56.4509 21.1784 59.4358 22.5041 61.17 25.2972C62.7292 27.8069 63.4546 30.7335 65.2305 33.118C68.6323 37.6955 74.5771 39.5131 80.0967 39.0879C92.6617 38.1207 99.9489 26.3895 108.228 18.502C111.788 15.1085 116.316 12.9324 121.343 14.0413C124.045 14.6333 126.338 16.2841 128.172 18.2935C130.198 20.5114 131.324 23.2045 133.041 25.6141C139.428 34.5605 149.892 38.771 159.222 43.8487C161.773 45.2411 164.291 46.7086 166.692 48.3511C168.11 49.3266 169.31 50.4605 170.528 51.6778C171.503 52.6534 172.462 53.9791 173.688 54.6127C175.047 55.3131 176.723 55.6716 178.165 56.2136C179.741 56.8056 181.309 57.4309 182.876 58.0646C185.869 59.2652 188.846 60.4992 191.864 61.6248C197.701 63.7926 203.737 65.5435 209.982 65.8687C213.259 66.0354 216.544 65.752 219.821 65.7269C223.164 65.7019 227.149 65.3434 229.759 67.8864C231.96 70.0376 232.602 73.5311 232.736 76.5327C220.404 82.0439 207.989 87.5551 194.882 90.9653L194.866 90.9569Z" fill="black"/>
<path d="M19.5219 76.4989C27.0259 88.6137 35.2803 100.245 44.1933 111.367C45.1855 112.61 47.32 112.41 48.3622 111.367C49.5879 110.142 49.3627 108.449 48.3622 107.199C39.766 96.4678 31.8451 85.2119 24.608 73.5224C22.6153 70.304 17.5125 73.2639 19.5219 76.4989Z" fill="black"/>
<path d="M39.8403 108.074C41.2661 101.145 47.2692 97.0015 53.0556 93.7248C59.4006 90.1229 65.5289 86.5626 71.1485 81.8602C76.5597 77.3411 81.429 72.1967 85.8563 66.7105C88.1325 63.8923 90.3086 60.9908 92.3931 58.0309C94.4858 55.046 96.3952 51.8776 98.8298 49.1512C103.732 43.6733 109.944 39.7379 112.804 32.6758C113.404 31.1917 112.145 29.4491 110.744 29.0489C109.069 28.5653 107.718 29.6409 107.118 31.1083C104.8 36.828 98.8715 40.3466 94.8527 44.7656C89.9835 50.1267 86.4316 56.6385 81.8875 62.2832C77.4685 67.7777 72.6243 72.9388 67.2214 77.4745C61.6518 82.1603 55.4319 85.5038 49.1703 89.139C42.425 93.0577 35.8049 98.4689 34.154 106.498C33.3869 110.2 39.0733 111.784 39.8403 108.066V108.074Z" fill="black"/>
<path d="M121.235 30.7751C126.554 31.5588 133.15 33.7099 136.727 38.0122C138.594 40.2634 137.694 43.4067 136.718 45.858C135.618 48.6178 134.158 51.2692 132.791 53.9039C127.246 64.5429 120.952 75.1985 118.784 87.1548C117.433 94.6088 117.616 102.171 119.234 109.567C120.043 113.269 125.729 111.701 124.92 107.999C123.436 101.196 123.319 94.0752 124.762 87.2549C126.054 81.1267 128.439 75.3319 131.199 69.729C134.042 63.9509 137.227 58.3563 140.07 52.5866C142.83 46.992 145.865 40.0133 141.379 34.4353C137.102 29.1158 129.373 26.0726 122.811 25.0971C121.227 24.8636 119.659 25.4973 119.184 27.1565C118.784 28.5405 119.667 30.5499 121.243 30.7834L121.235 30.7751Z" fill="black"/>
<path d="M43.4371 104.164C48.7733 99.8949 54.4263 96.0262 60.321 92.566C66.2242 89.1058 72.6942 86.5045 77.8386 81.902C82.8329 77.433 86.9768 71.9968 91.6709 67.2193C96.4151 62.3834 101.384 57.7643 106.554 53.3786C112.424 48.401 118.56 43.7569 124.922 39.4213C128.04 37.2951 125.089 32.1841 121.945 34.3352C110.539 42.106 99.8085 50.8773 89.9783 60.5741C85.1675 65.3266 80.8152 70.471 76.1377 75.3402C71.2101 80.4679 64.9651 83.136 58.8786 86.6045C51.9833 90.5316 45.4632 95.0507 39.2683 100.003C38.0176 101.004 38.2427 103.122 39.2683 104.172C40.4856 105.414 42.2031 105.164 43.4371 104.172V104.164Z" fill="black"/>
<path d="M39.0003 32.1755C47.1129 36.5945 53.2912 43.5982 60.5617 49.1678C68.5909 55.3211 77.7374 59.9485 86.5588 64.8428C95.7803 69.9622 105.069 74.9815 114.557 79.5839C124.045 84.1864 133.025 87.9133 141.871 92.8326C150.868 97.8436 159.481 104.039 165.601 112.451C166.543 113.752 168.152 114.352 169.636 113.51C170.912 112.785 171.629 110.759 170.695 109.475C158.764 93.0827 140.045 85.0618 122.253 76.7324C112.714 72.2634 103.393 67.3691 94.1628 62.2998C85.0663 57.3138 75.6864 52.5363 67.1152 46.6665C58.3355 40.655 51.4068 32.2089 41.9852 27.0812C38.6501 25.2635 35.6736 30.3496 39.0087 32.1672L39.0003 32.1755Z" fill="black"/>
<path d="M160.496 42.481C157.353 42.5477 154.568 43.8067 151.825 45.6076C148.548 47.7504 145.338 50.0183 142.12 52.2528C135.441 56.9136 128.821 61.6578 122.193 66.3936C108.844 75.932 95.4618 85.4453 81.4961 94.0666C74.9676 98.0937 67.7222 102.104 64.2287 109.291C62.5778 112.693 67.6638 115.678 69.3147 112.268C72.0828 106.556 77.669 103.321 82.8885 100.128C89.517 96.0676 96.0204 91.8154 102.449 87.4381C115.097 78.8252 127.437 69.7787 139.935 60.9574C143.462 58.4644 147.006 55.9964 150.566 53.5535C152.334 52.3445 154.085 51.0855 155.91 49.9766C157.378 49.0844 159.212 48.0089 161.013 48.2757C162.597 48.5091 164.165 47.8838 164.64 46.2163C164.682 46.0745 164.698 45.9328 164.715 45.7827C162.781 45.2407 161.363 44.0234 160.488 42.481H160.496Z" fill="black"/>
<path d="M149.95 41.5138C145.748 46.6999 141.846 52.0027 138.569 57.8308C137.035 60.5572 135.484 63.2503 133.633 65.7683C131.89 68.1445 129.981 70.3957 128.238 72.772C124.586 77.7496 122.477 83.2442 120.859 89.164C119.117 95.5424 117.908 102.121 118.083 108.749C118.183 112.535 124.078 112.551 123.978 108.749C123.811 102.604 124.928 96.6346 126.546 90.7315C128.105 85.0201 130.164 79.9675 133.733 75.2066C137.276 70.4791 140.753 65.9767 143.655 60.8073C146.681 55.4212 150.225 50.4852 154.11 45.691C155.119 44.4487 155.303 42.7478 154.11 41.5221C153.085 40.4716 150.942 40.2882 149.942 41.5221L149.95 41.5138Z" fill="black"/>
<path d="M124.838 109.158C125.672 98.3272 129.616 87.8967 135.886 79.042C138.987 74.673 142.739 70.7376 146.908 67.3692C151.777 63.4338 156.555 60.0987 159.898 54.6625C161.891 51.4191 156.797 48.4592 154.812 51.6859C151.444 57.1638 146.091 60.2821 141.33 64.3843C137.036 68.0779 133.284 72.3968 130.099 77.0826C123.637 86.5877 119.827 97.7185 118.943 109.166C118.652 112.952 124.546 112.927 124.838 109.166V109.158Z" fill="black"/>
<path d="M162.383 48.3844C161.457 53.7706 159.539 58.8816 157.413 63.9009C155.062 69.4539 152.669 74.9901 150.276 80.5347C148.05 85.6958 145.624 90.7151 142.672 95.5093C139.679 100.362 136.427 105.048 133.601 110C131.716 113.302 136.811 116.27 138.687 112.977C141.572 107.916 144.907 103.138 147.95 98.1774C150.952 93.2664 153.378 88.1137 155.654 82.8359C158.039 77.2997 160.432 71.7718 162.775 66.2188C165.009 60.9494 167.085 55.6216 168.061 49.9519C168.703 46.2416 163.016 44.6491 162.374 48.3844H162.383Z" fill="black"/>
<path d="M172.704 110.951C172.571 102.088 175.405 93.6667 177.523 85.1705C178.565 80.9766 179.432 76.7244 179.791 72.4054C180.191 67.6529 179.799 62.8253 180.583 58.1062C181.2 54.3959 175.514 52.8034 174.897 56.5387C174.105 61.3246 174.271 66.1271 173.996 70.9546C173.738 75.4737 172.771 79.901 171.662 84.2784C169.436 93.058 166.667 101.796 166.809 110.951C166.868 114.736 172.762 114.753 172.704 110.951Z" fill="black"/>
<path d="M160.645 60.6489C163.33 64.3175 165.881 68.0945 168.132 72.055C170.425 76.0904 172.226 80.326 174.152 84.5366C176.036 88.6554 178.638 92.224 180.856 96.1427C183.048 100.028 183.924 104.439 184.824 108.766C185.591 112.476 191.278 110.909 190.511 107.199C189.577 102.705 188.568 98.2105 186.459 94.0999C184.349 90.0061 181.506 86.3959 179.547 82.202C177.596 78.0081 175.845 73.7559 173.585 69.7121C171.242 65.5265 168.574 61.5494 165.739 57.6807C164.789 56.3884 163.196 55.7797 161.704 56.6218C160.428 57.3472 159.711 59.3733 160.645 60.6573V60.6489Z" fill="black"/>
<path d="M212.477 99.6862C208.258 91.9405 204.398 83.7445 198.995 76.7324C196.31 73.2473 193.192 70.3207 189.723 67.6276C188.031 66.3186 186.246 65.1096 184.612 63.7339C183.361 62.6833 181.502 61.0075 181.777 59.1481C182.011 57.564 181.377 55.9965 179.718 55.5212C178.334 55.121 176.324 56.0048 176.091 57.5806C175.366 62.4749 177.992 66.0434 181.711 68.9033C185.521 71.8382 189.431 74.5896 192.641 78.2166C198.895 85.2786 202.905 94.4418 207.391 102.663C209.209 105.998 214.295 103.021 212.477 99.6862Z" fill="black"/>
<path d="M226.708 77.5995C223.207 74.131 218.604 71.4963 214.469 68.8616C211.959 67.2607 209.424 65.6849 206.898 64.084C206.356 64.1924 205.806 64.2508 205.239 64.2174C200.778 64.0006 196.251 62.825 192.023 60.9907C197.31 65.0429 202.988 68.5947 208.632 72.1383C212.626 74.6479 216.636 77.1743 220.422 79.9924C222.106 81.2431 223.699 82.6438 224.482 84.6532C225.299 86.771 225.349 89.1139 225.441 91.3484C225.599 95.1254 231.494 95.1504 231.336 91.3484C231.119 86.2791 230.469 81.3431 226.7 77.5995H226.708Z" fill="black"/>
<path d="M231.987 78.2834C231.128 75.3986 229.619 72.7472 227.951 70.2625C226.7 68.3949 225.408 66.5355 224.091 64.7012C222.473 64.5095 220.856 64.2927 219.238 64.1343C218.513 64.5178 217.721 64.8013 216.912 64.9847C218.896 67.5277 220.764 70.1541 222.573 72.8139C223.966 74.8566 225.366 76.9994 226.15 79.3673C227.026 82.0271 227.101 84.7618 226.85 87.53C226.709 89.1141 228.31 90.4732 229.794 90.4732C231.503 90.4732 232.603 89.1141 232.737 87.53C233.012 84.4533 232.87 81.2683 231.978 78.2918L231.987 78.2834Z" fill="black"/>
</svg>
