<svg width="172" height="130" viewBox="0 0 172 130" fill="none" xmlns="http://www.w3.org/2000/svg">
<path d="M121.27 83.3848C127.508 84.7631 133.943 84.7051 140.298 84.5963C143.642 84.5382 146.994 84.4367 150.338 84.618C153.574 84.7849 157.419 84.959 159.987 87.1789C161.967 88.8909 163.048 91.4155 163.607 93.9255C163.94 95.42 164.455 97.2916 163.2 98.4523C162.076 99.4897 160.357 100.172 159 100.854C152.282 104.249 145.006 106.345 137.803 108.434C137.599 108.493 137.454 108.594 137.331 108.717C114.189 116.53 89.7271 108.732 66.375 105.83C53.8828 104.278 41.2745 104.394 28.7388 103.487C25.9023 103.284 23.0657 103.008 20.2437 102.66C20.2437 102.638 20.2437 102.624 20.2365 102.602C17.9586 96.9216 14.3604 91.8943 12.2711 86.1342C10.1238 80.2146 9.26774 73.954 9.63771 67.6789C9.63771 67.6136 9.61602 67.57 9.61602 67.5047C9.73934 66.8083 9.86267 66.1046 9.97874 65.4082C22.3694 67.9908 34.9558 69.4054 47.5278 70.82C60.4625 72.2782 73.6439 73.5187 86.2812 76.7324C92.9336 78.4227 98.8243 82.108 105.455 83.7693C105.992 83.9071 106.412 83.6605 106.645 83.2977C107.131 83.1164 107.501 82.6593 107.29 82.021C106.703 80.2073 106.333 78.2994 105.955 76.3915C110.736 79.4456 115.655 82.1515 121.277 83.392L121.27 83.3848Z" fill="#E6E6E2"/>
<path d="M55.5831 22.3384C55.3001 19.5382 54.8504 16.7525 54.2265 14.003C53.929 12.6755 53.5881 11.3624 53.2036 10.0638C52.8771 8.9394 52.7828 7.82947 51.7018 7.2346C51.3174 7.02422 50.9619 7.07501 50.6645 7.2346C50.5194 7.2201 50.3598 7.2346 50.1857 7.3144C41.2917 10.8473 31.6287 9.55603 22.3212 10.5934C18.2442 11.0432 13.6087 11.7759 10.1193 14.0828C6.41222 16.5421 6.3905 20.5393 6.53559 24.58C6.62264 27.1409 6.82576 29.6944 7.07241 32.248C7.18123 33.4087 7.30455 34.5695 7.42787 35.7229C7.52218 36.6225 7.45687 37.7977 8.03722 38.5667C9.01658 39.8725 11.1856 39.5025 12.535 39.1833C15.1248 38.5739 17.6422 37.5728 20.2175 36.8909C29.8079 34.3591 39.6739 33.075 49.3441 30.8914C51.3972 30.4271 53.8855 30.1297 55.0535 28.1202C56.0546 26.3937 55.7862 24.2246 55.5976 22.3312L55.5831 22.3384Z" fill="black"/>
<path d="M41.8322 77.1748C40.3958 77.1748 40.3886 79.4092 41.8322 79.4092C43.2758 79.4092 43.2758 77.1748 41.8322 77.1748Z" fill="black"/>
<path d="M39.3632 81.092C38.3113 81.2589 37.2666 81.4257 36.2147 81.5999C36.0697 81.6216 35.9246 81.6434 35.7795 81.6724C35.852 81.6216 35.9174 81.5708 35.9899 81.5201C36.0842 81.4475 36.1785 81.375 36.2728 81.3097C37.0708 80.7728 37.8325 80.178 38.5797 79.5758C39.5591 78.7924 38.246 77.0585 37.2231 77.8203C36.5557 78.3208 35.881 78.8214 35.2136 79.3292C34.9742 79.4961 34.7276 79.6556 34.4809 79.8007C34.7711 79.039 35.0396 78.2628 35.2499 77.4793C35.5691 76.2968 33.77 75.4408 33.2041 76.616C32.6963 77.6752 32.1958 78.7271 31.688 79.779C31.3325 79.2421 30.9988 78.6763 30.7086 78.0959C30.1428 76.9788 28.2348 77.755 28.6628 78.9592C28.8152 79.38 28.9313 79.8007 28.953 80.2433C28.9675 80.4754 28.9675 80.7075 28.9385 80.9397C28.9385 80.9542 28.924 80.9832 28.9168 81.0122C28.5613 81.0122 28.1768 80.9397 27.8866 80.9324C27.3208 80.9107 26.755 80.8889 26.1891 80.8671C24.9558 80.8236 24.6294 82.8694 25.8916 83.0652C25.9932 83.0798 26.0875 83.087 26.1891 83.1015C26.2109 83.1015 26.2399 83.1015 26.2616 83.1015C27.4078 83.2394 28.5976 83.2466 29.7075 83.5803C30.4692 83.8125 31.4123 84.4291 31.3107 85.3286C29.6132 85.1545 27.9084 85.0675 26.1818 85.3431C25.6087 85.4375 25.2895 86.1194 25.3983 86.649C25.2387 87.2366 25.3766 87.962 25.645 88.5279C26.4285 90.1819 28.2276 91.3644 29.9107 91.9375C31.659 92.5323 33.6322 92.5033 35.3442 91.8141C37.2884 91.0234 38.928 89.5362 39.784 87.6066C40.1032 86.8884 39.7477 85.8727 38.8191 85.9235C37.0417 86.0178 35.2862 85.8147 33.5306 85.5898C33.5742 85.1473 33.5306 84.7193 33.4218 84.313C34.1763 84.3058 35.0251 84.0591 35.6417 83.9576C37.0853 83.7254 38.529 83.4933 39.9726 83.2611C40.5675 83.1668 40.9011 82.4196 40.7561 81.8828C40.5819 81.2444 39.9798 81.005 39.3777 81.0993L39.3632 81.092ZM33.3782 88.7673C32.8704 88.9631 32.3336 89.0937 31.7968 89.1082C30.6288 89.1445 29.5261 88.7383 28.6121 88.0491C28.6919 88.0636 28.7644 88.0708 28.8442 88.0854C29.6639 88.2159 30.4764 88.361 31.2962 88.4916C31.9854 88.6004 32.6818 88.6947 33.3782 88.7673Z" fill="black"/>
<path d="M170.289 102.021C169.665 100.041 168.605 97.4366 166.248 97.3568C166.545 95.0934 165.624 92.2641 164.848 90.3707C163.883 88.0202 162.345 85.8874 160.161 84.5308C157.405 82.826 153.85 82.5794 150.687 82.398C143.367 81.97 136.026 82.739 128.699 82.1949C124.448 81.8757 120.211 81.114 116.25 79.5107C112.354 77.9365 108.814 75.6078 105.317 73.3082C104.694 70.6168 103.816 68.0342 102.082 65.7998C102.517 65.1251 102.612 64.3416 102.59 63.5509C102.59 63.2607 102.467 62.9706 102.263 62.7602C102.068 62.5643 101.748 62.4192 101.473 62.4337C100.878 62.4627 100.341 62.927 100.355 63.5509C100.355 63.667 100.348 63.7903 100.348 63.9064C99.8912 63.4639 99.4196 63.0286 98.9844 62.5643C98.7232 62.2886 98.4765 61.9912 98.2226 61.701C98.8102 59.8729 98.1573 57.6168 96.3365 56.7607C95.5167 56.3762 94.6679 56.3472 93.8047 56.4633C92.8833 55.3606 91.9621 54.2579 91.0335 53.1553C91.447 52.2557 91.6283 51.2691 91.0117 50.384C90.4604 49.5933 89.6769 48.8026 88.7556 48.4761C87.9576 48.1932 87.0508 48.3673 86.2165 48.5777C85.3532 47.816 84.5045 47.047 83.6847 46.249C83.7355 45.2261 83.5759 44.1742 83.1986 43.2239C82.8214 42.2663 82.2338 41.0911 81.298 40.5615C80.7611 40.2568 80.1735 40.2423 79.5714 40.3003C79.2522 40.3293 78.9403 40.3801 78.6211 40.4237C78.106 39.691 77.6127 38.9437 77.1557 38.1603C77.1847 38.066 77.2137 37.9789 77.2209 37.8701C77.2645 36.6731 77.279 35.4906 77.0759 34.3081C76.88 33.1619 76.4157 31.8779 75.3493 31.2613C75.313 31.2395 75.2695 31.225 75.2332 31.2032C75.2985 31.0654 75.3348 30.913 75.3493 30.7534C75.5452 28.2361 75.5596 25.2836 73.4776 23.4772C73.4268 23.4337 73.3688 23.4047 73.318 23.3611C73.4994 20.1837 73.717 16.4041 70.8588 14.3293C70.3945 13.9956 69.8794 13.7199 69.3426 13.4733C68.7332 11.4058 67.8845 9.44706 66.4771 7.82931C64.2935 5.31201 61.2756 4.65911 58.1634 4.78244C58.1344 4.7244 58.1127 4.65911 58.0836 4.60107C58.0691 4.5648 58.0474 4.52127 58.0329 4.485C57.9604 4.30364 57.8805 4.12953 57.808 3.94817C57.6701 3.61447 57.5323 3.28076 57.4018 2.94706C57.1479 2.31592 56.9085 1.68478 56.6691 1.05364C56.6328 0.502298 56.1467 -0.0345324 55.5664 0.00173992C52.7589 0.183102 50.1182 1.3148 48.0217 3.18645C47.0278 4.0715 46.1646 5.14516 45.5189 6.30587C45.1417 6.9878 44.7934 7.72775 44.6483 8.48947C44.496 9.31648 44.5903 10.1798 44.3654 10.9923C43.9882 12.3851 46.1428 12.9727 46.5201 11.5871C46.7232 10.8472 46.7159 10.0855 46.7739 9.32374C46.8247 8.6926 47.0786 8.11949 47.3688 7.5609C47.9129 6.53802 48.6238 5.63846 49.4799 4.86224C50.9453 3.52016 52.8241 2.64962 54.7901 2.35219C55.131 3.23723 55.4866 4.11502 55.8493 4.98556C54.5653 5.16692 53.2957 5.43534 52.0987 5.71101C52.0769 5.71101 52.0552 5.71101 52.0334 5.71101C51.9246 5.71101 51.8085 5.73277 51.7069 5.75453C51.6852 5.75453 51.6707 5.75454 51.6489 5.76904C51.5329 5.79806 51.4168 5.8561 51.308 5.90688C51.1992 5.96492 51.1048 6.04471 51.0178 6.12451C50.8945 6.22608 50.7929 6.35666 50.7276 6.50175C50.6115 6.7484 50.5317 6.9878 50.539 7.26347C50.539 7.44483 50.568 7.63344 50.6333 7.80755C50.6913 7.9744 50.7639 8.14126 50.851 8.2936C50.8727 8.32987 50.8872 8.3734 50.909 8.40967C50.909 8.40967 50.909 8.42418 50.909 8.43144C50.909 8.49673 50.8872 8.56202 50.9017 8.62005C50.9017 8.7724 50.9525 8.91023 51.0323 9.03356C51.0904 9.14237 51.1774 9.21492 51.2644 9.28746C51.9609 11.8991 52.5267 14.5324 52.9257 17.2093C53.2086 19.0955 53.4045 21.0034 53.5278 22.9041C53.6221 24.3477 53.8833 26.0235 53.5641 27.4527C52.8967 30.4488 48.116 30.2892 45.7583 30.6156C42.1601 31.1162 38.5691 31.682 34.9854 32.3132C28.1082 33.5174 21.2019 34.8522 14.4407 36.6223C12.3369 37.1737 10.4362 38.0442 9.631 40.1915C8.89104 42.1502 8.75322 44.6022 8.83302 46.7858C8.82577 46.8656 8.79681 46.9237 8.80406 47.0107C8.83308 47.3734 8.84757 47.7362 8.86933 48.0989C8.86933 50.4856 8.8766 52.8723 8.88385 55.2663C8.32526 65.1179 5.66279 74.7808 4.00152 84.5091C3.50822 87.4036 3.102 90.3127 2.85534 93.2435C2.68124 95.3473 2.01386 98.5755 3.34869 100.483C3.31967 100.505 3.29066 100.512 3.2689 100.541C1.31019 102.587 0.940146 105.707 0.570168 108.398C0.120391 111.677 0.0406413 114.978 0.0769137 118.279C0.0986771 120.368 -0.590515 123.807 1.7817 124.815C4.56016 125.997 8.00605 126.121 10.9586 126.541C17.698 127.506 24.4519 128.435 31.2421 128.921C34.7533 129.175 38.2717 129.305 41.7974 129.255C44.4888 129.218 48.3336 129.697 50.6188 128.05C50.8364 127.891 50.9525 127.688 51.0251 127.477C51.1919 127.216 51.2572 126.89 51.2064 126.556C50.8655 124.438 53.1071 122.726 54.3911 121.413C55.9001 119.867 57.1478 117.952 56.9229 115.754C65.6283 115.979 74.2176 117.618 82.7125 119.519C83.8442 119.773 84.9687 120.027 86.1004 120.288C86.4124 120.361 87.5223 120.426 87.7109 120.745C87.8705 121.014 87.6674 122.08 87.6674 122.385C87.6674 123.901 88.1027 125.25 89.5971 125.874C91.4107 126.629 93.7031 126.817 95.6401 127.071C97.4537 127.31 99.26 127.419 101.074 127.39C101.095 127.39 101.11 127.398 101.132 127.398C101.211 127.398 101.291 127.398 101.371 127.39C101.422 127.39 101.465 127.39 101.516 127.39C107.828 127.151 114.161 127.064 120.458 126.578C126.682 126.099 132.732 124.576 138.804 123.175C144.869 121.783 151.05 120.586 156.832 118.221C159.45 117.154 161.989 115.899 164.405 114.434C166.509 113.164 169.237 111.713 170.825 109.805C172.436 107.876 170.905 104.067 170.26 102.007L170.289 102.021ZM121.27 83.3846C127.509 84.763 133.944 84.7049 140.299 84.5961C143.643 84.5381 146.994 84.4365 150.339 84.6179C153.574 84.7847 157.419 84.9589 159.987 87.1787C161.968 88.8908 163.049 91.4153 163.607 93.9254C163.941 95.4198 164.456 97.2915 163.201 98.4522C162.077 99.4896 160.357 100.171 159.001 100.853C152.283 104.249 145.007 106.345 137.803 108.434C137.6 108.492 137.455 108.594 137.331 108.717C114.19 116.53 89.7277 108.732 66.3755 105.83C53.8833 104.278 41.2751 104.394 28.7393 103.487C25.9028 103.284 23.0663 103.008 20.2443 102.66C20.2443 102.638 20.2443 102.624 20.237 102.602C17.9591 96.9215 14.3609 91.8941 12.2716 86.1341C10.1243 80.2144 9.26828 73.9538 9.63826 67.6787C9.63826 67.6134 9.61656 67.5699 9.61656 67.5046C9.73989 66.8082 9.86321 66.1045 9.97929 65.4081C22.3699 67.9906 34.9564 69.4053 47.5284 70.8199C60.4631 72.278 73.6445 73.5186 86.2818 76.7323C92.9341 78.4226 98.8248 82.1078 105.455 83.7691C105.992 83.907 106.413 83.6603 106.645 83.2976C107.131 83.1162 107.501 82.6592 107.291 82.0208C106.703 80.2072 106.333 78.2992 105.956 76.3913C110.737 79.4455 115.655 82.1514 121.277 83.3919L121.27 83.3846ZM100.174 67.8963C100.16 67.9471 100.138 68.0052 100.123 68.0559C100.123 68.0632 100.116 68.0777 100.109 68.085C100.109 68.0922 100.094 68.1067 100.094 68.114C100.094 68.114 100.094 68.114 100.087 68.114C100.08 68.114 100.065 68.114 100.058 68.114C99.9709 68.114 99.8912 68.114 99.8041 68.1067C99.7823 68.1067 99.7533 68.0995 99.7316 68.0922C99.6663 68.0777 99.5937 68.0559 99.5284 68.0414C99.4922 68.0342 99.4559 68.0197 99.4269 68.0052C99.3688 67.9689 99.2672 67.9326 99.2237 67.9036C99.1512 67.8673 99.0859 67.8238 99.0134 67.773C98.9916 67.7585 98.9989 67.7658 98.9844 67.7585C98.9191 67.7005 98.8465 67.6352 98.7812 67.5699C98.7667 67.5554 98.6797 67.4538 98.6362 67.403C98.6216 67.3885 98.6144 67.3668 98.5998 67.3523C98.5491 67.2725 98.4983 67.1927 98.4548 67.1056C98.4403 67.0766 98.4257 67.0403 98.404 67.0113C98.3822 66.9242 98.2734 66.6123 98.2662 66.5688C98.2589 66.5325 98.2516 66.4962 98.2444 66.46C98.2444 66.3874 98.2226 66.2786 98.2226 66.2206C98.2226 66.148 98.2226 66.0755 98.2226 66.0029C98.2226 65.9739 98.2226 65.9449 98.2226 65.9159C98.2226 65.9014 98.2299 65.8868 98.2371 65.8578C98.5128 65.9159 98.8102 65.8578 99.0569 65.7127C98.8755 65.8941 98.7667 66.2133 98.7667 66.4454C98.7667 66.7211 98.8901 67.0476 99.0932 67.2362C99.3036 67.4321 99.5865 67.5771 99.8839 67.5626C99.9855 67.5481 100.08 67.5336 100.181 67.5264C100.218 67.5191 100.232 67.4901 100.268 67.4756C100.239 67.6134 100.218 67.744 100.181 67.8746L100.174 67.8963ZM90.5474 59.3941C90.5474 59.3941 90.5184 59.3723 90.5039 59.3651C90.3081 59.1765 90.1122 58.9878 89.9308 58.7775C89.9308 58.792 89.9381 58.792 89.9453 58.8065C89.909 58.7412 89.8582 58.6832 89.8147 58.6251C89.7349 58.5091 89.6623 58.393 89.6043 58.2697C89.597 58.2551 89.5608 58.1826 89.5463 58.1391C89.539 58.1101 89.5245 58.0883 89.5245 58.0738C89.5172 58.0448 89.5101 58.0085 89.5028 57.9795C89.5101 57.9214 89.539 57.8634 89.5318 57.7981C89.5608 57.7981 89.5898 57.7981 89.6116 57.7981C89.6333 57.7981 89.6479 57.7981 89.6696 57.8126C89.6842 57.8126 89.6986 57.8199 89.7059 57.8271C89.7494 57.8489 89.7929 57.8707 89.8292 57.8924C89.8655 57.9142 89.9018 57.9432 89.9381 57.965C89.9381 57.965 89.9453 57.9722 89.9526 57.9795C89.9526 57.994 89.9526 58.0012 89.9526 58.0157C89.9743 58.5308 90.3008 58.9226 90.7651 59.0676C90.7651 59.0749 90.7796 59.0894 90.7796 59.0967C90.8086 59.1547 90.8375 59.22 90.8738 59.278C90.8811 59.2998 90.8884 59.3143 90.9029 59.3361C90.9174 59.3868 90.9247 59.4376 90.9392 59.4812C90.8884 59.4812 90.8304 59.4812 90.7796 59.4812C90.7578 59.4812 90.736 59.4812 90.7142 59.4666C90.6997 59.4666 90.6853 59.4594 90.678 59.4521C90.6345 59.4304 90.5909 59.4086 90.5619 59.3941H90.5474ZM82.9302 52.263C82.9302 52.263 82.9665 52.2484 82.9882 52.2412C82.9882 52.2412 82.981 52.2412 82.981 52.2484C82.9593 52.2484 82.952 52.2484 82.9375 52.263H82.9302ZM82.981 52.2484L82.9882 52.2412C83.0027 52.2412 83.0245 52.2339 83.039 52.2412C83.0318 52.2412 83.0028 52.2412 82.981 52.2484ZM82.9229 52.0381C82.9229 52.0381 82.9157 52.0816 82.9084 52.1034C82.9084 52.1034 82.9084 52.1106 82.9084 52.1179C82.9084 52.1324 82.9084 52.1179 82.9084 52.1324C82.9084 52.1469 82.9084 52.1686 82.9012 52.1832C82.9012 52.2049 82.8795 52.2412 82.8722 52.2775C82.7997 52.2775 82.7271 52.2775 82.6545 52.2775C82.6255 52.2775 82.6038 52.2775 82.5747 52.2775C82.4949 52.2557 82.4007 52.2412 82.3209 52.2194C82.2773 52.2049 82.2338 52.1904 82.1902 52.1759C82.2047 52.1832 82.1975 52.1759 82.2265 52.1977C82.154 52.1396 82.0525 52.1106 81.9799 52.0671C81.9654 52.0598 81.9436 52.0453 81.9146 52.0236C81.9581 52.0598 81.9944 52.1034 81.9146 52.0308C81.9146 52.0308 81.9073 52.0236 81.9 52.0163C81.8855 52.0018 81.8638 51.9873 81.8493 51.9873C81.8566 51.9873 81.8711 52.0018 81.8929 52.009C81.8348 51.951 81.784 51.9002 81.7259 51.8422C81.7042 51.8059 81.6824 51.7696 81.6607 51.7334C81.6462 51.7116 81.6389 51.6899 81.6244 51.6681C81.6244 51.6753 81.6244 51.6898 81.6244 51.6898C81.6244 51.6898 81.6244 51.6681 81.6244 51.6608C81.6244 51.6536 81.6172 51.6463 81.6099 51.6391C81.6099 51.6246 81.6099 51.6318 81.6027 51.6246C81.6027 51.6246 81.6027 51.6391 81.6099 51.6463C81.6099 51.6391 81.6099 51.6318 81.6099 51.6246C81.6172 51.61 81.6316 51.6028 81.6389 51.5883C81.7695 51.3416 81.8638 50.9934 81.755 50.725C81.7187 50.6379 81.6824 50.5436 81.6607 50.4493C81.6607 50.4348 81.6607 50.4203 81.6534 50.4058C81.6534 50.3695 81.6534 50.3115 81.6607 50.2462C81.6607 50.2462 81.6607 50.2462 81.6607 50.239C81.6607 50.239 81.6607 50.239 81.6607 50.2317C81.6607 50.2244 81.6607 50.2317 81.6607 50.2099V50.2317C81.6679 50.2244 81.6825 50.2099 81.6897 50.2027C81.7478 50.2172 81.813 50.2317 81.8493 50.2462C81.8566 50.2462 81.8711 50.2535 81.8783 50.2607C81.9581 50.3042 82.0379 50.3478 82.1105 50.3913C82.1395 50.4058 82.1685 50.4276 82.1975 50.4493C82.1975 50.4493 82.1975 50.4493 82.1975 50.4566C82.183 50.4493 82.1757 50.4493 82.1975 50.4566C82.0959 50.7685 82.1104 51.124 82.2773 51.3852C82.4441 51.6463 82.669 51.7987 82.9229 51.8712C82.9229 51.9438 82.9229 52.0236 82.9157 52.0961C82.9157 52.0743 82.9157 52.0816 82.9302 52.0453L82.9229 52.0381ZM81.6679 50.1809C81.6607 50.1809 81.6679 50.1809 81.6534 50.1882C81.6534 50.1882 81.6534 50.1882 81.6534 50.1809C81.6534 50.1809 81.6534 50.1809 81.6607 50.1809H81.6679ZM81.6534 50.1954C81.6171 50.2027 81.6171 50.2027 81.6534 50.1882C81.6534 50.1882 81.6534 50.1882 81.6534 50.1954ZM81.6825 50.1592C81.6825 50.1374 81.697 50.1229 81.697 50.1084C81.697 50.1446 81.6897 50.1374 81.6825 50.1592ZM74.2757 43.5503C74.1886 43.5286 74.1015 43.4996 74.0144 43.4705C73.9854 43.456 73.9637 43.4488 73.9346 43.4343C73.8548 43.3907 73.7823 43.3327 73.7025 43.2892C73.6663 43.2529 73.6227 43.2166 73.5864 43.1804C73.5647 43.1586 73.5357 43.1296 73.5139 43.1006C73.4994 43.0788 73.4921 43.057 73.4776 43.0353C73.5647 42.7523 73.5501 42.4404 73.376 42.172C73.3688 42.1575 73.3398 42.1067 73.318 42.0559C73.318 41.9181 73.3036 41.7802 73.26 41.6424C73.2455 41.6497 73.2237 41.6497 73.2092 41.6497C73.2092 41.6497 73.2092 41.6497 73.2165 41.6497C73.231 41.6497 73.2455 41.6497 73.26 41.6424C73.26 41.6424 73.26 41.6352 73.26 41.6279C73.26 41.6279 73.26 41.6279 73.2746 41.6279C73.2891 41.6279 73.2963 41.6279 73.3108 41.6279C73.3108 41.6279 73.289 41.6352 73.2817 41.6424C73.2962 41.6424 73.3108 41.6352 73.3253 41.6279C73.3543 41.6279 73.3833 41.6279 73.4123 41.6279C73.4414 41.6279 73.4631 41.6279 73.4921 41.6279C73.5864 41.6569 73.6808 41.6714 73.7751 41.7077C73.7823 41.7077 73.7896 41.715 73.8041 41.715C73.8114 41.715 73.804 41.715 73.8258 41.7222C73.8476 41.7295 73.8621 41.744 73.8839 41.7512C73.688 42.0124 73.5937 42.3461 73.688 42.6943C73.7968 43.0933 74.1595 43.4052 74.5585 43.485C74.544 43.5141 74.5295 43.5358 74.515 43.5648C74.486 43.5648 74.4643 43.5648 74.4425 43.5648C74.4425 43.5648 74.4425 43.5793 74.4135 43.5648C74.399 43.5648 74.3844 43.5648 74.3699 43.5576C74.3481 43.5576 74.3264 43.5576 74.3119 43.5576C74.3337 43.5576 74.341 43.5576 74.3627 43.5576C74.341 43.5576 74.3119 43.5503 74.2901 43.5431L74.2757 43.5503ZM73.2673 41.9689C73.2673 41.9689 73.2673 41.9616 73.2673 41.9544C73.2818 41.9689 73.2963 41.9906 73.3035 42.0124C73.289 41.9906 73.2818 41.9761 73.2746 41.9616L73.2673 41.9689ZM74.5658 43.5794H74.5513C74.544 43.5794 74.5441 43.5866 74.5296 43.5939C74.5296 43.5939 74.5441 43.5866 74.5441 43.5794C74.5441 43.5794 74.5368 43.5794 74.5296 43.5794C74.5296 43.5794 74.5296 43.5794 74.5296 43.5721C74.5949 43.5431 74.6601 43.5576 74.5585 43.5794H74.5658ZM74.4715 43.6229C74.4715 43.6229 74.4933 43.6011 74.5078 43.5939C74.5078 43.5939 74.5078 43.5939 74.5078 43.6011C74.5005 43.6011 74.486 43.6084 74.486 43.6156L74.4715 43.6229ZM74.5223 43.5721C74.5223 43.5721 74.5223 43.5721 74.5296 43.5648C74.5296 43.5648 74.5296 43.5648 74.5296 43.5721H74.5223ZM73.2019 29.2735C72.7377 27.9024 72.3242 26.5168 71.9397 25.1167C73.0859 26.1396 73.2527 27.7283 73.2019 29.2735ZM71.0692 19.0737C71.178 20.0096 71.1707 20.9672 71.1417 21.9248C70.7645 20.2345 70.467 18.4426 70.1115 16.6653C70.6919 17.3254 70.9676 18.1887 71.0692 19.0737ZM50.9162 8.32262C50.9162 8.32262 50.9162 8.2936 50.9162 8.27909C50.9162 8.30086 50.9162 8.32262 50.9162 8.33713C50.9162 8.33713 50.9162 8.32262 50.9162 8.31536V8.32262ZM11.2778 43.5358C11.4519 42.0559 11.4809 40.5107 12.8448 39.6039C13.9112 38.9002 15.4201 38.6898 16.6461 38.3997C18.4742 37.9644 20.3024 37.5436 22.1305 37.1374C29.1166 35.5994 36.1534 34.3009 43.2265 33.2345C47.8186 32.5453 55.5518 32.9733 55.8928 26.6837C56.2265 20.4594 54.8699 13.7707 53.1724 7.77128C55.7187 7.18367 58.5479 6.63958 61.087 7.15465C63.88 7.7205 65.6355 9.93311 66.6076 12.4867C66.4843 12.4504 66.361 12.4069 66.2449 12.3779C65.7371 12.2255 65.222 12.1095 64.707 12.0151C64.6344 11.7685 64.5474 11.5291 64.4386 11.2897C64.4241 11.2534 64.3878 11.2317 64.366 11.1954C64.3153 11.0576 64.2354 10.9197 64.1266 10.8036C63.2053 9.76626 61.6747 9.22217 60.3036 9.37452C59.5201 9.46157 58.7946 9.78077 58.2868 10.4047C57.8007 10.9923 57.5323 11.6887 57.4888 12.4577C57.409 13.9303 58.3593 15.3159 59.5418 16.1139C60.1439 16.5129 60.8693 16.7596 61.5948 16.7813C62.3783 16.8031 63.0965 16.5129 63.6986 16.0269C64.2209 15.5989 64.5909 14.9677 64.7722 14.3148C65.106 14.3946 65.4325 14.4817 65.7517 14.576C66.2885 14.7356 66.8398 14.9097 67.3839 15.1055C67.7974 16.8104 68.0803 18.5514 68.4503 20.2562C68.5736 20.8148 68.7115 21.3662 68.8348 21.9248C68.4721 21.9175 68.1094 21.9248 67.7394 21.9393C67.6378 21.7724 67.5435 21.5983 67.4347 21.4387C67.0139 20.8366 66.5496 20.3215 65.8532 20.0386C65.1785 19.7702 64.4893 19.966 63.88 20.2925C63.8292 20.2925 63.7784 20.2635 63.7276 20.2635C63.2779 20.307 62.8861 20.4448 62.5886 20.8003C62.3275 21.105 62.1607 21.4677 62.0663 21.8595C61.914 22.4979 61.9358 23.158 62.0954 23.7892C62.2332 24.3405 62.4726 24.8991 62.7991 25.3634C63.2271 25.9873 63.8075 26.3935 64.5547 26.5459C65.164 26.6692 65.8314 26.7272 66.4335 26.5168C67.188 26.2557 67.6813 25.7116 67.9788 24.9861C68.0876 24.7177 68.1529 24.4203 68.1892 24.1301C68.5809 24.1156 68.9726 24.1301 69.3571 24.1591C69.6691 25.3996 70.01 26.6329 70.3799 27.8517C70.6774 28.8383 71.0111 29.8104 71.3521 30.7897C70.9894 30.8332 70.6339 30.8985 70.2857 30.9856C69.8214 30.3399 69.1902 29.8321 68.385 29.6508C68.0803 29.5855 67.7538 29.6508 67.4927 29.8031C66.8253 29.687 66.1506 29.9192 65.6356 30.3472C65.1568 30.7462 64.8448 31.3701 64.7288 31.9795C64.6054 32.6033 64.5547 33.2998 64.7433 33.9237C64.9682 34.6491 65.4759 35.1569 66.1216 35.5196C67.2605 36.1653 68.5809 36.7456 69.8649 36.129C71.0256 35.5704 71.2722 34.2574 71.1126 33.0966C71.3738 33.0386 71.635 32.9951 71.8526 32.9806C71.9614 32.9733 72.0776 32.9806 72.1864 32.9806C73.2746 35.73 74.5731 38.3924 76.1763 40.8734C76.1763 40.8734 76.1691 40.8734 76.1618 40.8734C75.4654 39.9521 74.3192 39.2992 73.1512 39.4225C72.2154 39.5168 71.4392 40.0392 71.0982 40.9315C70.9169 41.403 70.9458 41.9326 71.0764 42.4404C71.0692 43.5576 71.6277 44.6022 72.5781 45.2479C73.1076 45.6106 73.7606 45.792 74.3989 45.8282C75.2187 45.879 75.9369 45.48 76.3867 44.8126C76.7349 44.2975 76.8873 43.6519 76.88 43.0135C77.1049 42.9627 77.3297 42.9047 77.5619 42.8612C78.9765 44.7328 80.5797 46.4376 82.27 48.0481C82.0524 47.9901 81.8276 47.9538 81.6099 47.9611C80.841 47.9828 80.13 48.4398 79.7382 49.0927C79.4335 49.6078 79.3465 50.2535 79.4626 50.8483C79.3828 51.0007 79.332 51.1603 79.3248 51.3489C79.3102 51.9438 79.4988 52.5676 79.8398 53.0609C80.246 53.6413 80.7757 54.033 81.4213 54.2942C82.5312 54.744 84.2505 54.6714 84.8309 53.4382C85.1356 52.7853 85.2008 52.0381 85.092 51.3199C85.2879 51.2546 85.462 51.1675 85.6579 51.1022C86.26 51.6173 86.8621 52.1251 87.4715 52.6257C87.5731 52.7127 87.6891 52.7563 87.7979 52.7998C88.6032 53.7646 89.4085 54.7222 90.2137 55.6798C89.5971 55.5057 88.8717 55.5565 88.3276 55.9047C87.8488 56.2094 87.457 56.7172 87.3337 57.283C87.2467 57.4354 87.1886 57.6022 87.2031 57.7909C87.2756 58.9371 87.8633 59.9019 88.6467 60.7144C89.0675 61.1497 89.5753 61.5342 90.1774 61.6647C90.8231 61.8098 91.5993 61.8389 92.1942 61.5197C92.8253 61.1787 93.1445 60.5185 93.2098 59.8294C93.2316 59.6045 93.2025 59.3868 93.1517 59.1692C94.4938 60.7362 95.8577 62.2814 97.2433 63.8121C96.8152 64.0152 96.4525 64.3562 96.2567 64.7987C95.8722 65.662 95.8867 66.7066 96.2059 67.5917C96.5324 68.4985 97.1055 69.2674 97.9252 69.7898C98.7015 70.2831 99.7243 70.5297 100.631 70.3193C101.124 70.2033 101.48 69.9276 101.763 69.5866C103.453 73.1558 103.743 77.436 104.73 81.2736C99.3906 79.6921 94.5228 76.8266 89.169 75.2451C83.1188 73.4605 76.8002 72.4739 70.5758 71.5308C57.866 69.6011 45.0619 68.4694 32.3157 66.8372C25.2209 65.9304 18.1551 64.8422 11.1545 63.4058C11.1545 60.7507 11.14 58.1028 11.14 55.4477C11.2778 53.0319 11.2851 50.6017 11.1255 48.1642C11.1255 48.0844 11.1255 48.0046 11.1255 47.9248C11.1255 47.9175 11.1255 47.9103 11.1255 47.903C11.1255 47.8232 11.1255 47.7434 11.1255 47.6564C11.1255 47.4532 11.1255 47.2501 11.1255 47.047C11.1255 47.0325 11.1255 47.0252 11.1255 47.0107C11.1037 45.8645 11.1545 44.7328 11.285 43.5794L11.2778 43.5358ZM62.4654 14.0754C62.4654 14.0754 62.4508 14.1044 62.4291 14.1407C62.4073 14.1625 62.3928 14.1842 62.3711 14.206C62.3493 14.2278 62.284 14.3003 62.2259 14.3583C62.2187 14.3583 62.226 14.3583 62.2042 14.3728C62.1534 14.4019 62.1026 14.4381 62.0446 14.4672C62.0155 14.4817 61.972 14.4962 61.9502 14.5034C61.9067 14.5179 61.856 14.5252 61.8125 14.5397C61.8125 14.5397 61.8124 14.5397 61.8052 14.5397C61.7036 14.5397 61.6093 14.5397 61.515 14.5397C61.4642 14.5252 61.4135 14.5179 61.3699 14.5034C61.3337 14.4962 61.2321 14.4526 61.1523 14.4309C61.1813 14.4526 61.1886 14.4672 61.1088 14.4309C61.1088 14.4309 61.0943 14.4236 61.087 14.4164C61.087 14.4164 61.0652 14.4091 61.0652 14.4164C61.0652 14.4164 61.0725 14.4164 61.0797 14.4164C61.0217 14.3874 60.9564 14.3511 60.8984 14.3221C60.8041 14.2713 60.717 14.2132 60.63 14.1552C60.5792 14.1117 60.4921 14.0609 60.63 14.1552C60.601 14.1262 60.5502 14.0899 60.5429 14.0827C60.4559 14.0029 60.3688 13.9158 60.2818 13.8288C60.2455 13.7925 60.2092 13.749 60.1729 13.7054C60.1076 13.6039 60.0351 13.5096 59.9771 13.4007C59.9625 13.379 59.919 13.2774 59.8827 13.2194C59.8682 13.1759 59.8465 13.1251 59.8393 13.1178C59.8247 13.067 59.8102 13.0163 59.7957 12.9655C59.7812 12.9147 59.774 12.8639 59.7595 12.8131C59.7595 12.7986 59.7595 12.8131 59.7595 12.7986C59.7595 12.7116 59.7595 12.6245 59.7595 12.5375C59.7595 12.552 59.7522 12.5665 59.7377 12.5737C59.7377 12.5665 59.7522 12.5302 59.7522 12.4939C59.7522 12.4504 59.7522 12.4359 59.7595 12.4286C59.7812 12.3416 59.8102 12.2545 59.832 12.1675C59.861 12.1167 59.8973 12.0442 59.9045 12.0297C59.9263 11.9934 59.948 11.9571 59.9698 11.9208C60.0133 11.8773 60.0859 11.8048 60.1222 11.7685C60.1512 11.7467 60.1802 11.7322 60.2165 11.7105C60.2383 11.7032 60.2237 11.7032 60.2382 11.6887C60.2962 11.6669 60.3616 11.6524 60.3979 11.6452C60.4051 11.6452 60.4341 11.6379 60.4559 11.6307C60.5067 11.6307 60.6227 11.6161 60.6445 11.6161C60.7751 11.6161 60.9057 11.6234 61.0363 11.6307C61.0435 11.6307 61.0362 11.6307 61.0507 11.6307C61.1087 11.6379 61.1668 11.6524 61.2176 11.6597C61.3482 11.6887 61.4787 11.725 61.6093 11.7612C61.6601 11.7757 61.7109 11.7975 61.7617 11.812C61.7762 11.812 61.7616 11.812 61.7761 11.812C61.7834 11.812 61.7762 11.812 61.7907 11.8193C61.8052 11.8265 61.827 11.841 61.8415 11.8483C61.515 11.8701 61.1886 11.8846 60.8549 11.9353C60.26 12.0297 59.9263 12.7769 60.0714 13.3137C60.2455 13.9521 60.8476 14.1842 61.4497 14.0972C61.8052 14.0391 62.1679 14.0246 62.5234 14.0246C62.5089 14.0536 62.4944 14.0827 62.4872 14.1044L62.4654 14.0754ZM59.7957 12.182C59.7957 12.182 59.8102 12.153 59.8175 12.1457C59.8102 12.1675 59.8029 12.1893 59.7957 12.182ZM59.832 12.0804C59.8465 12.0442 59.8465 12.0369 59.832 12.0804ZM59.919 11.9281C59.919 11.9281 59.9335 11.9136 59.9553 11.8918C59.9408 11.9136 59.9263 11.9353 59.919 11.9281ZM59.9843 11.841C60.0061 11.8048 60.0061 11.7975 59.9843 11.841ZM65.3236 24.413C65.3236 24.413 65.3091 24.413 65.2946 24.413C65.2003 24.3985 65.106 24.3768 65.019 24.355C64.9682 24.3405 64.9246 24.326 64.8738 24.3187C64.8956 24.326 64.9029 24.3187 64.9319 24.3477C64.9101 24.326 64.8594 24.3115 64.8303 24.297C64.8231 24.297 64.8231 24.297 64.8158 24.2897C64.8303 24.3042 64.8376 24.3115 64.8449 24.326C64.8449 24.326 64.8231 24.297 64.8013 24.2752C64.7868 24.2679 64.7722 24.2607 64.765 24.2534C64.765 24.2679 64.7723 24.2679 64.7868 24.2897C64.7868 24.2752 64.7722 24.2679 64.765 24.2534C64.765 24.2462 64.7505 24.2317 64.7433 24.2244C64.7215 24.2027 64.7142 24.1809 64.7142 24.1736C64.6925 24.1446 64.6707 24.1156 64.6562 24.0866C64.6127 24.014 64.5691 23.9415 64.5256 23.8617C64.5039 23.8182 64.4821 23.7746 64.4604 23.7311C64.4604 23.7166 64.4023 23.6005 64.4023 23.6005C64.3805 23.5498 64.366 23.499 64.3443 23.4482C64.308 23.3394 64.279 23.2306 64.2572 23.1217C64.25 23.0855 64.2427 23.0492 64.2354 23.0129C64.2354 23.0057 64.2354 22.9984 64.2354 22.9912C64.2354 22.9041 64.2209 22.8098 64.2209 22.73C64.2209 22.6792 64.2209 22.6357 64.2209 22.5849C64.2209 22.5777 64.2209 22.5631 64.2209 22.5486C64.2209 22.5414 64.2209 22.5341 64.2209 22.5269C64.2209 22.5196 64.2209 22.5051 64.2209 22.4979C64.4023 22.4979 64.5836 22.4688 64.7577 22.36C64.8448 22.3092 64.9319 22.2585 65.019 22.2077C65.0407 22.2004 65.077 22.1787 65.1133 22.1642C65.1205 22.1642 65.135 22.1642 65.1422 22.1569C65.1567 22.1569 65.1422 22.1569 65.1568 22.1642C65.222 22.2222 65.2801 22.2947 65.3381 22.36C65.0842 22.5559 64.9101 22.8316 64.9101 23.1943C64.9101 23.6948 65.3308 24.2244 65.8532 24.2825C65.8386 24.3115 65.8314 24.326 65.8169 24.355C65.8024 24.3695 65.7951 24.3768 65.7734 24.3913C65.7516 24.3913 65.7371 24.3985 65.7154 24.4058C65.7154 24.4058 65.6935 24.413 65.6645 24.4203C65.6645 24.4203 65.6574 24.4203 65.6501 24.4203C65.6138 24.4203 65.5775 24.4275 65.5485 24.4421C65.5848 24.4348 65.5993 24.4275 65.6211 24.4203C65.5195 24.4203 65.4179 24.4203 65.3163 24.4203L65.3236 24.413ZM65.8604 24.3115C65.8604 24.3115 65.8604 24.297 65.8604 24.2752C65.8604 24.2752 65.8677 24.2752 65.8749 24.2752C65.8749 24.2897 65.8604 24.3042 65.8604 24.3115ZM68.8856 34.105C68.8856 34.1123 68.8783 34.1195 68.8783 34.1268C68.8783 34.1123 68.8783 34.1123 68.8783 34.105H68.8856ZM68.8928 34.105C68.8928 34.105 68.9218 34.0832 68.9581 34.0905C68.9436 34.0905 68.9218 34.0978 68.8928 34.1123V34.105ZM68.9508 33.7568C68.9508 33.7568 68.9508 33.8076 68.9508 33.8293C68.9508 33.8293 68.9653 33.8511 68.9508 33.8946C68.9508 33.9019 68.9508 33.9091 68.9508 33.9164C68.9508 33.9454 68.9436 33.9744 68.9508 34.0035C68.9508 33.9744 68.9508 33.9599 68.9508 33.9382C68.9508 33.9527 68.9508 33.9672 68.9363 33.9817C68.9508 33.9817 68.9581 33.9817 68.9363 34.018C68.9363 34.0325 68.9219 34.0397 68.9146 34.0542C68.9146 34.0615 68.9146 34.0687 68.9073 34.0832C68.9073 34.076 68.9073 34.0687 68.9073 34.0615C68.9073 34.076 68.8928 34.0832 68.8856 34.0978C68.8783 34.0978 68.8638 34.105 68.8565 34.1123C68.842 34.1123 68.8203 34.1195 68.7985 34.1268C68.7187 34.1268 68.6389 34.1268 68.5591 34.1268C68.5446 34.1268 68.5301 34.1268 68.5156 34.1195C68.4285 34.0978 68.3415 34.076 68.2544 34.047C68.2109 34.0325 68.1746 34.018 68.1383 34.0035C68.0876 33.9382 67.8627 33.8729 67.7974 33.8366C67.616 33.7423 67.4347 33.648 67.2606 33.5464C67.188 33.5029 67.1227 33.4666 67.0574 33.4231C67.0647 33.4303 67.0792 33.4376 67.0719 33.4449C67.0719 33.4449 67.0501 33.4231 67.0356 33.4158C67.0284 33.4158 67.0212 33.4086 67.0139 33.4013C66.9922 33.3868 66.9849 33.3796 66.9776 33.3796C66.9849 33.3796 66.9994 33.3941 67.0212 33.4086C66.9922 33.3796 66.9704 33.3651 66.9558 33.3505C66.9486 33.336 66.9413 33.3215 66.9341 33.3143C66.9268 33.2853 66.9124 33.249 66.9051 33.22C66.9051 33.1909 66.9051 33.1982 66.8906 33.1837C66.8906 33.1764 66.8906 33.1837 66.8906 33.1692C66.8906 33.0604 66.8833 32.9516 66.8906 32.85C66.8906 32.7992 66.8906 32.7557 66.8978 32.7049C66.8978 32.6976 66.8978 32.6831 66.8978 32.6759C66.9269 32.6033 66.9341 32.451 66.9486 32.393C66.9631 32.3494 66.9704 32.2986 66.9922 32.2551C67.0357 32.1971 67.0792 32.1173 67.1154 32.0447C67.1227 32.0375 67.13 32.0302 67.1445 32.023C67.159 32.0157 67.159 32.0157 67.1735 32.0085C67.188 32.0085 67.188 32.0085 67.2097 32.023C67.4927 32.1173 67.8119 32.0593 68.0731 31.9069C68.0876 31.9142 68.102 31.9214 68.1165 31.9287C67.8554 32.2841 67.8046 32.8282 68.0368 33.1909C68.2616 33.5464 68.6026 33.6988 68.9654 33.706C68.9654 33.735 68.9654 33.7568 68.9654 33.7858L68.9508 33.7568ZM68.1094 34.0107C68.1094 34.0107 68.0948 34.0107 68.0876 34.0035C67.9135 33.9382 68.0586 33.9889 68.1094 34.0107ZM68.0295 31.8634C68.0295 31.8634 68.0368 31.8634 68.044 31.8634C68.0223 31.8634 68.0078 31.8634 67.986 31.8489C68.0078 31.8489 68.0222 31.8561 68.0295 31.8561V31.8634ZM67.101 32.0012C67.0865 32.0012 67.0719 32.0085 67.0647 32.0157C67.0719 32.0157 67.0937 32.0085 67.1083 32.0012H67.101ZM67.1154 32.0012C67.1154 32.0012 67.1154 32.0012 67.1227 32.0012H67.1154ZM66.9776 32.2261C67.0139 32.1608 67.0139 32.11 66.9776 32.2261ZM4.9519 95.8551C5.09699 92.6849 5.46699 89.5364 5.9748 86.4025C6.48262 83.2541 7.10646 80.1201 7.74485 76.9789C8.15836 80.0911 8.87654 83.1597 9.91393 86.1268C11.8944 91.8288 15.3475 96.7837 17.7052 102.297C15.1734 101.934 12.6562 101.514 10.1606 100.969C8.88386 100.687 7.50545 100.483 6.29396 99.9684C4.55288 99.2357 4.89388 97.422 4.96642 95.8551H4.9519ZM4.87211 102.13C4.94465 102.058 4.97364 101.978 5.02442 101.898C6.69295 102.769 8.89106 102.993 10.5596 103.342C13.5484 103.958 16.5591 104.437 19.5842 104.822C32.606 106.483 45.7728 106.251 58.8381 107.295C72.1791 108.362 85.2299 111.38 98.4838 113.121C112.267 114.934 126.631 115.166 139.827 110.197C139.863 110.183 139.878 110.161 139.914 110.146C146.291 108.289 152.66 106.338 158.674 103.494C160.604 102.58 163.825 101.434 165.348 99.5186C165.486 99.5694 165.646 99.5911 165.827 99.5766C167.002 99.4678 167.633 100.832 168.032 102.13C164.507 103.871 160.981 105.612 157.455 107.346C154.118 108.986 150.752 110.545 147.132 111.467C146.958 111.51 146.813 111.583 146.697 111.677C137.796 114.245 128.699 116.211 119.456 116.958C109.764 117.742 100.326 116.9 90.8086 115.021C81.7114 113.222 72.6724 111.742 63.4157 111.031C54.0792 110.32 44.7209 110.081 35.3771 109.559C24.6913 108.964 14.02 107.956 3.58805 105.475C3.46473 105.445 3.36319 105.46 3.25438 105.46C3.57357 104.161 4.0596 102.964 4.86485 102.123L4.87211 102.13ZM168.758 108.732C167.764 109.842 166.154 110.69 164.906 111.51C163.498 112.432 162.047 113.28 160.56 114.064C154.67 117.154 148.329 118.699 141.895 120.187C135.387 121.688 128.836 123.531 122.177 124.198C116.032 124.815 109.815 124.895 103.634 125.091C103.555 125.076 103.482 125.054 103.381 125.062C102.793 125.112 102.213 125.141 101.625 125.156C101.545 125.156 101.465 125.156 101.386 125.163C99.5212 125.207 97.6713 125.105 95.8142 124.858C94.5736 124.692 93.3477 124.452 92.1217 124.198C90.6853 123.894 89.9163 123.437 89.9526 121.855C89.9888 120.375 89.9816 119.084 88.4074 118.533C86.1657 117.749 83.6121 117.43 81.2907 116.922C72.0557 114.905 62.6757 113.302 53.1941 113.52C51.7578 113.556 51.7505 115.79 53.1941 115.754C53.702 115.74 54.2097 115.754 54.7176 115.754C54.7176 115.769 54.7176 115.776 54.7176 115.783C55.1746 117.916 52.9983 119.65 51.6852 120.97C50.1836 122.479 48.9575 124.278 49.0083 126.411C47.8984 126.933 46.5346 126.853 45.3303 126.911C43.8069 126.984 42.2834 127.02 40.7527 127.028C37.938 127.035 35.1232 126.933 32.3085 126.752C26.4179 126.375 20.5562 125.642 14.7091 124.822C11.996 124.445 9.27556 124.104 6.57689 123.632C5.58303 123.458 3.52274 123.422 2.74651 122.776C2.01381 122.167 2.35481 119.86 2.34031 118.961C2.29678 116.211 2.31123 113.462 2.55789 110.727C2.63769 109.798 2.71752 108.688 2.86987 107.557C2.92065 107.571 2.94971 107.607 3.00049 107.615C21.5719 112.033 40.731 111.771 59.6724 112.983C69.4152 113.607 78.9693 114.898 88.5379 116.813C97.9034 118.685 107.167 119.882 116.736 119.352C127.357 118.772 137.825 116.588 148.01 113.607C148.177 113.556 148.308 113.483 148.416 113.389C151.826 112.439 155.061 110.973 158.239 109.421C161.707 107.723 165.167 106.004 168.627 104.292C169.041 105.685 169.694 107.651 168.758 108.703V108.732Z" fill="black"/>
<path d="M61.0796 14.4019C61.0796 14.4019 61.1163 14.4092 61.1457 14.4166C61.1237 14.4019 61.0943 14.3945 61.0723 14.3945C61.0723 14.3945 61.0723 14.3945 61.0796 14.3945V14.4019Z" fill="black"/>
<path d="M59.7426 12.3924C59.7426 12.3924 59.7426 12.4287 59.7354 12.4504C59.7354 12.4649 59.7354 12.4794 59.7354 12.494C59.7571 12.4359 59.7499 12.3779 59.7426 12.3924Z" fill="black"/>
<path d="M64.7737 24.254C64.7737 24.254 64.7587 24.239 64.7512 24.2314C64.7512 24.2314 64.7512 24.2314 64.7512 24.239C64.7512 24.239 64.7587 24.239 64.7662 24.2465L64.7737 24.254Z" fill="black"/>
<path d="M64.7729 24.2534C64.7729 24.2534 64.7878 24.2683 64.7953 24.2757C64.7953 24.2757 64.8027 24.2757 64.8102 24.2832C64.7953 24.2683 64.7804 24.2609 64.7729 24.2534Z" fill="black"/>
<path d="M64.7521 24.2398C64.7154 24.1737 64.7007 24.159 64.7007 24.1737C64.7154 24.1884 64.7227 24.2104 64.7301 24.2251C64.7301 24.2251 64.7301 24.2251 64.7374 24.2324C64.7374 24.2324 64.7448 24.2324 64.7448 24.2398H64.7521Z" fill="black"/>
<path d="M64.8672 24.3119C64.8011 24.2752 64.7791 24.2899 64.8672 24.3119Z" fill="black"/>
<path d="M65.6656 24.4129C65.6656 24.4129 65.7019 24.4057 65.7164 24.3984C65.7164 24.3984 65.6801 24.3984 65.6221 24.4129C65.6221 24.4129 65.6293 24.4129 65.6366 24.4129C65.6438 24.4129 65.6511 24.4129 65.6584 24.4129H65.6656Z" fill="black"/>
<path d="M68.8611 34.1196C68.8023 34.1417 68.7803 34.171 68.8464 34.127L68.8611 34.1196Z" fill="black"/>
<path d="M68.9324 33.9452C68.9324 33.9452 68.9324 33.9307 68.9324 33.9162C68.9324 33.8871 68.9324 33.8581 68.9324 33.8291C68.9324 33.8291 68.918 33.8654 68.918 33.9452H68.9324Z" fill="black"/>
<path d="M68.8963 34.0695C68.8963 34.0475 68.911 34.0328 68.911 34.0181C68.911 34.0108 68.911 34.0034 68.911 33.9961C68.8963 33.9961 68.8963 34.0328 68.8889 34.0769L68.8963 34.0695Z" fill="black"/>
<path d="M66.999 33.4014C66.999 33.4014 67.0065 33.4088 67.0139 33.4162C67.0139 33.4162 67.0213 33.4162 67.0287 33.4237C67.0213 33.4162 67.0139 33.4088 66.999 33.4014Z" fill="black"/>
<path d="M74.5448 43.5725C74.5522 43.5725 74.5745 43.5576 74.567 43.5576C74.567 43.5576 74.5522 43.5576 74.5374 43.5725H74.5448Z" fill="black"/>
<path d="M74.4328 43.5721C74.4328 43.5721 74.411 43.5648 74.3457 43.5721C74.3457 43.5721 74.3457 43.5721 74.353 43.5721C74.3747 43.5721 74.4037 43.5721 74.4255 43.5721H74.4328Z" fill="black"/>
<path d="M73.2651 41.6498C73.2651 41.6498 73.2723 41.6498 73.2796 41.6426C73.2796 41.6426 73.2724 41.6426 73.2651 41.6426V41.6498Z" fill="black"/>
<path d="M81.8985 52.0165C81.8985 52.0165 81.8985 52.0165 81.9058 52.0165C81.9058 52.0165 81.8986 52.0092 81.8914 52.002L81.8985 52.0165Z" fill="black"/>
<path d="M81.6596 50.2173C81.6596 50.2173 81.6521 50.2399 81.6596 50.2399C81.6596 50.2399 81.6596 50.2248 81.6596 50.2173Z" fill="black"/>
<path d="M82.8983 52.1329C82.8983 52.1329 82.8983 52.1109 82.8983 52.1036C82.8983 52.1036 82.8983 52.0962 82.8983 52.0889C82.8689 52.1843 82.8836 52.199 82.8983 52.1329Z" fill="black"/>
<path d="M82.1743 52.1694C82.0715 52.1326 82.0715 52.0959 82.1743 52.1694Z" fill="black"/>
<path d="M89.9307 58.7703C89.8726 58.6978 89.8218 58.5817 89.9307 58.7703Z" fill="black"/>
<path d="M11.2724 43.5358C11.4465 42.0558 11.4756 40.5106 12.8394 39.6038C13.9058 38.9001 15.4147 38.6898 16.6407 38.3996C18.4689 37.9643 20.297 37.5436 22.1252 37.1373C29.1112 35.5994 36.148 34.3008 43.2211 33.2344C47.8132 32.5452 55.5465 32.9732 55.8874 26.6836C56.2211 20.4593 54.8645 13.7707 53.167 7.7712C55.7133 7.18359 58.5426 6.6395 61.0816 7.15457C63.8746 7.72042 65.6302 9.93303 66.6023 12.4866C66.479 12.4503 66.3556 12.4068 66.2396 12.3778C65.7318 12.2254 65.2167 12.1094 64.7016 12.0151C64.6291 11.7684 64.542 11.529 64.4332 11.2896C64.4187 11.2533 64.3824 11.2316 64.3607 11.1953C64.3099 11.0575 64.23 10.9196 64.1212 10.8036C63.1999 9.76618 61.6693 9.2221 60.2982 9.37444C59.5147 9.46149 58.7892 9.78069 58.2814 10.4046C57.7954 10.9922 57.527 11.6886 57.4835 12.4576C57.4037 13.9302 58.354 15.3159 59.5364 16.1138C60.1386 16.5128 60.864 16.7595 61.5894 16.7813C62.3729 16.803 63.0911 16.5128 63.6932 16.0268C64.2156 15.5988 64.5855 14.9676 64.7669 14.3147C65.1006 14.3945 65.4271 14.4816 65.7463 14.5759C66.2831 14.7355 66.8345 14.9096 67.3786 15.1055C67.7921 16.8103 68.075 18.5513 68.445 20.2561C68.5683 20.8147 68.7061 21.3661 68.8295 21.9247C68.4667 21.9174 68.104 21.9247 67.734 21.9392C67.6325 21.7723 67.5381 21.5982 67.4293 21.4386C67.0086 20.8365 66.5442 20.3214 65.8478 20.0385C65.1731 19.7701 64.484 19.966 63.8746 20.2924C63.8238 20.2924 63.7731 20.2634 63.7223 20.2634C63.2725 20.3069 62.8807 20.4448 62.5833 20.8002C62.3221 21.1049 62.1553 21.4676 62.061 21.8594C61.9086 22.4978 61.9304 23.1579 62.09 23.7891C62.2279 24.3404 62.4672 24.899 62.7937 25.3633C63.2217 25.9872 63.8021 26.3934 64.5493 26.5458C65.1587 26.6691 65.8261 26.7271 66.4282 26.5168C67.1827 26.2556 67.676 25.7115 67.9734 24.9861C68.0822 24.7176 68.1475 24.4202 68.1838 24.13C68.5755 24.1155 68.9673 24.13 69.3518 24.1591C69.6637 25.3996 70.0046 26.6328 70.3746 27.8516C70.672 28.8382 71.0058 29.8103 71.3467 30.7896C70.984 30.8332 70.6286 30.8985 70.2804 30.9855C69.8161 30.3399 69.1848 29.8321 68.3796 29.6507C68.0749 29.5854 67.7485 29.6507 67.4873 29.803C66.8199 29.687 66.1453 29.9191 65.6302 30.3471C65.1514 30.7461 64.8395 31.37 64.7234 31.9794C64.6001 32.6033 64.5493 33.2997 64.7379 33.9236C64.9628 34.649 65.4706 35.1568 66.1162 35.5196C67.2552 36.1652 68.5755 36.7456 69.8595 36.1289C71.0203 35.5703 71.2669 34.2573 71.1073 33.0966C71.3685 33.0385 71.6296 32.995 71.8473 32.9805C71.9561 32.9732 72.0722 32.9805 72.181 32.9805C73.2692 35.7299 74.5677 38.3923 76.171 40.8734C76.171 40.8734 76.1637 40.8734 76.1565 40.8734C75.46 39.952 74.3138 39.2991 73.1458 39.4225C72.21 39.5168 71.4338 40.0391 71.0929 40.9314C70.9115 41.4029 70.9405 41.9325 71.0711 42.4403C71.0638 43.5575 71.6224 44.6022 72.5727 45.2478C73.1023 45.6105 73.7552 45.7919 74.3936 45.8282C75.2133 45.8789 75.9315 45.4799 76.3813 44.8125C76.7295 44.2975 76.8819 43.6518 76.8746 43.0134C77.0995 42.9626 77.3244 42.9046 77.5565 42.8611C78.9711 44.7327 80.5744 46.4375 82.2647 48.048C82.047 47.99 81.8222 47.9537 81.6046 47.961C80.8356 47.9827 80.1246 48.4398 79.7329 49.0927C79.4282 49.6077 79.3411 50.2534 79.4572 50.8483C79.3774 51.0006 79.3267 51.1602 79.3194 51.3488C79.3049 51.9437 79.4935 52.5676 79.8344 53.0609C80.2407 53.6412 80.7703 54.033 81.416 54.2941C82.5259 54.7439 84.2452 54.6714 84.8255 53.4381C85.1302 52.7852 85.1955 52.038 85.0867 51.3198C85.2825 51.2545 85.4567 51.1675 85.6525 51.1022C86.2547 51.6172 86.8568 52.125 87.4662 52.6256C87.5677 52.7127 87.6838 52.7562 87.7926 52.7997C88.5978 53.7646 89.4031 54.7221 90.2084 55.6797C89.5917 55.5056 88.8663 55.5564 88.3222 55.9046C87.8434 56.2093 87.4517 56.7171 87.3284 57.283C87.2413 57.4353 87.1832 57.6022 87.1977 57.7908C87.2703 58.937 87.8579 59.9018 88.6414 60.7143C89.0621 61.1496 89.5699 61.5341 90.1721 61.6647C90.8177 61.8098 91.594 61.8388 92.1888 61.5196C92.82 61.1786 93.1392 60.5185 93.2045 59.8293C93.2262 59.6044 93.1972 59.3868 93.1464 59.1691C94.4885 60.7361 95.8523 62.2813 97.2379 63.812C96.8099 64.0151 96.4472 64.3561 96.2513 64.7986C95.8668 65.6619 95.8814 66.7065 96.2006 67.5916C96.527 68.4984 97.1001 69.2674 97.9199 69.7897C98.6961 70.283 99.719 70.5296 100.626 70.3193C101.119 70.2032 101.475 69.9275 101.757 69.5866C103.448 73.1558 103.738 77.4359 104.725 81.2735C99.3853 79.692 94.5175 76.8265 89.1637 75.2451C83.1135 73.4605 76.7948 72.4738 70.5705 71.5308C57.8606 69.6011 45.0565 68.4694 32.3104 66.8371C25.2155 65.9303 18.1497 64.8421 11.1492 63.4058C11.1492 60.7506 11.1346 58.1027 11.1346 55.4476C11.2725 53.0319 11.2797 50.6016 11.1201 48.1641C11.1201 48.0843 11.1201 48.0045 11.1201 47.9247C11.1201 47.9175 11.1201 47.9102 11.1201 47.9029C11.1201 47.8231 11.1201 47.7433 11.1201 47.6563C11.1201 47.4532 11.1201 47.25 11.1201 47.0469C11.1201 47.0324 11.1201 47.0251 11.1201 47.0106C11.0983 45.8644 11.1491 44.7327 11.2797 43.5793L11.2724 43.5358Z" fill="#E6E6E2"/>
<path d="M4.94926 95.8551C5.09435 92.6849 5.46435 89.5365 5.97216 86.4026C6.47998 83.2541 7.10382 80.1202 7.74221 76.979C8.15572 80.0912 8.8739 83.1598 9.91129 86.1269C11.8918 91.8289 15.3449 96.7837 17.7026 102.297C15.1708 101.934 12.6535 101.514 10.158 100.97C8.88122 100.687 7.50281 100.483 6.29132 99.9684C4.55024 99.2357 4.89124 97.4221 4.96378 95.8551H4.94926Z" fill="#E6E6E2"/>
<path d="M4.86944 102.13C4.94199 102.058 4.97098 101.978 5.02176 101.898C6.69029 102.769 8.8884 102.993 10.5569 103.342C13.5458 103.958 16.5564 104.437 19.5815 104.822C32.6033 106.483 45.7702 106.251 58.8355 107.295C72.1764 108.362 85.2273 111.38 98.4812 113.121C112.265 114.934 126.629 115.166 139.824 110.197C139.861 110.183 139.875 110.161 139.911 110.146C146.288 108.289 152.658 106.338 158.672 103.494C160.601 102.58 163.822 101.434 165.346 99.5186C165.483 99.5693 165.643 99.5911 165.824 99.5766C167 99.4678 167.631 100.832 168.03 102.13C164.504 103.871 160.978 105.612 157.453 107.346C154.116 108.986 150.75 110.545 147.13 111.467C146.956 111.51 146.81 111.583 146.694 111.677C137.793 114.245 128.696 116.211 119.454 116.958C109.762 117.742 100.324 116.9 90.8059 115.021C81.7088 113.222 72.6697 111.742 63.413 111.031C54.0765 110.32 44.7182 110.081 35.3744 109.559C24.6886 108.964 14.0173 107.955 3.58539 105.474C3.46206 105.445 3.36053 105.46 3.25171 105.46C3.57091 104.161 4.05693 102.964 4.86218 102.123L4.86944 102.13Z" fill="white"/>
<path d="M168.753 108.732C167.759 109.842 166.149 110.69 164.901 111.51C163.494 112.432 162.043 113.28 160.556 114.064C154.665 117.154 148.325 118.699 141.89 120.187C135.383 121.688 128.832 123.531 122.172 124.198C116.028 124.815 109.811 124.895 103.63 125.091C103.55 125.076 103.477 125.054 103.376 125.062C102.788 125.112 102.208 125.141 101.62 125.156C101.54 125.156 101.461 125.156 101.381 125.163C99.5165 125.207 97.6666 125.105 95.8094 124.858C94.5689 124.692 93.3429 124.452 92.1169 124.198C90.6805 123.894 89.9116 123.437 89.9479 121.855C89.9841 120.375 89.9769 119.084 88.4026 118.533C86.161 117.749 83.6074 117.43 81.286 116.922C72.051 114.905 62.671 113.302 53.1894 113.52C51.753 113.556 51.7458 115.79 53.1894 115.754C53.6972 115.74 54.205 115.754 54.7128 115.754C54.7128 115.769 54.7128 115.776 54.7128 115.783C55.1699 117.916 52.9936 119.65 51.6805 120.97C50.1788 122.479 48.9528 124.278 49.0036 126.411C47.8936 126.933 46.5298 126.853 45.3256 126.911C43.8022 126.984 42.2787 127.02 40.748 127.028C37.9332 127.035 35.1185 126.933 32.3038 126.752C26.4131 126.375 20.5515 125.642 14.7044 124.822C11.9912 124.445 9.27084 124.104 6.57218 123.632C5.57832 123.458 3.51802 123.422 2.7418 122.776C2.00909 122.167 2.3501 119.86 2.33559 118.961C2.29206 116.211 2.30652 113.462 2.55317 110.727C2.63297 109.798 2.71281 108.688 2.86515 107.557C2.91594 107.571 2.94499 107.607 2.99577 107.615C21.5672 112.033 40.7263 111.771 59.6677 112.983C69.4105 113.607 78.9645 114.898 88.5332 116.813C97.8987 118.685 107.163 119.882 116.731 119.352C127.352 118.772 137.82 116.588 148.005 113.607C148.172 113.556 148.303 113.483 148.412 113.389C151.821 112.439 155.057 110.973 158.234 109.421C161.702 107.723 165.162 106.004 168.623 104.292C169.036 105.685 169.689 107.651 168.753 108.703V108.732Z" fill="#E6E6E2"/>
</svg>
