<svg width="106" height="140" viewBox="0 0 106 140" fill="none" xmlns="http://www.w3.org/2000/svg">
<path d="M89.7353 137.322C86.0149 137.231 82.2944 137.037 78.574 136.878C63.3282 136.229 48.0937 135.444 32.8365 135.399C29.0478 135.399 25.2478 135.422 21.4591 135.524C18.1255 135.604 14.6326 136.025 11.3217 135.467C8.18153 134.944 5.70124 133.237 4.42696 130.279C3.25508 127.571 3.08442 124.522 2.93651 121.609C2.1856 107.023 3.22093 92.2895 6.64555 78.0677C7.04376 76.4066 7.48747 74.7455 7.95395 73.0957C9.02344 74.0287 10.6163 74.2562 11.9361 74.6089C13.7337 75.0868 15.5427 75.5647 17.3404 76.0425C17.6248 76.1221 17.9092 76.1904 18.1937 76.2701C18.4212 76.3383 18.6602 76.4066 18.8877 76.4635C19.7297 76.691 20.583 76.8958 21.4363 77.112C22.3465 77.3509 23.2567 77.5785 24.1783 77.8174C24.201 77.8174 24.2238 77.8288 24.2465 77.8402C29.3095 79.1258 34.3838 80.3091 39.5265 81.2079C42.4732 81.7199 45.4314 82.1408 48.4009 82.4253C48.9015 82.4935 49.4021 82.5618 49.9028 82.6301C49.9028 82.96 49.9028 83.29 49.9028 83.6199L49.88 88.2733C49.88 89.4679 49.9027 91.0608 51.3704 91.368C51.598 91.4135 51.7914 91.3452 51.9279 91.2314C51.9279 91.2314 51.9393 91.2314 51.9507 91.2314C52.383 91.2542 52.8154 91.277 53.2477 91.2883C53.8166 91.3111 54.4538 91.4249 54.9544 91.1063C55.8646 90.5147 55.7166 89.1607 55.728 88.2278C55.7622 86.4415 55.7963 84.6553 55.819 82.869C57.5484 82.9031 59.2892 82.8804 61.0185 82.8121C62.1108 82.7893 63.203 82.7552 64.2953 82.6642C65.1486 82.5959 65.9905 82.4822 66.8324 82.357C72.1571 81.754 77.4135 80.639 82.522 79.0348C86.2538 77.8629 89.8946 76.4293 93.433 74.7568C94.8893 74.0628 96.6301 73.3688 97.563 71.9807C97.6995 71.776 97.802 71.5712 97.893 71.355C100.51 86.1912 101.909 101.209 103.104 116.228C103.604 122.474 104.822 130.893 99.099 135.274C96.448 137.31 92.9551 137.413 89.7467 137.322H89.7353Z" fill="#E6E6E2"/>
<path d="M58.1667 112.723C56.6877 112.837 55.1972 112.905 53.7068 112.905C53.0696 112.905 52.3301 112.826 51.6247 112.837C51.6816 112.257 51.7385 111.665 51.8181 111.085C52.1253 111.028 52.4439 110.948 52.7397 110.835C55.3451 109.879 55.732 106.193 54.8104 103.894C54.617 103.416 54.3325 102.984 54.0026 102.575C54.0367 102.449 54.0708 102.324 54.1164 102.188C54.5259 100.97 54.8787 99.7643 54.9583 98.4786C55.038 97.0906 52.8762 97.102 52.808 98.4786C52.7624 99.2978 52.5463 100.083 52.296 100.857C52.1025 100.686 51.9091 100.504 51.7271 100.333C51.7498 100.242 51.7726 100.151 51.8067 100.06C52.0115 99.4116 52.0912 98.7745 52.2277 98.1146C52.3642 97.4888 52.7397 97.0223 53.1151 96.5217C53.4792 96.0439 53.8433 95.5546 54.2074 95.0768C54.6056 95.3612 54.9697 95.6798 55.2882 95.9528C56.335 96.8517 57.8709 95.3271 56.8128 94.4283C56.3918 94.0756 55.9481 93.7229 55.4703 93.4043C56.5398 91.9935 57.5979 90.5827 58.6674 89.1832C59.0201 88.7168 58.7356 87.9886 58.2805 87.7042C57.7344 87.3742 57.1542 87.6245 56.8015 88.091C55.7092 89.5359 54.6056 90.9581 53.5134 92.4031C52.7283 92.13 51.9205 92.0504 51.1241 92.2324C50.7714 90.9923 50.3846 89.7635 49.975 88.5347C49.7929 87.9886 49.2354 87.6245 48.6552 87.7838C48.1204 87.9317 47.7108 88.5575 47.9043 89.1036C48.3821 90.503 48.8145 91.9252 49.2127 93.3474C47.2785 95.2361 47.1875 97.9211 48.7462 100.117C48.9282 100.379 49.133 100.618 49.3378 100.845C49.042 102.04 48.8713 103.257 48.7917 104.497C48.7007 105.885 50.8624 105.874 50.942 104.497C50.9875 103.883 51.0672 103.28 51.1696 102.677C51.3175 102.813 51.454 102.95 51.6019 103.098C51.3516 104.099 51.1582 105.112 50.851 106.09C50.5552 107.035 50.2594 107.956 50.0432 108.912C49.2468 108.753 48.4959 108.354 48.018 107.706C47.1989 106.602 45.3329 107.683 46.1521 108.798C47.0168 109.97 48.3025 110.744 49.6905 111.028C49.554 112.086 49.4516 113.144 49.372 114.202C49.3037 115.01 50.339 115.556 50.9876 115.135C51.3516 114.896 51.9205 115.033 52.3301 115.044C53.0014 115.056 53.6613 115.067 54.3325 115.044C55.6182 115.033 56.8925 114.965 58.1781 114.862C59.5548 114.748 59.5662 112.598 58.1781 112.712L58.1667 112.723ZM52.1367 94.2576C52.0229 94.4169 51.8978 94.5762 51.784 94.7355C51.7499 94.5989 51.7157 94.4624 51.6816 94.3145C51.8409 94.2803 51.9888 94.2576 52.1481 94.2576H52.1367ZM50.1115 96.8972C50.1456 97.0223 50.2025 97.1247 50.2708 97.2271C50.1797 97.5229 50.1001 97.8187 50.0318 98.1146C49.9181 97.8415 49.827 97.5457 49.7702 97.2271C49.7133 96.8403 49.7702 96.4421 49.8953 96.0552C49.9636 96.3283 50.0318 96.6127 50.1001 96.8858L50.1115 96.8972ZM53.0241 106.841C53.0014 107.387 52.9445 108.058 52.5463 108.479C52.478 108.548 52.387 108.605 52.3073 108.661C52.5349 107.854 52.808 107.057 53.0355 106.249C53.0355 106.443 53.0355 106.648 53.0241 106.841Z" fill="black"/>
<path d="M13.3371 19.3482C11.9262 18.8817 11.8238 21.1914 11.6987 22.0219C11.4825 23.4669 11.2436 24.9004 10.9592 26.334C10.8226 27.0166 10.6861 27.6993 10.5268 28.3706C10.4927 28.5071 10.4699 28.6436 10.4358 28.7801C10.4244 28.837 10.4131 28.8939 10.4017 28.9508C10.3334 28.9508 10.2765 28.9394 10.2538 28.9281C9.98071 28.8825 9.71904 28.8029 9.44598 28.7574C8.61542 28.6322 6.36267 28.6095 6.73813 30.0658C6.89741 30.6802 7.59144 30.9305 8.12618 31.1012C8.84297 31.3173 9.60524 31.397 10.3448 31.4652C11.0388 31.5221 11.6759 31.4083 12.131 30.8395C12.5748 30.282 12.6317 29.5766 12.6317 28.8825C12.6317 28.8484 12.6203 28.8257 12.6089 28.7915C12.7796 28.1089 12.8592 27.3807 12.9957 26.7208C13.2688 25.3669 13.7125 24.0585 13.9401 22.7046C14.0993 21.783 14.5544 19.7464 13.3371 19.3368V19.3482Z" fill="#E6E6E2"/>
<path d="M55.8534 116.535C55.7738 115.75 55.6145 114.965 55.3642 114.214C55.2504 113.872 55.148 113.474 54.7839 113.315C54.4881 113.19 54.1126 113.235 53.7941 113.247C53.1001 113.178 52.4174 113.144 51.712 113.19C51.3366 113.212 51.0521 113.474 51.0407 113.861C50.9839 115.499 50.2898 116.978 50.1078 118.594C49.9257 120.232 49.9257 121.905 49.8575 123.555C49.7778 125.284 49.5503 127.07 49.6186 128.788C49.6754 130.313 51.3138 130.062 52.4174 130.097C53.2138 130.119 54.0216 130.21 54.818 130.176C55.3528 130.153 55.7169 129.903 55.8307 129.368C56.0013 128.629 55.9786 127.787 56.0127 127.036C56.0582 126.16 56.0923 125.284 56.1151 124.408C56.1492 122.701 56.1379 121.006 56.1151 119.299C56.1037 118.31 56.0582 117.422 55.842 116.535H55.8534Z" fill="black"/>
<path d="M10.2523 28.8826C10.3206 28.8826 10.3775 28.8598 10.4344 28.8484C10.8326 28.8484 11.0601 28.5412 11.1056 28.1772C11.2194 27.2214 11.3559 26.2771 11.6745 25.3783C11.8452 24.9118 11.9703 24.4681 11.9817 23.9789C11.9931 23.501 11.9817 23.0118 11.9362 22.5339C11.8906 21.9309 11.2535 21.6806 10.7984 22.0561C9.77444 22.898 9.27384 24.2064 9.06905 25.4921C8.95527 26.2089 8.88699 26.9256 8.84148 27.6424C8.81873 28.0065 8.796 28.382 9.08044 28.6664C9.38763 28.9622 9.87683 28.8939 10.2637 28.8939L10.2523 28.8826Z" fill="black"/>
<path d="M105.108 112.075C104.47 104.577 103.822 97.0678 103.185 89.5701C103.173 89.297 103.139 89.024 103.116 88.7623C103.014 87.6132 102.923 86.4526 102.821 85.3035C102.809 85.167 102.764 85.0646 102.696 84.9736C102.604 84.3592 102.536 83.7448 102.422 83.1304C102.047 80.9801 101.603 78.8525 101.182 76.7135C100.795 74.768 100.568 72.6745 99.8625 70.7972C98.884 66.9289 98.2014 63.0037 97.587 59.067C97.257 54.1975 96.4037 49.3507 95.4594 44.5835C95.1295 42.9224 94.6971 41.3068 94.2079 39.7026C94.242 39.6002 94.2648 39.475 94.2307 39.3385C92.7061 32.7851 89.8731 26.5957 86.255 20.9411C84.8784 18.7908 83.4334 16.5949 81.7609 14.638C81.7382 14.5925 81.7154 14.5469 81.6699 14.5014C81.5789 14.4104 81.4879 14.308 81.3969 14.217C81.0442 13.8302 80.6915 13.4433 80.3274 13.0679C79.9974 12.7493 79.6675 12.4421 79.3261 12.1349C77.8926 10.7355 76.4021 9.39295 74.7524 8.23245C73.7853 7.56118 72.7727 6.95817 71.7374 6.40067C68.2217 4.34135 64.2396 3.07845 60.2461 2.24789C56.8898 1.55386 53.3855 0.882593 49.9495 0.905348C49.4375 0.905348 48.9369 0.93948 48.4249 0.973613C47.2758 0.950858 46.1153 1.00775 44.9661 1.16703C42.8385 1.46284 40.8361 2.12274 38.8451 2.88503C37.9576 3.14671 37.0929 3.44253 36.251 3.79523C35.5797 4.07967 34.9312 4.38686 34.2941 4.7168C26.5005 8.05041 19.8447 13.8643 14.338 20.3267C14.2583 20.4177 14.2128 20.5088 14.19 20.6111C14.1787 20.6453 14.1559 20.668 14.1445 20.7022C13.8942 21.4417 13.6325 22.1812 13.3936 22.9208C13.2685 23.2962 13.223 23.6831 13.223 24.0813C13.223 24.1382 13.223 24.1951 13.223 24.2519C13.1888 24.3316 13.1661 24.4226 13.1547 24.5136C12.9727 26.1065 12.8475 27.7335 12.5062 29.3149C12.2217 29.3718 11.9601 29.5652 11.9487 29.9407C11.9487 29.9748 11.9487 29.9976 11.9487 30.0203C11.9259 30.0772 11.8918 30.1341 11.8804 30.2024C11.596 32.0114 11.4026 33.8318 11.2092 35.6522C11.0612 37.0402 10.8906 38.4397 10.9133 39.8391C10.8109 40.8403 10.7427 41.8415 10.7199 42.8428C10.7086 43.3206 10.6858 43.7985 10.663 44.2763C10.6744 43.4571 10.663 42.6607 10.663 41.9439C10.6972 38.5762 10.7199 35.2085 10.7541 31.8407C10.7541 31.0898 9.74147 30.9988 9.47979 31.5563C9.3205 31.6246 9.17258 31.7497 9.10431 31.9773C8.09172 35.1402 7.60249 38.4397 7.36356 41.7505C7.23841 43.3775 7.17015 45.0159 7.12464 46.6542C7.09051 47.8375 6.91983 49.2369 8.06896 49.9651C8.33064 50.1357 8.66061 50.0561 8.87678 49.8627C9.76423 49.089 10.2193 48.0195 10.4468 46.859C10.3672 47.5417 10.2648 48.2357 10.1283 48.9297C10.0941 49.0662 10.0714 49.2028 10.0487 49.3507C9.78698 50.6818 9.52528 52.013 9.35462 53.3442C9.07018 54.937 9.03606 56.5754 8.89953 58.191C8.56958 61.8773 8.01208 65.5295 7.26117 69.1475C3.89343 78.1357 2.1868 87.6245 1.39038 97.1702C0.969414 102.21 0.787378 107.273 0.719113 112.325C0.650848 117.365 0.514328 122.462 0.764633 127.491C0.878408 129.664 1.31075 131.815 2.57365 133.635C3.68864 135.217 5.2246 136.468 6.9426 137.367C11.3002 139.631 16.3859 139.426 21.1531 139.392C32.0982 139.312 43.0434 139.244 53.9885 139.165C63.1701 139.096 72.3631 139.039 81.5448 138.971C83.57 139.017 85.6065 139.062 87.6317 139.096C93.5594 139.187 100.124 138.436 103.537 132.918C107.338 126.774 105.756 118.833 105.176 112.063L105.108 112.075ZM1.97064 126.581C1.97064 126.581 1.98201 126.661 1.99339 126.706C1.99339 126.706 1.99337 126.706 1.982 126.706C1.982 126.661 1.982 126.627 1.982 126.581H1.97064ZM89.7365 137.321C86.0161 137.23 82.2957 137.037 78.5752 136.878C63.3294 136.229 48.095 135.444 32.8378 135.399C29.0491 135.399 25.249 135.421 21.4603 135.524C18.1267 135.603 14.6338 136.024 11.3229 135.467C8.18275 134.943 5.70246 133.237 4.42818 130.279C3.2563 127.571 3.08564 124.522 2.93774 121.609C2.18682 107.023 3.22215 92.2893 6.64677 78.0674C7.04498 76.4063 7.4887 74.7452 7.95518 73.0955C9.02466 74.0284 10.6175 74.256 11.9373 74.6087C13.7349 75.0865 15.544 75.5644 17.3416 76.0423C17.626 76.1219 17.9105 76.1902 18.1949 76.2698C18.4225 76.3381 18.6614 76.4063 18.889 76.4632C19.7309 76.6908 20.5842 76.8956 21.4375 77.1117C22.3477 77.3507 23.2579 77.5782 24.1795 77.8171C24.2022 77.8171 24.225 77.8285 24.2477 77.8399C29.3107 79.1256 34.3851 80.3088 39.5277 81.2076C42.4745 81.7196 45.4326 82.1406 48.4021 82.425C48.9028 82.4933 49.4034 82.5616 49.904 82.6298C49.904 82.9598 49.904 83.2897 49.904 83.6197L49.8812 88.273C49.8812 89.4677 49.904 91.0605 51.3717 91.3677C51.5992 91.4132 51.7926 91.345 51.9292 91.2312C51.9292 91.2312 51.9405 91.2312 51.9519 91.2312C52.3843 91.2539 52.8166 91.2767 53.249 91.2881C53.8178 91.3108 54.455 91.4246 54.9556 91.106C55.8658 90.5144 55.7179 89.1605 55.7293 88.2275C55.7634 86.4413 55.7975 84.655 55.8203 82.8687C57.5496 82.9029 59.2904 82.8801 61.0198 82.8119C62.112 82.7891 63.2043 82.755 64.2965 82.6639C65.1498 82.5957 65.9917 82.4819 66.8337 82.3568C72.1583 81.7537 77.4147 80.6388 82.5232 79.0345C86.255 77.8626 89.8958 76.4291 93.4342 74.7566C94.8905 74.0626 96.6313 73.3685 97.5643 71.9805C97.7008 71.7757 97.8032 71.5709 97.8942 71.3547C100.511 86.191 101.91 101.209 103.105 116.228C103.606 122.474 104.823 130.893 99.1002 135.273C96.4493 137.31 92.9564 137.412 89.7479 137.321H89.7365ZM64.3078 81.2759C63.0791 81.3783 61.8503 81.4466 60.6102 81.4921C59.0173 81.5148 57.4245 81.4921 55.8316 81.4466C55.8316 81.2986 55.8316 81.1394 55.8316 80.9915C57.8568 81.0142 59.8479 80.8435 61.8276 80.5477C67.8121 79.9675 73.4895 77.8058 79.3375 76.4746C80.6346 76.1788 81.9543 75.9854 83.2741 75.7578C79.8495 77.5896 76.0494 78.6932 72.329 79.7627C70.3607 80.3316 68.4038 80.7753 66.4127 81.0711C65.7073 81.1507 65.0019 81.219 64.2965 81.2759H64.3078ZM30.0503 77.8171C28.3323 77.4417 26.6256 77.0435 24.919 76.6339C24.0429 76.4177 23.1783 76.2015 22.3022 75.974C22.0178 75.9057 21.7219 75.8261 21.4375 75.7578C20.4363 75.4961 19.4351 75.2344 18.4339 74.9614C16.841 74.529 15.2595 74.0853 13.678 73.6188C12.7565 73.3458 11.8349 73.0727 10.9133 72.7883C10.5606 72.6745 10.1965 72.5835 9.84384 72.4583C9.71869 72.4128 9.60494 72.3446 9.47979 72.2877C9.45703 72.2649 9.44564 72.2536 9.42288 72.2308C9.42288 72.2308 9.41152 72.208 9.40014 72.208C9.37738 72.1739 9.36599 72.1511 9.34323 72.117C9.33185 72.0943 9.32048 72.0715 9.3091 72.0488C9.3091 72.0374 9.30912 72.026 9.29775 72.0032C9.29775 71.9919 9.28635 71.9577 9.27497 71.935C9.27497 71.935 9.27497 71.935 9.27497 71.9122C9.27497 71.8895 9.27497 71.8667 9.27497 71.844C9.27497 71.7529 9.27497 71.6619 9.27497 71.5595C9.3091 71.5254 9.34323 71.4913 9.37736 71.4571C9.42287 71.4344 9.46841 71.4002 9.51392 71.3775C9.53668 71.3775 9.59356 71.3547 9.61631 71.3433C9.62769 71.3433 9.65042 71.3433 9.6618 71.3433C9.70731 71.3433 9.74146 71.3433 9.78697 71.3433C9.98039 71.3433 10.1852 71.3434 10.3786 71.3775C10.4241 71.3775 10.4696 71.3775 10.5151 71.3889C14.9068 72.538 19.162 74.1536 23.531 75.371C28.3209 76.7135 33.1904 77.6806 38.0714 78.6249C40.9271 79.319 43.8511 79.8196 46.7183 80.3885C47.7764 80.5932 48.8345 80.7525 49.8926 80.8549C49.8926 80.9687 49.8926 81.0939 49.8926 81.2076C49.062 81.1394 48.2428 81.0597 47.4237 80.9687C41.5984 80.1268 35.7959 79.0914 30.0503 77.8285V77.8171ZM92.2737 39.0427C92.7061 40.4535 93.1498 41.8529 93.6163 43.2523C93.639 43.332 93.6845 43.4003 93.73 43.4571C94.4696 47.4734 95.3343 51.501 95.5391 55.5855C95.7325 59.3515 95.6528 63.1402 95.5846 66.9175C94.845 67.6684 93.9121 68.2145 92.9336 68.681C91.2042 69.5116 89.3725 70.1601 87.5521 70.7972C83.9909 72.0374 80.3729 73.0841 76.8003 74.2787C73.1937 75.4848 69.7122 77.0207 65.9576 77.7375C62.6126 78.3746 59.2335 78.8184 55.8658 79.3076C55.934 78.3633 56.0706 77.0776 54.9442 76.9297C54.3412 76.8501 53.6699 76.9524 53.0555 76.9638C52.3956 76.9752 51.7244 76.9638 51.0645 77.0093C49.8357 77.089 49.8698 78.0902 49.8812 79.0573C46.9344 78.7842 44.0218 78.204 41.1319 77.6465C37.6277 76.9638 34.1462 76.1902 30.6874 75.3141C25.2831 73.9602 19.9357 72.3787 14.6565 70.5924C14.6338 70.5924 14.611 70.5583 14.5883 70.5583C14.5428 70.5469 14.4859 70.5356 14.4404 70.5242C12.9954 70.0349 11.5505 69.523 10.1169 68.9996C10.4696 62.4803 11.2091 55.9724 11.8349 49.4758C11.8349 49.3848 11.8349 49.3165 11.8122 49.2483C11.8122 49.1914 11.8122 49.1345 11.8122 49.089C12.0056 47.6668 12.2104 46.256 12.381 44.8338C12.5745 43.2523 12.6086 41.6709 12.8589 40.0894C13.2002 37.9504 13.5643 35.8115 13.9511 33.6725C14.1445 33.0467 14.3038 32.421 14.4745 31.7838C15.453 28.7802 15.6919 25.5717 16.7272 22.5908C17.3075 21.6465 17.9333 20.7363 18.6159 19.8602C19.071 19.3596 19.5261 18.8818 19.9584 18.4039C21.6764 16.538 23.4968 14.7745 25.4538 13.1589C28.1502 11.2589 30.9377 9.48397 33.7935 7.83424C37.2977 6.54858 40.8475 5.25155 44.5566 4.68267C48.5614 4.06829 52.7256 4.48926 56.7191 5.01262C60.5647 5.51323 64.4103 6.36654 67.8349 8.2552C69.0978 8.94923 70.3266 9.71152 71.5439 10.4966C73.023 11.6571 74.4225 12.9313 75.8788 14.0919C79.3717 17.0728 82.7963 20.2016 85.1855 24.1723C88.0072 28.8598 90.2258 34.0024 92.2623 39.0768L92.2737 39.0427ZM9.26361 71.844C9.26361 71.844 9.26361 71.9122 9.26361 71.9236C9.26361 71.8895 9.24086 71.8553 9.26361 71.844ZM47.4806 2.41855C47.4123 2.41855 47.3441 2.41855 47.2758 2.42993C47.3441 2.42993 47.4009 2.41855 47.4692 2.40718L47.4806 2.41855Z" fill="black"/>
</svg>
