<svg width="105" height="129" viewBox="0 0 105 129" fill="none" xmlns="http://www.w3.org/2000/svg">
<path d="M23.9274 125.908C16.7193 125.773 9.51128 125.584 2.30322 125.382C2.89714 118.336 3.78803 111.33 5.01637 104.365C29.2592 105.864 53.556 106.43 77.8393 105.985C84.9664 105.864 92.0934 105.648 99.207 105.351C99.9629 105.324 100.719 105.283 101.475 105.256C102.15 112.154 102.73 119.065 103.189 125.989C76.773 126.448 50.3434 126.435 23.9274 125.922V125.908Z" fill="#E6E6E2"/>
<path d="M99.2085 104.46C67.1637 105.783 35.0515 105.418 3.04716 103.353C2.81769 95.038 4.22151 86.6691 7.16413 78.8806C16.0055 78.6917 24.8603 78.5027 33.7016 78.3272C36.4958 78.2732 39.3979 78.1112 42.1245 78.7322C44.8512 79.3396 58.6734 79.92 62.4664 78.9346C64.6531 78.3677 67.2312 78.4217 69.4854 78.4487C79.1097 78.5432 88.7339 78.6377 98.3581 78.7186C100.909 87.0066 102.34 95.6454 102.61 104.325C101.476 104.379 100.342 104.419 99.195 104.473L99.2085 104.46Z" fill="#E6E6E2"/>
<path d="M103.204 104.959C103.379 104.797 103.501 104.581 103.501 104.324C103.204 95.5639 101.773 86.8846 99.2216 78.4887C99.1136 78.1107 98.7627 77.8407 98.3712 77.8407C90.9202 77.7733 83.4557 77.7058 76.0046 77.6248C72.4951 77.5978 68.9451 77.3818 65.449 77.6248C63.3973 77.7598 61.4401 78.3267 59.3883 78.4617C55.1634 78.7451 50.871 78.6101 46.646 78.3402C45.2152 78.2457 43.7709 78.1512 42.3671 77.8947C39.0195 77.2738 35.6854 77.4223 32.2974 77.4898C23.915 77.6653 15.5461 77.8408 7.16369 78.0162C6.74524 78.0162 6.44828 78.2862 6.31329 78.6641C3.37068 86.5606 1.98036 94.943 2.16934 103.366C2.16934 103.865 2.56079 104.216 3.04673 104.243C3.11422 104.243 3.18171 104.243 3.2492 104.243C1.98037 111.519 1.04899 118.862 0.455069 126.232C0.414574 126.718 0.887014 127.096 1.33246 127.109C28.0589 127.906 54.7989 128.203 81.5254 128.014C89.0574 127.96 96.5894 127.865 104.121 127.73C104.567 127.73 105.026 127.339 104.999 126.853C104.526 119.55 103.919 112.248 103.19 104.959H103.204ZM7.78461 79.7575C15.0062 79.609 22.2412 79.447 29.4628 79.2986C32.9588 79.2311 36.5628 78.9206 40.0454 79.2851C41.7866 79.4605 43.4739 79.852 45.2287 79.987C49.4401 80.3244 53.6921 80.4459 57.917 80.2839C59.5233 80.2164 61.1296 80.1084 62.6954 79.771C66.1105 79.0286 69.6875 79.3121 73.1565 79.3526C81.3364 79.4335 89.5164 79.501 97.6963 79.582C100.005 87.33 101.341 95.3075 101.678 103.379C101.638 103.406 101.584 103.433 101.543 103.474C100.76 103.514 99.9775 103.541 99.1946 103.582C74.2769 104.608 49.3052 104.621 24.3874 103.595C17.5573 103.312 10.7407 102.947 3.92411 102.516C3.84312 94.7405 5.15245 87.06 7.78461 79.744V79.7575ZM23.9285 125.908C16.7204 125.773 9.51237 125.584 2.30432 125.382C2.89824 118.335 3.78913 111.33 5.01747 104.365C29.2603 105.863 53.5571 106.43 77.8404 105.985C84.9675 105.863 92.0945 105.647 99.2081 105.35C99.964 105.323 100.72 105.283 101.476 105.256C102.151 112.153 102.731 119.064 103.19 125.989C76.774 126.448 50.3445 126.434 23.9285 125.921V125.908Z" fill="black"/>
<path d="M100.545 120.9C100.423 120.765 100.275 120.671 100.154 120.549C100.086 120.482 100.032 120.428 99.9645 120.36C99.9375 120.306 99.9105 120.266 99.8835 120.225C100.437 119.834 100.491 118.889 99.6676 118.673C98.9927 118.498 98.3447 118.808 98.0883 119.416C98.0883 119.416 98.0883 119.416 98.0613 119.443C97.8318 119.699 97.3594 119.983 96.8869 120.172C96.8869 120.104 96.8869 120.037 96.8869 119.942C96.7925 119.146 95.6046 118.727 95.2537 119.47C95.1862 119.497 95.1322 119.51 95.0647 119.537C94.6732 119.713 94.3763 120.077 93.9038 119.915C93.5664 119.807 93.3639 119.456 92.986 119.375C92.6215 119.294 92.2975 119.416 92.0006 119.618C91.7441 119.794 90.1648 121.535 89.9084 120.9C89.8544 120.752 90.2863 120.131 90.3133 119.888C90.3673 119.456 90.2593 119.092 90.0433 118.727C89.7869 118.309 89.2605 118.187 88.842 118.417C88.518 118.592 88.2076 118.781 87.9106 118.984C87.7351 118.808 87.5057 118.7 87.1817 118.714C86.9387 118.727 86.7093 118.835 86.4933 118.984C86.1693 118.457 85.3595 118.498 84.995 119.011C84.914 119.132 84.833 119.254 84.7655 119.389C84.7385 119.267 84.725 119.146 84.698 119.024C84.5091 118.039 82.9703 118.282 82.9703 119.254C82.9703 119.618 82.9433 119.969 82.8488 120.32C82.7948 120.522 82.5788 120.887 82.6598 121.008C82.0389 120.064 80.5136 120.941 81.148 121.899C81.6744 122.709 82.7273 123.047 83.5642 122.48C83.6047 122.696 83.6452 122.912 83.6857 123.128C83.8207 123.87 84.9545 123.978 85.292 123.344C85.6024 122.75 85.7374 122.061 85.8994 121.413C86.1693 121.454 86.4528 121.4 86.6823 121.197C86.7228 121.17 86.8848 121.035 87.0467 120.887C87.3167 121.157 87.7351 121.143 88.0726 120.981C88.0861 121.386 88.2481 121.778 88.5045 122.075C89.22 122.925 90.3808 122.952 91.3122 122.48C91.7846 122.237 92.1896 121.872 92.5675 121.494C92.6215 121.44 92.689 121.373 92.743 121.319C92.8645 121.386 93.0129 121.454 93.1074 121.494C93.5394 121.697 94.0118 121.764 94.4843 121.697C94.5652 121.697 94.9027 121.535 95.2132 121.4C95.2537 121.508 95.2807 121.616 95.3347 121.724C95.4831 121.98 95.7936 122.169 96.0905 122.156C96.7925 122.129 97.5484 121.764 98.1963 121.494C98.3043 121.454 98.3987 121.4 98.4932 121.346C98.5202 121.386 98.5607 121.427 98.6012 121.467C98.1288 121.94 98.3178 122.979 99.1951 122.993C99.978 122.993 100.815 122.642 100.869 121.751C100.882 121.44 100.761 121.157 100.572 120.914L100.545 120.9Z" fill="black"/>
<path d="M100.274 80.2841C100.274 80.2841 100.301 80.1761 100.287 80.1086C100.274 79.9467 100.247 79.7847 100.22 79.6227C100.22 79.5552 100.22 79.4877 100.206 79.4202C100.206 79.3797 100.179 79.3392 100.179 79.2988C98.7078 67.1233 93.16 56.0818 87.1938 45.5262C84.0487 39.9514 80.8632 34.3901 77.7856 28.7749C76.1523 25.7918 74.492 22.8087 72.7372 19.893C72.7372 19.893 72.7372 19.893 72.7372 19.8795C70.7935 16.1945 69.0522 12.1181 66.474 8.82449C64.0579 5.7334 60.1974 3.91114 56.4988 2.81778C56.4853 2.81778 56.4718 2.81778 56.4583 2.81778C55.2435 2.25086 53.9882 1.73792 52.6923 1.38697C48.9668 0.361104 44.8499 0.563578 41.6373 2.88527C40.274 3.87064 39.1266 5.09898 38.0738 6.40831C37.1694 7.2857 36.346 8.28456 35.6576 9.43191C33.9298 12.2665 32.58 15.3441 31.0142 18.2733C29.4619 21.1754 27.8286 24.037 26.1548 26.8851C23.0907 32.0684 19.9996 37.2113 17.4215 42.6511C10.6994 54.3405 5.08409 67.0963 5.43504 80.824C5.46204 81.9579 7.21681 81.9579 7.18982 80.824C7.18982 80.4596 7.18982 80.0951 7.18982 79.7307C7.52727 79.6497 7.78374 79.3797 7.72975 78.9343C7.67575 78.3674 7.64876 77.814 7.63526 77.247C7.75674 75.5328 7.94572 73.832 8.22919 72.1447C8.74212 69.823 9.51152 67.5418 10.2539 65.2876C10.8613 63.4383 11.4553 61.6026 12.0627 59.7533C13.588 56.0683 15.0998 52.3968 16.6386 48.7253C17.4485 46.795 18.3259 44.9053 19.2302 43.029C22.0109 38.2506 24.967 33.5937 27.8421 28.8829C30.9332 23.8345 33.6059 18.4757 37.0884 13.6839C40.166 9.45891 44.3099 5.7334 49.4933 4.50506C51.9499 4.24859 54.4336 4.78852 56.8093 5.7199C57.0928 5.82789 57.3762 5.94937 57.6462 6.07085C57.7812 6.12485 57.9162 6.19234 58.0376 6.24633C58.2536 6.34082 58.4561 6.43531 58.6721 6.54329C59.9544 7.17771 61.1827 7.87962 62.3706 8.67601C63.221 9.49941 64.0174 10.3768 64.7598 11.3082C67.095 14.2238 69.1467 17.3554 71.0769 20.568C71.1174 20.6354 71.1579 20.7164 71.1849 20.7839C71.2119 20.8244 71.2389 20.8379 71.2659 20.8784C72.4538 22.8762 73.6011 24.9009 74.7215 26.9256C77.7046 32.2844 80.6472 37.6567 83.6843 42.975C90.1499 54.273 96.7371 66.0435 98.3704 79.1638C98.3704 79.2178 98.3299 79.2718 98.3299 79.3258C98.3299 79.9062 98.3569 80.5001 98.3974 81.0805C98.4109 81.256 98.4648 81.4045 98.5593 81.553C98.5998 82.0389 98.6133 82.5248 98.6538 83.0108C98.6943 83.4697 99.0318 83.9151 99.5312 83.8882C99.9766 83.8747 100.449 83.4967 100.409 83.0108C100.328 82.1064 100.274 81.202 100.22 80.2976L100.274 80.2841Z" fill="black"/>
<path d="M44.1497 78.4887C44.0282 87.0061 43.9202 95.5235 43.7987 104.041C43.7447 107.834 43.7042 111.681 44.7436 115.325C45.9314 119.456 50.5883 123.951 53.3555 124.545C56.2306 123.843 59.0652 120.846 60.4285 117.688C61.5354 115.123 61.8459 112.963 61.9943 110.169C62.0753 108.738 62.1563 107.037 62.0348 105.499C61.8998 103.838 61.8864 102.178 61.8729 100.504C61.8189 93.3502 61.2519 86.2502 61.1979 79.0961C61.1979 78.9341 61.1979 78.7587 61.063 78.6642C60.9685 78.5832 61.0495 78.5967 60.9145 78.5967C55.4207 78.5427 49.7109 78.4617 44.2172 78.4077" fill="#E6E6E2"/>
<path d="M62.7482 101.058C62.6942 96.3606 62.4782 91.6767 62.2892 86.9794C62.1947 84.5362 62.1407 82.093 62.0733 79.6498C62.0193 77.6386 61.1284 77.7061 59.3061 77.6926C54.2713 77.6386 49.2364 77.5711 44.2016 77.5171C43.8236 77.5171 43.5672 77.7196 43.4457 77.9895C43.3377 78.1245 43.2567 78.2865 43.2567 78.5025C43.1352 87.6273 42.9328 96.7386 42.8788 105.863C42.8518 109.602 42.9058 113.733 44.4986 117.202C45.8079 120.05 48.1296 122.655 50.7617 124.342C51.5446 124.842 52.611 125.49 53.5694 125.395C55.1487 125.233 56.8089 123.87 57.9023 122.831C60.5749 120.266 62.0868 116.743 62.5862 113.098C63.1396 109.076 62.7752 105.094 62.7347 101.058H62.7482ZM61.1689 108.819C61.0339 112.316 60.6694 115.798 58.8202 118.862C57.8888 120.401 56.647 121.832 55.1217 122.804C54.6627 123.101 53.8933 123.668 53.3399 123.627C52.7865 123.6 52.1116 123.101 51.6661 122.804C49.2904 121.278 47.1982 118.862 46.0374 116.298C44.539 112.963 44.6335 108.914 44.6605 105.337C44.7415 96.6576 44.89 87.9647 45.0115 79.2854C48.6965 79.3258 52.3815 79.3664 56.08 79.4203C56.9709 79.4203 57.8753 79.4473 58.7797 79.4473C59.2251 79.4473 59.6706 79.4473 60.116 79.4608H60.2375C60.1565 80.7162 60.4535 84.8196 60.467 85.2921C60.6154 89.328 60.8314 93.364 60.9394 97.4C61.0339 101.193 61.3308 105.04 61.1824 108.819H61.1689Z" fill="black"/>
</svg>
