<svg width="130" height="134" viewBox="0 0 130 134" fill="none" xmlns="http://www.w3.org/2000/svg">
<path d="M129.052 125.223C128.814 124.21 128.588 123.186 128.416 122.152C128.168 119.867 128.06 117.582 127.726 115.298C127.651 114.77 127.564 114.252 127.489 113.724C127.834 113.002 128.039 112.194 128.082 111.343C128.114 110.782 128.114 110.222 128.114 109.661C128.383 108.681 128.717 107.732 128.901 106.73C129.105 105.609 129.267 104.478 129.149 103.346C129.073 102.57 128.933 101.794 128.804 101.029C128.825 100.49 128.782 99.9408 128.664 99.3804C128.62 99.1648 128.577 98.9493 128.534 98.7338C128.491 98.529 128.437 98.3458 128.373 98.1518C128.222 97.4837 128.082 96.8155 127.985 96.1473C127.618 93.1622 127.327 90.1555 126.95 87.1703C126.885 86.6961 126.842 86.2004 126.788 85.7154C127.079 85.4783 127.295 85.1766 127.349 84.8102C127.618 83.0536 127.327 81.4479 126.778 79.7775C126.26 78.1933 125.883 76.7168 125.689 75.068C125.484 73.3006 125.15 71.5656 124.719 69.8413C124.482 68.8606 124.094 67.8368 123.383 67.104C123.361 66.7591 123.361 66.4035 123.361 66.0371C123.383 63.8278 123.911 61.0043 122.93 59.0214C123.07 57.7174 123.157 56.4026 123.167 55.0771C123.167 54.6029 123.167 54.1287 123.157 53.6546C123.157 53.4282 123.135 53.2019 123.135 52.9756C123.135 52.9002 123.135 52.8355 123.135 52.7601C123.2 52.717 123.254 52.6739 123.264 52.6523C123.437 52.4907 123.577 52.2751 123.695 52.0704C123.954 51.6177 124.062 51.025 123.986 50.497C124.493 48.9774 124.213 47.307 123.652 45.6798C123.361 44.8284 122.715 44.3865 121.842 44.3003C117.757 43.9231 113.802 42.6622 109.718 42.1988C108.22 42.0264 106.711 41.9618 105.213 41.8863C102.584 41.3475 99.9112 41.0457 97.2277 40.9703C96.8613 40.9703 96.5488 41.0565 96.2794 41.2182C93.596 40.8626 90.9126 40.4961 88.2291 40.0974C87.2269 39.9465 86.2139 40.3453 85.9229 41.4122C85.7936 41.8756 85.8906 42.4467 86.1492 42.9101C85.9876 43.1795 85.8798 43.4921 85.8475 43.8693C85.5134 47.6627 85.4056 51.4777 85.5457 55.2926C85.5673 55.8099 85.5781 56.338 85.6319 56.8553C84.3172 56.7475 82.9916 56.6397 81.6769 56.532C81.6014 56.0578 81.4506 55.5944 81.2458 55.1418C80.9872 54.5814 80.5561 54.0641 80.3513 53.4929C80.1681 52.9864 80.3513 52.5984 80.4806 52.0812C80.5992 51.6285 80.6746 51.1867 80.6962 50.7556C81.1596 50.5185 81.5691 50.0982 81.6661 49.5917C82.0002 47.7705 82.345 45.9492 82.6791 44.1279C82.9701 42.576 83.7999 40.3884 82.0756 39.3861C80.61 38.5348 78.4331 38.8365 76.8597 39.0628C75.2755 39.2891 73.7452 39.6017 72.1287 39.6448C64.9837 39.8711 57.774 39.4939 50.6398 39.149C48.8616 39.0628 48.3982 41.0781 49.2388 42.1881C49.1095 42.4467 49.0233 42.7269 49.0233 43.0179C49.034 44.7961 49.1203 46.5634 49.2819 48.3308C49.3789 49.3762 50.0686 50.1521 51.1571 50.206C51.2864 50.206 51.4696 50.206 51.6744 50.2168C51.8252 50.6047 52.0623 50.9388 52.3748 51.1975C52.2455 51.8764 52.4826 52.5769 52.9783 53.0295C52.9029 53.536 52.8167 54.0425 52.7413 54.549C52.7197 54.6784 52.7089 54.8077 52.7089 54.9262C52.6874 54.937 52.6658 54.9478 52.655 54.9586C52.224 55.2711 51.9007 55.6267 51.5881 56.0578C51.5019 56.1763 51.3942 56.3164 51.2972 56.4565C50.4781 56.6074 49.7238 57.254 49.6699 58.2563C49.6591 58.4826 49.6699 58.6873 49.7238 58.8813C49.6375 59.1076 49.1095 59.2046 48.5599 59.2585C47.827 59.1507 47.0727 59.1399 46.3399 59.2369C46.5877 57.8144 46.6093 56.4242 45.1329 55.5297C44.7233 55.2819 44.1845 55.2387 43.969 54.7753C43.6349 54.0425 44.0229 53.0403 44.2061 52.329C44.2168 52.2751 44.2276 52.2212 44.2384 52.1674C45.1652 52.1135 45.9411 51.1544 45.9842 50.2707C46.1028 47.3933 46.1351 44.5159 46.0704 41.6385C46.0489 40.6793 45.2298 39.6879 44.1953 39.7633C38.1387 40.2159 32.0391 40.4746 26.0149 41.2182C23.0944 41.5738 20.3032 42.4791 17.3935 42.8994C14.6669 43.2981 11.962 43.589 9.50487 44.9577C8.71817 45.3995 8.48108 46.1324 8.62118 46.8113C8.11467 47.2316 7.79137 47.9213 7.92069 48.7188C8.15778 50.2168 7.76981 51.7794 7.55428 53.245C7.31719 54.8939 7.27408 56.435 7.50039 58.0838C7.93146 61.2414 8.54574 64.3774 9.0738 67.5242C9.12768 67.826 9.257 68.0739 9.45099 68.2786C8.4703 71.4039 7.31719 74.5292 6.60592 77.7191C6.59514 77.773 6.58437 77.8376 6.57359 77.8915C6.1964 78.1609 5.88388 78.5381 5.74378 78.9476C5.70067 79.0662 5.65757 79.1739 5.62524 79.2925C5.24805 79.4973 4.9463 79.8529 4.8062 80.4025C3.91173 83.808 3.21124 87.2457 2.70473 90.7266C2.44609 92.5156 2.21978 94.3045 2.05812 96.1043C1.99346 96.7724 1.93958 97.4513 1.90725 98.1195C-0.442084 100.393 1.1421 103.831 1.21754 106.644C1.29298 109.974 2.31677 113.142 2.32754 116.472C2.32754 118.207 2.19822 119.932 2.0258 121.645C1.87492 123.165 1.57317 124.738 1.90725 126.258C2.26288 127.885 3.46988 128.736 4.84931 129.448C6.25029 130.17 7.70515 130.859 9.257 131.183C11.3693 131.624 13.5462 131.538 15.6045 130.978C15.9925 131.15 16.4451 131.193 16.9085 131.129C18.622 130.87 20.3463 130.708 22.0814 130.611C22.1352 130.611 22.1783 130.633 22.2215 130.633C30.9075 130.87 39.5936 131.086 48.2797 131.269C49.6914 131.765 51.211 131.786 52.7413 131.786C54.2392 131.786 55.7372 131.786 57.2352 131.786C57.4399 131.786 57.6447 131.786 57.8494 131.786C59.1965 132.023 60.5544 132.153 61.9123 131.991C62.0524 131.969 62.1925 131.959 62.3326 131.937C64.1323 132.228 65.9536 132.411 67.7748 132.487C71.4066 132.638 75.0599 132.573 78.7025 132.53C82.3989 132.487 86.0846 132.4 89.781 132.26C91.5807 132.196 93.3912 132.163 95.1909 132.023C95.9022 131.969 96.5811 131.872 97.2277 131.721C97.7881 131.915 98.3809 132.012 98.9736 131.948C104.588 131.398 110.16 131.204 115.753 131.797C116.206 132.077 116.701 132.293 117.251 132.4C118.835 132.734 120.462 132.95 122.079 133.047C123.2 133.112 124.288 132.734 125.215 132.088C125.42 132.034 125.614 131.959 125.808 131.883C128.426 130.773 129.72 128.003 129.062 125.245L129.052 125.223ZM116.216 51.5423C116.26 51.6178 116.238 51.7363 116.216 51.5423ZM102.067 55.5728C102.067 55.5728 102.067 55.5728 102.056 55.5728C102.056 55.5728 102.056 55.5728 102.067 55.5728ZM98.1761 56.9738C98.2731 56.4781 98.4994 56.2625 98.9951 56.0147C99.5016 55.7668 100.073 55.6375 100.633 55.5944C101.15 56.3595 101.582 57.1678 101.905 58.0407C100.655 58.2131 99.34 58.461 98.0899 58.17C98.0252 58.1592 97.9606 58.1485 97.9067 58.1377C98.0144 57.7821 98.0899 57.4156 98.1761 56.9846V56.9738ZM30.7566 55.9069C30.6704 56.0901 30.6273 55.95 30.7566 55.9069ZM32.7072 61.9096C32.8258 62.1035 32.9336 62.2867 33.0521 62.4807C33.3646 62.9872 33.7741 63.2674 34.2052 63.3644C34.2052 63.3644 34.2052 63.3644 34.2052 63.3752C34.2699 63.677 34.216 64.0218 34.2052 64.4206C34.2052 64.4421 34.2052 64.4744 34.2052 64.496C34.022 64.7438 33.9035 65.0348 33.8711 65.3474C33.6987 65.412 33.5263 65.4767 33.3539 65.5413C33.1599 65.6168 32.9982 65.7138 32.8581 65.8107C32.0391 65.7569 31.1769 65.2935 30.5196 64.8301C30.6381 64.593 30.7135 64.3236 30.692 64.0649C30.6704 63.8602 30.6381 63.6554 30.5842 63.4614C30.6597 63.4399 30.7459 63.4291 30.8213 63.4075C31.414 63.2675 31.8559 62.804 32.0606 62.2436C32.2977 62.179 32.5133 62.0604 32.6857 61.8988L32.7072 61.9096ZM50.4242 74.777C50.5212 74.8848 50.629 74.971 50.7368 75.0788C50.4566 75.2404 50.1764 75.4129 49.8854 75.5637C48.1611 76.5121 47.0942 78.4842 47.0942 80.424C47.0942 80.4671 47.0942 80.4995 47.0942 80.5426C46.4261 80.4887 45.7687 80.4241 45.1005 80.381C43.2469 80.2732 41.3825 80.2193 39.5289 80.2193C39.8091 78.6028 39.9061 76.9539 40.3264 75.3267C40.5958 74.3136 41.2532 73.4946 41.6196 72.5462C44.0875 72.8803 46.5123 73.4084 49.0233 73.1282C49.4328 73.7101 49.907 74.2597 50.4135 74.777H50.4242ZM34.0543 56.4134C34.2591 56.4457 34.4315 56.4673 34.5824 56.5535C34.6255 56.5966 34.6794 56.6397 34.7225 56.6936C34.5932 57.0169 34.5609 57.3833 34.6363 57.7605C34.3022 58.2993 33.6448 58.655 33.1168 58.9028C33.0198 58.9459 32.9443 59.0106 32.8689 59.0645C32.6534 58.8382 32.3732 58.6765 32.0068 58.6119C30.8967 58.4071 31.3709 56.7691 31.6511 55.8315C32.1037 55.8099 32.5456 55.7884 32.9874 55.7129C33.203 56.0686 33.5586 56.3272 34.0651 56.4027L34.0543 56.4134ZM98.0791 63.4937C99.4154 63.4075 100.763 63.3429 102.099 63.289C101.657 63.9248 101.56 64.7762 101.625 65.6168C100.924 65.8215 100.159 65.7892 99.4046 65.6922C99.2214 65.6599 99.0275 65.6168 98.8443 65.5952L98.7904 65.5629C98.7257 65.2719 98.5964 65.0133 98.4024 64.7977C98.4024 64.7115 98.3916 64.6361 98.3701 64.5606C98.2839 64.1835 98.1438 63.8171 97.9282 63.5045C97.9713 63.5045 98.0144 63.5045 98.0575 63.5045L98.0791 63.4937ZM51.1247 56.7367C51.0277 56.8876 50.9846 56.8014 51.1247 56.7367Z" fill="#E6E6E2"/>
<path d="M86.9449 32.3595C87.1389 30.3227 86.9773 28.2859 86.5354 26.2922C86.5139 26.1952 86.4815 26.1089 86.4384 26.0335C86.4169 25.8611 86.3953 25.6887 86.3846 25.527C86.266 24.5355 86.0936 23.5549 85.8457 22.5957C85.8134 22.4556 85.7703 22.3155 85.7272 22.1647C85.6733 21.6043 85.6194 21.0439 85.5871 20.4727C85.5655 20.2033 85.4578 19.9985 85.3069 19.8477C85.253 19.5782 85.1776 19.298 85.1021 19.0286C84.8435 18.1341 84.628 17.2289 84.3585 16.3344C83.9059 14.8365 83.2809 13.4139 82.2894 12.2069C81.9984 10.9029 81.1255 9.65285 80.3388 8.65062C79.2611 7.27119 77.7955 5.79476 76.0712 5.23437C75.8018 4.92184 75.5216 4.62011 75.2522 4.30758C75.0366 4.05971 74.778 3.98426 74.5409 4.01659C74.2607 3.79027 73.9913 3.5963 73.765 3.45621C72.3748 2.56173 70.7259 2.17377 69.1094 1.93668C66.329 1.53794 63.5055 1.17153 60.9837 2.31387C60.8652 2.29232 60.7359 2.28153 60.6065 2.30308C58.6128 2.59406 56.9101 4.03813 55.4229 5.28824C55.3259 5.37445 55.2289 5.46069 55.1319 5.5469C55.0781 5.57923 55.035 5.60077 54.9811 5.6331C54.2806 6.06417 53.6663 6.62458 53.1167 7.22807C52.5778 7.8208 52.1037 8.53207 51.4894 9.04935C51.2092 9.28644 50.8536 9.39418 50.5734 9.63127C50.2177 9.93302 50.0022 10.3318 50.0022 10.806C50.0022 10.9137 50.013 11.0215 50.0453 11.1293C49.5711 11.7328 49.2155 12.4117 48.7952 13.0799C48.4504 13.6402 48.0301 14.1468 47.7391 14.7395C47.4481 15.3214 47.2326 15.9357 47.0925 16.5715C47.017 16.9271 46.9632 17.2828 46.92 17.6384C46.8769 17.9617 46.8231 18.2958 46.92 18.6083C46.9308 18.6514 46.9632 18.6838 46.9739 18.7269C45.81 21.2379 45.8963 24.1045 46.0687 26.8526C46.0687 26.9711 46.101 27.0789 46.1441 27.1758C46.0902 31.7667 46.0364 36.3577 45.9933 40.9486C45.9933 41.218 46.101 41.4335 46.2627 41.5952C46.2411 42.3819 46.2303 43.1578 46.2411 43.9445C46.2411 44.257 46.3812 44.4833 46.5752 44.6342C46.5105 46.5956 46.5105 48.5462 46.5752 50.5076C46.5752 50.7123 46.6399 50.874 46.7368 51.0033C46.6722 51.1218 46.6183 51.2619 46.6183 51.4236C46.6183 52.4366 46.7261 53.4281 46.9632 54.4195C47.0063 54.592 47.0817 54.7105 47.1787 54.8183C47.1571 55.6912 47.2434 56.5533 47.4373 57.4155C47.6098 58.1806 48.7952 58.3531 49.1508 57.6418C49.3233 57.2969 49.5065 56.9736 49.7543 56.6719C49.8729 56.5318 50.1746 56.1223 50.3902 55.9929C50.8967 55.9283 51.3493 55.4972 51.1661 54.8506C50.7027 53.2018 50.2501 51.5421 49.7867 49.8933C49.722 49.6778 49.5927 49.5161 49.4203 49.3976C49.0646 46.7465 48.7737 44.0954 48.6336 41.4227C48.8922 39.3105 48.7952 37.1552 48.5904 35.0214C48.5581 34.655 48.5258 34.2777 48.4935 33.9113C48.515 32.5211 48.515 31.1201 48.5904 29.7084C48.6982 27.8332 49.0107 26.012 49 24.1152C49 22.2832 49.0862 20.4619 49.2694 18.6407C50.11 17.8001 50.5195 16.5392 50.832 15.4184C51.1769 14.1575 51.4894 12.9074 52.3731 11.8944C52.4916 11.7543 52.5563 11.6034 52.5994 11.431C52.9227 11.0862 53.2137 10.709 53.4939 10.3533C54.5608 9.01701 55.8971 7.81002 57.2657 6.78622C58.0201 6.22583 58.8284 5.7301 59.6366 5.26669C59.8737 5.1266 60.1216 5.00806 60.3587 4.86796C60.5203 4.92184 60.7035 4.92184 60.9083 4.86796C63.3762 4.0597 66.2751 3.41309 68.8615 3.98426C69.9608 4.23212 70.7475 5.33135 71.6419 5.96718C72.6334 6.66767 73.7326 7.18496 74.8858 7.56215C75.0151 7.60526 75.1444 7.61603 75.2629 7.59448C75.9311 8.51051 76.61 9.43731 77.3967 10.224C77.4075 10.2348 77.4291 10.2564 77.4399 10.2671C78.2804 11.6466 79.2072 12.9721 80.2957 14.1683C80.8884 15.3861 81.438 16.6254 81.9122 17.8971C82.1385 18.5006 82.3325 19.1256 82.548 19.7399C82.4079 20.0093 82.4187 20.3434 82.548 20.6451C83.2701 22.3155 83.421 24.1692 83.4964 25.9581C83.5395 26.9711 83.5503 27.9949 83.6149 29.0079C83.6365 29.2881 83.6365 29.5791 83.7011 29.8593C83.6257 30.646 83.6688 31.4542 83.6473 32.2625C83.6042 33.5126 83.4102 34.7412 83.5395 35.9589C83.3779 36.1098 83.2701 36.3361 83.2916 36.6379C83.4209 38.5238 83.5287 40.399 83.3563 42.2849C83.1839 44.257 82.7743 46.2076 82.3972 48.1475C82.2463 48.9342 82.0415 49.7316 82.0523 50.5399C82.0523 50.874 82.1385 51.1973 82.117 51.5206C82.0846 51.9732 81.9014 52.4582 81.8044 52.9C81.632 53.6436 81.4488 54.2686 81.9445 54.926C81.9769 54.9691 82.0092 55.0015 82.0415 55.0338C82.0092 55.3032 82.0846 55.5834 82.3109 55.7666C82.7636 56.1223 83.2809 56.2947 83.7874 56.133C83.8844 56.1654 83.9813 56.1977 84.0676 56.2085C84.3801 56.2408 84.6818 56.2516 84.962 56.0899C85.6517 55.6804 85.4793 54.9045 85.4039 54.2471C85.1991 52.372 85.2314 50.486 85.2745 48.6001C85.3177 46.7788 85.4039 44.9468 85.5871 43.1363C85.7164 41.9185 85.8565 40.7115 85.8996 39.4937C86.2876 38.1143 86.4169 36.7025 86.4277 35.2908C86.6648 34.3209 86.8264 33.3402 86.9234 32.3487L86.9449 32.3595Z" fill="#E6E6E2"/>
<path d="M68.2287 0.913111C60.5234 -0.854279 52.6132 3.17623 48.3564 9.59918C44.6815 15.1384 43.4745 22.0032 43.1835 28.534C43.0219 32.2196 43.1728 35.9053 43.4961 39.5802C43.5607 40.3238 44.7246 40.3238 44.6599 39.5802C44.6492 39.4185 44.6384 39.2568 44.6276 39.106C44.897 39.1599 45.285 39.3538 45.4035 39.0305C45.8023 37.9744 45.5436 36.5411 45.4898 35.4419C45.4359 34.2241 45.4035 33.0063 45.4035 31.7886C45.4035 29.1698 45.5221 26.551 45.77 23.9431C46.007 21.486 46.1795 18.8672 47.0416 16.5394C47.8606 14.3086 49.294 12.3581 50.3609 10.2566C50.4147 10.1596 50.4255 10.0626 50.4255 9.97638C50.9212 9.28666 51.4278 8.59696 51.9235 7.89647C52.139 7.59472 52.3869 7.2391 52.5809 7.00201C52.6994 6.85114 52.8287 6.71103 52.9688 6.59249C53.0012 6.56016 53.0335 6.5386 53.0658 6.51704C53.0227 6.54937 53.0874 6.50628 53.0982 6.4955C53.1844 6.44162 53.2706 6.38772 53.3676 6.34461C53.637 6.21529 53.7017 5.85965 53.5939 5.60101C53.8418 5.40703 54.0788 5.22384 54.3375 5.04063C58.271 2.29256 63.1852 0.967015 67.927 2.04469C68.6598 2.20634 68.9723 1.08555 68.2395 0.923898L68.2287 0.913111Z" fill="black"/>
<path d="M49.0128 39.8494C59.9512 39.8494 71.4608 39.9572 82.3992 39.9572C83.1428 39.9572 83.1536 38.7933 82.3992 38.7933C71.4608 38.7933 59.9512 38.6855 49.0128 38.6855C48.2692 38.6855 48.2584 39.8494 49.0128 39.8494ZM128.976 110.998C129.494 108.282 130.086 105.674 129.989 102.883C129.785 97.4512 127.856 92.2568 127.619 86.8253C127.5 84.1527 127.834 81.4693 127.403 78.8182C126.961 76.1132 125.883 73.5484 125.226 70.8973C123.782 65.0455 123.319 58.9459 123.76 52.9324C123.76 52.9109 123.76 52.8893 123.76 52.8678C123.825 52.8247 123.901 52.7708 123.965 52.7277C124.849 52.0487 124.946 51.1435 124.773 50.1089C124.472 48.3523 124.181 46.6388 124.073 44.8606C124.073 44.8175 124.051 44.7744 124.041 44.7421C124.127 44.4619 124.019 44.1494 123.642 44.0955C120.549 43.6321 117.445 43.1794 114.352 42.6729C111.227 42.1556 108.134 41.5522 104.987 41.175C101.776 40.787 98.5536 40.5176 95.3529 40.0865C92.5186 39.7093 89.6951 39.3322 86.85 39.0196C86.1064 38.9334 86.1172 40.0973 86.85 40.1835C92.7773 40.8301 98.6937 41.5953 104.621 42.3065C107.779 42.6837 110.904 43.2872 114.04 43.8045C116.993 44.2895 119.956 44.7313 122.92 45.1731C123.028 46.7466 123.211 48.3092 123.523 49.861C123.62 50.346 123.836 50.9926 123.599 51.456C123.265 52.1134 122.122 52.4475 121.519 52.7384C120.086 53.4281 118.598 53.9993 117.154 54.6783C116.087 55.1848 114.934 55.7883 114.201 56.7474C113.436 57.7496 113.49 59.129 113.566 60.3145C113.652 61.7262 113.77 63.1272 113.77 64.539C113.77 65.1317 113.717 65.7244 113.393 66.2417C113.016 66.8452 112.359 67.2979 111.874 67.8151C111.41 68.3109 110.947 68.882 110.343 69.2053C109.611 69.6041 108.651 69.4963 107.854 69.4209C106.151 69.2592 104.502 68.9683 102.789 68.8928C101.011 68.8174 99.2433 68.7958 97.4651 68.7204C95.7948 68.645 94.1351 68.4833 92.4647 68.3324C91.7535 68.2677 90.9991 68.2462 90.2986 68.0846C89.5442 67.9121 88.9623 67.4379 88.3803 66.953C87.3781 66.1232 85.8262 65.3257 85.6754 63.8816C85.5999 63.2242 85.74 62.5453 85.7616 61.8879C85.7831 60.9503 85.7616 60.0127 85.7616 59.0752C85.7616 58.2777 85.6538 57.3617 85.8909 56.5965C86.0849 55.993 86.4836 55.4757 86.7207 54.8938C87.1518 53.87 87.0871 52.6414 86.4082 51.7362C86.225 51.4883 85.9663 51.2512 85.6861 51.0357C85.7292 51.5099 85.6215 52.0056 85.3521 52.3936C85.8801 53.0294 85.9663 53.87 85.4598 54.8399C85.1904 55.3464 84.8779 55.8422 84.727 56.4026C84.5222 57.1462 84.5977 57.9652 84.5977 58.7303C84.5977 59.6679 84.5977 60.6055 84.5977 61.5431C84.5977 62.319 84.4684 63.1057 84.5115 63.8816C84.5977 65.1641 85.4167 66.0693 86.3758 66.8345C86.0418 67.0392 85.6861 67.2332 85.3736 67.4811C84.9964 67.7828 84.6085 68.2031 84.1666 68.3863C84.1343 68.3971 84.0912 68.4186 84.0481 68.4186C83.9511 68.3863 83.8649 68.3217 83.7894 68.257C83.5847 68.0953 83.4015 67.9121 83.1859 67.7505C82.7225 67.3841 82.1945 67.1254 81.688 66.8129C82.2807 66.2417 82.7872 65.5951 83.0458 64.7976C83.4877 63.4074 83.2614 61.8987 83.229 60.4654C83.2075 59.1075 83.5847 57.3725 82.9381 56.1008C82.3561 54.9585 81.2892 54.2364 81.0306 52.9109C80.8258 51.8655 81.2569 51.3913 81.8927 51.2405C81.8281 50.8094 81.8927 50.346 82.0975 49.958C81.4509 50.0119 80.8582 50.2274 80.4379 50.6585C79.6188 51.4883 79.7158 52.7923 80.0822 53.8053C80.2762 54.355 80.5564 54.8615 80.912 55.3249C81.2461 55.7667 81.7095 56.1762 81.9358 56.6827C82.2484 57.3724 82.0759 58.2669 82.0651 58.9998C82.0651 59.7972 82.0652 60.6055 82.1083 61.403C82.1837 62.9117 82.3022 64.4851 81.1815 65.6598C80.0499 66.8452 78.5842 67.8475 77.0108 68.3432C75.3189 68.8713 73.3898 68.7312 71.644 68.7312C67.9584 68.7312 64.2943 68.4294 60.6302 68.1276C58.7873 67.9768 56.9445 67.8475 55.1017 67.7074C53.3451 67.5781 51.4484 67.8259 49.7564 67.2116C48.4955 66.7482 47.1592 65.5628 45.7798 65.5412C45.3703 65.5412 45.0362 65.7029 44.7021 65.9292C44.0339 66.3926 43.3227 66.8344 42.6868 67.3302C42.1372 67.7612 41.7816 68.2462 41.3505 68.785C40.747 69.5286 40.0465 69.3239 39.1844 69.2808C37.4062 69.1946 35.6496 69.1191 33.8715 68.9898C32.0071 68.8497 30.1427 68.7851 28.2675 68.7635C26.6187 68.742 24.9375 68.8605 23.2887 68.7635C21.5536 68.6557 20.7346 67.2655 19.8724 65.9292C19.0426 64.636 18.5469 63.2566 18.5253 61.7047C18.5146 60.5947 18.687 59.4308 18.3314 58.3639C17.9542 57.2431 17.0381 56.5534 16.079 55.9499C13.6219 54.4196 10.0979 53.051 9.0849 50.0658C8.54606 48.4924 8.92324 46.8112 9.31121 45.2594C12.2748 44.5589 15.163 43.6429 18.1482 43.0286C21.1872 42.3928 24.1616 41.8755 27.2653 41.5845C30.2612 41.3151 33.2464 40.9163 36.2531 40.7223C39.2922 40.5284 42.342 40.1512 45.3918 40.1188C46.1354 40.1188 46.1462 38.955 45.3918 38.955C42.3528 38.9765 39.2922 39.3537 36.2531 39.5585C33.1279 39.7632 30.0241 40.1727 26.9097 40.4529C23.8814 40.7223 20.9824 41.2504 18.0081 41.8647C14.9043 42.5113 11.8976 43.4704 8.81548 44.1817C8.56761 44.2356 8.44906 44.408 8.41673 44.5912C8.31974 44.6559 8.23353 44.7529 8.2012 44.9037C7.94256 45.9599 7.69469 47.0483 7.67313 48.1368C7.6408 48.1799 7.60848 48.2122 7.58692 48.2661C5.56089 53.4605 7.1343 58.9566 7.67313 64.2696C7.96411 67.1685 7.85634 69.992 6.97265 72.7832C6.08895 75.5744 4.7203 78.1824 3.82583 80.9736C2.92058 83.8079 2.48951 86.7499 2.06922 89.692C1.63815 92.7526 1.18552 95.8132 0.786781 98.8738C0.398818 101.827 0.118624 104.823 0.528141 107.786C0.722123 109.23 1.14241 110.599 1.49805 112C1.89679 113.584 1.95067 115.147 1.81057 116.763C1.5196 120.029 0.862218 123.477 1.40106 126.753C1.8429 129.447 4.22457 130.417 6.59546 130.978C6.78944 131.075 6.9942 131.172 7.19896 131.247C9.18188 132.002 11.2834 131.905 13.374 131.905C15.7988 131.905 18.2128 131.84 20.6376 131.808C25.4548 131.732 30.2505 131.98 35.0677 132.002C39.9819 132.023 44.9069 132.002 49.8103 132.411C54.6059 132.799 59.4232 132.918 64.2296 132.864C73.9934 132.756 83.7571 132.756 93.5208 132.67C95.978 132.648 98.3596 132.4 100.795 132.131C103.166 131.861 105.623 131.592 108.016 131.851C110.333 132.109 112.628 132.346 114.913 132.799C117.165 133.252 119.364 133.543 121.659 133.5C122.51 133.478 123.383 133.532 124.213 133.359C125.054 133.198 125.689 132.734 126.325 132.185C126.401 132.12 126.455 132.045 126.519 131.98C128.438 131.258 130 130.148 129.903 127.885C129.774 125.061 129.289 122.216 128.976 119.414C128.664 116.558 128.47 113.843 129.009 111.008L128.976 110.998ZM8.05032 50.6801C8.42751 51.6392 9.04178 52.4798 9.79616 53.2126C10.0871 53.4928 10.3889 53.7514 10.7014 53.9885C10.8092 56.1547 10.432 58.213 9.94703 60.3145C9.70994 61.3167 9.54829 62.2974 9.44052 63.3212C9.34353 64.2588 9.16033 65.1425 8.93401 66.0262C8.68615 60.9396 6.98342 55.7128 8.05032 50.6801ZM4.04136 128.866C2.69427 128.036 2.43563 126.71 2.4033 125.212C2.32786 122.184 2.78049 119.231 2.97447 116.224C3.06068 114.866 2.99602 113.519 2.70505 112.194C2.4033 110.847 1.9399 109.543 1.71358 108.174C1.21785 105.221 1.48727 102.182 1.86446 99.2294C2.2632 96.1473 2.71582 93.0759 3.1469 90.0045C3.53486 87.2457 3.94438 84.4653 4.74186 81.7926C5.03283 80.8335 5.37769 79.9067 5.7441 78.9799C5.69021 79.4109 5.63633 79.842 5.59322 80.2839C5.33458 82.6763 4.91428 85.0256 4.77419 87.4288C4.63409 89.8105 4.54787 92.2353 4.7203 94.617C4.89273 96.9663 4.77418 99.3048 5.0005 101.643C5.22681 104.014 5.12982 106.45 5.07593 108.832C5.05438 109.952 4.95739 111.073 4.95739 112.194C4.95739 113.433 4.79574 114.554 4.56943 115.772C4.17069 117.895 3.56719 119.953 3.27622 122.109C3.13612 123.154 2.97447 124.21 3.06068 125.266C3.13612 126.258 3.50253 127.141 3.81505 128.068C3.92282 128.391 4.0737 128.682 4.2569 128.973C4.19224 128.93 4.1168 128.909 4.05214 128.866H4.04136ZM126.444 128.23C126.368 129.286 126.228 130.698 125.388 131.42C123.933 132.648 121.745 132.39 119.924 132.336C117.607 132.26 115.365 131.657 113.102 131.258C110.979 130.881 108.695 130.611 106.539 130.579C104.244 130.547 101.959 130.805 99.6852 131.075C97.3574 131.344 95.0835 131.474 92.7449 131.506C90.3201 131.527 87.8954 131.56 85.4706 131.581C80.6857 131.635 75.8901 131.689 71.1052 131.689C66.4281 131.689 61.7402 131.764 57.0631 131.624C54.7568 131.56 52.4506 131.43 50.1444 131.258C47.7843 131.075 45.4565 130.945 43.0856 130.924C38.3223 130.859 33.5697 130.848 28.8171 130.654C24.0969 130.46 19.3659 130.698 14.6457 130.73C12.4688 130.751 10.0764 130.989 7.98566 130.299C7.81323 130.245 7.65158 130.17 7.48993 130.105C7.42527 130.029 7.33906 129.954 7.19896 129.932C7.14507 129.932 7.10197 129.911 7.04808 129.9C5.67943 129.167 4.96817 128.003 4.45088 126.408C3.77195 124.329 4.45088 121.807 4.84962 119.727C5.23759 117.733 5.99196 115.729 6.13206 113.692C6.2075 112.679 6.14284 111.644 6.18594 110.631C6.23983 109.435 6.26138 108.228 6.27216 107.032C6.27216 105.889 6.27215 104.747 6.2506 103.605C6.22905 102.419 6.07817 101.255 6.04584 100.07C6.01351 98.9815 6.1105 97.9039 6.04584 96.8154C5.98118 95.5977 5.83031 94.3907 5.81953 93.1729C5.79798 90.7804 5.84109 88.3664 6.04584 85.974C6.23983 83.7324 6.62779 81.5016 6.87566 79.2601C7.1343 76.9538 7.64081 74.7554 8.27664 72.5246C8.89091 70.3585 9.53752 68.2031 10.1518 66.037C10.4212 65.0994 10.5074 64.1403 10.6044 63.1704C10.723 61.9957 11.0032 60.8641 11.2618 59.711C11.6282 58.0945 11.8545 56.4888 11.8545 54.8399C12.4149 55.2063 12.9969 55.5512 13.568 55.8853C14.7104 56.5534 16.467 57.2323 17.0705 58.504C17.5985 59.6032 17.2537 61.015 17.3183 62.1897C17.3938 63.5799 17.8248 64.8838 18.5253 66.0801C19.1719 67.1901 20.0341 68.6665 21.1333 69.367C22.3188 70.1322 23.806 69.9489 25.153 69.9382C29.0219 69.9166 32.8584 70.1645 36.7165 70.3908C37.5571 70.4447 38.4085 70.4231 39.2491 70.477C39.8957 70.5201 40.5746 70.6387 41.1997 70.38C41.7169 70.1645 42.0402 69.7226 42.3743 69.2808C42.9886 68.4725 43.7537 67.9768 44.5836 67.4164C45.1978 66.9961 45.4888 66.5974 46.2647 66.8668C47.0622 67.1578 47.795 67.6319 48.571 67.9876C50.1013 68.6988 51.6854 68.7743 53.3451 68.8066C57.1169 68.8713 60.878 69.367 64.6391 69.6364C66.6005 69.7765 68.5619 69.8627 70.5232 69.8951C72.3229 69.9166 74.2089 70.0028 76.0086 69.755C77.5712 69.5394 79.0584 68.8389 80.3193 67.9121C80.4594 67.8151 80.5995 67.7074 80.7396 67.5996C81.3323 68.0091 82.0328 68.2893 82.5717 68.7743C83.0782 69.2269 83.6493 69.7442 84.3822 69.5286C85.0072 69.3347 85.5245 68.8497 86.0202 68.4294C86.3866 68.1169 86.8393 67.8798 87.2703 67.5996C88.0031 68.2139 88.7575 68.8497 89.6412 69.1191C90.9991 69.5394 92.6156 69.4963 94.0274 69.6364C97.6591 69.9921 101.334 69.7549 104.955 70.186C106.572 70.38 108.263 70.8434 109.891 70.5524C111.206 70.3261 112.046 69.2377 112.919 68.3324C113.857 67.3517 114.708 66.662 114.859 65.2287C114.999 63.8493 114.848 62.4052 114.74 61.0258C114.633 59.6032 114.374 57.9652 115.559 56.9414C116.583 56.0577 117.909 55.5512 119.137 55.0339C119.159 55.0231 119.191 55.0123 119.223 55.0016C119.234 56.672 119.148 58.3531 119.493 59.9912C119.935 62.125 120.549 64.2157 121.023 66.3387C121.39 67.966 121.519 69.658 121.788 71.3068C121.928 72.1905 122.004 73.0527 122.241 73.9148C122.543 74.9925 122.844 76.0378 123.071 77.137C123.275 78.107 123.674 79.023 123.836 79.9929C124.041 81.2322 124.062 82.5039 124.051 83.7647C124.041 86.071 124.051 88.388 124.051 90.6942C124.03 95.3821 123.944 100.07 123.933 104.747C123.933 107.021 123.857 109.316 123.944 111.601C124.03 113.853 124.612 115.987 125.151 118.164C125.711 120.406 126.25 122.669 126.422 124.975C126.509 126.053 126.509 127.152 126.444 128.24V128.23ZM127.338 130.32C127.619 129.243 127.629 128.025 127.64 127.087C127.683 124.846 127.36 122.637 126.886 120.438C126.379 118.132 125.614 115.858 125.269 113.53C124.914 111.138 125.097 108.638 125.097 106.224C125.097 103.885 125.108 101.536 125.14 99.1971C125.194 94.2937 125.161 89.3902 125.215 84.476C125.226 83.3983 125.237 82.3207 125.151 81.2538C125.064 80.0683 124.773 79.0445 124.45 77.913C124.17 76.9323 124.084 75.8977 123.793 74.9278C123.459 73.7855 123.135 72.7401 122.995 71.5439C122.801 69.9382 122.586 68.2893 122.295 66.7051C121.896 64.5713 121.239 62.4914 120.775 60.3684C120.344 58.4286 120.441 56.4995 120.398 54.5274C121.12 54.2364 121.864 53.9239 122.553 53.5683C122.252 58.4178 122.553 63.2889 123.426 68.063C123.89 70.5632 124.569 72.988 125.323 75.4128C125.7 76.6305 126.067 77.8483 126.271 79.1092C126.509 80.5856 126.487 82.0943 126.455 83.5923C126.401 86.1249 126.519 88.582 126.929 91.0822C127.36 93.7117 127.985 96.2981 128.405 98.9277C128.826 101.546 129.009 104.208 128.599 106.849C128.19 109.457 127.425 112 127.414 114.673C127.414 117.636 127.92 120.632 128.244 123.574C128.405 125.072 128.761 126.689 128.718 128.197C128.685 129.232 128.103 129.868 127.338 130.31V130.32Z" fill="black"/>
<path d="M32.0947 57.9975C32.0408 57.8682 31.9977 57.7389 31.9546 57.6096C31.933 57.5449 31.9223 57.491 31.9115 57.4264C31.9007 57.3617 31.9007 57.3509 31.9115 57.4264C31.9115 57.394 31.9115 57.3509 31.9115 57.3186V57.2647C31.9115 57.3294 31.9115 57.3294 31.9115 57.2647C31.9115 57.2432 31.9869 57.0492 31.9438 57.1462C31.9977 57.0384 32.0624 56.9414 32.127 56.8336C32.1701 56.7798 32.1593 56.7798 32.127 56.8336C32.1378 56.8121 32.1594 56.8013 32.1701 56.7797C32.1917 56.7582 32.2025 56.7474 32.224 56.7259C32.1701 56.769 32.1701 56.769 32.224 56.7259C32.2456 56.7043 32.2779 56.6935 32.3102 56.6828C32.2456 56.7151 32.2456 56.7043 32.3102 56.6828C32.3533 56.6828 32.4072 56.6612 32.4503 56.6504C32.3102 56.6828 32.5042 56.6504 32.5365 56.6504C32.5904 56.6504 32.6335 56.6504 32.6874 56.6504C32.7521 56.6504 32.8167 56.6504 32.8814 56.672C32.7413 56.6612 32.9137 56.672 32.9461 56.6828C33.0646 56.7043 33.1831 56.7366 33.3017 56.7797C33.4202 56.8228 33.2262 56.7367 33.3448 56.8013C33.3987 56.8336 33.4633 56.866 33.5172 56.8983C33.6465 56.9737 33.4526 56.8229 33.5496 56.9198C33.5927 56.963 33.6358 57.0061 33.6789 57.0492C33.5927 56.9522 33.6789 57.0492 33.7004 57.0815C33.722 57.103 33.8297 57.2647 33.7435 57.1462C33.7759 57.1893 33.7759 57.2539 33.7866 57.297C33.7866 57.3401 33.7866 57.3294 33.7866 57.2539C33.7866 57.2863 33.7866 57.3186 33.7866 57.3402C33.7866 57.3725 33.7866 57.4048 33.7866 57.4264C33.7974 57.3509 33.7866 57.3402 33.7866 57.4048C33.7866 57.4264 33.7328 57.5665 33.7866 57.4479C33.7435 57.5557 33.6789 57.6419 33.6142 57.7389C33.6896 57.6311 33.5711 57.7928 33.5496 57.8143C33.5064 57.8682 33.4633 57.9113 33.4202 57.9544C33.2155 58.1808 33.1831 58.5579 33.4202 58.7735C33.6465 58.9782 34.0237 59.0213 34.2393 58.7735C34.6057 58.3639 34.9613 57.8898 34.9505 57.3078C34.9398 56.7259 34.5949 56.1978 34.1099 55.8745C33.6681 55.5835 33.0754 55.4542 32.5473 55.465C32.2563 55.465 31.9546 55.5296 31.6959 55.6697C31.4373 55.8098 31.2325 56.0577 31.0817 56.3056C30.8985 56.6073 30.7691 56.9414 30.7799 57.297C30.7907 57.6527 30.8877 57.9544 31.017 58.2669C31.1248 58.5471 31.4157 58.7735 31.7283 58.6765C31.9977 58.5903 32.2563 58.2669 32.1378 57.9652L32.0947 57.9975Z" fill="black"/>
<path d="M33.1919 63.8277C33.1273 63.7846 33.1273 63.7846 33.1704 63.8277C33.1273 63.7631 33.1165 63.763 33.1596 63.8169C33.1704 63.8385 33.1919 63.8708 33.2027 63.8924L33.1811 63.8385C33.1811 63.8385 33.2242 63.9678 33.235 64.0109C33.235 64.0433 33.2458 64.0756 33.2566 64.0971V64.0325C33.2781 64.1402 33.2566 64.2804 33.2566 64.3881C33.2566 64.4636 33.2566 64.4528 33.2566 64.3881C33.2566 64.4205 33.2458 64.4528 33.235 64.4959C33.2674 64.3989 33.2242 64.5067 33.2027 64.539C33.2997 64.3989 33.0734 64.6252 33.2027 64.5282C33.1596 64.5605 33.1273 64.5821 33.0841 64.6036C33.0626 64.6144 32.8686 64.7006 33.0087 64.6468C32.9656 64.6683 32.9225 64.6791 32.8794 64.6899C32.7716 64.7222 32.6639 64.7437 32.5561 64.7761C32.4914 64.7761 32.4914 64.7869 32.5669 64.7761C32.5345 64.7761 32.5022 64.7761 32.4699 64.7761C32.416 64.7761 32.3621 64.7761 32.3082 64.7761C32.2543 64.7761 32.2004 64.7761 32.1466 64.7761C32.125 64.7761 31.9526 64.7545 32.0388 64.7761C32.125 64.7976 31.9526 64.7545 31.931 64.7545C31.8771 64.7438 31.8233 64.7222 31.7694 64.7114C31.737 64.7114 31.5862 64.636 31.7155 64.6899C31.6616 64.6683 31.6185 64.6468 31.5754 64.6144C31.5323 64.5821 31.4784 64.5605 31.4353 64.5282C31.3814 64.4959 31.3814 64.4851 31.4353 64.5282C31.4137 64.5174 31.3922 64.4959 31.3814 64.4743C31.3599 64.4528 31.3491 64.442 31.3275 64.4205C31.2844 64.3666 31.2844 64.3666 31.3275 64.4205C31.2952 64.3666 31.2952 64.3666 31.3275 64.4205C31.3168 64.3666 31.3168 64.3558 31.3275 64.3989C31.3275 64.4743 31.3275 64.2911 31.3275 64.2696C31.3275 64.2049 31.3275 64.1941 31.3275 64.2696C31.3275 64.248 31.3275 64.2157 31.3383 64.1941C31.3599 64.0648 31.3922 63.9463 31.4353 63.8277C31.4353 63.8062 31.4569 63.7738 31.4676 63.7523C31.4461 63.8062 31.4461 63.8062 31.4676 63.7523C31.5 63.6876 31.5323 63.623 31.5754 63.5583C31.737 63.2997 31.6401 62.9117 31.3706 62.7608C31.1012 62.61 30.7456 62.6854 30.5732 62.9656C30.2714 63.4613 30.0451 64.151 30.196 64.7437C30.3468 65.3365 30.9935 65.6921 31.5215 65.8538C32.028 65.9938 32.5884 65.9831 33.0949 65.843C33.6661 65.6813 34.248 65.3365 34.3774 64.7114C34.442 64.3881 34.4205 64.0325 34.3558 63.7092C34.2804 63.3428 34.0864 63.0626 33.7846 62.847C33.5368 62.6638 33.1273 62.8039 32.9872 63.0518C32.8255 63.3643 32.9333 63.6553 33.1919 63.8493V63.8277Z" fill="black"/>
<path d="M101.335 58.5256C101.777 58.17 101.895 57.5665 101.798 57.0276C101.701 56.4888 101.303 56.0577 100.861 55.7775C100.397 55.4758 99.7831 55.3033 99.2227 55.368C98.8779 55.4111 98.5869 55.5189 98.3175 55.756C98.1127 55.9392 97.9834 56.187 97.8864 56.4457C97.6601 57.0384 97.6816 57.7497 97.9834 58.3101C98.1235 58.5795 98.5222 58.6873 98.7809 58.5148C99.0503 58.3424 99.1473 58.0083 98.9856 57.7174C98.9748 57.685 98.9533 57.6635 98.9425 57.6311C98.9749 57.6958 98.9749 57.6958 98.9425 57.6311C98.9317 57.5772 98.8886 57.5018 98.8994 57.4479C98.8994 57.5234 98.8994 57.5234 98.8994 57.4587C98.8994 57.4264 98.8994 57.394 98.8994 57.3617C98.8994 57.2971 98.8994 57.2324 98.8994 57.1677C98.8994 57.1354 98.8994 57.1031 98.8994 57.0708C98.8886 57.1462 98.8886 57.157 98.8994 57.0923C98.8994 57.0492 98.9102 57.0169 98.921 56.9738C98.9317 56.9199 98.9533 56.866 98.9641 56.8121C98.9641 56.7905 98.9856 56.7582 98.9964 56.7367C98.9641 56.8121 98.9641 56.8229 98.9964 56.769C99.018 56.7259 99.0503 56.672 99.0718 56.6289C99.1042 56.575 99.1042 56.5858 99.0503 56.6504C99.0719 56.6289 99.0826 56.6073 99.1042 56.5966C99.1149 56.5858 99.1365 56.5642 99.1473 56.5535C99.1796 56.5211 99.1688 56.5319 99.1042 56.5858C99.1042 56.5535 99.3089 56.5103 99.1688 56.5427C99.1904 56.5427 99.3951 56.478 99.255 56.5103C99.3197 56.4996 99.3951 56.5103 99.449 56.5103C99.4814 56.5103 99.6861 56.5319 99.546 56.5103C99.5999 56.5103 99.6646 56.5319 99.7185 56.5427C99.7723 56.5534 99.837 56.575 99.8909 56.5858C99.9124 56.5858 100.106 56.672 99.9879 56.6181C100.096 56.672 100.193 56.7259 100.29 56.7905C100.311 56.8013 100.333 56.8229 100.365 56.8444C100.3 56.8013 100.3 56.7906 100.354 56.8444C100.387 56.8768 100.419 56.8983 100.451 56.9306C100.494 56.9738 100.537 57.0169 100.57 57.06C100.484 56.9306 100.581 57.0923 100.602 57.1139C100.613 57.1354 100.634 57.1677 100.645 57.1893C100.613 57.1138 100.613 57.1139 100.645 57.1677C100.656 57.2216 100.678 57.2647 100.688 57.3186C100.721 57.4371 100.688 57.2108 100.688 57.3186C100.688 57.3294 100.688 57.4803 100.688 57.4803C100.699 57.3941 100.699 57.3725 100.688 57.4372C100.688 57.4587 100.678 57.4911 100.667 57.5126C100.667 57.5342 100.656 57.5665 100.645 57.588C100.678 57.5126 100.688 57.5018 100.656 57.5557C100.645 57.5772 100.634 57.5988 100.613 57.6203C100.581 57.6742 100.581 57.6635 100.634 57.5988C100.634 57.6096 100.537 57.6958 100.527 57.7066C100.29 57.9006 100.311 58.3316 100.527 58.5256C100.775 58.7519 101.098 58.7304 101.346 58.5256H101.335Z" fill="black"/>
<path d="M97.7681 63.8279C97.8112 64.399 98.0159 64.9594 98.4254 65.3689C98.8781 65.8215 99.5031 65.9617 100.117 65.994C100.742 66.0371 101.389 65.8862 101.863 65.4659C102.316 65.0672 102.531 64.4421 102.391 63.8494C102.316 63.5585 101.971 63.3537 101.68 63.4399C101.367 63.5369 101.195 63.8386 101.271 64.1512C101.303 64.2913 101.281 64.0434 101.271 64.1835C101.271 64.2051 101.271 64.3344 101.271 64.2482C101.271 64.1619 101.26 64.2913 101.249 64.3128C101.249 64.3451 101.174 64.4529 101.238 64.3559C101.217 64.3882 101.195 64.4313 101.174 64.4637C101.152 64.5068 101.109 64.5499 101.163 64.4853C101.13 64.5284 101.098 64.5607 101.055 64.593C101.044 64.593 100.936 64.6792 101.001 64.6469C101.066 64.6146 100.947 64.6792 100.936 64.6792C100.936 64.6792 100.786 64.7547 100.872 64.7116C100.786 64.7439 100.689 64.7654 100.592 64.7978C100.419 64.8409 100.689 64.7978 100.516 64.8085C100.462 64.8085 100.419 64.8085 100.365 64.8085C100.257 64.8085 100.15 64.8085 100.042 64.8085C100.031 64.8085 99.8803 64.7978 99.945 64.8085C100.01 64.8193 99.8588 64.7978 99.848 64.7978C99.7402 64.7762 99.6324 64.7547 99.5247 64.7223C99.4923 64.7116 99.4061 64.6684 99.4816 64.7116C99.4385 64.69 99.3954 64.6684 99.3523 64.6361C99.266 64.5822 99.3738 64.6684 99.3307 64.6253C99.2984 64.593 99.266 64.5715 99.2445 64.5391C99.2121 64.5068 99.1798 64.4637 99.1475 64.4313C99.2014 64.496 99.1583 64.4529 99.1367 64.4098C99.0828 64.3344 99.0397 64.2481 99.0074 64.1619C99.0397 64.2374 99.0074 64.1835 99.0074 64.1404C98.9966 64.0973 98.9858 64.0649 98.9751 64.0218C98.9643 63.9679 98.9535 63.9249 98.9427 63.871C98.9212 63.7416 98.9427 63.9679 98.9427 63.8279C98.9212 63.5261 98.6949 63.2351 98.3608 63.2459C98.0698 63.2567 97.7573 63.5045 97.7788 63.8279H97.7681Z" fill="black"/>
<path d="M81.8051 54.0534C82.5918 52.0382 82.6996 49.7858 82.9366 47.652C83.1845 45.3458 83.4001 43.0396 83.5725 40.7226C83.8958 36.4226 84.2191 32.0688 84.1329 27.7581C84.0466 23.7492 83.3677 19.8695 81.7404 16.1839C80.2856 12.8754 78.2164 9.50229 75.3714 7.19606C72.5263 4.88983 69.0238 3.37029 65.3813 3.46728C61.8573 3.56427 58.4411 5.05147 55.8115 7.37925C54.4429 8.58625 53.3544 10.0734 52.2983 11.5499C51.156 13.1448 50.3369 14.8584 49.7334 16.7335C48.548 20.4299 48.3217 24.4389 48.1169 28.297C47.8906 32.6723 47.9876 37.0477 48.2247 41.4123C48.354 43.8478 48.4079 46.3373 48.7851 48.7621C49.1623 51.1545 50.4231 53.2129 51.0266 55.5299C51.2098 56.2519 52.3414 55.9502 52.1474 55.2173C51.6625 53.353 50.6818 51.6718 50.1861 49.8182C49.6472 47.7921 49.6472 45.626 49.5179 43.5353C49.2808 39.6988 49.1084 35.8515 49.1623 32.015C49.2161 28.4802 49.4425 24.9346 49.8843 21.4214C50.1214 19.4923 50.6063 17.5956 51.2961 15.7851C51.975 14.0178 52.9988 12.509 54.1411 11.0003C56.3073 8.14442 59.023 5.93517 62.5578 5.02992C66.2865 4.07079 69.983 4.98682 73.1729 7.02363C76.1904 8.95267 78.2919 11.9378 79.9299 15.0739C81.7189 18.5009 82.678 22.2296 82.9043 26.0769C83.163 30.4523 82.7965 34.8816 82.5056 39.2569C82.3439 41.6925 82.1392 44.128 81.8805 46.5528C81.6327 48.9345 81.5572 51.4886 80.6735 53.7301C80.4041 54.4306 81.5249 54.7324 81.7943 54.0427L81.8051 54.0534Z" fill="black"/>
<path d="M46.7059 55.3895C46.8784 46.1323 46.1994 36.8858 46.3934 27.6178C46.4796 23.6411 46.6628 19.3951 48.2039 15.6879C49.7019 12.0777 51.9219 8.3597 54.9933 5.88104C60.9852 1.05305 69.8005 0.503429 75.8679 5.43919C78.8099 7.83163 81.0407 11 82.9051 14.2762C83.9397 16.0866 84.694 18.0264 85.1898 20.0525C85.6855 22.1108 85.8041 24.2339 86.0304 26.3353C86.5476 31.0448 86.0735 35.6896 85.5346 40.3774C84.9635 45.3886 84.7264 51.1327 84.5432 56.1762C84.5108 56.9198 85.7071 56.1762 85.7394 55.4326C85.9226 50.6693 86.0735 45.9275 86.6123 41.1965C87.1188 36.7349 87.7008 32.2626 87.3451 27.7686C87.0003 23.4795 86.5907 19.1796 84.7371 15.2461C83.0991 11.7652 80.7282 8.35969 77.9478 5.70861C75.1674 3.05752 71.9236 1.33325 68.1733 0.902179C64.4337 0.471108 60.5972 1.27937 57.2779 3.0252C53.7539 4.87881 51.3076 7.72386 49.2816 11.097C48.15 12.9829 47.1155 14.9766 46.4796 17.0889C45.8869 19.061 45.6498 21.1841 45.4666 23.2316C45.014 28.2752 45.1325 33.4264 45.2511 38.4915C45.3804 44.1278 45.6606 49.7533 45.5636 55.3895C45.5528 56.1331 46.7167 56.1439 46.7275 55.3895H46.7059Z" fill="black"/>
<path d="M50.6609 63.9031C50.4669 61.4675 50.3376 59.0104 50.0682 56.5856C49.9496 55.5187 49.7772 54.4518 49.4216 53.4496C49.0336 52.3611 48.4301 51.4128 47.7943 50.4537C47.3848 49.8286 46.3717 50.4106 46.792 51.0356C47.4171 51.9624 48.0206 52.9 48.3762 53.9777C48.6995 54.9799 48.8504 56.0145 48.9582 57.0598C49.1737 59.3337 49.3246 61.6292 49.497 63.9139C49.5509 64.6575 50.7148 64.6575 50.6609 63.9139V63.9031Z" fill="black"/>
<path d="M45.3279 69.561C45.3494 67.869 44.7782 66.231 44.7998 64.5498C44.8213 62.8686 45.5865 61.5323 46.2547 60.099C47.5694 57.3293 48.119 54.355 47.7311 51.3051C47.6341 50.5723 46.4702 50.5615 46.5672 51.3051C46.7827 52.9755 46.7504 54.6675 46.3732 56.3163C46.0283 57.8466 45.371 59.2261 44.7028 60.6378C44.1209 61.8771 43.6467 63.1488 43.6359 64.539C43.6251 66.2309 44.1747 67.8582 44.164 69.5502C44.164 70.2938 45.3171 70.3046 45.3279 69.5502V69.561Z" fill="black"/>
<path d="M49.2805 43.8369C49.3775 44.2357 49.356 44.6559 49.2266 45.0439C49.2266 45.0439 49.2374 45.0439 49.2482 45.0439C49.5499 45.1732 49.9594 45.3995 50.1319 45.6905C50.3259 45.9923 50.1534 46.391 49.9702 46.6604C49.5176 47.3394 48.6986 47.6734 48.0412 48.1153C47.8041 48.2769 47.5778 48.4494 47.3515 48.6326C46.9096 48.0506 46.4462 47.4363 46.2846 46.7143C46.1984 46.3479 46.2415 46.0462 46.3708 45.7983C46.0259 45.5073 45.8212 45.0978 45.7565 44.6667C45.6487 44.7745 45.541 44.893 45.444 45.0224C44.4202 46.4233 45.5949 48.2231 46.457 49.3546C46.4678 49.3654 46.4785 49.3762 46.5001 49.3869C46.4247 49.4624 46.3385 49.5378 46.2522 49.6132C45.7134 50.1952 45.2931 50.831 45.2069 51.6393C45.1315 52.3721 45.1422 53.2881 45.8751 53.6869C46.5324 54.0425 47.1252 53.0403 46.457 52.6846C46.2522 52.5769 46.3384 51.9841 46.3492 51.8117C46.3816 51.4561 46.5109 51.1543 46.7156 50.8634C47.1359 50.2706 47.7287 49.7641 48.3106 49.3438C49.4098 48.5356 50.9725 47.9429 51.3173 46.4664C51.6191 45.1409 50.466 44.1818 49.2913 43.8369H49.2805Z" fill="black"/>
<path d="M49.1637 52.5447C50.0043 51.9735 50.694 51.1976 51.2113 50.3247C51.4807 49.8721 51.6316 49.3763 51.5777 48.8483C51.513 48.2879 51.2652 47.7706 50.985 47.2856C50.6186 46.6282 49.6163 47.221 49.9827 47.8676C50.1659 48.1909 50.3707 48.5465 50.4246 48.9237C50.4677 49.2793 50.3168 49.5811 50.1336 49.8721C49.7241 50.5187 49.2176 51.1114 48.5817 51.5425C48.3231 51.7149 48.2046 52.049 48.377 52.3399C48.5279 52.5986 48.9158 52.7279 49.1745 52.5447H49.1637Z" fill="black"/>
<path d="M46.0614 68.7959C45.5441 68.4619 44.9083 68.3433 44.294 68.3325C43.6689 68.3325 43.0439 68.4942 42.6236 68.9791C42.2356 69.421 42.0201 69.9814 41.8584 70.531C41.6752 71.1345 41.5782 71.7811 41.6537 72.4061C41.686 72.7079 41.9015 72.9989 42.2356 72.9881C42.5158 72.9773 42.8499 72.7294 42.8176 72.4061C42.7529 71.8781 42.8068 71.4901 42.9361 70.9944C43.0008 70.7573 43.0762 70.531 43.1624 70.3047C43.2055 70.1754 43.1409 70.3478 43.1947 70.24C43.2163 70.1861 43.2379 70.143 43.2702 70.0891C43.3241 69.9921 43.378 69.8952 43.4426 69.809C43.3887 69.8844 43.4749 69.7766 43.4857 69.7551C43.5181 69.712 43.5612 69.6796 43.6043 69.6473C43.5396 69.7012 43.6043 69.6473 43.6366 69.6257C43.6582 69.615 43.7767 69.5503 43.7551 69.5611C43.7336 69.5719 43.8629 69.5288 43.8845 69.5288C43.9276 69.518 43.9815 69.5072 44.0353 69.4964C43.9383 69.5072 44.1 69.4964 44.1215 69.4964C44.1862 69.4964 44.2401 69.4964 44.3048 69.4964C44.7466 69.4964 45.1238 69.5719 45.4902 69.7982C45.7488 69.9598 46.1476 69.8628 46.2877 69.5934C46.4386 69.3024 46.3523 68.9792 46.0829 68.7959H46.0614Z" fill="black"/>
<path d="M47.6549 80.4565C47.5148 79.95 47.4609 79.4543 47.5041 78.9262C47.5041 78.9047 47.5041 78.8939 47.5041 78.8723C47.5041 78.7538 47.5041 78.6245 47.5041 78.5059C47.5041 77.7946 47.4933 77.0942 47.3747 76.3937C47.267 75.7578 47.1161 75.122 47.0945 74.4754C47.0838 74.1413 47.1376 73.7965 46.8898 73.5271C46.7389 73.3654 46.5234 73.2684 46.3078 73.2038C45.9306 73.096 45.5211 73.1175 45.1547 72.9667C44.8314 72.8266 44.5297 72.6757 44.1848 72.6003C43.84 72.5356 43.4843 72.4925 43.1287 72.471C42.4066 72.4278 41.6738 72.4602 40.9518 72.4494C40.553 72.4494 40.3698 72.7727 40.4022 73.0744C40.1112 74.9712 39.8957 76.8894 39.7556 78.8077C39.7556 78.8508 39.7663 78.8831 39.7771 78.9262C39.6478 79.3573 39.54 79.7776 39.4538 80.2194C39.3892 80.5858 39.6155 80.9523 40.0142 80.9523C41.232 80.9738 42.4498 80.9846 43.6675 81.0061C44.8099 81.0277 45.9845 81.3079 47.1269 81.1678C47.4933 81.1247 47.8058 80.8337 47.6873 80.435L47.6549 80.4565ZM44.0663 73.7965C44.4758 73.9042 44.8206 74.1521 45.2517 74.2168C45.4349 74.2491 45.6181 74.2599 45.7906 74.303C45.8337 74.303 45.8768 74.3245 45.9199 74.3353C45.9199 74.4323 45.9199 74.5293 45.9199 74.6155C45.9307 74.8311 45.963 75.0466 45.9845 75.2621C46.0384 75.6932 46.1246 76.1135 46.2001 76.5338C46.2755 76.9433 46.3186 77.342 46.3294 77.7516C46.3294 77.9671 46.3294 78.1719 46.3294 78.3874C46.3294 78.4413 46.3294 78.5059 46.3294 78.5598C46.2432 78.5383 46.157 78.5275 46.0815 78.5167C45.8121 78.4736 45.5319 78.4413 45.2517 78.4197C44.7237 78.3874 44.1848 78.3766 43.6567 78.3551C42.7515 78.3227 41.8463 78.2904 40.9302 78.2688C41.0488 76.717 41.2212 75.1651 41.4475 73.624C42.3204 73.6133 43.2149 73.5702 44.0447 73.7965H44.0663Z" fill="black"/>
<path d="M47.6964 80.4994C47.7395 79.7234 47.7611 78.9475 47.7718 78.1716C47.7718 77.8698 47.5024 77.5789 47.1899 77.5896C46.8774 77.6004 46.608 77.8483 46.608 78.1716C46.608 78.9475 46.5756 79.7234 46.5325 80.4994C46.5217 80.8011 46.8127 81.0921 47.1145 81.0813C47.4485 81.0705 47.6748 80.8227 47.6964 80.4994Z" fill="black"/>
<path d="M50.0576 57.3509C51.6526 56.8767 52.7841 55.2602 53.0428 53.6545C53.2906 52.0595 52.5039 50.2167 50.7796 49.8718C50.0468 49.721 49.7343 50.8417 50.4671 50.9926C51.631 51.2297 52.0944 52.4906 51.8789 53.5575C51.6526 54.6783 50.8982 55.8853 49.7451 56.2301C49.0338 56.4457 49.3356 57.5664 50.0576 57.3509Z" fill="black"/>
<path d="M46.3406 63.2243C47.2674 62.4376 47.817 61.3276 48.0648 60.1421C48.2912 59.0752 48.4851 57.6096 47.8709 56.6397C47.2027 55.5836 45.2521 55.562 44.9073 54.3334C44.5408 53.051 44.9288 51.2189 46.3298 50.7555C47.0411 50.5185 46.7393 49.3977 46.0173 49.6348C44.7887 50.0443 43.9589 51.1004 43.7218 52.3505C43.4739 53.6545 43.5925 55.1848 44.7671 55.9715C45.3168 56.3487 45.9526 56.575 46.513 56.9306C47.1811 57.3509 47.1165 58.17 47.0626 58.8704C46.9764 60.196 46.5561 61.5108 45.5107 62.3945C44.9396 62.8794 45.7694 63.6984 46.3298 63.2135L46.3406 63.2243Z" fill="black"/>
<path d="M50.6299 62.4055C50.5329 62.1684 50.4143 61.9852 50.2635 61.7805C50.1449 61.6404 50.0156 61.5003 49.9402 61.3171C49.7677 60.9076 49.7677 60.4011 49.7354 59.9592C49.6923 59.4527 49.6815 58.9462 49.6923 58.4397C49.6923 58.1918 49.6923 57.9332 49.7246 57.6853C49.7246 57.5991 49.7246 57.4267 49.8216 57.4051C50.5437 57.2219 50.2419 56.1011 49.5091 56.2843C48.8517 56.4568 48.6038 57.071 48.55 57.6853C48.4961 58.2996 48.5068 58.9139 48.5284 59.5281C48.55 60.1424 48.6038 60.7459 48.7224 61.3386C48.7763 61.6188 48.8948 61.899 49.0565 62.1469C49.1858 62.3301 49.4013 62.5025 49.4875 62.7181C49.6061 63.009 49.8755 63.2138 50.1988 63.1276C50.4682 63.0521 50.7269 62.7073 50.6083 62.4163L50.6299 62.4055Z" fill="black"/>
<path d="M44.0652 73.7966C44.4748 73.9044 44.8196 74.1522 45.2507 74.2169C45.4339 74.2492 45.6171 74.26 45.7895 74.3031C45.8326 74.3031 45.8757 74.3247 45.9188 74.3354C45.9188 74.4324 45.9188 74.5294 45.9188 74.6156C45.9296 74.8312 45.962 75.0467 45.9835 75.2623C46.0374 75.6933 46.1236 76.1136 46.199 76.5339C46.2745 76.9434 46.3176 77.3422 46.3284 77.7517C46.3284 77.9672 46.3284 78.172 46.3284 78.3875C46.3284 78.4414 46.3284 78.5061 46.3284 78.5599C46.2421 78.5384 46.1559 78.5276 46.0805 78.5168C45.8111 78.4737 45.5309 78.4414 45.2507 78.4198C44.7226 78.3875 44.1838 78.3767 43.6557 78.3552C42.7505 78.3228 41.8452 78.2905 40.9292 78.2689C41.0477 76.7171 41.2202 75.1652 41.4465 73.6242C42.3194 73.6134 43.2139 73.5703 44.0437 73.7966H44.0652Z" fill="white"/>
<path d="M46.6214 64.3342C48.141 64.3234 49.6174 64.6575 51.1261 64.7652C51.6219 64.7976 52.5487 64.7329 52.9366 65.0886C53.2276 65.358 53.2384 66.0908 53.2923 66.4464C53.4755 67.7396 54.079 68.8281 54.6286 70.0135C55.1782 71.199 55.7925 72.4167 56.2559 73.6561C56.4391 74.141 56.6438 74.7338 56.3529 75.2079C56.0296 75.7252 55.4045 76.0593 54.995 76.5119C54.5316 77.0077 54.2406 77.4387 53.5509 77.6112C52.8612 77.7836 52.1176 77.7513 51.4279 77.7081C50.7382 77.665 50.0916 77.568 49.4126 77.5249C48.669 77.4818 47.8716 77.5681 47.2573 77.0831C46.7831 76.7059 46.449 76.1779 46.0395 75.736C45.5653 75.2403 44.9403 74.8523 45.2959 74.0979C45.63 73.419 45.9748 72.8478 46.158 72.1042C46.3628 71.2852 46.449 70.4338 46.4706 69.5932C46.5245 67.7181 46.6753 65.8537 46.6861 63.9786C46.6861 63.235 45.5222 63.2242 45.5222 63.9786C45.5114 65.9292 45.3821 67.9013 45.2959 69.8627C45.2528 70.7787 45.1235 71.6947 44.8002 72.5569C44.5415 73.225 43.9919 73.7854 43.9811 74.5398C43.9704 75.2941 44.4445 75.8007 44.9295 76.2856C45.4468 76.8029 45.8778 77.428 46.4382 77.9129C47.5914 78.8936 49.3156 78.6888 50.7382 78.8289C52.1607 78.969 54.0251 79.1307 55.1782 78.0853C55.6739 77.6327 56.0834 77.1046 56.59 76.6628C57.0965 76.221 57.5491 75.7468 57.6569 75.0786C57.8616 73.7746 56.9887 72.4814 56.493 71.3391C56.1481 70.5416 55.7925 69.7549 55.4261 68.9682C55.0812 68.2246 54.6501 67.4918 54.51 66.6727C54.2729 65.2825 54.1975 64.0755 52.581 63.7738C51.6973 63.6121 50.7705 63.6229 49.876 63.5044C48.7984 63.3643 47.7315 63.1919 46.643 63.2026C45.8994 63.2026 45.8886 64.3773 46.643 64.3665L46.6214 64.3342Z" fill="black"/>
<path d="M56.5133 73.7857C56.384 73.1606 56.1361 72.5356 55.8344 71.9321C55.7158 71.4902 55.565 71.0484 55.4141 70.6065C55.0585 69.572 54.6489 68.5051 53.9269 67.6968C53.7652 67.1472 53.6036 66.5976 53.4419 66.048C53.3126 65.5953 53.2264 65.0457 52.7738 64.7978C52.2888 64.5284 51.5452 64.5823 51.0064 64.5284C50.2951 64.453 49.5839 64.3776 48.8726 64.3021C48.1074 64.2159 46.2 63.6232 46.1892 64.9272C46.1892 65.3367 46.4694 65.6923 46.8142 65.8863C46.4909 65.8755 46.1461 66.0803 46.1784 66.4467C46.3401 68.8284 46.437 71.2747 45.2947 73.4408C45.1007 73.8072 44.8744 74.1736 44.896 74.5939C44.9175 74.9927 45.1546 75.3591 45.3378 75.6932C45.8012 76.5122 46.3832 77.245 47.2453 77.6653C48.1182 78.0856 49.0989 78.2042 50.058 78.1611C51.1573 78.1072 52.3427 77.9779 53.4204 77.7515C54.3149 77.5576 55.0692 76.8894 55.7158 76.2751C56.4379 75.5962 56.6965 74.7448 56.5025 73.7749L56.5133 73.7857Z" fill="black"/>
<path d="M44.499 76.9431C44.4883 76.7922 44.4883 76.6413 44.499 76.4797L44.4775 76.6306C44.4775 76.6306 44.4775 76.5875 44.4883 76.5551C44.5098 76.4797 44.5206 76.4042 44.4883 76.318C44.4883 76.2426 44.4667 76.1672 44.4236 76.1025C44.3913 76.0379 44.3374 75.9839 44.2727 75.9408C44.2188 75.887 44.1542 75.8547 44.0787 75.8331L43.9279 75.8115C43.8201 75.8115 43.7231 75.8331 43.6369 75.887L43.5184 75.9732C43.4429 76.0486 43.3998 76.1348 43.3675 76.2318C43.3244 76.4581 43.3028 76.6844 43.3244 76.9215C43.3244 76.997 43.3352 77.0724 43.3783 77.1479C43.3998 77.2233 43.4429 77.2772 43.4968 77.3311C43.5507 77.3849 43.6153 77.4281 43.68 77.4496C43.7447 77.4819 43.8201 77.5035 43.9063 77.5035L44.0572 77.4819C44.1542 77.4496 44.2404 77.4065 44.3158 77.3311L44.402 77.2125C44.4559 77.1263 44.4775 77.0185 44.4775 76.9215L44.499 76.9431Z" fill="black"/>
<path d="M115.343 62.6961C114.966 63.4936 113.532 63.1703 112.789 63.1703C111.69 63.1703 110.59 63.1703 109.491 63.1703C105.288 63.138 101.074 63.1164 96.8715 63.0733C94.7808 63.0518 92.7116 62.7608 90.6317 62.556C88.5734 62.3513 86.5042 62.265 84.4351 62.2543C80.1783 62.2219 75.9322 62.1681 71.6754 62.0818C69.5308 62.0387 67.3862 62.1034 65.2309 62.1034C64.2502 62.1034 63.2803 62.1034 62.2996 62.0387C61.5452 61.9956 60.6615 62.0172 59.9395 61.7478C58.7864 61.3059 58.4846 59.3122 58.6678 58.2238C58.9696 56.4025 61.4482 56.8336 62.8061 56.8228C67.0306 56.7904 71.2659 56.9198 75.4904 56.9844C79.6933 57.0491 83.907 57.2539 88.0884 57.7173C92.6362 58.2238 97.0655 59.0428 101.667 58.7734C103.876 58.644 106.043 58.2453 108.252 58.1914C110.58 58.1268 112.897 58.2238 115.224 58.2345C115.591 58.7734 115.418 59.7972 115.461 60.4115C115.505 61.1335 115.645 62.0495 115.332 62.7285L115.343 62.6961Z" fill="#E6E6E2"/>
<path d="M56.9137 62.3299C55.2756 62.3299 53.6268 62.3299 51.9887 62.3299C48.6371 62.3407 45.2748 62.3838 41.9232 62.4269C38.6363 62.47 35.3386 62.5131 32.0517 62.5239C28.7971 62.5454 25.5425 62.4161 22.2772 62.4053C20.6175 62.4053 18.9903 62.4808 17.3522 62.6963C16.878 62.761 16.5224 62.6963 16.4254 62.2113C16.3607 61.9096 16.4577 61.4462 16.4685 61.1337C16.49 60.3685 16.5655 59.6033 16.5978 58.8382C19.9602 58.8382 23.3117 58.8382 26.6741 58.8382C28.3768 58.8382 30.0472 58.9783 31.7392 59.1076C33.4311 59.2369 35.1338 59.2262 36.8258 59.2693C40.242 59.3555 43.6475 59.4309 47.0637 59.2693C48.7557 59.1939 50.4369 58.9891 52.1288 58.849C53.8854 58.6981 55.6528 58.7628 57.4094 58.7628C57.4418 58.7628 57.4741 58.752 57.5064 58.7412C57.4741 59.7327 57.7219 60.7996 58.1638 61.6294C58.3362 61.9527 58.5518 62.2006 58.8104 62.3946C58.1638 62.3622 57.528 62.3191 56.9245 62.3191L56.9137 62.3299Z" fill="#E6E6E2"/>
<path d="M116.596 59.582C116.574 58.6983 116.628 57.987 116.003 57.2973C115.895 57.1788 115.766 57.1249 115.647 57.1249C115.572 57.0818 115.486 57.0602 115.378 57.0602C113.007 57.0602 110.636 56.9524 108.265 57.0171C106.056 57.0818 103.89 57.4697 101.681 57.5991C97.0791 57.8793 92.6391 57.0494 88.1021 56.5429C83.4896 56.0256 78.8556 55.8425 74.2216 55.7994C71.7753 55.7778 69.3289 55.7562 66.8718 55.7023C64.6087 55.6485 62.2594 55.4976 59.9963 55.7455C58.6923 55.8855 57.9702 56.683 57.6577 57.696C57.5823 57.6529 57.4961 57.6314 57.3883 57.6314C55.6856 57.6314 53.9828 57.5775 52.2801 57.7068C50.5343 57.8362 48.7992 58.0625 47.0426 58.1379C43.6371 58.2995 40.2209 58.2241 36.8047 58.1379C35.1127 58.0948 33.41 58.1056 31.718 57.9762C30.0261 57.8469 28.3557 57.7068 26.653 57.7068C23.129 57.7068 19.605 57.7068 16.0809 57.7068C16.0055 57.7068 15.9516 57.7284 15.8977 57.7392C15.6499 57.7823 15.4236 57.9547 15.4343 58.278C15.4343 59.1186 15.3589 59.9484 15.3158 60.789C15.2835 61.4248 15.1541 62.2007 15.305 62.8258C15.5744 64.0005 16.7599 63.9681 17.7298 63.828C21.1784 63.3107 24.7239 63.6771 28.1833 63.7203C35.5546 63.7957 42.9367 63.5694 50.308 63.5263C52.334 63.5155 54.3492 63.5155 56.3753 63.5155C57.3021 63.5155 58.2397 63.4939 59.1665 63.5155C60.0178 63.537 60.8476 63.6125 61.6882 63.4185C61.8499 63.3862 61.9576 63.2892 62.0223 63.1814C64.2531 63.3215 66.4839 63.2569 68.7147 63.2353C73.4565 63.1922 78.209 63.4401 82.9508 63.4293C85.3325 63.4293 87.7141 63.4724 90.085 63.6879C92.402 63.9035 94.7082 64.2375 97.036 64.2591C102.284 64.2914 107.533 64.3669 112.781 64.3669C113.621 64.3669 114.839 64.6039 115.615 64.1621C116.273 63.7957 116.531 63.009 116.628 62.3085C116.747 61.4032 116.607 60.5196 116.585 59.6143L116.596 59.582ZM56.9141 62.3301C55.276 62.3301 53.6272 62.3301 51.9891 62.3301C48.6376 62.3408 45.2752 62.384 41.9236 62.4271C38.6367 62.4702 35.339 62.5133 32.0521 62.524C28.7975 62.5456 25.5429 62.4163 22.2776 62.4055C20.618 62.4055 18.9907 62.4809 17.3526 62.6965C16.8784 62.7611 16.5228 62.6965 16.4258 62.2115C16.3611 61.9098 16.4581 61.4464 16.4689 61.1338C16.4905 60.3687 16.5659 59.6035 16.5982 58.8384C19.9606 58.8384 23.3122 58.8384 26.6745 58.8384C28.3772 58.8384 30.0476 58.9785 31.7396 59.1078C33.4315 59.2371 35.1343 59.2264 36.8262 59.2695C40.2425 59.3557 43.6479 59.4311 47.0642 59.2695C48.7561 59.194 50.4373 58.9893 52.1292 58.8492C53.8858 58.6983 55.6532 58.763 57.4098 58.763C57.4422 58.763 57.4745 58.7522 57.5068 58.7414C57.4745 59.7329 57.7224 60.7997 58.1642 61.6296C58.3366 61.9529 58.5522 62.2007 58.8108 62.3947C58.1642 62.3624 57.5284 62.3193 56.9249 62.3193L56.9141 62.3301ZM115.346 62.6965C114.969 63.494 113.535 63.1707 112.792 63.1707C111.692 63.1707 110.593 63.1707 109.494 63.1707C105.291 63.1383 101.077 63.1168 96.8744 63.0737C94.7837 63.0521 92.7145 62.7611 90.6346 62.5564C88.5762 62.3516 86.5071 62.2654 84.438 62.2546C80.1811 62.2223 75.9351 62.1684 71.6783 62.0822C69.5337 62.0391 67.3891 62.1037 65.2338 62.1037C64.2531 62.1037 63.2832 62.1037 62.3025 62.0391C61.5481 61.996 60.6644 62.0175 59.9424 61.7481C58.7893 61.3063 58.4875 59.3126 58.6707 58.2241C58.9725 56.4029 61.4511 56.8339 62.809 56.8231C67.0335 56.7908 71.2688 56.9201 75.4933 56.9848C79.6962 57.0494 83.9099 57.2542 88.0913 57.7176C92.6391 58.2241 97.0683 59.0431 101.67 58.7737C103.879 58.6444 106.045 58.2457 108.255 58.1918C110.582 58.1271 112.899 58.2241 115.227 58.2349C115.594 58.7737 115.421 59.7975 115.464 60.4118C115.507 61.1339 115.648 62.0499 115.335 62.7288L115.346 62.6965Z" fill="black"/>
<path d="M58.2156 60.843C58.1186 60.6167 58.0108 60.4011 57.9031 60.1856C57.8492 60.0886 57.8061 59.9916 57.763 59.8946C57.763 59.9054 57.6875 59.7114 57.7199 59.7976C57.6983 59.7438 57.6768 59.6791 57.6552 59.6252C57.6229 59.5174 57.5798 59.3989 57.569 59.2911C57.569 59.2804 57.569 59.2588 57.569 59.248C57.569 59.1726 57.569 59.0864 57.569 59.0109C57.5906 58.8062 57.4397 58.6122 57.278 58.5044C57.0086 58.332 56.6637 58.2781 56.3512 58.235C56.0279 58.1919 55.6831 58.1919 55.3598 58.2781C55.2089 58.3212 55.0796 58.3859 54.961 58.4721C54.961 58.1596 54.6916 57.8901 54.3791 57.8901C54.0666 57.8901 53.7971 58.1596 53.7971 58.4721C53.7971 59.5282 53.851 60.5843 53.7971 61.6405C53.7756 62.1146 53.7756 62.6643 54.2174 62.9552C54.5192 63.16 54.9179 63.1492 55.2735 63.1277C55.5753 63.1061 55.8663 63.063 56.168 63.063C56.4698 63.063 56.7607 63.0846 57.0625 63.063C57.375 63.0307 57.666 62.966 57.9354 62.8044C58.1294 62.8044 58.3234 62.8044 58.5174 62.7828C58.8407 62.7397 59.0777 62.5457 59.0993 62.2008C59.1209 61.7805 58.8191 61.4034 58.5389 61.1232C58.4419 61.0262 58.3342 60.9292 58.2264 60.843H58.2156Z" fill="black"/>
<path d="M75.7514 61.3278C75.7299 60.8752 75.7406 60.4226 75.7406 59.9592C75.7406 58.8815 75.7622 57.7931 75.773 56.7154C75.773 55.9826 74.663 55.9718 74.6199 56.6831C74.6091 56.6615 74.5983 56.6507 74.5875 56.6292C74.2534 56.2412 73.7146 56.2951 73.2512 56.2628C72.2382 56.2089 71.236 56.0903 70.2229 56.0472C68.2831 55.961 66.3217 55.9287 64.3819 55.961C62.884 55.9826 61.0842 55.9395 59.7048 56.64C58.4332 57.2866 58.3577 58.7737 58.6164 60.0454C58.8966 61.4141 60.082 62.1469 61.386 62.3085C63.1318 62.5348 64.9423 62.578 66.6882 62.6642C68.6603 62.7612 70.6217 62.7612 72.5938 62.7612C73.4236 62.7612 75.3311 63.2461 75.7191 62.2223C75.8269 61.9421 75.7622 61.6296 75.7514 61.3278ZM64.1664 58.9246C64.2311 58.5906 64.6513 58.4612 64.9423 58.375C65.5889 58.1918 66.3217 58.1918 66.9791 58.1918C67.9275 58.1918 68.8974 58.2565 69.8565 58.278C69.835 58.6875 69.8242 59.1078 69.8242 59.5174C68.1861 59.5174 66.4726 59.7868 64.8561 59.4635C64.5328 59.3988 64.091 59.3126 64.1772 58.9246H64.1664Z" fill="black"/>
<path d="M100.664 64.0001C100.697 62.8793 100.697 61.7693 100.664 60.6485C100.632 59.5924 100.664 58.45 100.352 57.4262C100.136 56.715 99.0155 57.0167 99.231 57.7388C99.522 58.6979 99.4789 59.7756 99.5004 60.7778C99.5327 61.8555 99.5327 62.9332 99.5004 64.0001C99.4789 64.7436 100.643 64.7436 100.664 64.0001Z" fill="black"/>
<path d="M32.2209 57.685C32.0485 59.7649 31.8868 61.8556 31.736 63.9355C31.7144 64.248 32.0162 64.5174 32.3179 64.5174C32.652 64.5174 32.8783 64.248 32.8998 63.9355C33.0399 61.8556 33.2016 59.7649 33.3848 57.685C33.4064 57.3725 33.0938 57.103 32.8029 57.103C32.4688 57.103 32.2425 57.3725 32.2209 57.685Z" fill="black"/>
</svg>
