<svg width="113" height="57" viewBox="0 0 113 57" fill="none" xmlns="http://www.w3.org/2000/svg">
<path d="M47.4884 43.1058C47.4884 43.2414 47.4658 43.3634 47.4251 43.4764C47.3844 43.5894 47.3256 43.6843 47.2443 43.7657C47.1675 43.847 47.0725 43.9103 46.9641 43.9555C46.8556 44.0007 46.7336 44.0233 46.598 44.0233H45.6398C45.5991 44.0233 45.5811 44.0052 45.5811 43.9691V41.0132C45.5811 40.9771 45.5991 40.959 45.6353 40.959H46.5257C46.7923 40.959 47.0093 41.0268 47.1629 41.1624C47.3166 41.298 47.398 41.4968 47.398 41.759C47.398 41.8132 47.3889 41.8674 47.3754 41.9217C47.3573 41.9759 47.3347 42.0347 47.3076 42.0844C47.2805 42.1341 47.2443 42.1883 47.2036 42.2335C47.1629 42.2787 47.1223 42.3194 47.0725 42.351C47.068 42.3646 47.068 42.3781 47.0771 42.3872C47.2127 42.455 47.3166 42.5589 47.3844 42.69C47.4567 42.8211 47.4884 42.9612 47.4884 43.1058ZM46.9867 41.7454C46.9867 41.6143 46.946 41.5059 46.8692 41.429C46.7878 41.3522 46.6748 41.3115 46.5212 41.3115H46.0375C46.0104 41.3115 45.9969 41.3251 45.9969 41.3522V42.1612C45.9969 42.1928 46.0104 42.2064 46.0375 42.2064H46.5257C46.6793 42.2064 46.7969 42.1612 46.8737 42.0708C46.9505 41.9804 46.9867 41.872 46.9867 41.7454ZM47.0771 43.1239C47.0771 43.0561 47.068 42.9838 47.0499 42.916C47.0319 42.8482 47.0002 42.7894 46.9595 42.7352C46.9143 42.6855 46.8601 42.6403 46.7923 42.6087C46.7245 42.577 46.6387 42.5589 46.5392 42.5589H46.0421C46.0149 42.5589 46.0014 42.5725 46.0014 42.5996V43.612C46.0014 43.6437 46.0149 43.6572 46.0421 43.6572H46.5935C46.7471 43.6572 46.8646 43.6075 46.9505 43.5081C47.0364 43.4086 47.0771 43.2821 47.0771 43.1239Z" fill="white"/>
<path d="M48.7362 44.0233H48.4289C48.3882 44.0233 48.3701 44.0052 48.3701 43.9691V41.0132C48.3701 40.9771 48.3882 40.959 48.4289 40.959H48.7362C48.7769 40.959 48.795 40.9771 48.795 41.0087V43.9646C48.7995 44.0007 48.7769 44.0233 48.7362 44.0233Z" fill="white"/>
<path d="M50.0554 44.6247C50.0509 44.6699 50.0464 44.697 50.0328 44.706C50.0193 44.7151 50.0057 44.7196 49.9786 44.7196H49.7481C49.721 44.7196 49.7029 44.7151 49.6939 44.706C49.6848 44.697 49.6758 44.6789 49.6758 44.6473V43.8337C49.6758 43.784 49.6803 43.7524 49.6939 43.7388C49.7074 43.7253 49.73 43.7117 49.7571 43.6982L49.8475 43.662C49.9424 43.6258 50.0193 43.549 50.069 43.4315C50.1187 43.314 50.1549 43.1648 50.1775 42.9795C50.191 42.8801 50.2001 42.7761 50.2091 42.6632C50.2181 42.5502 50.2272 42.4236 50.2362 42.2745C50.2453 42.1253 50.2543 41.9536 50.2633 41.7547C50.2724 41.5558 50.2814 41.3208 50.295 41.0451C50.2995 41.0089 50.3085 40.9818 50.3221 40.9683C50.3356 40.9547 50.3628 40.9502 50.3944 40.9502H51.8859C51.9175 40.9502 51.9401 40.9547 51.9537 40.9683C51.9673 40.9818 51.9763 41.0044 51.9763 41.0451V43.6123C51.9763 43.6168 51.9763 43.6304 51.9808 43.6394C51.9853 43.653 51.9944 43.6575 52.0079 43.6575H52.1119C52.148 43.6575 52.1706 43.6665 52.1797 43.6801C52.1887 43.6936 52.1932 43.7208 52.1932 43.7524V44.6292C52.1887 44.6744 52.1842 44.7015 52.1706 44.7106C52.1571 44.7196 52.1435 44.7196 52.1164 44.7196H51.8995C51.8723 44.7196 51.8543 44.7151 51.8407 44.706C51.8271 44.697 51.8226 44.6699 51.8181 44.6292V44.0688C51.8136 44.0462 51.8045 44.0326 51.7955 44.0281C51.7819 44.0236 51.7684 44.0236 51.7503 44.0236H50.1232C50.0916 44.0236 50.078 44.0281 50.069 44.0371C50.0645 44.0462 50.06 44.0642 50.0509 44.0914V44.6247H50.0554ZM50.7063 41.3118C50.6882 41.3118 50.6791 41.3163 50.6746 41.3298C50.6701 41.3434 50.6656 41.3524 50.6656 41.3615C50.6611 41.479 50.652 41.6056 50.6475 41.7502C50.643 41.8948 50.634 42.0349 50.6294 42.1841C50.6204 42.3287 50.6159 42.4688 50.6023 42.6044C50.5888 42.74 50.5842 42.8575 50.5707 42.9615C50.5616 43.0066 50.5571 43.0609 50.5436 43.1196C50.5345 43.1784 50.521 43.2371 50.5074 43.3004C50.4938 43.3637 50.4758 43.4225 50.4532 43.4812C50.4306 43.54 50.408 43.5897 50.3808 43.6394C50.3673 43.6575 50.3763 43.671 50.408 43.671H51.5198C51.5243 43.671 51.5334 43.671 51.5469 43.6665C51.5605 43.662 51.565 43.6484 51.565 43.6258V41.3841C51.565 41.3434 51.5424 41.3253 51.5017 41.3253H50.7063V41.3118Z" fill="white"/>
<path d="M54.8012 44.0233H54.4984C54.4577 44.0233 54.4397 44.0052 54.4397 43.9691V42.6629C54.4397 42.6313 54.4261 42.6177 54.399 42.6177H53.3369C53.3097 42.6177 53.2962 42.6313 53.2962 42.6629V43.9646C53.2962 44.0052 53.2781 44.0233 53.242 44.0233H52.9391C52.8985 44.0233 52.8804 44.0052 52.8804 43.9691V41.0132C52.8804 40.9771 52.8984 40.959 52.9346 40.959H53.2374C53.2781 40.959 53.2962 40.9771 53.2962 41.0087V42.2155C53.2962 42.2471 53.3097 42.2606 53.3369 42.2606H54.399C54.4261 42.2606 54.4397 42.2471 54.4397 42.2155V41.0132C54.4397 40.9771 54.4577 40.959 54.4939 40.959H54.7967C54.8419 40.959 54.86 40.9771 54.86 41.0087V43.9646C54.86 44.0007 54.8419 44.0233 54.8012 44.0233Z" fill="white"/>
<path d="M57.6351 43.201C57.6351 43.3366 57.6125 43.4586 57.5628 43.5626C57.513 43.6665 57.4498 43.7569 57.3639 43.8292C57.278 43.9016 57.1786 43.9558 57.0656 43.9965C56.9526 44.0372 56.8261 44.0552 56.6905 44.0552C56.5549 44.0552 56.4283 44.0371 56.3153 44.001C56.2023 43.9648 56.0984 43.9106 56.0125 43.8383C55.9266 43.766 55.8588 43.6801 55.8091 43.5716C55.7594 43.4632 55.7368 43.3411 55.7368 43.2055V41.7638C55.7368 41.6327 55.7639 41.5107 55.8137 41.4067C55.8634 41.3028 55.9312 41.2124 56.017 41.14C56.1029 41.0677 56.2023 41.0135 56.3153 40.9728C56.4283 40.9367 56.5549 40.9141 56.6859 40.9141C56.817 40.9141 56.939 40.9321 57.052 40.9683C57.165 41.0045 57.269 41.0587 57.3548 41.131C57.4407 41.2033 57.513 41.2892 57.5628 41.3977C57.6125 41.5016 57.6396 41.6236 57.6396 41.7592V43.201H57.6351ZM57.2193 41.7683C57.2193 41.6282 57.1695 41.5061 57.0746 41.4157C56.9797 41.3253 56.8487 41.2756 56.6905 41.2756C56.5278 41.2756 56.3967 41.3208 56.3018 41.4157C56.2069 41.5107 56.1571 41.6282 56.1571 41.7683V43.192C56.1571 43.3411 56.2023 43.4632 56.2927 43.5535C56.3831 43.6439 56.5142 43.6891 56.6814 43.6891C56.8487 43.6891 56.9797 43.6439 57.0701 43.5535C57.165 43.4632 57.2102 43.3411 57.2102 43.192V41.7683H57.2193Z" fill="white"/>
<path d="M60.4288 43.1058C60.4288 43.2414 60.4062 43.3634 60.3655 43.4764C60.3248 43.5894 60.2661 43.6843 60.1847 43.7657C60.1079 43.847 60.013 43.9103 59.9045 43.9555C59.796 44.0007 59.674 44.0233 59.5384 44.0233H58.5802C58.5396 44.0233 58.5215 44.0052 58.5215 43.9691V41.0132C58.5215 40.9771 58.5396 40.959 58.5757 40.959H59.4661C59.7328 40.959 59.9497 41.0268 60.1034 41.1624C60.257 41.298 60.3384 41.4968 60.3384 41.759C60.3384 41.8132 60.3293 41.8674 60.3158 41.9217C60.2977 41.9759 60.2751 42.0347 60.248 42.0844C60.2209 42.1341 60.1847 42.1883 60.144 42.2335C60.1034 42.2787 60.0627 42.3194 60.013 42.351C60.0084 42.3646 60.0085 42.3781 60.0175 42.3872C60.1531 42.455 60.257 42.5589 60.3248 42.69C60.3926 42.8211 60.4288 42.9612 60.4288 43.1058ZM59.9226 41.7454C59.9226 41.6143 59.8819 41.5059 59.8051 41.429C59.7237 41.3522 59.6107 41.3115 59.4571 41.3115H58.9735C58.9463 41.3115 58.9328 41.3251 58.9328 41.3522V42.1612C58.9328 42.1928 58.9463 42.2064 58.9735 42.2064H59.4616C59.6152 42.2064 59.7328 42.1612 59.8096 42.0708C59.8864 41.9804 59.9226 41.872 59.9226 41.7454ZM60.013 43.1239C60.013 43.0561 60.0039 42.9838 59.9859 42.916C59.9678 42.8482 59.9361 42.7894 59.8955 42.7352C59.8503 42.6855 59.796 42.6403 59.7282 42.6087C59.6604 42.577 59.5746 42.5589 59.4751 42.5589H58.978C58.9509 42.5589 58.9373 42.5725 58.9373 42.5996V43.612C58.9373 43.6437 58.9509 43.6572 58.978 43.6572H59.5294C59.683 43.6572 59.8005 43.6075 59.8864 43.5081C59.9723 43.4086 60.013 43.2821 60.013 43.1239Z" fill="white"/>
<path d="M61.73 41.307C61.7029 41.307 61.6894 41.3206 61.6894 41.3522V41.994C61.6894 42.3691 61.6758 42.6765 61.6532 42.9205C61.6306 43.1646 61.5899 43.3589 61.5312 43.5126C61.4724 43.6663 61.3956 43.7838 61.2961 43.8696C61.1967 43.9555 61.0702 44.0323 60.912 44.0956C60.9075 44.1001 60.8939 44.1001 60.8758 44.1001C60.8442 44.1001 60.8261 44.0821 60.8171 44.0504L60.7493 43.8561C60.7493 43.8516 60.7493 43.8516 60.7447 43.847C60.7447 43.8425 60.7402 43.8425 60.7402 43.838C60.7402 43.8199 60.7448 43.8064 60.7583 43.7973C60.7719 43.7838 60.7854 43.7747 60.8035 43.7702C60.8668 43.7386 60.921 43.7024 60.9707 43.6708C61.0204 43.6391 61.0656 43.5939 61.1018 43.5397C61.138 43.4855 61.1741 43.4222 61.2012 43.3408C61.2284 43.2595 61.2509 43.16 61.269 43.038C61.2871 42.916 61.2962 42.7668 61.3052 42.5906C61.3142 42.4143 61.3188 42.2064 61.3188 41.9578V41.0132C61.3188 40.9771 61.3368 40.959 61.3775 40.959H62.9052C62.9458 40.959 62.9639 40.9771 62.9639 41.0087V43.9646C62.9639 44.0052 62.9458 44.0233 62.9052 44.0233H62.6023C62.5662 44.0233 62.5481 44.0052 62.5481 43.9691V41.3522C62.5481 41.3206 62.5345 41.307 62.5074 41.307H61.73Z" fill="white"/>
<path d="M65.5358 44.0233H63.9132C63.8726 44.0233 63.8545 44.0052 63.8545 43.9691V41.0132C63.8545 40.9771 63.8726 40.959 63.9132 40.959H65.5177C65.5629 40.959 65.581 40.9771 65.581 41.0132V41.2573C65.581 41.2979 65.5629 41.316 65.5222 41.316H64.311C64.2839 41.316 64.2703 41.3296 64.2703 41.3567V42.2064C64.2703 42.2335 64.2839 42.2471 64.3065 42.2471H65.3053C65.346 42.2471 65.3641 42.2652 65.3641 42.3058V42.5544C65.3641 42.5906 65.346 42.6087 65.3098 42.6087H64.311C64.2839 42.6087 64.2703 42.6222 64.2703 42.6539V43.6165C64.2703 43.6482 64.2839 43.6617 64.3065 43.6617H65.5358C65.5765 43.6617 65.5946 43.6798 65.5946 43.716V43.9646C65.5946 44.0007 65.5765 44.0233 65.5358 44.0233Z" fill="white"/>
<path d="M68.3833 44.0233H68.0804C68.0398 44.0233 68.0217 44.0052 68.0217 43.9691V42.6629C68.0217 42.6313 68.0081 42.6177 67.981 42.6177H66.9189C66.8918 42.6177 66.8782 42.6313 66.8782 42.6629V43.9646C66.8782 44.0052 66.8601 44.0233 66.824 44.0233H66.5212C66.4805 44.0233 66.4624 44.0052 66.4624 43.9691V41.0132C66.4624 40.9771 66.4805 40.959 66.5166 40.959H66.8194C66.8601 40.959 66.8782 40.9771 66.8782 41.0087V42.2155C66.8782 42.2471 66.8918 42.2606 66.9189 42.2606H67.981C68.0081 42.2606 68.0217 42.2471 68.0217 42.2155V41.0132C68.0217 40.9771 68.0398 40.959 68.0759 40.959H68.3787C68.4239 40.959 68.442 40.9771 68.442 41.0087V43.9646C68.442 44.0007 68.4239 44.0233 68.3833 44.0233Z" fill="white"/>
<path d="M71.2435 44.0233H70.9407C70.9 44.0233 70.8819 44.0052 70.8819 43.9691V42.6629C70.8819 42.6313 70.8684 42.6177 70.8412 42.6177H69.7836C69.7565 42.6177 69.7429 42.6313 69.7429 42.6629V43.9646C69.7429 44.0052 69.7249 44.0233 69.6887 44.0233H69.3859C69.3452 44.0233 69.3271 44.0052 69.3271 43.9691V41.0132C69.3271 40.9771 69.3452 40.959 69.3814 40.959H69.6842C69.7249 40.959 69.7429 40.9771 69.7429 41.0087V42.2155C69.7429 42.2471 69.7565 42.2606 69.7836 42.2606H70.8412C70.8684 42.2606 70.8819 42.2471 70.8819 42.2155V41.0132C70.8819 40.9771 70.9 40.959 70.9361 40.959H71.239C71.2842 40.959 71.3022 40.9771 71.3022 41.0087V43.9646C71.3022 44.0007 71.2842 44.0233 71.2435 44.0233Z" fill="white"/>
<path d="M72.1841 41.8315C72.1841 41.7005 72.2066 41.5829 72.2473 41.4745C72.288 41.366 72.3513 41.2756 72.4326 41.1943C72.514 41.1174 72.6089 41.0587 72.7219 41.0135C72.8349 40.9728 72.9614 40.9502 73.1015 40.9502H73.9784C74.019 40.9502 74.0371 40.9683 74.0371 41.0044V43.9603C74.0371 43.9964 74.019 44.0145 73.9784 44.0145H73.6801C73.6394 44.0145 73.6213 43.9964 73.6213 43.9558V42.8033C73.6213 42.7716 73.6077 42.7581 73.5806 42.7581H73.0835C73.0563 42.7581 73.0383 42.7626 73.0292 42.7716C73.0202 42.7807 73.0111 42.7942 73.0066 42.8078L72.4778 43.9377C72.4598 43.9693 72.4462 43.9874 72.4326 44.001C72.4191 44.0145 72.3829 44.019 72.3287 44.019H72.0891C72.0711 44.019 72.0485 44.0145 72.0259 44.0055C72.0033 43.9965 72.0033 43.9693 72.0213 43.9287L72.5999 42.7174C72.6044 42.7129 72.6044 42.6993 72.5908 42.6857C72.4778 42.5908 72.3829 42.4733 72.3016 42.3242C72.2247 42.1841 72.1841 42.0168 72.1841 41.8315ZM73.1603 41.3118C73.0654 41.3118 72.9795 41.3298 72.9072 41.3615C72.8349 41.3931 72.7761 41.4383 72.7309 41.488C72.6857 41.5378 72.6541 41.5965 72.6315 41.6643C72.6089 41.7321 72.5999 41.7954 72.5999 41.8587C72.5999 41.8993 72.6044 41.94 72.6134 41.9897C72.6225 42.0394 72.636 42.0846 72.6541 42.1298C72.6722 42.175 72.6993 42.2247 72.7309 42.2699C72.7626 42.3151 72.8032 42.3513 72.8484 42.3829C72.8575 42.3875 72.871 42.3965 72.8846 42.401C72.8982 42.4055 72.9117 42.4101 72.9298 42.4101H73.5851C73.6123 42.4101 73.6258 42.3965 73.6258 42.3649V41.357C73.6258 41.3298 73.6123 41.3163 73.5806 41.3163H73.1603V41.3118Z" fill="white"/>
<path d="M78.5343 43.1107C78.5343 43.2463 78.5116 43.3683 78.471 43.4813C78.4303 43.5943 78.3715 43.6892 78.2902 43.7706C78.2134 43.8519 78.1184 43.9152 78.01 43.9604C77.9015 44.0056 77.7795 44.0282 77.6439 44.0282H76.6857C76.645 44.0282 76.627 44.0101 76.627 43.974V41.0181C76.627 40.9819 76.645 40.9639 76.6812 40.9639H77.5716C77.8382 40.9639 78.0552 41.0317 78.2134 41.1673C78.3715 41.3028 78.4484 41.5017 78.4484 41.7639C78.4484 41.8181 78.4393 41.8723 78.4258 41.9266C78.4077 41.9808 78.3851 42.0396 78.358 42.0893C78.3309 42.139 78.2947 42.1932 78.254 42.2384C78.2134 42.2836 78.1727 42.3243 78.123 42.3559C78.1184 42.3695 78.1184 42.383 78.1275 42.3921C78.2631 42.4599 78.367 42.5638 78.4348 42.6949C78.4981 42.826 78.5343 42.9661 78.5343 43.1107ZM78.0326 41.7458C78.0326 41.6147 77.9919 41.5062 77.9151 41.4294C77.8337 41.3526 77.7207 41.3119 77.567 41.3119H77.0834C77.0563 41.3119 77.0428 41.3254 77.0428 41.3526V42.1616C77.0428 42.1932 77.0563 42.2068 77.0834 42.2068H77.5716C77.7252 42.2068 77.8427 42.1616 77.9196 42.0712C77.9964 41.9808 78.0326 41.8723 78.0326 41.7458ZM78.123 43.1243C78.123 43.0565 78.1139 42.9842 78.0958 42.9164C78.0778 42.8486 78.0461 42.7898 78.0054 42.7356C77.9602 42.6859 77.906 42.6407 77.8337 42.609C77.7659 42.5774 77.68 42.5593 77.5806 42.5593H77.0834C77.0563 42.5593 77.0428 42.5729 77.0428 42.6V43.6124C77.0428 43.644 77.0563 43.6576 77.0834 43.6576H77.6348C77.7885 43.6576 77.906 43.6079 77.9919 43.5084C78.0778 43.4135 78.123 43.2825 78.123 43.1243Z" fill="white"/>
<path d="M80.156 40.9189C80.3051 40.9189 80.4362 40.9416 80.5492 40.9822C80.6622 41.0229 80.7571 41.0817 80.8339 41.1495C80.9108 41.2218 80.9695 41.3076 81.0102 41.4071C81.0509 41.5065 81.069 41.615 81.069 41.728C81.069 41.7912 81.0599 41.8545 81.0464 41.9223C81.0283 41.9901 81.0057 42.0534 80.9695 42.1121C80.9379 42.1709 80.8972 42.2251 80.8475 42.2748C80.7978 42.3246 80.7435 42.3562 80.6803 42.3788C80.6758 42.3833 80.6712 42.3878 80.6712 42.3924C80.6712 42.3969 80.6712 42.4014 80.6757 42.4059C80.8023 42.4511 80.9063 42.537 80.9921 42.659C81.078 42.781 81.1187 42.9302 81.1187 43.111C81.1187 43.2556 81.0961 43.3822 81.0464 43.4997C80.9966 43.6172 80.9288 43.7166 80.843 43.8025C80.7526 43.8838 80.6441 43.9517 80.5176 43.9968C80.391 44.042 80.2464 44.0646 80.0882 44.0646C79.9978 44.0646 79.9074 44.0556 79.817 44.0466C79.7266 44.033 79.6408 44.0104 79.5549 43.9788C79.4735 43.9471 79.3967 43.9064 79.3289 43.8477C79.2611 43.7889 79.2069 43.7257 79.1617 43.6443C79.1571 43.6262 79.1526 43.6127 79.1571 43.5991C79.1617 43.5856 79.1752 43.5675 79.1978 43.5539C79.2295 43.5313 79.2611 43.5087 79.2973 43.4861C79.3334 43.4635 79.3651 43.4409 79.3967 43.4183C79.4193 43.4002 79.4374 43.3957 79.4554 43.3957C79.4735 43.3957 79.4871 43.4093 79.5006 43.4319C79.5549 43.5087 79.6317 43.572 79.7402 43.6262C79.8441 43.6805 79.9616 43.7076 80.0882 43.7076C80.2871 43.7076 80.4407 43.6534 80.5447 43.5449C80.6486 43.4364 80.7029 43.3008 80.7029 43.1426C80.7029 42.9528 80.6441 42.8082 80.5311 42.7223C80.4181 42.6364 80.2735 42.5867 80.1018 42.5867H79.7583C79.7176 42.5867 79.6995 42.5686 79.6995 42.5325V42.2794C79.6995 42.2432 79.7176 42.2251 79.7537 42.2251H80.1831C80.3232 42.2251 80.4362 42.1845 80.5221 42.0986C80.608 42.0127 80.6532 41.9042 80.6532 41.7641C80.6532 41.6331 80.6079 41.5201 80.5176 41.4297C80.4272 41.3393 80.2961 41.2941 80.1198 41.2941C80.0385 41.2941 79.9526 41.3122 79.8577 41.3528C79.7628 41.389 79.6769 41.4523 79.6001 41.5382C79.5865 41.5517 79.573 41.5653 79.5549 41.5743C79.5368 41.5879 79.5187 41.5833 79.4916 41.5743L79.2973 41.4432C79.2701 41.4251 79.2611 41.4071 79.2611 41.389C79.2656 41.3709 79.2701 41.3528 79.2792 41.3348C79.365 41.1992 79.4871 41.0997 79.6408 41.0319C79.7989 40.9506 79.9707 40.9189 80.156 40.9189Z" fill="white"/>
<path d="M82.023 40.9502C82.0773 40.9502 82.1134 40.9683 82.127 41.0044L82.7146 42.7807C82.7236 42.7942 82.7371 42.7942 82.7507 42.7807L83.3112 41.0135C83.3247 40.9728 83.3609 40.9502 83.4241 40.9502H83.6727C83.7089 40.9502 83.7315 40.9592 83.736 40.9728C83.7405 40.9864 83.7405 41.0089 83.727 41.0315L82.9586 43.3004C82.9179 43.4179 82.8818 43.5264 82.8456 43.6258C82.8095 43.7253 82.7643 43.8066 82.7146 43.8789C82.6648 43.9513 82.6061 44.001 82.5338 44.0371C82.4615 44.0733 82.3711 44.0914 82.2581 44.0914H82.0321C81.9959 44.0914 81.9733 44.0868 81.9643 44.0733C81.9553 44.0597 81.9507 44.0371 81.9507 44.001V43.8021C81.9507 43.7659 81.9553 43.7433 81.9643 43.7343C81.9733 43.7253 81.9914 43.7208 82.0185 43.7208H82.1496C82.2174 43.7208 82.2716 43.7117 82.3123 43.6982C82.353 43.6801 82.3937 43.6439 82.4298 43.5806C82.466 43.5174 82.4886 43.4631 82.4976 43.4179C82.5066 43.3727 82.5021 43.323 82.4795 43.2597L81.6931 41.0361C81.6705 40.9818 81.6886 40.9502 81.7428 40.9502H82.023Z" fill="white"/>
<path d="M85.9822 41.316H85.3269C85.2952 41.316 85.2817 41.3296 85.2817 41.3567V43.9691C85.2817 44.0097 85.2636 44.0278 85.2274 44.0278H84.9246C84.8839 44.0278 84.8659 44.0097 84.8659 43.9736V41.3612C84.8659 41.3296 84.8523 41.316 84.8252 41.316H84.1789C84.1382 41.316 84.1201 41.298 84.1201 41.2618V41.0132C84.1201 40.9771 84.1382 40.959 84.1789 40.959H85.9867C86.0274 40.959 86.0455 40.9771 86.0455 41.0087V41.2618C86.041 41.298 86.0229 41.316 85.9822 41.316Z" fill="white"/>
<path d="M88.3059 41.316H87.6506C87.619 41.316 87.6054 41.3296 87.6054 41.3567V43.9691C87.6054 44.0097 87.5873 44.0278 87.5512 44.0278H87.2483C87.2077 44.0278 87.1896 44.0097 87.1896 43.9736V41.3612C87.1896 41.3296 87.176 41.316 87.1489 41.316H86.5026C86.4619 41.316 86.4438 41.298 86.4438 41.2618V41.0132C86.4438 40.9771 86.4619 40.959 86.5026 40.959H88.3105C88.3511 40.959 88.3692 40.9771 88.3692 41.0087V41.2618C88.3647 41.298 88.3466 41.316 88.3059 41.316Z" fill="white"/>
<path d="M88.9746 41.8315C88.9746 41.7005 88.9972 41.5829 89.0379 41.4745C89.0785 41.366 89.1418 41.2756 89.2232 41.1943C89.3045 41.1174 89.3994 41.0587 89.5124 41.0135C89.6254 40.9728 89.752 40.9502 89.8921 40.9502H90.7689C90.8096 40.9502 90.8276 40.9683 90.8276 41.0044V43.9603C90.8276 43.9964 90.8096 44.0145 90.7689 44.0145H90.4706C90.4299 44.0145 90.4118 43.9964 90.4118 43.9558V42.7987C90.4118 42.7671 90.3983 42.7536 90.3712 42.7536H89.874C89.8469 42.7536 89.8288 42.7581 89.8198 42.7671C89.8107 42.7761 89.8017 42.7897 89.7972 42.8033L89.2684 43.9332C89.2503 43.9648 89.2367 43.9829 89.2232 43.9965C89.2096 44.01 89.1735 44.0145 89.1192 44.0145H88.8797C88.8616 44.0145 88.839 44.01 88.8164 44.001C88.7938 43.9919 88.7938 43.9648 88.8119 43.9241L89.3904 42.7129C89.3949 42.7083 89.3949 42.6948 89.3813 42.6812C89.2684 42.5863 89.1734 42.4688 89.0921 42.3197C89.0152 42.1841 88.9746 42.0168 88.9746 41.8315ZM89.9508 41.3163C89.8559 41.3163 89.77 41.3344 89.6977 41.366C89.6254 41.3976 89.5667 41.4428 89.5215 41.4926C89.4763 41.5423 89.4446 41.601 89.422 41.6688C89.3994 41.7366 89.3904 41.7999 89.3904 41.8632C89.3904 41.9039 89.3949 41.9445 89.4039 41.9942C89.413 42.044 89.4265 42.0891 89.4446 42.1343C89.4627 42.1795 89.4898 42.2293 89.5215 42.2745C89.5531 42.3196 89.5938 42.3558 89.639 42.3874C89.648 42.392 89.6616 42.401 89.6751 42.4055C89.6887 42.41 89.7022 42.4146 89.7203 42.4146H90.3757C90.4028 42.4146 90.4164 42.401 90.4164 42.3694V41.3615C90.4164 41.3344 90.4028 41.3208 90.3712 41.3208H89.9508V41.3163Z" fill="white"/>
<path d="M95.0535 41.316H94.3982C94.3665 41.316 94.353 41.3296 94.353 41.3567V43.9691C94.353 44.0097 94.3349 44.0278 94.2987 44.0278H93.9959C93.9552 44.0278 93.9371 44.0097 93.9371 43.9736V41.3612C93.9371 41.3296 93.9236 41.316 93.8965 41.316H93.2502C93.2095 41.316 93.1914 41.298 93.1914 41.2618V41.0132C93.1914 40.9771 93.2095 40.959 93.2502 40.959H95.058C95.0987 40.959 95.1168 40.9771 95.1168 41.0087V41.2618C95.1123 41.298 95.0942 41.316 95.0535 41.316Z" fill="white"/>
<path d="M97.1093 44.0233C97.0687 44.0233 97.0415 44.0097 97.0415 43.9871L96.8788 43.3408C96.8743 43.3273 96.8653 43.3228 96.8608 43.3228H95.9794C95.9659 43.3228 95.9568 43.3228 95.9568 43.3273C95.9568 43.3318 95.9523 43.3318 95.9478 43.3363L95.7896 43.9871C95.7851 44.0097 95.767 44.0233 95.7263 44.0233H95.4597C95.4325 44.0233 95.4145 44.0188 95.4009 44.0098C95.3873 44.0007 95.3873 43.9781 95.3919 43.951L96.1286 41.0177C96.1331 40.9996 96.1376 40.9861 96.1512 40.9771C96.1647 40.9635 96.1828 40.959 96.2099 40.959H96.6348C96.6754 40.959 96.698 40.9771 96.7116 41.0087L97.4664 43.942C97.4709 43.96 97.4754 43.9781 97.4709 43.9962C97.4664 44.0143 97.4528 44.0278 97.4212 44.0278H97.1093V44.0233ZM96.2642 42.0256L96.0382 42.9386C96.0337 42.9567 96.0337 42.9657 96.0382 42.9702C96.0382 42.9747 96.0472 42.9793 96.0653 42.9793H96.7523C96.7704 42.9793 96.7794 42.9747 96.7839 42.9702C96.7884 42.9657 96.7884 42.9521 96.7839 42.9386L96.567 42.0437L96.4269 41.4155C96.4223 41.4064 96.4178 41.4019 96.4133 41.4019C96.4088 41.4019 96.4043 41.4064 96.3998 41.411L96.2642 42.0256Z" fill="white"/>
<path d="M101.607 43.201C101.607 43.3366 101.585 43.4586 101.535 43.5626C101.485 43.6665 101.422 43.7569 101.336 43.8292C101.25 43.9016 101.151 43.9558 101.038 43.9965C100.925 44.0326 100.798 44.0552 100.663 44.0552C100.527 44.0552 100.4 44.0371 100.288 44.001C100.175 43.9648 100.071 43.9106 99.9847 43.8383C99.8988 43.766 99.831 43.6801 99.7813 43.5716C99.7316 43.4632 99.709 43.3411 99.709 43.2055V41.7638C99.709 41.6327 99.7316 41.5107 99.7858 41.4067C99.8355 41.3028 99.9033 41.2124 99.9892 41.14C100.075 41.0677 100.175 41.0135 100.288 40.9728C100.4 40.9367 100.527 40.9141 100.658 40.9141C100.789 40.9141 100.911 40.9321 101.024 40.9683C101.137 41.0045 101.241 41.0587 101.327 41.131C101.413 41.2033 101.485 41.2892 101.535 41.3977C101.585 41.5016 101.612 41.6236 101.612 41.7592V43.201H101.607ZM101.187 41.7683C101.187 41.6282 101.137 41.5061 101.042 41.4157C100.947 41.3253 100.816 41.2756 100.658 41.2756C100.495 41.2756 100.364 41.3208 100.269 41.4157C100.175 41.5107 100.125 41.6282 100.125 41.7683V43.192C100.125 43.3411 100.17 43.4632 100.26 43.5535C100.351 43.6439 100.482 43.6891 100.649 43.6891C100.816 43.6891 100.947 43.6439 101.038 43.5535C101.133 43.4632 101.178 43.3411 101.178 43.192V41.7683H101.187Z" fill="white"/>
<path d="M102.466 44.6247C102.461 44.6699 102.457 44.697 102.443 44.706C102.429 44.7151 102.416 44.7196 102.389 44.7196H102.158C102.131 44.7196 102.113 44.7151 102.104 44.706C102.095 44.697 102.086 44.6789 102.086 44.6473V43.8337C102.086 43.784 102.09 43.7524 102.104 43.7388C102.118 43.7253 102.14 43.7117 102.167 43.6982L102.258 43.662C102.353 43.6258 102.429 43.549 102.479 43.4315C102.529 43.314 102.565 43.1648 102.588 42.9795C102.601 42.8801 102.61 42.7761 102.619 42.6632C102.628 42.5502 102.637 42.4236 102.646 42.2745C102.655 42.1253 102.664 41.9536 102.674 41.7547C102.683 41.5558 102.692 41.3208 102.705 41.0451C102.71 41.0089 102.719 40.9818 102.732 40.9683C102.746 40.9547 102.773 40.9502 102.805 40.9502H104.296C104.328 40.9502 104.35 40.9547 104.364 40.9683C104.377 40.9818 104.386 41.0044 104.386 41.0451V43.6123C104.386 43.6168 104.386 43.6304 104.391 43.6394C104.395 43.653 104.405 43.6575 104.414 43.6575H104.518C104.554 43.6575 104.576 43.6665 104.585 43.6801C104.594 43.6936 104.599 43.7208 104.599 43.7524V44.6292C104.594 44.6744 104.59 44.7015 104.576 44.7106C104.563 44.7151 104.549 44.7196 104.522 44.7196H104.305C104.278 44.7196 104.26 44.7151 104.246 44.706C104.233 44.697 104.228 44.6699 104.224 44.6292V44.0688C104.219 44.0462 104.21 44.0326 104.197 44.0281C104.183 44.0236 104.17 44.0236 104.151 44.0236H102.524C102.493 44.0236 102.479 44.0281 102.47 44.0371C102.466 44.0462 102.461 44.0642 102.452 44.0914V44.6247H102.466ZM103.116 41.3118C103.098 41.3118 103.089 41.3163 103.085 41.3298C103.08 41.3434 103.076 41.3524 103.076 41.3615C103.071 41.479 103.062 41.6056 103.058 41.7502C103.053 41.8948 103.044 42.0349 103.04 42.1841C103.035 42.3287 103.026 42.4688 103.012 42.6044C103.003 42.74 102.994 42.8575 102.981 42.9615C102.976 43.0066 102.967 43.0609 102.954 43.1196C102.945 43.1784 102.931 43.2371 102.918 43.3004C102.904 43.3637 102.886 43.4225 102.863 43.4812C102.841 43.54 102.818 43.5897 102.791 43.6394C102.777 43.6575 102.786 43.671 102.818 43.671H103.93C103.934 43.671 103.948 43.671 103.957 43.6665C103.971 43.662 103.975 43.6484 103.975 43.6258V41.3841C103.975 41.3434 103.953 41.3253 103.912 41.3253H103.116V41.3118Z" fill="white"/>
<path d="M105.336 41.8315C105.336 41.7005 105.359 41.5829 105.399 41.4745C105.44 41.366 105.503 41.2756 105.584 41.1943C105.666 41.1174 105.761 41.0587 105.874 41.0135C105.987 40.9728 106.113 40.9502 106.253 40.9502H107.13C107.171 40.9502 107.189 40.9683 107.189 41.0044V43.9603C107.189 43.9964 107.171 44.0145 107.13 44.0145H106.832C106.791 44.0145 106.773 43.9964 106.773 43.9558V42.8033C106.773 42.7716 106.76 42.7581 106.732 42.7581H106.235C106.208 42.7581 106.19 42.7626 106.181 42.7716C106.172 42.7807 106.163 42.7942 106.158 42.8078L105.63 43.9377C105.612 43.9693 105.598 43.9874 105.584 44.001C105.571 44.0145 105.535 44.019 105.481 44.019H105.241C105.223 44.019 105.2 44.0145 105.178 44.0055C105.155 43.9965 105.155 43.9693 105.173 43.9287L105.752 42.7174C105.756 42.7129 105.756 42.6993 105.743 42.6857C105.63 42.5908 105.535 42.4733 105.453 42.3242C105.377 42.1841 105.336 42.0168 105.336 41.8315ZM106.312 41.3118C106.217 41.3118 106.131 41.3298 106.059 41.3615C105.987 41.3931 105.928 41.4383 105.883 41.488C105.838 41.5378 105.806 41.5965 105.783 41.6643C105.761 41.7321 105.752 41.7954 105.752 41.8587C105.752 41.8993 105.756 41.94 105.765 41.9897C105.774 42.0394 105.788 42.0846 105.806 42.1298C105.824 42.175 105.851 42.2247 105.883 42.2699C105.914 42.3151 105.955 42.3513 106 42.3829C106.009 42.3875 106.023 42.3965 106.036 42.401C106.05 42.4055 106.064 42.4101 106.082 42.4101H106.737C106.764 42.4101 106.778 42.3965 106.778 42.3649V41.357C106.778 41.3298 106.764 41.3163 106.732 41.3163H106.312V41.3118Z" fill="white"/>
<path d="M109.765 41.3115H108.599C108.571 41.3115 108.558 41.3251 108.558 41.3522V43.9646C108.558 44.0052 108.54 44.0233 108.504 44.0233H108.201C108.16 44.0233 108.142 44.0052 108.142 43.9691V41.0132C108.142 40.9771 108.16 40.959 108.201 40.959H109.765C109.805 40.959 109.823 40.9771 109.823 41.0087V41.2618C109.823 41.2934 109.805 41.3115 109.765 41.3115Z" fill="white"/>
<path d="M110.502 40.9502C110.556 40.9502 110.592 40.9683 110.606 41.0044L111.194 42.7807C111.203 42.7942 111.216 42.7942 111.23 42.7807L111.79 41.0135C111.804 40.9728 111.84 40.9502 111.903 40.9502H112.152C112.188 40.9502 112.21 40.9592 112.215 40.9728C112.22 40.9864 112.22 41.0089 112.206 41.0315L111.438 43.3004C111.397 43.4179 111.361 43.5264 111.325 43.6258C111.288 43.7253 111.243 43.8066 111.194 43.8789C111.144 43.9513 111.085 44.001 111.013 44.0371C110.94 44.0733 110.85 44.0914 110.737 44.0914H110.511C110.475 44.0914 110.452 44.0868 110.443 44.0733C110.434 44.0597 110.43 44.0371 110.43 44.001V43.8021C110.43 43.7659 110.434 43.7433 110.443 43.7343C110.452 43.7253 110.47 43.7208 110.498 43.7208H110.629C110.696 43.7208 110.751 43.7117 110.791 43.6982C110.832 43.6801 110.873 43.6439 110.909 43.5806C110.945 43.5174 110.968 43.4631 110.977 43.4179C110.986 43.3727 110.981 43.323 110.959 43.2597L110.172 41.0361C110.15 40.9818 110.168 40.9502 110.222 40.9502H110.502Z" fill="white"/>
<path d="M47.3209 29.2752V31.6661C47.3209 31.7926 47.3842 31.8514 47.5063 31.8514H49.2011C50.1729 31.8514 50.9593 32.1497 51.5649 32.7417C52.1705 33.3338 52.4734 34.0796 52.4734 34.9699C52.4734 35.8874 52.1751 36.6377 51.574 37.2252C50.9728 37.8128 50.1819 38.1066 49.2011 38.1066H45.9108C45.7391 38.1066 45.6577 38.0297 45.6577 37.867V27.8831C45.6577 27.7249 45.7436 27.6436 45.9108 27.6436H51.3163C51.4881 27.6436 51.5694 27.7159 51.5694 27.865V28.8458C51.5694 29.004 51.4836 29.0853 51.3163 29.0853H47.5017C47.3842 29.0898 47.3209 29.1486 47.3209 29.2752ZM47.5243 36.6648H49.1017C49.3051 36.6648 49.4904 36.6422 49.6621 36.597C50.0101 36.4976 50.2949 36.2987 50.5118 36.0049C50.7243 35.7112 50.8327 35.3767 50.8327 35.0061C50.8327 34.066 50.4305 33.5146 49.6305 33.3474C49.4587 33.3112 49.278 33.2977 49.0881 33.2977H47.5108C47.3752 33.2977 47.3074 33.37 47.3074 33.5191V36.4705C47.3074 36.597 47.3797 36.6648 47.5243 36.6648Z" fill="white"/>
<path d="M56.0842 38.1069H54.9001C54.7283 38.1069 54.647 38.0346 54.647 37.8855V27.8699C54.647 27.7207 54.7328 27.6484 54.9001 27.6484H56.0842C56.256 27.6484 56.3373 27.7207 56.3373 27.8699V37.8719C56.3373 38.0256 56.256 38.1069 56.0842 38.1069Z" fill="white"/>
<path d="M64.3916 29.0899H62.0369C61.9239 29.0899 61.8651 29.1576 61.8651 29.2932V31.1915C61.8651 32.9225 61.7883 34.2377 61.6346 35.1507C61.4809 36.0592 61.2098 36.7642 60.8211 37.2614C60.4324 37.7586 59.8403 38.1292 59.0494 38.3778C58.8686 38.432 58.7511 38.3913 58.6923 38.2422L58.4031 37.4783C58.3353 37.275 58.3895 37.1348 58.5748 37.0535C59.072 36.814 59.4335 36.5383 59.6595 36.2128C59.8855 35.8874 60.0573 35.3451 60.1702 34.5767C60.2832 33.8084 60.342 32.6559 60.342 31.1192V27.8831C60.342 27.7249 60.4279 27.6436 60.5951 27.6436H66.0006C66.1724 27.6436 66.2537 27.7249 66.2537 27.8831V37.867C66.2537 38.0252 66.1678 38.1066 66.0006 38.1066H64.83C64.6718 38.1066 64.595 38.0343 64.595 37.8851V29.2887C64.595 29.1576 64.5272 29.0899 64.3916 29.0899Z" fill="white"/>
<path d="M68.8657 37.8496V27.8837C68.8657 27.7255 68.9561 27.6442 69.1369 27.6442H70.2397C70.3979 27.6442 70.4792 27.7255 70.4792 27.8837V34.7807C70.4883 34.8033 70.5109 34.8033 70.547 34.7807C70.8182 34.2745 71.3832 33.2214 72.2419 31.626C73.1006 30.0305 73.7696 28.8057 74.2441 27.947C74.3571 27.7436 74.5243 27.6396 74.7503 27.6396H75.6136C75.7718 27.6396 75.8531 27.721 75.8531 27.8792V37.8631C75.8531 38.0213 75.7673 38.1027 75.6 38.1027H74.4972C74.3255 38.1027 74.2441 38.0168 74.2441 37.8496V30.8983C74.2441 30.8441 74.226 30.835 74.1944 30.8802L70.4838 37.8315C70.416 37.958 70.3527 38.0303 70.2985 38.062C70.2442 38.0936 70.1403 38.1027 69.9956 38.1027H69.146C68.9561 38.1072 68.8657 38.0213 68.8657 37.8496Z" fill="white"/>
<path d="M78.4067 37.8495V27.8836C78.4067 27.7254 78.4971 27.6441 78.6779 27.6441H79.7807C79.9389 27.6441 80.0157 27.7254 80.0157 27.8836V34.7806C80.0248 34.8032 80.0519 34.8032 80.0835 34.7806C80.3547 34.2744 80.9197 33.2213 81.7784 31.6259C82.6371 30.0304 83.306 28.8056 83.7806 27.9469C83.8936 27.7435 84.0608 27.6396 84.2868 27.6396H85.1501C85.3083 27.6396 85.3896 27.7209 85.3896 27.8791V37.863C85.3896 38.0212 85.3037 38.1026 85.1365 38.1026H84.0337C83.862 38.1026 83.7806 38.0167 83.7806 37.8495V30.8982C83.7806 30.844 83.7625 30.835 83.7309 30.8801L80.0203 37.8314C79.9525 37.9579 79.8892 38.0303 79.835 38.0619C79.7762 38.089 79.6768 38.1026 79.5321 38.1026H78.6824C78.4971 38.1071 78.4067 38.0212 78.4067 37.8495ZM81.9502 26.2746C82.3931 26.2746 82.723 25.9447 82.949 25.2893C82.9942 25.1537 83.0891 25.0859 83.2383 25.0859H83.8168C83.9976 25.0859 84.0744 25.1763 84.0518 25.3571C83.984 25.9582 83.758 26.4599 83.3738 26.8757C82.9897 27.287 82.5151 27.4949 81.9502 27.4949C81.3988 27.4949 80.9242 27.287 80.5355 26.8667C80.1468 26.4509 79.9163 25.9447 79.8485 25.3571C79.8259 25.1763 79.9027 25.0859 80.0881 25.0859H80.6666C80.8022 25.0859 80.8971 25.1537 80.9558 25.2893C81.1773 25.9447 81.5117 26.2746 81.9502 26.2746Z" fill="white"/>
<path d="M99.021 34.6807L99.256 37.8851C99.256 38.0343 99.1882 38.1066 99.0526 38.1066H97.882C97.7329 38.1066 97.6561 38.0388 97.6425 37.9032L97.4391 34.8343C97.3623 33.6818 96.8109 33.1033 95.794 33.1033C95.229 33.1033 94.7906 33.2705 94.4787 33.605C94.1669 33.9394 94.0132 34.3779 94.0132 34.9202V37.8851C94.0132 38.0343 93.9454 38.1066 93.8098 38.1066H92.5398C92.4042 38.1066 92.3364 38.0388 92.3364 37.9032V27.8695C92.3364 27.7204 92.4133 27.6481 92.5714 27.6481H93.8098C93.9454 27.6481 94.0132 27.7159 94.0132 27.8515V31.7158C94.0132 31.874 94.0765 31.892 94.1985 31.7655L97.421 27.7972C97.5114 27.6933 97.6289 27.6436 97.7781 27.6436H99.0843C99.1882 27.6436 99.2515 27.6707 99.2786 27.7294C99.3057 27.7882 99.2922 27.8469 99.2379 27.9147L96.1872 31.6796C96.0968 31.8062 96.1239 31.8649 96.273 31.8649C96.499 31.8649 96.716 31.883 96.9194 31.9146C97.5747 32.0276 98.0809 32.3259 98.447 32.805C98.8041 33.2886 98.9984 33.9123 99.021 34.6807Z" fill="white"/>
<path d="M103.188 38.1069H102C101.828 38.1069 101.747 38.0346 101.747 37.8855V27.8699C101.747 27.7207 101.832 27.6484 102 27.6484H103.188C103.36 27.6484 103.441 27.7207 103.441 27.8699V37.8719C103.446 38.0256 103.36 38.1069 103.188 38.1069Z" fill="white"/>
<path d="M112.223 28.8507C112.223 29.0224 112.146 29.1038 111.988 29.1038H109.868C109.732 29.1038 109.665 29.158 109.665 29.2755L109.647 37.8674C109.647 38.0256 109.57 38.1069 109.412 38.1069H108.241C108.06 38.1069 107.97 38.0346 107.97 37.8855L107.988 29.2936C107.988 29.1716 107.92 29.1083 107.785 29.1083H105.751C105.579 29.1083 105.498 29.0224 105.498 28.8552V27.888C105.498 27.7298 105.583 27.6484 105.751 27.6484H111.988C112.146 27.6484 112.223 27.7207 112.223 27.8699V28.8507Z" fill="white"/>
<path d="M22.1104 27.6711C23.629 18.9482 31.674 12.2907 41.3731 12.2907C50.3311 12.2907 57.8744 17.9719 60.1749 25.7096H67.881C67.4697 23.739 66.8053 21.8543 65.942 20.0736C67.5781 15.5675 67.9442 5.16772 67.551 2.49208C67.3657 1.17234 66.6833 0.742981 65.5172 0.874051C62.6743 1.17235 53.0655 4.14177 50.8012 6.82193C47.8679 5.79596 44.6906 5.231 41.3777 5.231C37.9427 5.231 34.6615 5.83664 31.6378 6.93492C29.5542 4.22764 19.7194 1.17687 16.8359 0.874051C15.6698 0.742981 14.9874 1.17234 14.8021 2.49208C14.3908 5.26264 14.8021 16.3313 16.5918 20.5391C15.5614 22.7673 14.8608 25.1582 14.5444 27.6666H22.1104V27.6711Z" fill="white"/>
<path d="M41.3691 49.0309C36.1624 49.0309 31.4349 47.11 27.9367 43.9824H18.355C23.1142 51.2455 31.6383 56.0861 41.3736 56.0861C50.1824 56.0861 58.0014 52.1178 62.9369 45.9846H52.1395C49.048 47.9055 45.3509 49.0309 41.3691 49.0309Z" fill="white"/>
<path d="M36.9437 29.2032H0.153667C0.0677933 29.2032 0 29.1354 0 29.0495V27.8021C0 27.7162 0.0677933 27.6484 0.153667 27.6484H36.9437C37.0296 27.6484 37.0974 27.7162 37.0974 27.8021V29.0495C37.0974 29.1354 37.0296 29.2032 36.9437 29.2032Z" fill="white"/>
<path d="M36.9437 34.1427H0.153667C0.0677933 34.1427 0 34.0749 0 33.989V32.7416C0 32.6557 0.0677933 32.5879 0.153667 32.5879H36.9437C37.0296 32.5879 37.0974 32.6557 37.0974 32.7416V33.989C37.0974 34.0703 37.0296 34.1427 36.9437 34.1427Z" fill="white"/>
<path d="M36.9437 39.0792H0.153667C0.0677933 39.0792 0 39.0114 0 38.9255V37.6781C0 37.5922 0.0677933 37.5244 0.153667 37.5244H36.9437C37.0296 37.5244 37.0974 37.5922 37.0974 37.6781V38.9255C37.0974 39.0114 37.0296 39.0792 36.9437 39.0792Z" fill="white"/>
<path d="M36.9437 44.0137H0.153667C0.0677933 44.0137 0 43.946 0 43.8601V42.6127C0 42.5268 0.0677933 42.459 0.153667 42.459H36.9437C37.0296 42.459 37.0974 42.5268 37.0974 42.6127V43.8601C37.0974 43.946 37.0296 44.0137 36.9437 44.0137Z" fill="white"/>
</svg>
