<svg width="37" height="32" viewBox="0 0 37 32" fill="none" xmlns="http://www.w3.org/2000/svg">
<path d="M36.7028 29.3959C33.9377 25.4572 31.1726 21.3472 28.5803 17.4085C30.827 15.8673 33.0736 14.1548 35.1474 12.2711C36.7028 10.9011 34.8018 9.01736 33.0736 9.70236C30.4813 10.7298 28.0619 11.7573 25.4696 12.6136C23.223 9.01737 21.1492 5.42115 19.421 1.65369C18.7297 0.454947 16.6559 0.626197 16.3103 1.99618C15.4462 6.44864 14.0637 10.9011 12.5083 15.1823C8.87915 15.5248 5.24998 15.5248 1.62081 15.696C-0.452998 15.696 -0.625816 18.9498 1.62081 18.9498C4.73152 18.9498 7.66942 19.4635 10.6073 20.1485C9.57041 22.546 8.53351 25.1147 7.4966 27.5122C6.97815 28.5397 7.66942 29.2247 8.53351 29.3959C9.05196 30.0809 9.74323 30.4234 10.6073 29.7384C13.718 27.6834 16.6559 25.4572 19.7666 23.4022C24.9512 25.7997 29.7901 28.7109 34.4561 31.6221C35.8387 32.4784 37.7397 30.7659 36.7028 29.3959ZM18.5569 7.13363C19.7666 9.35986 20.9764 11.4148 22.1861 13.4698C20.6307 13.8123 19.2482 14.1548 17.6928 14.4973C17.1744 14.4973 16.6559 14.6686 16.3103 14.6686C17.0016 12.2711 17.8657 9.70236 18.5569 7.13363ZM12.3355 24.601C12.8539 23.4022 13.3724 22.2035 13.718 21.176C14.5821 21.5185 15.2734 21.6897 16.1375 22.0322C14.7549 22.8885 13.5452 23.7447 12.3355 24.601ZM19.2482 19.806C17.8657 19.2923 16.6559 18.7785 15.2734 18.2648C16.3103 18.0935 17.3472 18.0935 18.5569 17.9223C20.4579 17.5798 22.1861 17.2373 23.9143 16.7235C23.0502 17.4085 22.0133 17.9223 21.1492 18.6073C20.4579 18.9498 19.9395 19.2923 19.2482 19.806ZM22.8774 21.3472C23.0502 21.176 23.223 21.176 23.3958 21.0047C24.2599 20.491 24.9512 19.806 25.8153 19.2923C27.025 21.176 28.2347 23.0597 29.6172 24.9435C27.3706 23.5735 25.124 22.3747 22.8774 21.3472Z" fill="#CBFF00"/>
</svg>
