<svg width="1920" height="1311" viewBox="0 0 1920 1311" fill="none" xmlns="http://www.w3.org/2000/svg">
<path fill-rule="evenodd" clip-rule="evenodd" d="M761.703 1143.7C766.781 1151.56 782.862 1170.87 800.755 1161.65C824.431 1149.43 807.454 1123.45 813.886 1107.18C817.713 1097.46 831.141 1087.73 835.75 1085.92C836.234 1085.74 854.503 1088.05 858.238 1083.86C869.133 1071.66 854.162 1045.99 865.741 1029.91C869.523 1024.67 883.321 1027.97 869.416 1020.5C857.761 1014.28 873.46 1015.77 877.276 1007.35C883.465 993.692 872.135 994.091 876.636 988.117C875.391 989.78 885.255 993.976 888.395 992.707C886.314 993.546 902.064 977.246 902.771 976.664C902.821 976.619 902.888 976.577 902.938 976.531C933.966 951.065 897.939 1007.93 903.119 1017.43C905.921 1022.54 925.369 994.982 927.311 997.078C931.618 1001.67 916.535 1008.38 917.218 1022.94C917.692 1032.69 924.995 1019.32 921.528 1032.73C913.218 1065.11 914.624 1048.85 934.32 1048.56C948.598 1048.4 967.2 1085.8 986.198 1082.35C999.342 1079.97 995.327 1064.13 1003.35 1059.24C1008.32 1056.21 1030.46 1056.4 1033.41 1065.56C1040.59 1087.84 1043.92 1085.16 1062.79 1101.39C1093.05 1127.44 1131.06 1225.24 1159.01 1260.55C1170.17 1274.65 1199.61 1257.78 1182.7 1223.1C1181.78 1221.17 1182.44 1218.82 1182.23 1216.67C1175.35 1200.74 1168.99 1184.38 1164.15 1168.06C1159.19 1151.31 1153.94 1122.12 1146.7 1101.64C1141.31 1086.48 1134.37 1076.44 1138.89 1066.1C1139.39 1064.89 1144.85 1064.44 1144.51 1065.58C1147.03 1056.92 1139.51 1053.44 1146.23 1047.28C1150.41 1043.42 1168.03 1047.16 1164.53 1049C1177.43 1042.16 1175.72 1022.48 1169.4 1015.7C1170.36 1016.74 1147.99 1009.49 1143.41 1008.14C1144.97 1009.22 1129.66 1013.47 1128.1 1010.4C1124.32 1002.86 1142.54 1001.73 1133.6 996.31C1135.61 997.51 1125.93 1003.86 1125.23 1003.86C1125.54 1003.88 1108.92 997.962 1109.17 989.488C1109.82 967.886 1134.78 982.747 1139.11 982.228C1145.69 981.424 1147.18 972.014 1155.47 975.068C1154.24 974.636 1156.1 979.227 1157.76 982.338C1159.32 980.237 1160.32 980.216 1159.78 984.875C1159.71 985.608 1158.77 984.27 1157.76 982.338C1154.49 986.611 1148.78 999.712 1148.65 999.495C1155.35 1010.91 1205.67 982.982 1178.08 986.601C1165.86 988.188 1175.38 987.317 1169.59 980.576C1166.17 976.585 1147.1 967.938 1141.01 962.502C1146.77 960.442 1149.32 967.283 1152.38 965.539C1155.18 963.935 1150.59 959.386 1152.85 956.484C1154.46 954.424 1161.43 955.989 1162.21 954.969C1163.49 953.341 1160.92 948.932 1161.52 946.755C1162.31 943.926 1170.99 935.583 1172.53 935.359C1172.51 935.369 1176.3 936.831 1179.36 937.928C1180.06 936.812 1185.16 935.585 1185.37 937.466C1184.84 932.637 1176.1 932.938 1175.95 926.804C1175.75 918.218 1180.69 908.352 1183.12 907.702C1195.79 904.338 1188.87 914.584 1190.06 914.916C1193.74 915.942 1202.71 903.884 1202.99 897.781C1203.22 893.049 1199.99 892.051 1200.33 889.228C1200.56 887.321 1204.13 883.594 1204.43 882.8C1208.42 871.653 1198.11 866.592 1198.43 863.563C1198.79 860.234 1207.65 855.781 1212.73 856.786C1215.65 857.383 1215.84 860.413 1216.21 860.392C1219.1 860.282 1220.16 857.523 1222.94 856.427C1227.1 854.782 1233.2 857.062 1237.25 855.738C1238.04 855.466 1237.29 851.207 1238.06 850.798C1243 848.157 1246.83 851.86 1250.56 848.79C1251.6 847.929 1259.3 835.752 1260.05 834.129C1264.6 824.361 1262.86 804.686 1253.83 797.629C1252.23 796.37 1248.86 797.156 1248.07 795.674C1247.27 794.171 1249.93 790.391 1248.21 788.591C1247.26 787.615 1243.71 789.23 1240.47 786.314C1238.02 784.105 1239.43 778.988 1237.8 777.776C1234.97 775.679 1233.67 783.032 1229.58 778.467C1229.05 777.877 1230.98 771.661 1227.75 771.061C1226.73 770.861 1222.15 777.943 1221.51 778.156C1217.68 779.52 1205.8 773.478 1201.9 773.924C1195.86 774.636 1183.64 785.99 1178.79 797.526C1176.72 802.448 1172.27 806.838 1171.75 809.557C1171.21 812.385 1175.15 836.192 1169.21 837.538C1163.68 838.785 1168.54 830.475 1164.73 827.664C1162.69 826.173 1158.46 828.357 1152.71 826.72C1140.21 823.163 1142.2 813.998 1135.28 812.731C1143.49 792.534 1152.45 771.436 1161.09 751.895C1166.31 740.092 1171.4 728.831 1176.12 718.684C1176.2 718.481 1176.31 718.279 1176.4 718.084C1177.09 716.603 1177.78 715.137 1178.46 713.699C1178.56 713.476 1178.67 713.238 1178.77 713.015C1179.46 711.549 1180.16 710.101 1180.82 708.695C1194.64 679.746 1202.84 653.049 1217.35 649.828C1218.51 649.57 1226.21 654.227 1226.75 653.495C1228.52 651.148 1219.45 635.338 1218.67 639.507C1221.35 625.454 1234.81 633.733 1246.66 623.357C1266.59 605.867 1258.13 590.16 1280.16 593.077C1310.58 597.105 1274.4 565.456 1275.72 569.675C1268.89 548.111 1295.53 534.772 1295.91 517.959C1295.94 516.851 1287.25 515.406 1286.5 514.287C1285.9 513.361 1281.48 492.722 1282.08 490.89C1283.87 485.511 1295.39 482.789 1296.47 474.853C1296.62 473.803 1286.21 478.315 1285.65 467.904C1285.25 460.663 1296.65 463.856 1290.23 456.164C1286.9 452.157 1283.22 458.831 1276.63 456.256C1267.45 452.708 1273.03 446.412 1267.64 444.605C1268.11 444.789 1256.95 459.509 1252.19 449.426C1246.09 436.557 1263.1 437.632 1264.23 432.456C1265.57 426.321 1257 429.089 1258.49 419.396C1261.73 398.249 1285.49 396.571 1278.79 381.269C1276.62 376.36 1266.52 383.733 1260.07 387.523C1226.93 407.095 1246.32 366.647 1241.03 352.985C1233.54 333.595 1221.42 361.899 1219.58 366.303C1216.53 373.568 1188.53 396.188 1184.67 393.292C1170.89 383.007 1201.7 342.114 1199.1 328.496C1197.69 321.072 1185.85 327.816 1189.19 319.224C1192.82 309.839 1218.21 307.576 1221.36 299.292C1222.02 297.6 1210.9 287.991 1214.58 274.943C1217.91 263.161 1209.37 266.631 1211.62 254.843C1213.5 244.954 1216.62 256.362 1222.34 248.188C1232.1 234.211 1211.06 222.365 1199.1 217.448C1200.38 217.966 1193.69 223.859 1189.31 221.737C1182.23 218.329 1187.2 202.877 1178.73 193.245C1167.86 180.875 1153.82 175.512 1152.22 163.952C1148.81 139.35 1153.68 164.474 1141.51 170.606C1132.32 175.213 1118.1 160.33 1121.24 159.987C1102.12 162.139 1106.89 179.808 1103.69 191.062C1093.37 227.452 1078.74 187.617 1089.08 179.94C1090.78 178.657 1099.05 185.882 1099.4 181.262C1099.81 175.557 1095.47 152.388 1079.01 157.067C1069.57 159.756 1076.43 192.099 1071.01 205.394C1066.92 215.424 1063.44 203.925 1064.07 216.231C1063.61 206.701 1072.53 242.276 1082.09 239.5C1093.84 236.123 1084.62 213.913 1093.1 211.306C1094.54 210.877 1113.51 222.892 1110.73 242.566C1111.05 240.167 1102.36 243.547 1101.83 244.513C1094.82 256.511 1108.9 292.249 1096.56 285.797C1082.13 278.28 1103.7 236.189 1084.44 240.418C1082.59 240.837 1077 251.901 1075.66 255.97C1068.82 276.852 1082.33 295.767 1085.04 308.373C1087.15 318.331 1078.72 353.112 1071.15 330.038C1072.16 333.125 1079.2 322.066 1081.27 318.911C1085.23 309.337 1069.7 324.469 1068.27 323.516C1067.8 323.2 1065.7 315.409 1068.69 315.551C1060.17 315.149 1065.39 324.802 1055.6 321.276C1039.14 315.333 1070.94 270.659 1043.62 289.498C1041.63 290.869 1049.19 295.124 1048.82 296.962C1043.54 323.824 1010.01 286.073 1007 286.057C993.502 286.057 994.896 309.411 988.185 278.712C981.127 246.491 988.706 274.836 976.155 295.688C969.426 306.837 967.674 314.081 981.899 308.749C1003.03 300.843 991.534 325.855 999.521 339.99C1005.13 350.042 1015.99 345.758 1014.66 356.751C1014.22 360.427 985.007 382.852 983 382.317C978.427 381.159 977.421 367.652 974.889 368.334C966.982 370.382 957.958 385.164 965.72 391.824C965.436 391.583 978.888 388.443 980.381 387.457C979.135 387.266 977.545 387.273 975.529 387.529C979.814 387.005 980.949 387.066 980.381 387.457C983.683 387.935 984.589 389.893 984.039 393.54C983.879 394.635 975.381 393.796 971.941 392.702C969.199 395.068 962.789 399.122 962.961 398.893C962.633 399.309 962.326 399.716 962.025 400.11C958.988 404.082 957.093 406.941 955.992 408.873C951.826 416.2 958.551 411.209 955.992 408.873C955.277 408.247 953.868 407.799 951.328 407.864C942.644 408.141 950.787 422.552 940.599 414.526C930.845 406.821 951.779 396.973 953.064 389.578C954.3 382.167 938.742 345.519 929.709 345.247C929.493 345.246 921.73 358.37 921.475 363.506C923.914 364.08 925.388 364.655 924.702 364.982C922.22 366.127 921.371 365.298 921.475 363.506C915.198 361.933 902.553 360.12 903.735 361.999C900.205 358.212 904.607 346.898 894.925 337.105C878.687 320.61 863.224 329.787 863.713 305.961C864.245 281.36 858.127 311.594 849.726 314.03C841.189 316.546 826.997 285.751 830.894 306.679C832.251 313.916 821.054 316.599 813.112 310.575C808.949 307.431 809.717 297.588 803.58 293.326C805.706 294.784 798.174 299.559 798.492 299.467C786.331 303.392 791.991 289.612 790.386 285.468C790.918 286.815 787.446 287.029 785.54 286.368C785.4 286.346 785.128 286.24 784.779 285.988C784.985 286.135 785.239 286.25 785.54 286.368C787.353 286.381 780.635 273.403 781.812 269.915C772.252 271.254 749.378 279.803 749.083 280.182C741.407 290.235 748.227 314.172 748.902 315.326C747.655 313.271 752.923 308.786 754.027 309.184C775.564 316.88 755.232 322.82 755.695 339.631C755.704 340.496 763.131 347.376 763.268 348.006C766.036 361.112 734.22 395.538 738.084 419.424C739.492 428.101 765.536 440.513 766.427 444.034C769.213 455.012 751.949 464.774 754.841 459.398C751.016 465.816 758.209 467.715 756.335 469.89C755.539 470.82 736.404 460.907 740.918 474.708C746.689 492.488 746.877 502.968 739.295 506.596C738.181 507.121 730.631 495.138 728.453 499.656C727.563 501.556 735.963 513.441 735.619 516.015C734.253 526.465 717.98 533.643 715.227 540.53C715.848 538.938 720.504 546.866 720.434 547.979C720.023 555.762 712.548 574.072 704.716 574.365C706.162 574.302 700.115 567.435 699.544 566.948C700.191 568.175 704.017 593.47 698.809 596.442C695.675 598.241 688.61 568.922 682.207 576.433C673.747 586.379 687.05 584.731 689.385 592.764C691.961 601.497 686.961 636.578 677.885 641.112C677.516 641.466 676.83 641.66 675.754 641.618C684.036 650.386 658.595 643.575 659.791 640.808C652.862 656.915 668.326 649.934 665.66 667.478C666.586 661.428 656.18 660.986 658.092 659.09C644.044 672.898 669.334 678.226 659.239 683.931C650.426 688.9 642.691 664.127 642.639 663.926C638.482 642.778 639.557 682.444 637.142 692.106C637.263 692.648 637.051 693.275 636.325 693.951C636.661 693.635 636.907 693.006 637.142 692.106C636.339 688.785 622.785 687.858 620.339 689.215C621.195 690.324 621.599 690.944 621.322 690.803C619.819 690.087 619.667 689.58 620.339 689.215C616.317 684.112 602.192 668.852 599.115 671.318C590.995 677.812 605.057 692.763 612.64 699.375C609.585 695.01 615.246 690.498 616.629 689.238C616.558 689.077 616.546 688.989 616.603 688.961C617.059 688.775 616.979 688.895 616.629 689.238C617.735 691.866 637.105 713.464 628.061 715.123C621.274 716.372 612.961 700.622 604.962 697.961C603.306 697.416 583.103 698.152 578.636 698.208C580.332 698.902 573.44 705.217 573.593 701.988C572.277 728.136 523.984 649.725 528.918 684.55C530.036 692.52 523.917 689.273 522.581 687.695C525.194 690.911 548.379 707.724 553.593 718.546C554.163 719.71 554.245 720.6 554.138 721.254C554.533 720.796 555.075 720.213 555.932 719.459C567.252 709.555 574.578 733.923 571.091 736.212C568.629 737.825 549.222 727.842 549.939 727.956C546.274 727.434 538.084 731.9 529.803 730.932C503.162 727.753 480.336 709.346 487.18 735.967C491.9 754.278 465.748 738.171 464.802 751.594C464.813 751.483 469.211 761.937 479.448 762.73C484.998 763.162 491.848 749.927 495.248 749.934C505.208 749.956 492.002 757.916 507.023 754.53C506.231 754.7 496.827 744.752 500.368 743.805C502.28 743.314 526.851 773.086 533.133 775.672C533.042 774.63 543.939 769.829 540.856 765.027C542.054 766.865 494.338 751.461 510.693 745.127C519.044 741.896 517.623 755.826 522.972 755.339C525.665 755.085 522.023 747.731 521.18 746.627C520.975 746.562 520.891 746.529 521.019 746.449C521.058 746.432 521.096 746.511 521.18 746.627C522.965 747.01 536.348 746.85 544.004 750.019C546.511 751.047 548.923 759.554 553.947 759.301C556.088 759.195 555.518 747.362 564.674 752.652C570.907 756.243 569.719 767.718 575.64 773.17C585.905 782.643 607.971 803.94 604.084 811.358C597.508 824.056 596.494 805.356 588.822 803.667C589.697 805.448 581.457 813.395 581.612 813.423C580.1 813.064 573.442 793.453 569.333 803.214C565.537 812.219 603.243 831.677 588.405 837.728C584.426 839.362 574.989 825.226 572.851 828.967C563.136 845.721 595.5 875.863 590.489 888.407C590.511 888.599 590.297 889.028 589.785 889.737C590.096 889.328 590.298 888.895 590.489 888.407C590.375 886.96 577.166 898.239 576.239 890.825C577.322 915.41 627.81 923.455 631.047 943.782C631.097 944.079 625.693 944.797 629.218 948.467C626.986 946.142 636.115 950.318 642.141 951.398C634.47 949.709 644.51 940.199 645.568 941.304C650.967 946.949 637.341 958.445 645.807 968.471C647.317 970.315 658.638 966.84 657.042 967.454C676.035 960.083 659.61 965.153 657.448 959.471C652.439 946.431 664.993 955.939 659.68 946.812C658.91 945.52 658.027 944.4 657.006 943.374C655.272 943.242 653.832 942.781 653.527 941.703C653.423 941.331 653.467 940.969 653.534 940.584C639.739 931.68 614.769 935.229 620.985 920.874C620.219 922.623 635.758 916.053 636.427 916.065C646.732 916.009 631.53 919.426 640.719 925.868C646.268 929.768 666.934 923.992 666.475 922.377C669.358 932.47 654.577 935.918 653.519 940.578C654.763 941.41 655.928 942.326 656.978 943.363C659.937 943.61 663.738 942.93 663.843 943.003C665.76 944.314 669.808 951.097 672.418 956.558C672.488 956.719 672.565 956.865 672.639 957.009C672.781 957.327 672.926 957.633 673.07 957.938C673.165 958.155 673.269 958.362 673.352 958.574C673.457 958.814 673.562 959.053 673.651 959.286C673.739 959.486 673.811 959.68 673.885 959.871C674.037 960.248 674.175 960.616 674.288 960.955C674.327 961.068 674.358 961.163 674.393 961.278C674.481 961.525 674.557 961.753 674.619 961.975C674.641 962.085 674.669 962.179 674.696 962.286C674.734 962.485 674.784 962.652 674.799 962.824C674.806 962.892 674.821 962.981 674.832 963.036C674.85 963.241 674.848 963.42 674.803 963.536C672.877 969.192 661.874 965.114 657.551 973.054C660.478 967.673 666.006 995.004 651.655 995.15C649.431 995.173 638.067 964.97 630.872 978.911C631.376 977.918 642.871 1001.35 644.068 1000.61C642.861 1002.98 631.459 1019.49 634.493 1018.25C630.456 1019.91 615.842 1010.61 615.676 1010.9C603.947 1032.9 634.363 1021.96 637.36 1024.79C639.93 1027.22 645.601 1055.04 655.465 1061.65C658.321 1063.56 671.957 1059.37 677.057 1061.97C677.695 1062.28 680.781 1072.83 682.796 1075.04C693.139 1086.39 719.674 1107.16 721.06 1108.94C721.615 1109.64 717.662 1115.49 718.314 1115.98C720.052 1117.28 727.967 1114.49 729.539 1114.96C738.684 1117.65 756.674 1136 761.686 1143.74L761.703 1143.7ZM1172.56 236.788C1177.29 229.631 1185.06 233.343 1187.59 239.945C1192.2 251.97 1166.51 246.036 1172.56 236.788ZM1174.35 280.86C1177.56 279.453 1180.94 285.529 1181.93 289.22C1186.67 306.746 1161.76 286.387 1174.35 280.86ZM1137.3 334.106C1148.47 323.581 1134.22 329.716 1129.22 320.098C1117.04 296.666 1150.11 280.701 1156.31 306.292C1155.95 304.881 1149.13 345.048 1149.59 344.302C1145.67 350.603 1126.67 344.126 1137.31 334.091L1137.3 334.106ZM1159.24 375.158C1153.41 369.86 1154.03 355.566 1159.91 345.638C1160.21 345.111 1166.37 348.804 1166.96 348.391C1168.62 347.238 1179.25 332.229 1184.63 330.892C1188.75 329.873 1190.31 334.99 1190.76 335.991C1199.1 355.006 1166.69 381.947 1159.24 375.158ZM781.143 406.367C782.447 380.12 757.637 374.118 772.07 332.396C774.478 325.507 768.395 323.944 774.319 319.73C789.343 309.061 775.769 379.908 780.523 387.165C780.783 387.562 779.507 389.047 779.606 389.515C781.703 398.627 791.027 388.373 791.897 399.732C792.519 408.131 780.354 422.577 781.164 406.36L781.143 406.367ZM763.944 478.211C766.843 469.812 761.374 462.821 763.308 459.003C768.263 449.276 772.124 461.106 775.491 455.613C778.36 450.97 772.377 450.171 772.62 449.076C774.934 438.913 768.802 419.572 779.829 416.675C786.134 415.054 788.433 429.231 789.343 437.696C789.916 435.295 790.237 433.206 790.292 431.576C789.881 448.215 790.159 445.219 789.343 437.696C783.951 460.616 756.702 515.308 744.301 535.526C741.951 539.346 745.756 541.957 742.982 545.846C740.532 549.332 736.428 546.342 733.183 550.164C732.163 551.334 733.388 560.517 731.847 560.492C712.297 560.146 758.186 495.042 763.964 478.204L763.944 478.211ZM723.008 575.641C722.13 572.641 717.707 597.44 710.109 595.35C707.235 594.542 721.348 566.686 723.008 575.641ZM694.745 662.492C695.753 661.814 702.388 674.792 702.318 670.867C702.757 692.991 676.729 674.524 694.745 662.492ZM725.039 695.987C732.472 692.729 732.888 703.1 731.679 706.706C729.309 713.793 715.873 699.993 725.039 695.987ZM579.07 715.473C577.276 719.1 592.864 718.495 590.069 716.513C597.202 720.469 600.22 731.445 598.325 735.922C595.245 743.176 575.417 722.078 579.051 715.484L579.07 715.473ZM594.259 753.281C595.459 753.006 607.912 764.076 611.613 767.554C611.93 767.462 612.275 767.762 612.674 768.596C612.641 768.515 612.252 768.117 611.613 767.554C609.499 768.099 609.517 787.019 613.71 779.836C614.123 779.121 615.962 785.075 614.214 785.449C601.723 788.272 576.395 757.425 594.265 753.265L594.259 753.281ZM751.899 877.111C752.798 877.941 753.692 885.772 750.588 887.42C744.859 890.452 741.247 867.141 751.899 877.111ZM1140.09 1042.17C1141.94 1046.92 1148.16 1052.29 1136.95 1057.18C1121.72 1063.87 1132.6 1022.83 1140.09 1042.17ZM667.291 906.393C667.024 906.106 668.24 914.758 663.62 915.797C654.912 917.781 659.456 897.718 667.291 906.393Z" fill="#171717"/>
<path fill-rule="evenodd" clip-rule="evenodd" d="M1181.11 83.0435C1172.71 76.6451 1170.2 84.8985 1171.28 87.3495C1172.92 91.0976 1189.29 89.3084 1181.11 83.0435Z" fill="#171717"/>
<path fill-rule="evenodd" clip-rule="evenodd" d="M1143.81 109.115C1144.21 107.538 1147.24 97.8543 1141.86 100.227C1135.25 103.133 1140.75 120.854 1143.81 109.115Z" fill="#171717"/>
<path fill-rule="evenodd" clip-rule="evenodd" d="M1169.41 140.749C1166.78 134.784 1157.63 150.771 1165.74 150.152C1171.22 149.733 1171.25 144.955 1169.41 140.749Z" fill="#171717"/>
<path fill-rule="evenodd" clip-rule="evenodd" d="M1302.83 173.895C1302.26 163.151 1293.34 153.111 1283.49 160.911C1264.23 176.205 1304.24 201.236 1302.83 173.895Z" fill="#171717"/>
<path fill-rule="evenodd" clip-rule="evenodd" d="M1254.66 241.757C1257.15 242.877 1267.35 235.129 1267.74 236.026C1260.57 219.98 1244.84 237.294 1254.66 241.757Z" fill="#171717"/>
<path fill-rule="evenodd" clip-rule="evenodd" d="M1355.27 657.539C1350.42 683.941 1414.12 706.409 1413.42 661.29C1412.83 623.502 1359.48 634.721 1355.27 657.539Z" fill="#171717"/>
<path fill-rule="evenodd" clip-rule="evenodd" d="M1348.45 696.435C1350.55 697.982 1351.49 696.516 1352.72 695.096C1358.29 688.65 1343.21 692.574 1348.45 696.435Z" fill="#171717"/>
<path fill-rule="evenodd" clip-rule="evenodd" d="M1400.82 721.37C1404.05 718.932 1402.8 712.363 1402.14 711.049C1389.75 686.475 1385.99 732.645 1400.82 721.37Z" fill="#171717"/>
<path fill-rule="evenodd" clip-rule="evenodd" d="M1365.99 725.645C1369.24 728.188 1370.47 724.439 1371.58 722.491C1377.27 712.525 1360.1 721.07 1365.99 725.645Z" fill="#171717"/>
<path fill-rule="evenodd" clip-rule="evenodd" d="M1343.8 731.135C1336.3 729.002 1325.21 733.66 1321.94 740.758C1321.44 741.835 1321.97 745.511 1320.97 746.675C1318.37 749.704 1313.29 749.47 1310.94 752.138C1309.75 753.491 1305.27 762.809 1306.71 765.636C1310.97 774.004 1322.65 759.435 1329.24 758.178C1335.58 756.933 1340.01 760.826 1344.38 758.602C1354.65 753.425 1355.41 734.462 1343.8 731.135Z" fill="#171717"/>
<path fill-rule="evenodd" clip-rule="evenodd" d="M1251.8 728.238C1244.96 737.51 1261.02 753.938 1267.35 737.014C1269.01 732.576 1267.76 730.749 1265.4 728.112C1270.09 733.412 1249.72 731.062 1251.8 728.238Z" fill="#171717"/>
<path fill-rule="evenodd" clip-rule="evenodd" d="M1301.62 765.816C1300.27 763.093 1306 756.807 1305.69 753.3C1304.2 736.265 1280.31 747.373 1274.1 754.233C1268.87 760.003 1262.94 768.922 1264.28 770.866C1266.51 774.097 1268.47 768.52 1272.82 768.203C1275.93 767.998 1285.94 770.682 1289.79 769.97C1292.88 769.395 1293.7 766.032 1297.18 768.132C1299.44 769.507 1294.72 779.047 1302.49 779.139C1308.74 779.2 1306.8 765.973 1306.72 765.628C1306.32 763.82 1302.13 766.841 1301.62 765.804L1301.62 765.816Z" fill="#171717"/>
<path fill-rule="evenodd" clip-rule="evenodd" d="M1363.24 742.447C1364.85 741.29 1366.91 740.26 1365.03 737.66C1362.04 733.504 1358.11 746.125 1363.24 742.447Z" fill="#171717"/>
<path fill-rule="evenodd" clip-rule="evenodd" d="M1430.18 773.657C1429.66 775.984 1431.5 778.519 1434.78 776.427C1440.08 773.048 1431.06 769.561 1430.18 773.657Z" fill="#171717"/>
<path fill-rule="evenodd" clip-rule="evenodd" d="M1256.74 779.781C1261.53 776.052 1252.54 776.344 1252.12 777.005C1250.02 780.381 1253.65 782.192 1256.74 779.781Z" fill="#171717"/>
<path fill-rule="evenodd" clip-rule="evenodd" d="M1281.44 789.903C1284.53 793.836 1287.86 789.468 1288.85 788.071C1293.9 780.89 1277.39 784.704 1281.44 789.903Z" fill="#171717"/>
<path fill-rule="evenodd" clip-rule="evenodd" d="M1265.22 808.55C1267.64 811.576 1272.25 803.298 1272.13 803.598C1276.29 794.539 1263 805.782 1265.22 808.55Z" fill="#171717"/>
<path fill-rule="evenodd" clip-rule="evenodd" d="M1273.63 812.969C1273.74 812.801 1274.99 811.6 1273.96 810.984C1270.75 809.086 1269.72 817.772 1273.63 812.969Z" fill="#171717"/>
<path fill-rule="evenodd" clip-rule="evenodd" d="M1314.06 844.916C1314.29 844.759 1316.55 842.353 1315.69 841.127C1311.94 835.88 1307.58 849.59 1314.06 844.916Z" fill="#171717"/>
<path fill-rule="evenodd" clip-rule="evenodd" d="M1331.87 853.901C1332.59 854.905 1335.75 853.711 1335.99 853.557C1341.2 849.91 1328.08 848.603 1331.87 853.901Z" fill="#171717"/>
</svg>
