<svg width="251" height="181" viewBox="0 0 251 181" fill="none" xmlns="http://www.w3.org/2000/svg">
<path d="M135.293 56.9375C143.353 62.8856 149.489 74.6179 157.498 81.558C166.725 89.5697 177.1 96.46 188.107 102.027C198.235 107.155 246.009 126.835 249.98 114.047C209.27 97.2197 171.428 83.6053 135.285 56.9331L135.293 56.9375Z" fill="#4251DE"/>
<path d="M178.932 128.649C175.557 127.553 172.203 126.377 168.887 125.128C141.817 114.931 116.763 99.6701 95.1962 80.2476C88.2718 74.0067 81.7102 67.3414 75.5596 60.28C72.3825 56.6376 68.5688 52.8688 66.0799 48.6497C63.8959 44.9295 62.7215 40.6277 59.2713 37.7909C82.6752 57.0342 107.204 74.8319 132.663 91.1279C145.589 99.3969 158.76 107.285 172.14 114.776C176.034 116.954 211.361 134.188 209.905 135.957C208.146 138.099 192.133 132.523 189.537 131.816C185.974 130.853 182.443 129.791 178.927 128.658L178.932 128.649Z" fill="#4251DE"/>
<path d="M6.4211 55.3392C25.7324 65.7222 54.8904 114.271 82.4607 97.6473C67.2616 80.5721 27.5543 66.7053 6.4211 55.3392Z" fill="#4251DE"/>
</svg>
