<svg width="1362" height="1217" viewBox="0 0 1362 1217" fill="none" xmlns="http://www.w3.org/2000/svg">
<path d="M994.588 139.37C969.191 121.308 943.588 104.063 916.388 88.486C902.703 80.6478 885.885 69.409 869.392 66.093C850.798 62.3557 828.968 67.4542 810.738 73.4127C763.661 88.7984 714.472 126.947 686.394 167.358C661.721 202.87 643.417 245.981 636.454 287.313C626.657 345.464 650.703 406.457 669.752 458.535C689.13 511.505 726.34 576.163 790.944 583.25C822.619 586.727 862.119 576.623 881.305 547.815C910.931 503.328 907.301 438.446 889.16 394.516C869.593 347.134 816.155 347.047 768.802 359.113C711.305 373.763 663.669 425.527 646 479.605C630.922 525.743 622.63 577.766 626.746 624.777C629.183 652.608 633.095 684.031 647.539 707.837C654.195 718.812 664.128 731.018 678.892 730.949C687.819 730.906 698.378 723.462 706.124 718.877C726.184 707.013 706.516 680.708 698.395 669.372C673.328 634.376 644.341 602.663 599.562 592.284C552.657 581.414 500.697 629.678 473.273 663.648C449.306 693.34 425.571 726.851 409.844 761.057C385.218 814.608 386.897 865.37 406.808 916.801C426.587 967.889 456.57 1011.29 489.228 1054.5C517.028 1091.28 549.645 1125.49 588.968 1150.83C601.15 1158.69 613.831 1164.62 628.75 1166.26C632.923 1166.71 637.876 1166.01 641.346 1167.64" stroke="#B9F43D" stroke-linecap="round"/>
<path d="M1172.53 405.815C1157.96 385.146 1143.63 364.272 1128.6 343.932C1117.99 329.574 1108.25 313.346 1095.55 300.708C1090.04 295.218 1084.06 290.046 1077.97 285.199C1071.85 280.333 1064.44 277.834 1058.29 273.243C1038.15 258.197 1016.32 241.871 989.903 241.685C980.73 241.621 972.553 243.573 963.508 244.131C955.592 244.618 945.867 245.177 938.484 248.571C924.441 255.029 909.566 266.362 897.879 276.473C889.737 283.515 886.255 293.735 879.057 301.524C873.03 308.044 868.792 319.477 865.376 327.692C856.012 350.224 848.917 375.699 850.304 400.058C850.939 411.194 850.411 421.534 852.642 432.557C854.028 439.394 854.933 447.233 855.169 454.174C855.807 472.824 867.681 488.125 871.518 505.627C873.837 516.209 879.951 526.897 885.049 536.977C892.569 551.844 899.073 566.72 906.758 581.559C915.965 599.34 917.945 620.383 924.077 639.217C929.3 655.262 934.183 678.937 929.541 695.5C924.741 712.618 919.478 729.061 908.651 743.56C899.853 755.338 892.172 766.519 881.907 777.176C867.991 791.619 854.494 803.457 838.37 815.373C813.318 833.888 784.869 847.935 754.157 853.121C725.479 857.966 699.034 855.239 670.676 850.984C638.078 846.092 606.263 825.4 579.903 806.658C563.511 795.002 551.244 781.411 538.572 765.943C518.366 741.282 496.62 715.656 481.426 687.533C459.956 647.801 442.017 603.404 439.269 557.697C437.683 531.356 456.499 513.667 476.164 499.516C490.201 489.412 516.069 488.969 531.824 495.518C547.39 501.988 555.238 509.274 565.002 522.486C570.418 529.814 575 537.844 578.704 546.183C581.578 552.662 581.241 559.607 584.44 566.033C613.364 624.155 581.894 690.411 543.006 734.459C535.493 742.973 524.484 749.253 515.36 755.996C505.548 763.248 496.539 767.809 484.618 770.485C473.629 772.954 460.429 773.095 449.247 772.74C436.483 772.333 424.939 773.594 412.123 771.671C390.87 768.482 370.484 769.746 349.622 763.966C345.92 762.941 342.215 763.925 338.504 763.049C332.966 761.74 327.639 759.341 322.072 757.928C311.024 755.123 299.94 752.036 288.744 750.041C257.847 744.531 228.392 738.434 197.004 737.545C189.48 737.332 181.765 739.382 174.38 740.614C164.95 742.188 155.139 742.062 145.877 744.418C128.166 748.92 110.643 752.833 93.1175 758.316C79.8291 762.475 66.9134 769.81 54.8538 776.758C44.2069 782.892 33.6324 791.671 26.1242 801.305C22.024 806.564 6.72053 819.672 8.06957 827.394" stroke="#4251DE" stroke-width="12" stroke-linecap="round"/>
</svg>
