<svg width="17" height="14" viewBox="0 0 17 14" fill="none" xmlns="http://www.w3.org/2000/svg">
<path d="M16.2446 3.02596C16.0946 2.67596 15.6446 2.37596 15.2446 2.53596C14.2546 2.92596 13.2046 2.99596 12.1546 3.05596C11.8546 3.06596 11.5546 3.09596 11.2446 3.11596C10.9546 2.18596 10.6146 1.28596 10.1646 0.415963C9.9246 -0.0440367 9.18459 -0.154039 8.83459 0.245961C7.95459 1.24596 7.22458 2.34596 6.57458 3.49596C4.66458 3.64596 2.74458 3.77596 0.824576 3.86596C-0.0354236 3.90596 -0.295416 4.96596 0.394584 5.43596C1.52458 6.19596 2.81458 6.66596 4.04458 7.23596C4.23458 7.32596 4.42458 7.41596 4.60458 7.51596C4.07458 8.71596 3.55458 9.92596 2.98458 11.096C2.78458 11.506 2.8746 12.006 3.2846 12.256C3.4446 12.356 3.6546 12.376 3.8446 12.356C4.0446 12.426 4.27458 12.416 4.51458 12.256C5.68458 11.496 6.83459 10.706 7.96459 9.89596C8.68459 10.506 9.39458 11.106 10.1446 11.666C11.0846 12.366 12.1246 13.016 13.2846 13.246C13.9046 13.376 14.5046 12.856 14.3246 12.206C14.0346 11.126 13.4946 10.146 13.0446 9.12596C12.7046 8.35596 12.4646 7.55596 12.2346 6.74596C13.4446 5.84596 14.6546 4.95596 15.8746 4.09596C16.2146 3.85596 16.3946 3.44596 16.2246 3.03596L16.2446 3.02596Z" fill="#231815"/>
</svg>
