<svg width="1920" height="1472" viewBox="0 0 1920 1472" fill="none" xmlns="http://www.w3.org/2000/svg">
<path fill-rule="evenodd" clip-rule="evenodd" d="M604.103 266.154C593.932 265.892 566.741 268.491 564.056 290.209C560.514 318.955 594.25 319.644 604.916 335.394C611.299 344.79 611.801 362.807 610.608 368.06C610.469 368.601 597.204 383.589 598.677 389.511C602.955 406.774 635.173 409.068 642.514 429.321C644.905 435.933 633.482 446.294 648.716 438.393C661.441 431.742 650.486 444.925 655.707 453.513C664.176 467.442 670.76 457.026 673.367 464.729C672.636 462.592 662.824 468.876 662.04 472.473C662.561 470.09 667.545 494.224 667.635 495.215C667.645 495.288 667.642 495.374 667.652 495.447C671.504 538.918 642.523 471.707 630.815 470.531C624.512 469.915 637.34 504.273 634.268 504.731C627.51 505.786 630.723 488.127 617.234 479.815C608.191 474.264 615.72 489.018 605.801 477.681C581.817 450.366 595.56 461.601 583.75 479.461C575.145 492.378 530.161 486.145 521.619 505.319C515.706 518.582 532.388 524.688 531.857 534.882C531.535 541.202 517.802 560.966 507.765 557.996C483.359 550.791 483.728 555.423 457.59 562.408C415.661 573.602 429.614 519.749 380.788 523.198C361.292 524.568 358.398 561.343 399.894 567.425C402.187 567.783 403.9 569.814 405.951 570.947C424.477 574.532 407.381 606.778 425 612.447C443.085 618.263 405.951 617.447 405.951 637.59C405.951 657.733 436.128 641.97 442.649 652.368C443.423 653.56 440.477 658.738 439.666 657.73C445.898 665.304 453.628 660.688 455.045 670.501C455.942 676.617 441.794 690.139 442.284 685.874C440.521 701.649 459.236 712.183 469.2 710.658C467.676 710.89 487.895 695.246 491.916 691.966C489.986 692.701 495.551 676.349 499.266 676.832C508.354 678.056 498.201 695.11 508.548 690.408C506.238 691.478 506.474 678.894 506.893 678.262C506.688 678.526 522.185 667.242 529.64 672.662C548.639 686.488 520.003 699.782 517.814 703.992C514.505 710.39 522.04 717.498 514.216 723.073C515.361 722.228 510.098 721.083 506.287 720.667C507.215 723.359 506.621 724.269 502.773 720.923C502.158 720.41 503.931 720.393 506.287 720.667C504.455 715.111 496.19 701.954 496.464 701.969C482.108 700.984 476.352 763.283 490.01 736.294C496.074 724.348 491.017 733.437 500.622 732.366C506.299 731.745 525.748 719.927 534.362 717.79C532.681 724.226 524.974 722.323 524.665 726.14C524.395 729.63 531.29 728.3 532.513 732.105C533.373 734.818 527.694 740.12 528.133 741.444C528.81 743.591 534.348 743.982 535.934 745.857C537.99 748.301 540.164 761.207 539.42 762.728C539.423 762.704 535.787 765.212 532.928 767.286C533.5 768.598 531.473 773.935 529.657 772.969C534.316 775.455 539.404 767.42 545.005 771.046C552.837 776.128 558.668 786.613 557.759 789.199C553.018 802.633 548.061 790.135 547.032 791.002C543.855 793.678 549.185 809.125 554.491 813.12C558.601 816.226 561.476 813.938 563.801 815.976C565.372 817.353 566.53 822.844 567.063 823.594C574.629 834.008 585.487 827.859 588.009 830.006C590.779 832.369 589.347 843.054 585.333 846.997C583.006 849.256 580.169 847.568 579.96 847.914C578.291 850.573 580.119 853.217 579.402 856.379C578.329 861.125 572.543 865.204 571.248 869.656C571.011 870.525 575.296 872.463 575.19 873.406C574.53 879.468 568.86 880.632 569.333 885.861C569.464 887.328 575.683 901.703 576.681 903.37C582.659 913.449 601.392 923.949 613.262 920.17C615.377 919.499 616.733 915.997 618.549 916.193C620.39 916.394 622.151 921.105 624.825 920.658C626.279 920.412 627.007 916.229 631.612 915.107C635.092 914.267 638.827 918.664 640.911 917.947C644.532 916.689 638.726 911.013 645.328 910.145C646.182 910.03 650.581 915.575 653.103 913.037C653.903 912.251 650.352 903.795 650.556 903.085C651.673 898.818 664.383 891.85 666.367 888.082C669.433 882.217 666.724 864.288 659.338 852.862C656.187 847.986 654.976 841.293 652.851 839.162C650.643 836.942 626.85 825.888 629.285 819.724C631.553 813.997 636.034 823.459 640.893 821.76C643.485 820.838 644.113 815.706 649.11 811.542C659.96 802.505 666.969 809.911 672.352 804.471C685.453 824.227 698.904 845.209 711.158 864.942C718.558 876.864 725.551 888.338 731.769 898.797C731.903 898.993 732.016 899.217 732.134 899.419C733.039 900.951 733.933 902.467 734.809 903.956C734.946 904.186 735.093 904.431 735.23 904.66C736.125 906.176 736.997 907.69 737.853 909.149C755.382 939.297 774.324 963.033 768.324 978.036C767.846 979.234 758.945 983.293 759.275 984.222C760.295 987.255 780.046 988.807 776.783 985.547C787.762 996.566 772.08 1003.57 774.134 1020.57C777.624 1049.19 796.913 1051.23 780.794 1069.22C758.534 1094.06 809.125 1080.98 804.523 1079.59C828.075 1086.67 823.726 1118.76 838.589 1129.42C839.561 1130.13 846.185 1123.21 847.651 1123.22C848.848 1123.25 870.089 1131.94 871.367 1133.6C875.103 1138.5 870.485 1150.51 876.948 1156.35C877.801 1157.12 880.126 1145.02 889.82 1150.89C896.564 1154.98 886.714 1163.25 897.553 1162.2C903.19 1161.67 899.452 1154.28 905.807 1149.93C914.615 1143.87 916.848 1152.74 921.776 1149.01C921.32 1149.32 914.946 1130.27 926.914 1132.18C942.207 1134.6 930.815 1149.21 934.77 1153.4C939.46 1158.36 942.224 1148.97 950.017 1156.25C967.016 1172.13 953.963 1194.49 971.81 1197.85C977.545 1198.92 977.114 1185.33 977.665 1177.21C980.4 1135.46 1004.84 1177.67 1020.35 1181.29C1042.34 1186.46 1024.36 1158.22 1021.53 1153.87C1016.88 1146.68 1013.72 1107.67 1018.69 1105.98C1036.37 1099.91 1054.2 1152.65 1068.02 1158.67C1075.56 1161.95 1076.76 1147.18 1082.43 1155.45C1088.63 1164.46 1075.1 1188.64 1080.61 1196.55C1081.72 1198.18 1097.17 1194.09 1106.62 1205.4C1115.16 1215.61 1117.28 1205.81 1126.48 1215.06C1134.21 1222.81 1122.06 1218.61 1125.9 1228.76C1132.46 1246.1 1155.99 1234.47 1167.74 1226.75C1166.48 1227.58 1165.29 1217.96 1169.88 1215.33C1177.28 1211.06 1188.11 1225 1201.95 1223.3C1219.72 1221.12 1233.13 1211.81 1244.5 1217.46C1268.67 1229.48 1243.13 1218.45 1245.08 1203.76C1246.58 1192.69 1268.66 1189.04 1267.04 1192.08C1276.82 1173.59 1258.03 1167.04 1249.89 1157.27C1223.54 1125.69 1268.27 1136.98 1268.83 1150.97C1268.94 1153.28 1257.38 1156.28 1261.32 1159.43C1266.19 1163.29 1289.66 1173.59 1295.54 1155.95C1298.91 1145.83 1265.66 1132.16 1257.05 1119.14C1250.55 1109.31 1263.01 1113.24 1251.57 1106.27C1260.41 1111.69 1223 1097.89 1219.63 1108.18C1215.47 1120.79 1241.06 1126.14 1238.21 1135.34C1237.71 1136.9 1215.29 1146.57 1199.34 1132C1201.29 1133.77 1203.58 1123.89 1203.04 1122.83C1196.56 1109.18 1155.85 1099.9 1169.2 1092.78C1184.79 1084.43 1209.37 1129.6 1217.37 1109.72C1218.13 1107.81 1211.62 1096 1208.79 1092.31C1194.23 1073.36 1168.97 1073.89 1155.99 1068.6C1145.75 1064.39 1119.69 1035.49 1145.05 1042.84C1141.66 1041.86 1147.27 1054.96 1148.84 1058.75C1155.01 1068.17 1150.93 1044.96 1152.67 1044.26C1153.24 1044.03 1161.52 1046.92 1159.56 1049.51C1165.15 1042.11 1153.28 1040.88 1162.45 1034.25C1177.87 1023.12 1198.49 1079.06 1198.32 1042.98C1198.31 1040.36 1189.85 1044.54 1188.43 1043.08C1167.54 1021.87 1221.99 1014.9 1223.85 1012.22C1232.12 1000.1 1210.3 987.029 1241.97 999.826C1275.23 1013.24 1245.13 1002.67 1234.1 978.617C1228.21 965.74 1222.78 959.725 1218.85 975.766C1213 999.586 1197.59 973.928 1180.01 972.433C1167.54 971.308 1164.73 983.686 1155.68 975.75C1152.65 973.099 1150.41 933.123 1152.12 931.649C1155.97 928.252 1168.71 935.631 1169.65 932.94C1172.66 924.585 1164.91 907.421 1154.18 910.306C1154.57 910.198 1149.14 924.201 1149.11 926.146C1150.05 925.144 1151.02 923.712 1152.02 921.746C1149.87 925.914 1149.12 926.895 1149.11 926.146C1146.66 928.818 1144.35 928.431 1141.41 925.7C1140.53 924.885 1146.49 917.771 1149.58 915.353C1149.13 911.44 1149.42 903.2 1149.52 903.495C1149.35 902.945 1149.17 902.42 1149 901.907C1147.3 896.746 1145.89 893.292 1144.83 891.119C1140.8 882.887 1141.16 891.984 1144.83 891.119C1145.83 890.86 1147.1 889.871 1148.59 887.55C1153.67 879.583 1135.74 878.059 1149.19 873.833C1162.08 869.8 1158.1 894.633 1163.95 900.32C1169.85 905.974 1212.29 914.475 1218.06 906.532C1218.2 906.339 1211.17 891.322 1206.72 887.944C1204.71 889.782 1203.29 890.753 1203.41 889.936C1203.91 887.007 1205.17 886.753 1206.72 887.944C1211.97 883.274 1221.35 873.032 1218.94 872.942C1224.5 872.094 1231.96 882.982 1246.69 880.295C1271.45 875.83 1272.69 856.32 1293.78 871.367C1315.54 886.928 1292.15 862.899 1295.11 853.863C1298.08 844.655 1334.43 850.795 1313.25 841.462C1305.92 838.243 1310.37 826.546 1320.64 823.109C1326.02 821.298 1334.39 828.023 1341.97 825.126C1339.36 826.142 1339.69 816.452 1339.58 816.794C1343.51 803.468 1352.41 816.998 1357.11 818.099C1355.58 817.75 1357.51 814.502 1359.28 813.196C1359.38 813.084 1359.64 812.905 1360.08 812.746C1359.82 812.841 1359.57 812.998 1359.28 813.196C1358.15 814.815 1373.92 816.741 1376.33 819.937C1380.99 810.532 1387.33 784.755 1387.17 784.258C1382.85 771.202 1357.18 762.649 1355.73 762.548C1358.33 762.688 1359.13 770.168 1358.1 770.915C1337.99 785.532 1345.12 763.636 1329.74 753.745C1328.96 753.222 1318.23 755.673 1317.58 755.409C1304.12 749.858 1292.7 700.187 1268.89 689.012C1260.23 684.956 1233.13 700.728 1229.42 699.369C1217.86 695.14 1219.67 673.655 1222.73 679.547C1219.31 672.178 1213.2 677.471 1212.39 674.456C1212.04 673.171 1232.67 662.07 1217.51 657.66C1198.01 651.94 1188.49 645.684 1189.87 636.652C1190.09 635.331 1205.47 635.899 1202.75 631.173C1201.59 629.21 1185.77 629.464 1183.67 627.577C1175.12 619.943 1178.65 600.932 1174.15 594.238C1175.2 595.773 1165.23 595.091 1164.28 594.346C1157.54 589.205 1145.68 571.268 1150.22 564.057C1149.39 565.394 1159.26 564.175 1160.05 563.96C1158.55 563.789 1133.49 551.715 1134.01 545.217C1134.32 541.301 1164.97 552.933 1162.15 542.58C1158.41 528.886 1151.73 541.84 1143.09 539.011C1133.67 535.97 1105.24 509.972 1106.73 499.044C1106.64 498.496 1106.88 497.761 1107.58 496.82C1094.63 498.88 1116.34 480.215 1118.09 482.986C1107.87 466.889 1104.66 485.054 1090.54 471.904C1095.41 476.444 1102.18 467.372 1102.71 470.252C1098.92 449.173 1078.64 468.612 1079.71 456.05C1080.65 445.092 1107.63 453.336 1107.84 453.412C1129.38 462.647 1093.1 439.292 1085.91 431.2C1085.35 430.976 1084.91 430.401 1084.75 429.335C1084.83 429.831 1085.24 430.437 1085.91 431.2C1089.38 432.514 1098.52 420.914 1098.8 417.887C1097.28 417.974 1096.48 417.958 1096.77 417.795C1098.34 416.885 1098.88 417.059 1098.8 417.887C1105.85 417.405 1128.2 414.079 1127.87 409.804C1127.02 398.532 1104.98 401.991 1094.39 404.745C1100.19 404.679 1100.77 412.527 1101.05 414.541C1101.24 414.576 1101.33 414.619 1101.32 414.688C1101.2 415.211 1101.15 415.066 1101.05 414.541C1098.01 413.923 1066.75 418.071 1070.81 408.935C1073.84 402.076 1093.08 404.269 1100.37 398.718C1101.87 397.566 1113.59 378.976 1116.28 374.932C1114.62 376.028 1113.17 365.97 1115.98 368.087C1093.3 350.873 1193.3 355.59 1159.01 338.668C1151.17 334.786 1157.83 331.283 1160.07 331.051C1155.58 331.425 1126.28 341.933 1113.36 339.978C1111.97 339.777 1111.12 339.305 1110.6 338.807C1110.77 339.444 1110.96 340.286 1111.11 341.518C1113.07 357.754 1086.7 349.391 1086.78 344.857C1086.84 341.657 1107.7 330.355 1107.16 330.928C1109.87 327.958 1110.88 317.867 1116.82 311.025C1136 289.056 1166.52 279.849 1138.42 269.671C1119.09 262.683 1149.57 249.078 1138.1 239.999C1138.19 240.077 1126.11 237.617 1119.13 246.32C1115.34 251.039 1123.02 265.304 1120.94 268.351C1114.81 277.28 1115.76 260.544 1109.59 276.106C1109.92 275.29 1124.62 272.946 1123.3 276.706C1122.57 278.724 1080.78 282.529 1074.61 286.585C1075.6 287.141 1073.23 299.869 1079.44 300.045C1077.05 299.994 1120.12 266.598 1115.79 285.166C1113.57 294.644 1101.93 284.827 1099.09 289.928C1097.67 292.502 1106.51 293.741 1108.01 293.661C1108.2 293.517 1108.28 293.461 1108.27 293.626C1108.26 293.671 1108.17 293.656 1108.01 293.661C1106.58 295.029 1098.52 307.142 1090.98 312.073C1088.52 313.693 1079.41 310.643 1076.55 315.309C1075.34 317.296 1086.31 324.039 1075.95 329.016C1068.91 332.411 1059.33 324.308 1050.81 326.282C1036.01 329.69 1003.37 336.443 999.09 328.404C991.719 314.716 1009.13 325.27 1015.35 319.418C1013.21 319.112 1011.13 306.842 1011.01 306.963C1012.26 305.826 1033.94 311.872 1027.7 302.198C1021.94 293.269 981.362 315.191 985.021 298.16C985.992 293.586 1004.47 293.781 1002.42 289.567C993.328 270.573 946.433 281.149 938.241 268.959C938.055 268.861 937.801 268.406 937.478 267.512C937.654 268.042 937.92 268.489 938.241 268.959C939.61 269.745 937.576 250.969 944.802 254.683C922.063 240.582 883.902 280.978 863.667 271.421C863.37 271.283 866.036 265.992 860.582 266.907C864.036 266.329 854.692 271.964 850.031 276.713C856.248 270.861 858.634 285.705 856.993 285.978C848.617 287.364 846.644 268.082 832.455 269.536C829.874 269.761 826.056 282.055 826.483 280.246C821.462 301.817 826.975 283.962 833.402 285.506C848.18 289.003 831.95 294.444 843.401 295.27C845.032 295.371 846.579 295.265 848.126 294.977C849.308 293.501 850.604 292.491 851.758 292.879C852.156 293.014 852.454 293.275 852.758 293.571C869.207 286.644 881.322 262.05 890.402 276.433C889.3 274.673 885.678 292.652 885.256 293.245C878.992 302.531 885.24 286.788 873.825 291.088C866.922 293.679 859.445 315.775 861.177 316.352C850.347 312.752 856.31 297.368 852.773 293.561C851.264 294.168 849.727 294.652 848.153 294.959C846.118 297.465 844.399 301.294 844.269 301.343C841.918 302.26 833.346 301.736 826.844 300.731C826.656 300.695 826.479 300.675 826.304 300.653C825.931 300.586 825.568 300.528 825.206 300.47C824.952 300.423 824.703 300.389 824.462 300.333C824.182 300.281 823.903 300.229 823.639 300.166C823.405 300.122 823.187 300.068 822.971 300.017C822.539 299.922 822.124 299.821 821.75 299.714C821.625 299.68 821.521 299.65 821.396 299.611C821.121 299.538 820.869 299.467 820.632 299.386C820.52 299.338 820.418 299.306 820.305 299.264C820.104 299.176 819.923 299.118 819.758 299.027C819.694 298.991 819.605 298.951 819.549 298.927C819.354 298.817 819.194 298.706 819.117 298.594C815.219 293.397 825.624 286.019 821.143 277.269C824.181 283.196 796.253 271.403 804.917 258.428C806.259 256.418 840.341 264.733 832.232 249.726C832.816 250.787 804.733 246.741 804.662 248.268C803.273 245.731 795.434 225.372 794.695 228.859C795.675 224.216 812.984 216.799 812.82 216.468C800.253 192.449 791.437 226.463 787.067 227.424C783.303 228.237 754.853 216.275 742.875 221.079C739.411 222.473 734.818 237.284 729.358 240.269C728.683 240.647 717.317 236.949 714.102 237.405C697.57 239.73 662.666 250.823 660.217 250.975C659.252 251.046 656.416 243.907 655.581 244.194C653.344 244.954 651 253.773 649.619 254.898C641.597 261.457 614.092 266.355 604.075 266.112L604.103 266.154ZM1166.63 1191.06C1170.16 1199.7 1162.07 1204.4 1154.59 1202.62C1140.97 1199.39 1162.04 1179.96 1166.63 1191.06ZM1125.97 1165.65C1125.26 1169.39 1117.74 1168.7 1113.82 1167.33C1095.17 1160.84 1128.72 1150.96 1125.97 1165.65ZM1100.86 1099.74C1103.47 1116.22 1106.69 1099.67 1118.39 1101.07C1146.89 1104.51 1140.96 1143.99 1114.19 1133.86C1115.67 1134.4 1083.79 1103.65 1084.18 1104.52C1080.92 1097.14 1098.38 1084.05 1100.87 1099.75L1100.86 1099.74ZM1050.55 1094.27C1058.88 1092.28 1071.34 1101.6 1076.65 1112.96C1076.94 1113.56 1069.85 1116.83 1069.86 1117.61C1069.88 1119.81 1076.84 1138.56 1074.74 1144.2C1073.13 1148.53 1067.58 1146.79 1066.41 1146.58C1044.22 1142.41 1039.89 1096.79 1050.55 1094.27ZM1254.23 735.676C1276.99 752.939 1297.59 734.344 1326.2 772.883C1330.91 779.268 1336.04 774.765 1336.2 782.667C1336.57 802.697 1281.28 747.073 1271.85 746.892C1271.33 746.882 1270.78 744.826 1270.3 744.628C1260.83 740.924 1264.32 755.582 1253.59 749.399C1245.67 744.807 1240.15 725.029 1254.22 735.698L1254.23 735.676ZM1200.26 676.185C1206.02 683.937 1215.65 683.314 1217.89 687.391C1223.59 697.804 1210.6 694.017 1213.47 700.408C1215.88 705.83 1220.27 700.948 1221.1 701.838C1228.81 710.147 1249.93 716.499 1245.77 728.176C1243.37 734.83 1229.23 728.201 1221.07 723.829C1222.88 725.815 1224.55 727.384 1225.98 728.433C1211.3 717.862 1213.82 719.949 1221.07 723.829C1203.79 704.935 1171.39 646.938 1160.83 623.409C1158.84 618.957 1154.17 620.773 1152.37 615.897C1150.74 611.56 1155.94 609.709 1154.5 604.453C1154.08 602.819 1145.08 598.289 1146.05 596.92C1158.34 579.581 1188.67 660.696 1200.25 676.207L1200.26 676.185ZM1137.86 579.697C1141.09 580.748 1121.54 561.573 1128.07 556.032C1130.56 553.947 1146.92 583.697 1137.86 579.697ZM1077.2 501.073C1077.19 502.393 1061.47 500.393 1065.04 502.737C1044.91 489.567 1077.44 477.521 1077.2 501.073ZM1028.56 507.734C1026.93 516.406 1017.36 510.42 1014.87 507.124C1009.96 500.651 1030.58 497.05 1028.56 507.734ZM1100.51 364.736C1098.35 360.901 1089.35 375.267 1092.84 373.973C1084.92 377.951 1073.21 373.932 1070.35 369.485C1065.73 362.272 1096.82 357.407 1100.51 364.713L1100.51 364.736ZM1057.26 355.192C1056.77 356.438 1039.2 360.831 1033.81 362.021C1033.7 362.363 1033.22 362.488 1032.22 362.336C1032.31 362.356 1032.91 362.249 1033.81 362.021C1034.61 359.789 1017.61 348.205 1021.49 356.374C1021.88 357.183 1015.41 355.184 1016.15 353.385C1021.27 340.439 1064.48 336.613 1057.27 355.207L1057.26 355.192ZM849.474 420.8C848.177 421.097 840.598 417.099 841.02 413.302C841.809 406.299 864.953 417.349 849.474 420.8ZM463.39 668.119C457.993 666.866 449.363 669.156 451.845 656.094C455.161 638.32 485.348 673.255 463.39 668.119ZM875.028 326.884C875.45 326.822 866.936 322.608 868.834 317.824C872.389 308.789 887.619 325.17 875.028 326.884Z" fill="#171717"/>
<path fill-rule="evenodd" clip-rule="evenodd" d="M751.665 222.734C741.711 220.625 714.501 218.231 707.907 239.098C699.192 266.718 732.239 273.538 739.859 290.966C744.426 301.366 741.639 319.174 739.51 324.122C739.276 324.629 723.504 336.952 723.874 343.043C724.938 360.796 756.201 368.916 759.732 390.167C760.88 397.104 747.761 405.213 764.179 400.217C777.902 395.993 764.731 406.962 768.301 416.357C774.093 431.595 782.463 422.551 783.624 430.6C783.294 428.366 772.502 432.758 771.076 436.153C772.023 433.905 772.531 458.542 772.438 459.533C772.435 459.607 772.416 459.691 772.412 459.765C768.287 503.21 752.025 431.847 740.727 428.559C734.642 426.806 741.001 462.925 737.897 462.817C731.06 462.623 737.433 445.844 725.683 435.216C717.802 428.112 722.518 443.989 714.829 431.037C696.219 399.812 707.687 413.361 692.823 428.773C682.01 439.908 638.912 425.59 627.023 442.889C618.794 454.854 634.086 463.895 631.708 473.821C630.241 479.978 613.14 496.911 603.812 492.165C581.125 480.637 580.645 485.258 553.672 487.369C510.405 490.743 405.853 445.113 357.215 439.617C337.795 437.415 328.255 473.049 367.951 486.583C370.14 487.352 371.455 489.662 373.266 491.149C390.829 498.046 408.315 505.677 424.608 514.459C441.332 523.47 467.865 541.787 489.21 551.895C505.026 559.35 518.086 561.695 522.605 573.107C523.149 574.419 519.309 578.974 518.695 577.836C523.445 586.418 531.885 583.286 531.493 593.193C531.262 599.37 514.888 610.09 516.147 605.986C511.541 621.176 528.026 634.941 538.102 635.255C536.561 635.206 559.289 623.503 563.84 621.01C561.809 621.382 570.258 606.317 573.823 607.467C582.535 610.325 569.448 625.246 580.478 622.507C578.012 623.138 580.534 610.807 581.062 610.262C580.813 610.485 598.104 602.21 604.448 608.896C620.613 625.95 590.036 633.809 587.116 637.549C582.698 643.239 588.813 651.6 580.105 655.657C581.385 655.035 576.419 652.951 572.747 651.848C573.17 654.664 572.42 655.451 569.245 651.46C568.734 650.844 570.48 651.15 572.747 651.848C571.956 646.051 566.225 631.609 566.492 631.675C552.555 628.093 535.554 688.303 553.897 664.251C562.034 653.609 555.407 661.626 565.047 662.32C570.742 662.743 592.017 654.663 600.876 654.13C598.052 660.153 590.82 656.878 589.821 660.575C588.92 663.957 595.943 663.905 596.452 667.869C596.805 670.693 590.255 674.873 590.446 676.255C590.721 678.489 596.095 679.881 597.313 682.014C598.89 684.791 598.678 697.877 597.67 699.238C597.678 699.214 593.645 701.019 590.456 702.538C590.78 703.932 587.815 708.811 586.206 707.53C590.335 710.823 596.8 703.848 601.647 708.433C608.424 714.856 612.248 726.228 610.885 728.604C603.777 740.952 601.178 727.76 600.008 728.425C596.397 730.478 598.826 746.637 603.316 751.532C606.792 755.333 610.035 753.607 611.951 756.034C613.244 757.674 613.384 763.284 613.772 764.119C619.315 775.736 631.111 771.666 633.2 774.237C635.494 777.064 632.141 787.31 627.476 790.457C624.777 792.254 622.295 790.078 622.026 790.38C619.901 792.691 621.217 795.623 619.936 798.602C618.017 803.073 611.586 806.031 609.502 810.173C609.111 810.985 612.971 813.67 612.696 814.578C610.943 820.418 605.156 820.531 604.669 825.759C604.531 827.225 608.03 842.492 608.707 844.312C612.751 855.312 629.259 869.046 641.619 867.491C643.821 867.216 645.792 864.019 647.542 864.542C649.315 865.076 650.19 870.029 652.9 870.075C654.374 870.098 655.852 866.117 660.584 865.853C664.159 865.661 667.031 870.664 669.211 870.338C673 869.76 668.324 863.122 674.974 863.471C675.835 863.513 679.151 869.766 682.092 867.729C683.022 867.102 681.07 858.141 681.4 857.48C683.274 853.487 697.041 848.949 699.678 845.605C703.76 840.396 704.359 822.274 699.177 809.694C696.966 804.326 696.994 797.525 695.292 795.043C693.526 792.457 672.142 777.258 675.658 771.64C678.931 766.422 681.615 776.541 686.702 775.755C689.419 775.32 690.97 770.388 696.642 767.203C708.956 760.292 714.5 768.85 720.782 764.48C730.068 786.292 739.475 809.371 747.933 831.006C753.039 844.075 757.826 856.63 762.036 868.047C762.132 868.264 762.203 868.504 762.282 868.725C762.893 870.396 763.496 872.05 764.087 873.673C764.18 873.924 764.28 874.191 764.372 874.442C764.976 876.096 765.558 877.743 766.134 879.333C777.883 912.168 792.188 938.956 783.557 952.616C782.869 953.707 773.378 956.078 773.533 957.051C773.984 960.219 793.122 965.341 790.508 961.542C799.297 974.375 782.601 978.412 781.527 995.502C779.749 1024.28 798.345 1029.79 779.22 1044.55C752.81 1064.92 804.937 1061.27 800.666 1059.06C822.535 1070.31 812.417 1101.08 825.092 1114.26C825.919 1115.13 833.69 1109.54 835.131 1109.81C836.302 1110.06 855.607 1122.47 856.561 1124.33C859.343 1129.83 852.615 1140.81 857.907 1147.72C858.606 1148.64 863.096 1137.16 871.557 1144.7C877.446 1149.94 866.254 1156.29 877.102 1157.23C882.742 1157.74 880.413 1149.78 887.452 1146.67C897.217 1142.31 897.798 1151.44 903.323 1148.67C902.818 1148.89 900.018 1129 911.438 1133.05C926.036 1138.21 912.173 1150.51 915.301 1155.35C919.009 1161.08 923.436 1152.35 929.774 1160.93C943.598 1179.64 926.693 1199.25 943.63 1205.8C949.075 1207.89 951.125 1194.45 953.145 1186.57C963.434 1146.01 979.778 1191.96 994.37 1198.35C1015.06 1207.43 1002.52 1176.4 1000.52 1171.61C997.258 1163.68 1001.26 1124.76 1006.45 1124C1024.94 1121.25 1032.87 1176.35 1045.37 1184.78C1052.18 1189.38 1056.05 1175.08 1060.12 1184.24C1064.58 1194.23 1046.87 1215.55 1050.85 1224.33C1051.65 1226.13 1067.58 1224.92 1074.82 1237.76C1081.35 1249.36 1085.22 1240.11 1092.59 1250.88C1098.78 1259.9 1087.59 1253.57 1089.51 1264.24C1092.81 1282.48 1118.07 1275.34 1131.02 1269.88C1129.64 1270.47 1130.22 1260.79 1135.21 1259.04C1143.27 1256.19 1151.37 1271.87 1165.29 1272.71C1183.16 1273.81 1198.05 1267.09 1208.19 1274.71C1229.77 1290.94 1206.67 1275.44 1211.26 1261.35C1214.75 1250.74 1237.12 1251.17 1234.98 1253.86C1247.96 1237.47 1230.68 1227.61 1224.45 1216.51C1204.29 1180.67 1246.22 1199.91 1244.22 1213.76C1243.91 1216.06 1232 1216.91 1235.3 1220.72C1239.38 1225.4 1260.58 1239.8 1269.57 1223.53C1274.74 1214.19 1244.53 1194.69 1238.43 1180.32C1233.83 1169.48 1245.36 1175.61 1235.39 1166.67C1243.09 1173.61 1208.82 1153.23 1203.64 1162.73C1197.25 1174.38 1221.43 1184.3 1216.95 1192.83C1216.18 1194.27 1192.38 1199.7 1179.34 1182.47C1180.94 1184.56 1184.99 1175.27 1184.65 1174.12C1180.77 1159.52 1142.42 1142.99 1156.85 1138.42C1173.7 1133.04 1189.64 1181.94 1201.13 1163.84C1202.22 1162.1 1197.97 1149.31 1195.86 1145.16C1185 1123.87 1160.06 1119.8 1148.26 1112.23C1138.96 1106.23 1118.6 1073.07 1142.19 1084.91C1139.04 1083.33 1142.17 1097.23 1143.02 1101.25C1147.37 1111.64 1147.59 1088.07 1149.42 1087.7C1150.03 1087.57 1157.65 1091.92 1155.25 1094.12C1162.09 1087.86 1150.64 1084.49 1160.86 1079.63C1178.05 1071.5 1188.15 1130.25 1194.54 1094.75C1195.01 1092.17 1185.94 1094.74 1184.8 1093.04C1168.13 1068.39 1222.93 1071.45 1225.25 1069.14C1235.59 1058.73 1216.51 1041.91 1245.32 1060.26C1275.58 1079.51 1247.92 1063.63 1241.45 1037.97C1238 1024.24 1233.76 1017.34 1226.97 1032.39C1216.88 1054.75 1206.4 1026.72 1189.38 1022.05C1177.33 1018.67 1172.31 1030.33 1164.85 1020.88C1162.36 1017.72 1167.44 978.006 1169.39 976.867C1173.78 974.227 1184.97 983.802 1186.39 981.327C1190.86 973.659 1186.37 955.372 1175.29 956.255C1175.7 956.22 1167.81 969.002 1167.43 970.908C1168.53 970.093 1169.74 968.862 1171.09 967.112C1168.21 970.818 1167.3 971.646 1167.43 970.908C1164.53 973.089 1162.33 972.287 1159.94 969.068C1159.22 968.105 1166.37 962.195 1169.85 960.38C1170.13 956.452 1171.91 948.402 1171.95 948.71C1171.88 948.138 1171.8 947.589 1171.73 947.054C1171 941.669 1170.24 938.017 1169.59 935.687C1167.13 926.859 1165.83 935.87 1169.59 935.687C1170.62 935.615 1172.05 934.872 1173.95 932.863C1180.38 925.953 1163.03 921.19 1177.03 919.483C1190.44 917.864 1182 941.557 1186.72 948.215C1191.49 954.847 1231.67 970.931 1238.8 964.173C1238.97 964.008 1234.79 947.963 1231.02 943.83C1228.71 945.272 1227.14 945.968 1227.41 945.188C1228.43 942.397 1229.72 942.377 1231.02 943.83C1237.05 940.195 1248.13 931.831 1245.77 931.304C1251.4 931.483 1256.75 943.547 1271.72 943.585C1296.88 943.702 1301.65 924.743 1319.65 943.379C1338.22 962.641 1319.59 934.754 1324.14 926.408C1328.74 917.895 1363.36 930.549 1344.24 917.516C1337.62 913.017 1344.12 902.326 1354.85 900.817C1360.46 900.015 1367.47 908.15 1375.46 906.683C1372.7 907.206 1374.79 897.738 1374.62 898.053C1380.9 885.666 1387.2 900.59 1391.62 902.529C1390.18 901.906 1392.67 899.065 1394.64 898.102C1394.76 898.01 1395.06 897.882 1395.52 897.806C1395.25 897.852 1394.96 897.96 1394.64 898.102C1393.24 899.489 1408.4 904.253 1410.19 907.835C1416.48 899.435 1427.4 875.242 1427.34 874.724C1425.46 861.1 1401.78 848.017 1400.37 847.653C1402.91 848.267 1402.33 855.766 1401.18 856.312C1378.75 867.026 1389.74 846.793 1376.42 834.267C1375.75 833.611 1364.75 834.068 1364.16 833.69C1351.93 825.781 1349.75 774.862 1328.37 759.538C1320.6 753.975 1291.08 764.55 1287.68 762.539C1277.08 756.275 1282.77 735.479 1284.7 741.83C1282.68 733.961 1275.71 738.053 1275.47 734.942C1275.36 733.615 1297.66 726.454 1283.56 719.359C1265.43 710.185 1257.2 702.299 1260.21 693.671C1260.66 692.41 1275.68 695.77 1273.86 690.627C1273.08 688.485 1257.48 685.856 1255.76 683.618C1248.74 674.556 1255.67 656.505 1252.47 649.104C1253.22 650.804 1243.54 648.318 1242.74 647.412C1237.05 641.131 1228.65 621.334 1234.43 615.069C1233.37 616.233 1243.3 616.832 1244.11 616.764C1242.67 616.323 1220.23 599.89 1221.92 593.595C1222.94 589.8 1250.96 606.818 1250.07 596.124C1248.88 581.977 1239.96 593.501 1231.98 589.145C1223.27 584.44 1200.04 553.701 1203.5 543.226C1203.51 542.671 1203.88 541.993 1204.74 541.195C1191.63 540.863 1216.37 526.462 1217.59 529.505C1210.48 511.817 1204.01 529.094 1192.53 513.594C1196.48 518.944 1204.79 511.256 1204.79 514.185C1204.9 492.768 1181.42 508.191 1184.75 496.033C1187.67 485.428 1212.7 498.446 1212.9 498.56C1232.39 511.56 1200.98 481.992 1195.37 472.726C1194.86 472.404 1194.54 471.759 1194.58 470.682C1194.56 471.183 1194.86 471.855 1195.37 472.726C1198.55 474.651 1209.65 464.908 1210.47 461.982C1208.96 461.791 1208.18 461.629 1208.5 461.523C1210.2 460.913 1210.71 461.183 1210.47 461.982C1217.49 462.791 1240.08 463.59 1240.54 459.327C1241.75 448.088 1219.44 447.477 1208.54 448.258C1214.24 449.247 1213.39 457.071 1213.3 459.102C1213.48 459.171 1213.56 459.229 1213.53 459.295C1213.33 459.789 1213.3 459.635 1213.3 459.102C1210.43 457.942 1178.93 456.33 1184.58 448.084C1188.81 441.893 1207.33 447.55 1215.51 443.42C1217.2 442.56 1232.1 426.414 1235.48 422.927C1233.65 423.702 1234.06 413.549 1236.43 416.141C1217.27 395.088 1314.74 417.929 1284.1 395.047C1277.1 389.802 1284.29 387.571 1286.53 387.75C1282.05 387.301 1251.32 392.299 1238.98 388.026C1237.64 387.575 1236.89 386.956 1236.47 386.372C1236.52 387.028 1236.56 387.892 1236.48 389.131C1235.45 405.451 1211.04 392.428 1211.95 387.985C1212.59 384.849 1235.16 377.532 1234.52 377.997C1237.73 375.571 1240.56 365.832 1247.65 360.187C1270.51 342.076 1302.19 338.577 1276.41 323.455C1258.68 313.064 1291.13 305.236 1281.5 294.221C1281.58 294.314 1270.15 289.696 1261.69 296.982C1257.11 300.932 1262.07 316.358 1259.46 318.974C1251.82 326.639 1255.79 310.354 1246.9 324.534C1247.37 323.793 1262.25 324.163 1260.27 327.62C1259.18 329.471 1217.4 325.606 1210.59 328.47C1211.46 329.198 1206.82 341.282 1212.89 342.584C1210.55 342.1 1258.98 317.102 1251.34 334.571C1247.43 343.487 1237.78 331.716 1234.06 336.215C1232.19 338.487 1240.65 341.313 1242.15 341.509C1242.36 341.401 1242.45 341.361 1242.41 341.521C1242.39 341.565 1242.3 341.533 1242.15 341.509C1240.49 342.592 1230.36 353.036 1222.05 356.513C1219.34 357.658 1210.93 353 1207.27 357.069C1205.72 358.801 1215.28 367.429 1204.19 370.437C1196.64 372.493 1188.7 362.783 1179.96 363.172C1164.79 363.83 1131.46 364.527 1128.72 355.845C1123.96 341.043 1139.16 354.59 1146.34 349.968C1144.3 349.278 1144.48 336.833 1144.34 336.931C1145.78 336.04 1166 345.933 1161.62 335.283C1157.58 325.456 1113.69 339.625 1120.39 323.545C1122.18 319.224 1140.31 322.778 1139.06 318.262C1133.58 297.931 1085.54 299.793 1079.71 286.316C1079.54 286.186 1079.38 285.692 1079.22 284.754C1079.3 285.308 1079.48 285.795 1079.71 286.316C1080.91 287.337 1082.33 268.506 1088.76 273.473C1068.97 255.468 1024.09 288.243 1005.93 275.162C1005.67 274.973 1009.25 270.255 1003.72 270.162C1007.22 270.222 997.009 274.062 991.561 277.883C998.74 273.26 998.384 288.291 996.72 288.261C988.232 288.099 989.802 268.78 975.585 267.627C973.006 267.378 967.014 278.772 967.764 277.071C958.9 297.368 967.571 280.815 973.61 283.502C987.504 289.631 970.555 292.027 981.664 294.923C983.25 295.32 984.79 295.497 986.363 295.496C987.794 294.259 989.252 293.502 990.317 294.093C990.684 294.299 990.929 294.61 991.174 294.956C1008.61 291.139 1025 269.161 1031.31 284.957C1030.55 283.026 1023.71 300.045 1023.19 300.551C1015.34 308.542 1024.35 294.199 1012.34 296.35C1005.08 297.641 993.708 318.006 995.305 318.889C985.312 313.378 993.975 299.336 991.191 294.949C989.596 295.271 987.997 295.468 986.393 295.482C983.936 297.576 981.549 301.029 981.412 301.053C978.933 301.527 970.6 299.451 964.39 297.279C964.211 297.21 964.041 297.158 963.873 297.105C963.518 296.97 963.172 296.848 962.826 296.725C962.585 296.632 962.347 296.554 962.119 296.455C961.854 296.352 961.589 296.25 961.341 296.14C961.119 296.055 960.914 295.961 960.711 295.872C960.304 295.701 959.914 295.525 959.566 295.352C959.449 295.296 959.352 295.247 959.237 295.186C958.979 295.064 958.744 294.949 958.526 294.826C958.425 294.759 958.33 294.709 958.227 294.646C958.045 294.523 957.877 294.434 957.733 294.314C957.676 294.267 957.595 294.211 957.544 294.178C957.373 294.034 957.236 293.895 957.181 293.772C954.294 287.952 965.868 282.591 963.054 273.172C964.963 279.552 939.649 262.873 950.529 251.692C952.215 249.959 984.214 264.34 978.972 248.108C979.353 249.257 952.476 240.167 952.128 241.655C951.224 238.908 947.222 217.462 945.86 220.756C947.67 216.369 966.039 212.226 965.938 211.872C957.954 185.966 943.093 217.807 938.621 217.957C934.772 218.07 908.975 201.129 896.322 203.673C892.663 204.414 885.451 218.141 879.538 220.082C878.805 220.331 868.303 214.626 865.058 214.488C848.379 213.765 812.039 218.32 809.603 218.024C808.642 217.918 807.153 210.382 806.28 210.512C803.941 210.852 800.031 219.096 798.468 219.952C789.386 224.941 761.45 224.75 751.644 222.687L751.665 222.734ZM1136.43 1234.59C1138.33 1243.72 1129.52 1246.87 1122.49 1243.76C1109.68 1238.1 1133.94 1222.83 1136.43 1234.59ZM1101.07 1202.19C1099.7 1205.75 1092.43 1203.7 1088.82 1201.63C1071.67 1191.86 1106.45 1188.25 1101.07 1202.19ZM1088.38 1132.82C1087.95 1149.49 1094.13 1133.81 1105.38 1137.32C1132.78 1145.89 1119.76 1183.63 1095.28 1168.79C1096.64 1169.6 1070.88 1133.56 1071.11 1134.48C1069.25 1126.63 1088.8 1116.94 1088.39 1132.83L1088.38 1132.82ZM1039.91 1118.28C1048.47 1117.84 1059.02 1129.27 1062.17 1141.42C1062.35 1142.05 1054.78 1143.97 1054.65 1144.75C1054.27 1146.91 1057.7 1166.61 1054.61 1171.79C1052.24 1175.74 1047.1 1173.02 1045.98 1172.6C1024.93 1164.47 1028.97 1118.82 1039.91 1118.28ZM1305.46 802.754C1324.7 823.873 1348.34 809.337 1369.46 852.441C1372.93 859.577 1378.79 856.083 1377.51 863.882C1374.23 883.645 1329.98 818.885 1320.74 816.99C1320.24 816.887 1320.07 814.764 1319.63 814.482C1311 809.117 1311.76 824.166 1302.34 816.132C1295.38 810.176 1293.56 789.723 1305.45 802.775L1305.46 802.754ZM1263.22 734.433C1267.48 743.106 1277.06 744.246 1278.52 748.662C1282.23 759.938 1270.15 753.85 1271.8 760.657C1273.19 766.427 1278.39 762.425 1279.04 763.452C1285.11 773.025 1304.73 783.116 1298.51 793.841C1294.93 799.946 1282.24 790.854 1275.01 785.07C1276.43 787.352 1277.79 789.2 1279.01 790.492C1266.49 777.423 1268.59 779.934 1275.01 785.07C1261.47 763.347 1240.15 700.42 1234.06 675.363C1232.91 670.622 1227.99 671.557 1227.11 666.437C1226.3 661.875 1231.75 661.001 1231.29 655.57C1231.16 653.887 1223.14 647.795 1224.34 646.625C1239.59 631.813 1254.65 717.095 1263.21 734.454L1263.22 734.433ZM1219.43 628.199C1222.42 629.821 1206.68 607.406 1214.11 603.147C1216.93 601.55 1227.61 633.782 1219.43 628.199ZM1174.09 539.847C1173.84 541.143 1158.75 536.315 1161.83 539.269C1144.43 522.654 1178.61 516.731 1174.09 539.847ZM1125.06 537.543C1121.87 545.773 1113.56 538.146 1111.7 534.45C1108.05 527.191 1128.99 527.405 1125.06 537.543ZM1221.83 410.031C1220.41 405.868 1208.94 418.354 1212.61 417.716C1204.09 420.186 1193.32 414.104 1191.31 409.211C1188.08 401.276 1219.54 402.152 1221.84 410.008L1221.83 410.031ZM1181.04 392.773C1180.33 393.909 1162.26 395.03 1156.74 395.219C1156.57 395.535 1156.07 395.57 1155.12 395.24C1155.21 395.276 1155.81 395.28 1156.74 395.219C1157.94 393.171 1143.33 378.687 1145.66 387.425C1145.9 388.291 1139.89 385.148 1140.94 383.513C1148.34 371.715 1191.53 375.819 1181.05 392.79L1181.04 392.773ZM964.785 419.461C963.456 419.518 956.731 414.207 957.838 410.55C959.888 403.808 980.634 418.886 964.785 419.461ZM540.132 592.369C535.053 590.155 526.15 590.836 530.969 578.444C537.465 561.57 560.788 601.417 540.132 592.369ZM1007.01 331.767C1007.43 331.782 999.829 326.089 1002.57 321.73C1007.71 313.493 1019.7 332.373 1007.01 331.767Z" fill="#171717"/>
<path fill-rule="evenodd" clip-rule="evenodd" d="M529.634 769.885C529.831 769.609 531.263 768.532 532.965 767.285C532.669 766.615 531.695 766.998 529.634 769.885Z" fill="#171717"/>
<path fill-rule="evenodd" clip-rule="evenodd" d="M526.275 790.74C516.928 785.074 498.582 817.007 511.644 821.881C520.034 825.02 538.165 797.932 526.275 790.74Z" fill="#171717"/>
<path fill-rule="evenodd" clip-rule="evenodd" d="M596.478 923.7C592.277 924.019 596.89 933.227 596.692 932.937C602.275 942.23 600.328 923.399 596.478 923.7Z" fill="#171717"/>
<path fill-rule="evenodd" clip-rule="evenodd" d="M587.359 928.542C587.439 928.748 587.755 930.603 588.94 930.054C592.611 928.336 585.441 922.089 587.359 928.542Z" fill="#171717"/>
<path fill-rule="evenodd" clip-rule="evenodd" d="M627.511 933.721C627.921 940.311 633.167 932.062 632.833 931.277C631.085 927.326 627.239 929.469 627.511 933.721Z" fill="#171717"/>
<path fill-rule="evenodd" clip-rule="evenodd" d="M533.897 945.251C533.899 945.551 534.674 949.056 536.302 949.036C543.313 948.884 533.674 936.564 533.897 945.251Z" fill="#171717"/>
<path fill-rule="evenodd" clip-rule="evenodd" d="M603.282 949.696C597.856 950.061 599.74 955.724 600.387 957.471C603.74 966.407 610.433 949.245 603.282 949.696Z" fill="#171717"/>
<path fill-rule="evenodd" clip-rule="evenodd" d="M514.916 955.738C513.576 955.764 512.712 959.333 512.702 959.645C512.785 966.556 522.001 955.575 514.916 955.738Z" fill="#171717"/>
<path fill-rule="evenodd" clip-rule="evenodd" d="M595.764 1052.23C595.817 1054.39 595.483 1056.86 598.968 1056.77C604.531 1056.63 595.61 1045.36 595.764 1052.23Z" fill="#171717"/>
<path fill-rule="evenodd" clip-rule="evenodd" d="M646.146 1067.16C643.465 1068.1 644.209 1069.84 644.729 1071.82C647.101 1080.77 652.821 1064.82 646.146 1067.16Z" fill="#171717"/>
</svg>
