<svg width="1074" height="914" viewBox="0 0 1074 914" fill="none" xmlns="http://www.w3.org/2000/svg">
<path fill-rule="evenodd" clip-rule="evenodd" d="M438.184 52.5039C434.738 50.3795 429.074 53.9357 428.09 55.029C409.702 75.5051 454.079 62.2185 438.184 52.5039Z" fill="#171717"/>
<path fill-rule="evenodd" clip-rule="evenodd" d="M498.765 188.831C509.89 191.833 519.353 170.895 501.287 171.157C496.548 171.219 495.302 173.051 493.703 176.207C496.934 169.91 502.151 189.739 498.765 188.831Z" fill="#171717"/>
<path fill-rule="evenodd" clip-rule="evenodd" d="M395.286 118.147C421.644 113.067 419.414 45.5568 377.637 62.615C342.649 76.9022 372.498 122.519 395.286 118.147Z" fill="#171717"/>
<path fill-rule="evenodd" clip-rule="evenodd" d="M1063.99 494.324C1069.46 486.735 1081.6 464.734 1066.51 451.418C1046.52 433.803 1028.49 459.067 1010.99 458.99C1000.55 458.96 986.607 449.986 983.238 446.353C982.898 445.966 978.404 428.109 973.143 426.153C957.816 420.44 939.351 443.718 920.164 438.777C913.903 437.161 911.965 423.105 910.057 438.777C908.501 451.895 904.178 436.73 894.948 436.236C879.976 435.436 884.467 445.845 877.265 443.825C879.267 444.38 879.59 433.665 877.265 431.201C878.804 432.835 857.894 424.09 857.094 423.643C857.034 423.612 856.97 423.565 856.909 423.535C821.905 403.89 887.978 416.776 894.948 408.495C898.686 404.028 865.942 395.932 867.188 393.36C869.896 387.68 881.636 399.289 894.948 393.36C903.856 389.374 888.747 387.432 902.502 385.785C935.69 381.752 920.026 386.356 912.596 368.113C907.255 354.871 935.337 323.942 925.213 307.499C918.213 296.122 904.917 305.621 897.453 299.925C892.821 296.399 884.944 275.707 892.408 269.626C910.547 254.831 906.839 252.707 915.102 229.228C928.367 191.571 1005.66 120.597 1028.38 81.7235C1037.46 66.2049 1011.04 44.9128 984.883 73.2713C983.422 74.8264 980.99 75.0728 979.065 76.0424C966.728 88.2511 953.802 100.121 940.352 110.56C926.55 121.275 901.269 136.778 884.823 150.973C872.667 161.503 865.835 171.618 854.555 171.172C853.248 171.141 850.846 166.214 852.032 166.122C843.047 166.923 842.539 175.19 834.353 171.172C829.244 168.678 826.322 150.911 829.305 153.498C818.243 143.968 800.531 152.712 796.517 161.072C797.131 159.794 798.515 183.273 798.918 188.03C799.362 186.182 808.888 198.899 806.594 201.47C800.947 207.736 793.268 191.171 791.468 201.47C791.854 199.161 801.287 205.873 801.549 206.52C801.455 206.227 801.979 223.855 793.994 226.703C773.635 233.955 778.405 205.304 776.345 201.455C773.205 195.62 763.897 197.652 763.725 188.815C763.772 190.124 767.373 186.721 769.668 184.042C767.142 183.35 766.759 182.426 771.297 181.24C772.006 181.04 771.099 182.395 769.668 184.042C774.837 185.536 789.117 186.09 788.962 186.29C797.162 175.898 752.849 139.18 766.251 163.566C772.174 174.374 767.897 165.814 763.725 173.666C761.25 178.3 760.128 199.207 757.279 206.859C753.265 202.24 758.71 197.375 755.973 195.158C753.463 193.141 750.894 199.069 747.37 198.022C744.864 197.267 743.786 190.201 742.553 189.846C740.571 189.246 737.4 193.249 735.153 193.48C732.231 193.772 721.304 188.723 720.534 187.368C720.551 187.383 720.534 183.319 720.444 180.07C719.151 179.824 716.151 175.513 717.827 174.636C713.521 176.884 716.981 184.92 711.321 187.291C703.396 190.601 692.409 189.585 690.918 187.553C683.178 176.976 695.241 179.701 695.116 178.469C694.733 174.667 680.239 170.694 674.451 172.65C669.96 174.158 670.205 177.53 667.451 178.238C665.59 178.716 660.82 176.745 659.974 176.76C648.14 177.099 647.172 188.538 644.233 189.339C641.002 190.216 633.632 183.581 632.722 178.485C632.214 175.544 634.969 174.266 634.814 173.928C633.662 171.279 630.706 171.295 628.677 169.109C625.631 165.829 625.536 159.317 622.829 156.022C622.292 155.391 618.597 157.639 617.935 157.069C613.676 153.421 615.735 148.51 611.519 146.154C610.337 145.492 596.195 142.752 594.411 142.644C583.656 141.951 565.96 150.726 562.668 161.703C562.08 163.659 564.035 166.507 562.943 167.785C561.835 169.078 557.344 167.97 556.296 170.233C555.728 171.464 558.526 174.189 556.988 178.269C555.819 181.348 550.542 181.902 550.004 183.858C549.081 187.26 556.403 185.798 553.635 191.263C553.279 191.971 546.786 192.433 547.404 195.666C547.586 196.682 555.849 198.376 556.282 198.899C558.943 201.963 557.636 215.234 559.467 218.698C562.329 224.071 577.347 231.322 589.856 231.645C595.194 231.784 600.904 234.34 603.625 233.832C606.457 233.308 627.199 220.976 630.615 226.026C633.786 230.722 624.277 229.213 623.044 233.785C622.399 236.233 625.97 239.374 626.537 245.332C627.767 258.264 618.506 259.742 619.843 266.655C598.042 266.347 575.13 265.67 553.787 264.73C540.895 264.161 528.553 263.514 517.384 262.806C517.166 262.806 516.938 262.775 516.723 262.76C515.09 262.652 513.474 262.544 511.889 262.437C511.644 262.421 511.382 262.406 511.136 262.39C509.521 262.283 507.919 262.159 506.367 262.052C474.378 259.712 446.525 261.775 438.248 249.427C437.586 248.442 439.125 239.574 438.248 239.343C435.416 238.543 423.985 252.737 428.154 251.952C414.089 254.569 416.908 239.02 402.934 231.753C379.394 219.545 367.838 233.139 362.545 211.554C355.235 181.749 338.91 226.965 342.357 224.194C324.755 238.404 302.642 218.436 286.841 224.194C285.796 224.564 287.61 233.185 286.841 234.294C286.196 235.187 268.578 246.81 266.653 246.918C260.993 247.21 254.267 237.465 246.482 239.343C245.451 239.589 253.436 247.641 243.943 251.952C237.342 254.954 236.172 243.177 231.341 251.952C228.817 256.509 236.372 257.51 236.372 264.592C236.403 274.43 228.51 271.52 228.787 277.201C228.787 276.693 246.558 281.743 238.896 289.841C229.125 300.202 223.94 283.96 218.708 284.791C212.507 285.776 218.2 292.751 208.63 294.89C187.75 299.555 177.548 278.032 165.731 289.841C161.946 293.643 172.486 300.371 178.364 305.005C208.645 328.761 163.915 325.404 153.114 335.304C137.773 349.328 168.547 350.33 173.317 350.438C181.195 350.639 212.446 368.496 211.153 373.148C206.583 389.727 157.284 375.887 145.544 383.261C139.143 387.28 149.729 395.854 140.512 395.871C130.449 395.901 119.109 373.07 110.246 373.148C108.43 373.148 103.522 387.001 90.0276 388.312C77.8412 389.495 84.1808 396.194 72.379 398.378C62.4852 400.227 71.979 393.176 62.285 390.819C45.7134 386.803 42.3284 410.71 42.0977 423.643C42.1131 422.258 50.0372 426.352 49.6526 431.201C49.0526 439.039 32.8501 440.024 26.957 451.418C19.3866 466.041 19.4941 481.068 9.30806 486.765C-12.3721 498.881 9.26205 485.209 19.4021 494.324C27.0339 501.207 18.3403 519.867 16.8784 517.064C25.8337 534.091 40.5589 523.221 52.2068 522.112C89.8583 518.496 58.069 546.607 47.1598 539.771C45.3442 538.648 49.0677 528.317 44.6364 529.671C39.1739 531.365 19.171 543.838 29.5112 557.463C35.4504 565.284 63.0851 547.131 77.4412 547.346C88.2735 547.515 78.8261 554.936 90.0585 549.871C81.3494 553.766 111.246 532.521 105.184 524.623C97.7672 514.91 80.4264 531.567 74.9178 524.623C73.9948 523.437 78.2877 501.392 97.6289 496.834C95.2748 497.402 101.583 504.269 102.676 504.41C116.401 506.578 144.574 480.47 143.051 494.31C141.297 510.49 94.2436 505.701 105.184 522.099C106.246 523.668 118.586 524.855 122.863 524.623C144.805 523.406 157.514 503.946 168.27 496.834C176.779 491.245 212.246 486.456 193.505 501.899C196.012 499.836 183.149 497.295 179.456 496.512C169.101 496.31 188.842 505.27 188.473 506.948C188.35 507.502 181.857 512.292 180.903 509.458C183.626 517.541 190.72 509.166 190.996 519.571C191.443 537.062 138.266 523.685 165.747 542.281C167.747 543.636 168.962 535.045 170.809 534.723C197.751 529.873 174.779 574.842 175.856 577.646C180.764 590.222 202.013 580.432 175.856 597.845C148.406 616.135 172.055 598.769 196.043 602.88C208.876 605.095 216.262 604.093 206.122 592.78C191.073 575.968 218.555 577.585 228.817 565.005C236.142 556.122 228.202 547.562 238.927 544.806C242.512 543.881 274.023 562.941 274.255 565.005C274.839 569.687 262.622 575.535 264.177 577.646C268.961 584.267 286.011 587.298 289.394 577.646C289.273 577.998 281.457 566.608 279.995 565.576C280.271 566.806 280.855 568.285 281.826 570.07C279.78 566.269 279.424 565.19 279.995 565.576C279.24 562.326 280.734 560.77 284.332 559.957C285.41 559.708 287.718 567.929 287.95 571.532C291.151 573.226 297.258 577.723 296.982 577.646C297.489 577.8 297.98 577.938 298.457 578.076C303.26 579.46 306.613 580.186 308.813 580.509C317.153 581.726 310.059 577.276 308.813 580.509C308.49 581.403 308.584 582.879 309.569 585.221C312.985 593.21 323.448 580.385 319.676 592.793C316.045 604.681 299.26 588.76 291.903 590.253C284.55 591.795 256.068 619.614 259.099 628.127C259.176 628.329 274.224 630.789 279.102 629.159C278.749 626.679 278.749 625.096 279.303 625.617C281.272 627.512 280.808 628.605 279.102 629.159C279.918 635.579 282.827 648.017 284.147 646.233C281.903 650.898 269.764 650.911 264.161 663.491C254.698 684.615 268.87 695.683 246.497 703.89C223.386 712.34 253.775 707.046 259.099 713.987C264.547 721.024 241.019 745.442 259.099 734.203C265.346 730.307 271.917 739.762 269.193 749.351C267.778 754.372 258.329 757.235 256.591 764.502C257.175 761.991 264.362 767.271 264.161 767.009C272.239 776.911 257.345 776.648 254.067 779.65C255.129 778.665 256.591 781.821 256.668 783.838C256.698 783.975 256.698 784.268 256.591 784.685C256.652 784.439 256.668 784.16 256.668 783.838C256.021 782.144 246.374 793.121 242.696 793.292C247.42 801.711 263.7 819.911 264.161 820.049C276.317 823.544 296.136 808.487 296.965 807.438C295.504 809.347 289.411 806.07 289.381 804.897C288.719 782.036 301.645 798.817 317.137 792.274C317.939 791.951 321.648 782.53 322.185 782.174C333.388 774.83 377.026 791.951 397.872 779.667C405.443 775.2 407.536 746.427 410.492 744.316C419.706 737.728 435.077 750.262 429.017 749.522C436.387 750.752 435.541 743.361 438.248 744.316C439.403 744.719 437.126 766.149 448.342 756.926C462.806 745.086 472.5 741.1 478.637 746.843C479.531 747.69 471.113 759.081 476.115 759.467C478.207 759.605 486.226 747.458 488.748 746.843C498.98 744.316 511.583 756.866 519 756.926C517.29 756.926 522.984 749.707 524.045 749.368C531.445 746.921 551.22 747.227 554.341 754.416C553.756 753.091 549.558 761.222 549.312 761.931C550.219 760.882 572.393 748.121 577.055 751.892C579.87 754.157 555.127 771.399 564.452 774.632C576.793 778.897 570.421 767.103 577.055 762.008C584.253 756.432 618.751 748.336 626.275 755.142C626.739 755.357 627.169 755.925 627.522 756.943C632.678 746.04 635.583 772.215 632.57 772.108C650.095 772.706 637.968 760.838 655.281 756.943C649.309 758.281 652.681 768.135 650.219 767.043C668.19 775.109 663.958 749.613 672.943 756.943C680.776 763.346 660.511 779.559 660.343 779.68C642.154 791.242 678.714 775.818 688.593 774.555C689.053 774.245 689.715 774.215 690.608 774.645C690.192 774.447 689.517 774.447 688.593 774.555C685.792 776.511 689.856 789.474 692.009 791.259C692.731 790.059 693.161 789.457 693.131 789.766C693.01 791.427 692.594 791.753 692.009 791.259C688.717 796.861 679.638 815.568 683.054 817.538C692.056 822.741 700.87 804.205 704.273 794.737C701.317 799.17 695.056 795.537 693.38 794.707C693.255 794.831 693.178 794.875 693.131 794.831C692.792 794.475 692.933 794.505 693.38 794.707C695.425 792.721 708.502 766.824 713.336 774.645C716.967 780.514 705.318 793.984 705.748 802.404C705.842 804.145 713.873 822.697 715.55 826.838C715.58 825.006 723.967 829.13 720.904 830.162C745.741 821.88 690.256 895.378 720.904 878.119C727.921 874.18 727.122 881.06 726.137 882.879C728.183 879.276 735.415 851.564 743.601 842.772C744.478 841.818 745.277 841.418 745.926 841.28C745.355 841.078 744.616 840.786 743.601 840.262C730.259 833.318 750.296 817.632 753.695 820.049C756.094 821.756 753.85 843.464 753.695 842.755C754.542 846.358 761.68 852.364 763.789 860.431C770.514 886.404 761.666 914.361 783.977 898.305C799.318 887.251 793.823 917.47 806.671 913.47C806.564 913.5 814.703 905.602 811.72 895.778C810.104 890.451 795.284 888.881 794.055 885.712C790.454 876.426 802.671 885.833 794.055 873.071C794.501 873.747 788.653 886.125 786.483 883.171C785.331 881.568 804.132 847.854 804.256 841.061C803.319 841.525 794.884 833.119 791.532 837.737C792.808 835.953 795.808 886.004 783.96 873.071C777.914 866.467 791.408 862.726 789.009 857.92C787.793 855.504 782.267 861.57 781.545 862.756C781.559 862.972 781.559 863.062 781.438 862.972C781.408 862.941 781.468 862.877 781.545 862.756C781.253 860.955 776.238 848.546 776.406 840.262C776.453 837.553 783.5 832.212 781.438 827.624C780.561 825.668 769.745 830.501 771.344 820.049C772.422 812.937 783.544 809.872 786.47 802.373C791.562 789.366 803.379 761.067 811.703 761.991C825.922 763.5 808.871 771.244 810.087 779.005C811.428 777.542 821.827 782.328 821.797 782.174C822.012 783.713 806.164 797.046 816.752 797.325C826.52 797.587 830.937 755.387 841.968 767.009C844.938 770.122 835.2 784.053 839.462 784.685C858.602 787.642 874.914 746.534 888.421 746.642C888.592 746.551 889.069 746.595 889.916 746.813C889.422 746.672 888.945 746.642 888.421 746.642C887.114 747.274 902.425 755.478 895.855 759.037C918.364 749.088 907.5 699.131 925.26 688.726C925.519 688.571 928.152 693.343 930.288 688.726C928.935 691.65 929.506 681.627 928.32 675.621C929.536 683.382 917.027 677.486 917.672 676.098C920.967 669.017 936.63 677.53 942.892 665.999C944.061 663.922 936.708 654.639 937.86 655.902C924.088 640.889 934.783 654.346 930.275 658.426C919.949 667.834 924.242 652.683 917.672 660.951C916.748 662.137 916.026 663.367 915.441 664.691C915.949 666.355 916.043 667.864 915.149 668.54C914.84 668.771 914.487 668.862 914.104 668.939C910.826 685.028 923.211 706.999 907.578 706.428C909.486 706.505 897.716 694.419 897.484 693.791C893.685 684.212 902.395 697.131 905.055 686.228C906.671 679.641 893.775 662.49 892.438 663.505C900.792 657.149 909.378 669.665 914.104 668.956C914.427 667.494 914.857 666.076 915.441 664.722C914.595 661.875 912.579 658.581 912.61 658.457C913.134 656.195 917.981 649.957 922.119 645.54C922.243 645.416 922.351 645.292 922.458 645.171C922.704 644.922 922.935 644.677 923.167 644.431C923.335 644.263 923.49 644.092 923.658 643.937C923.842 643.752 924.027 643.568 924.212 643.4C924.366 643.245 924.521 643.107 924.672 642.969C924.968 642.69 925.26 642.428 925.535 642.2C925.626 642.122 925.703 642.058 925.797 641.985C925.996 641.813 926.18 641.659 926.365 641.521C926.459 641.46 926.536 641.4 926.627 641.336C926.798 641.228 926.936 641.121 927.091 641.043C927.151 641.013 927.228 640.966 927.275 640.936C927.46 640.845 927.628 640.781 927.752 640.781C933.721 640.519 933.923 652.252 942.892 653.392C936.815 652.622 960.265 637.535 965.619 650.851C966.449 652.914 942.445 674.482 958.048 676.115C956.939 676.008 974.588 656.78 973.466 655.933C976.113 656.195 995.639 660.813 993.375 658.44C996.392 661.596 993.039 678.592 993.375 678.639C1018.13 681.567 996.885 657.21 998.424 653.392C999.761 650.111 1023.61 634.715 1026.18 623.123C1026.92 619.769 1018.06 608.59 1018.63 602.893C1018.69 602.184 1027.4 595.472 1028.72 592.793C1035.53 579.03 1045.23 546.762 1046.38 544.822C1046.83 544.053 1053.72 545.605 1053.94 544.822C1054.52 542.728 1049.05 536.37 1048.91 534.736C1048.09 525.238 1058.65 501.805 1064.03 494.324H1063.99ZM69.7633 441.331C61.3774 439.53 62.0082 430.939 67.2397 426.184C76.7643 417.516 80.5802 443.61 69.7633 441.331ZM110.169 423.643C107.692 421.166 112.123 415.808 115.201 413.543C129.803 402.751 119.894 433.359 110.169 423.643ZM173.24 438.794C159.376 432.22 170.27 443.257 163.131 451.418C145.728 471.278 118.832 446.275 140.42 431.201C139.235 432.048 179.133 423.797 178.271 423.643C185.565 424.997 186.442 445.059 173.224 438.794H173.24ZM203.506 403.43C200.69 410.787 187.15 415.408 175.764 413.543C175.163 413.452 176.364 406.371 175.764 405.971C174.086 404.845 156.238 400.395 153.037 395.871C150.59 392.406 154.791 389.095 155.56 388.312C170.24 373.625 207.122 394.022 203.506 403.43ZM370.052 744.302C345.128 752.631 348.557 777.926 304.443 779.65C297.15 779.912 297.906 786.147 291.826 782.16C276.425 772.044 347.358 758.929 352.39 751.861C352.665 751.475 354.513 752.123 354.913 751.861C362.639 746.595 349.696 741.637 359.961 736.697C367.56 733.063 385.44 739.143 370.039 744.286L370.052 744.302ZM443.233 734.203C434.355 734.556 429.83 742.192 425.571 741.778C414.708 740.7 424.325 732.801 417.983 731.662C412.615 730.677 414.046 736.542 412.937 736.713C402.628 738.253 386.841 750.998 380.133 741.778C376.33 736.495 388.702 729.198 396.256 725.273C393.811 725.612 391.748 726.073 390.21 726.614C405.86 720.947 402.968 721.777 396.256 725.273C419.568 721.962 480.424 727.461 503.767 731.662C508.181 732.462 509.229 727.968 513.861 729.138C517.999 730.153 516.706 735.063 521.446 736.697C522.907 737.221 531.015 732.741 531.553 734.186C538.338 752.523 461.006 733.447 443.219 734.186L443.233 734.203ZM548.879 736.912C546.403 738.821 571.113 733.924 571.929 741.762C572.221 744.733 541.14 741.715 548.879 736.912ZM640.061 731.662C639.063 730.969 648.741 720.07 645.11 721.562C665.56 713.109 657.82 744.071 640.061 731.662ZM660.249 691.263C654.512 685.523 664.021 681.365 667.82 681.18C675.284 680.81 667.313 698.345 660.249 691.263ZM731.475 820.156C735.506 820.509 729.275 806.208 728.445 809.532C729.537 801.449 738.663 794.646 743.524 794.784C751.401 795.016 738.956 821.158 731.492 820.17L731.475 820.156ZM761.173 792.26C760.481 791.242 766.265 775.617 768.159 770.905C767.958 770.642 768.112 770.212 768.744 769.537C768.68 769.597 768.452 770.105 768.159 770.905C769.436 772.676 787.054 765.779 778.838 764.485C778.022 764.361 782.899 760.482 783.883 761.974C791.055 772.585 771.529 807.395 761.156 792.26H761.173ZM819.211 600.386C819.657 599.246 826.627 595.566 829.291 597.858C834.199 602.093 813.796 613.934 819.211 600.386ZM831.831 178.746C835.583 175.298 838.324 167.554 846.953 176.221C858.727 187.968 816.533 192.756 831.831 178.746ZM877.252 668.556C877.081 668.909 884.699 664.631 887.346 668.556C892.361 675.947 872.019 679.009 877.252 668.556Z" fill="#171717"/>
<path fill-rule="evenodd" clip-rule="evenodd" d="M476.219 6.14677C478.574 5.77727 480.267 3.14462 477.126 0.850683C472.05 -2.85964 472.081 6.80878 476.219 6.14677Z" fill="#171717"/>
<path fill-rule="evenodd" clip-rule="evenodd" d="M454.832 83.4004C456.018 79.4439 452.077 79.6593 449.86 79.336C438.507 77.6579 452.709 90.5442 454.832 83.4004Z" fill="#171717"/>
<path fill-rule="evenodd" clip-rule="evenodd" d="M471.482 79.8473C469.82 78.7698 468.113 77.2301 466.373 79.9243C463.589 84.2199 476.776 83.296 471.482 79.8473Z" fill="#171717"/>
<path fill-rule="evenodd" clip-rule="evenodd" d="M586.712 68.5459C587.387 67.5144 585.127 65.0048 584.895 64.8357C579.604 61.31 583.158 74.0111 586.712 68.5459Z" fill="#171717"/>
<path fill-rule="evenodd" clip-rule="evenodd" d="M468.016 102.075C468.755 109.834 477.126 118.471 484.926 118.933C486.111 119.01 489.343 117.178 490.791 117.686C494.56 119.01 496.189 123.829 499.528 125.045C501.221 125.661 511.53 126.446 513.639 124.075C519.887 117.07 502.067 111.482 498.5 105.801C495.036 100.351 497.052 94.8082 493.391 91.5444C484.835 83.8622 466.894 90.0511 468.016 102.075Z" fill="#171717"/>
<path fill-rule="evenodd" clip-rule="evenodd" d="M433.998 110.361C434.674 107.836 432.967 107.498 431.197 106.867C423.165 104.018 432.305 116.643 433.998 110.361Z" fill="#171717"/>
<path fill-rule="evenodd" clip-rule="evenodd" d="M584.821 88.406C584.593 88.2521 581.529 87.0203 580.7 88.2675C577.176 93.6713 591.533 92.7474 584.821 88.406Z" fill="#171717"/>
<path fill-rule="evenodd" clip-rule="evenodd" d="M515.658 128.756C513.612 131.004 505.675 127.956 502.517 129.511C487.193 137.101 506.226 155.313 514.875 158.608C522.151 161.379 532.614 163.658 533.938 161.703C536.138 158.454 530.23 158.655 528.352 154.713C527.032 151.896 525.893 141.596 523.831 138.271C522.168 135.592 518.738 136.054 519.43 132.051C519.89 129.449 530.492 130.373 527.754 123.106C525.537 117.256 513.921 123.876 513.629 124.076C512.091 125.107 516.427 127.909 515.644 128.756H515.658Z" fill="#171717"/>
<path fill-rule="evenodd" clip-rule="evenodd" d="M569.759 137.686C569.561 137.64 567.989 136.917 567.791 138.102C567.189 141.782 575.654 139.58 569.759 137.686Z" fill="#171717"/>
<path fill-rule="evenodd" clip-rule="evenodd" d="M544.986 165.492C539.769 162.382 543.31 170.649 544.079 170.803C547.985 171.527 548.355 167.493 544.986 165.492Z" fill="#171717"/>
<path fill-rule="evenodd" clip-rule="evenodd" d="M545.433 138.794C547.972 134.484 542.695 132.975 541.032 132.559C532.507 130.465 542.063 144.46 545.433 138.794Z" fill="#171717"/>
<path fill-rule="evenodd" clip-rule="evenodd" d="M568.701 147.125C570.639 143.768 561.254 142.491 561.576 142.491C551.624 141.906 566.931 150.204 568.701 147.125Z" fill="#171717"/>
</svg>
