<svg width="3716" height="1710" viewBox="0 0 3716 1710" fill="none" xmlns="http://www.w3.org/2000/svg">
<path fill-rule="evenodd" clip-rule="evenodd" d="M1495.49 1174.97C1498.83 1177.12 1493.4 1180.78 1491.72 1181.42C1460.25 1193.47 1480.19 1165.06 1495.49 1174.97Z" fill="#171717"/>
<path fill-rule="evenodd" clip-rule="evenodd" d="M1360.87 944.296C1365.6 942.267 1381.31 945.313 1372.73 948.953C1368.15 950.912 1354.4 947.052 1360.87 944.296Z" fill="#171717"/>
<path fill-rule="evenodd" clip-rule="evenodd" d="M1321.07 917.535C1322.64 917.391 1344.62 923.077 1332.96 923.802C1320.59 924.565 1313.13 918.246 1321.07 917.535Z" fill="#171717"/>
<path fill-rule="evenodd" clip-rule="evenodd" d="M1283.23 1139.04C1278.41 1132.03 1310.73 1125.64 1310.59 1137.11C1310.57 1140.12 1307.75 1140.94 1302.88 1142.02C1312.59 1139.85 1281.77 1136.9 1283.23 1139.04Z" fill="#171717"/>
<path fill-rule="evenodd" clip-rule="evenodd" d="M1233.61 694.317C1226.95 702.348 1208.59 705.505 1202.38 699.485C1193.39 690.761 1179.45 701.075 1174.97 698.218C1138.27 674.86 1256.01 667.276 1233.61 694.317Z" fill="#171717"/>
<path fill-rule="evenodd" clip-rule="evenodd" d="M1137.94 788.356C1129.17 792.045 1121.08 791.107 1118.38 790.192C1097.71 783.13 1163.47 777.612 1137.94 788.356Z" fill="#171717"/>
<path fill-rule="evenodd" clip-rule="evenodd" d="M1019.92 1430.52C1024.14 1430.38 1034.66 1437.19 1035.73 1436.74C1016.51 1444.8 1003.22 1431.09 1019.92 1430.52Z" fill="#171717"/>
<path fill-rule="evenodd" clip-rule="evenodd" d="M840.8 1472.7C833.71 1475.71 829.23 1464.2 840.65 1466.3C848.37 1467.72 845.79 1470.58 840.8 1472.7Z" fill="#171717"/>
<path fill-rule="evenodd" clip-rule="evenodd" d="M826.03 1509.71C810.34 1511.74 811.24 1506.27 814.15 1505.03C818.59 1503.14 841.33 1507.71 826.03 1509.71Z" fill="#171717"/>
<path fill-rule="evenodd" clip-rule="evenodd" d="M786.29 1486.15C786.01 1487.18 785.09 1493.62 778.58 1491.05C770.6 1487.9 788.31 1478.48 786.29 1486.15Z" fill="#171717"/>
<path fill-rule="evenodd" clip-rule="evenodd" d="M753.57 760.887C736.61 765.502 695.02 753.437 710.2 746.985C719.72 742.925 768.57 756.81 753.57 760.887Z" fill="#171717"/>
<path fill-rule="evenodd" clip-rule="evenodd" d="M736.8 1379.41C721.22 1400.08 692.05 1367.94 724.82 1368.35C741.48 1368.56 744.67 1369.01 736.8 1379.41Z" fill="#171717"/>
<path fill-rule="evenodd" clip-rule="evenodd" d="M702.93 1437.49C704.57 1444.59 658.34 1459.46 648.49 1452.56C644.36 1449.67 700.64 1427.73 702.93 1437.49Z" fill="#171717"/>
<path fill-rule="evenodd" clip-rule="evenodd" d="M690.01 1387.98C702.71 1389.55 693.26 1396.19 690.28 1399.19C675.8 1413.81 671.58 1385.68 690.01 1387.98Z" fill="#171717"/>
<path fill-rule="evenodd" clip-rule="evenodd" d="M680.45 1314.42C680.6 1315.48 674.45 1323.16 668.89 1320.95C659.73 1317.38 679.8 1308.85 680.45 1314.42Z" fill="#171717"/>
<path fill-rule="evenodd" clip-rule="evenodd" d="M656.96 1314.7C653.6 1317 624.7 1321.59 625.75 1318.28C626.28 1316.56 665.02 1309.19 656.96 1314.7Z" fill="#171717"/>
<path fill-rule="evenodd" clip-rule="evenodd" d="M601.709 797.936C607.739 795.402 632.23 797.904 617.55 804.165C605.51 809.28 595.029 800.79 601.709 797.936Z" fill="#171717"/>
<path fill-rule="evenodd" clip-rule="evenodd" d="M595.19 1350.66C573.49 1358.82 586.31 1334.49 598.84 1339.41C609.61 1343.64 598.57 1349.39 595.19 1350.66Z" fill="#171717"/>
<path fill-rule="evenodd" clip-rule="evenodd" d="M566.77 809.566C556.79 813.826 547.96 809.487 554.97 806.493C561.97 803.527 570.72 807.896 566.77 809.566Z" fill="#171717"/>
<path fill-rule="evenodd" clip-rule="evenodd" d="M569.971 779.09C573.561 780.728 568.041 785.248 566.201 785.551C551.741 787.96 561.331 775.139 569.971 779.09Z" fill="#171717"/>
<path fill-rule="evenodd" clip-rule="evenodd" d="M557.59 1416.79C556.4 1418.17 555.61 1418.95 553.75 1420.04C528.43 1434.68 575.4 1395.44 557.59 1416.79Z" fill="#171717"/>
<path fill-rule="evenodd" clip-rule="evenodd" d="M542.86 790.625C532.84 794.896 524.04 790.527 531.01 787.571C540.45 783.572 547.18 788.787 542.86 790.625Z" fill="#171717"/>
<path fill-rule="evenodd" clip-rule="evenodd" d="M529.21 1375.48C531.6 1375.87 526.53 1382.4 529.47 1386.69C532.31 1390.8 543.04 1388.82 537.53 1396.21C522.13 1416.76 510.27 1372.47 529.21 1375.49V1375.48Z" fill="#171717"/>
<path fill-rule="evenodd" clip-rule="evenodd" d="M534.66 1441.09C534.19 1442.41 526.83 1452.3 519.19 1449.29C511.63 1446.3 538.04 1431.46 534.66 1441.09Z" fill="#171717"/>
<path fill-rule="evenodd" clip-rule="evenodd" d="M531.61 1311.37C534.4 1311.07 531.95 1314.43 531.69 1314.58C524.06 1318.43 514.24 1325.84 496.65 1322.99C492.79 1322.38 535.02 1311.01 531.61 1311.37Z" fill="#171717"/>
<path fill-rule="evenodd" clip-rule="evenodd" d="M532.97 1369.02C535.55 1370.05 529.51 1372.12 529.13 1372.28C510.03 1380.39 519 1363.52 532.97 1369.02Z" fill="#171717"/>
<path fill-rule="evenodd" clip-rule="evenodd" d="M466 852.413C475.79 847.424 521.54 847.895 509.17 856.706C501.96 861.822 499.23 852.225 497.29 852.041C492.24 851.574 452.39 859.345 465.97 852.413H466Z" fill="#171717"/>
<path fill-rule="evenodd" clip-rule="evenodd" d="M503.5 1447.87C496.53 1450.83 486.19 1443.89 487.71 1443.24C492.34 1441.27 513.33 1443.67 503.5 1447.87Z" fill="#171717"/>
<path fill-rule="evenodd" clip-rule="evenodd" d="M491.28 866.315C490.87 866.397 490.42 866.48 489.82 866.555C490.35 866.492 490.83 866.408 491.28 866.315Z" fill="#171717"/>
<path fill-rule="evenodd" clip-rule="evenodd" d="M491.94 866.155C496.99 864.589 474.11 862.049 473.99 860.34C473.38 849.446 504.54 862.909 491.94 866.155Z" fill="#171717"/>
<path fill-rule="evenodd" clip-rule="evenodd" d="M491.19 1423.99C490.33 1425.91 476.59 1435.68 471.85 1433.83C462.04 1429.96 495.1 1415.27 491.19 1423.99Z" fill="#171717"/>
<path fill-rule="evenodd" clip-rule="evenodd" d="M469.8 847.572C463.13 859.373 413.36 846.532 438.33 841.538C454.21 838.351 469.36 848.319 469.8 847.572Z" fill="#171717"/>
<path fill-rule="evenodd" clip-rule="evenodd" d="M429.79 874.372C430.57 874.9 431.27 875.252 431.27 875.252C442.03 866.949 435.78 869.797 429.79 874.372C427.76 872.959 425.33 870.214 435.06 868.791C493.09 860.275 429.69 888.029 423.63 883.352C421.49 881.698 425.57 877.606 429.79 874.372Z" fill="#171717"/>
<path fill-rule="evenodd" clip-rule="evenodd" d="M455.36 1398.79C453.42 1401.75 445.39 1412.32 432.03 1407.07C421.7 1403 465.93 1382.49 455.36 1398.79Z" fill="#171717"/>
<path fill-rule="evenodd" clip-rule="evenodd" d="M435.21 708.606C429.21 709.283 417.72 703.099 423.3 700.739C430.72 697.563 447.81 707.215 435.21 708.606Z" fill="#171717"/>
<path fill-rule="evenodd" clip-rule="evenodd" d="M426.92 1355.87C436.4 1361.95 448.53 1347.84 442.65 1358.89C439.13 1365.5 398.05 1381.96 380.3 1372.45C378.92 1371.7 390.55 1358.54 391.75 1357.89C406.88 1349.59 419.29 1350.98 426.92 1355.87Z" fill="#171717"/>
<path fill-rule="evenodd" clip-rule="evenodd" d="M419 852.972C410.23 858.712 386.83 853.188 391.53 850.085C395.85 847.27 426.18 848.276 419 852.972Z" fill="#171717"/>
<path fill-rule="evenodd" clip-rule="evenodd" d="M404.44 1397.78C415.24 1393.19 436.58 1402.1 424.16 1403.96C422.4 1404.22 400.87 1399.31 404.44 1397.78Z" fill="#171717"/>
<path fill-rule="evenodd" clip-rule="evenodd" d="M398.51 813.169C397.09 813.45 383.941 813.743 382.851 813.355C367.811 808.132 419.69 809.224 398.51 813.169Z" fill="#171717"/>
<path fill-rule="evenodd" clip-rule="evenodd" d="M401.21 1428.26C399.02 1430.64 398.14 1436.54 389.61 1433.2C382.91 1430.58 407.92 1421.06 401.21 1428.26Z" fill="#171717"/>
<path fill-rule="evenodd" clip-rule="evenodd" d="M385.14 1076.04C377.57 1068.97 394.96 1069.01 400.61 1067.84C401.69 1067.99 402.6 1068.25 403.42 1068.6C405.78 1070.61 383.48 1074.49 385.14 1076.04Z" fill="#171717"/>
<path fill-rule="evenodd" clip-rule="evenodd" d="M685.82 710.439C686.9 710.778 686.99 717.428 682.09 718.493C676.01 719.806 671.76 715.686 666.4 717.087C664.57 717.558 647.79 725.62 650.8 718.865C649.67 721.38 675.89 707.382 685.82 710.439Z" fill="#171717"/>
<path fill-rule="evenodd" clip-rule="evenodd" d="M581.57 1381.1C576.05 1384.58 579.39 1398.93 583.85 1394.68C577.99 1401.23 561.54 1405.34 549.51 1407.27C547.89 1407.52 541.019 1412.67 545.629 1408.91C549.519 1405.77 568.5 1384.58 581.57 1381.1Z" fill="#171717"/>
<path fill-rule="evenodd" clip-rule="evenodd" d="M583.85 1394.68C584.04 1394.46 584.25 1394.25 584.43 1394.03C584.25 1394.29 584.04 1394.5 583.85 1394.68Z" fill="#171717"/>
<path fill-rule="evenodd" clip-rule="evenodd" d="M588.05 1381.18C586.17 1380.41 583.97 1380.46 581.57 1381.1C583.06 1380.16 585.16 1380 588.05 1381.18Z" fill="#171717"/>
<path fill-rule="evenodd" clip-rule="evenodd" d="M411.58 869.07C407.98 875.316 375.68 870.65 380.51 879.061C382 881.711 402.81 881.013 400.17 883.633C391.73 891.978 319.43 898.181 317.91 883.01C317.89 882.383 326.94 883.4 332.78 883.995C329.94 885.074 330.12 885.541 337.54 884.378C337.19 884.431 335.27 884.249 332.78 883.995C337.84 882.059 352.48 878.144 353.05 877.786C376.04 863.379 342.85 878.444 352.82 868.178C355.08 865.835 378.31 857.471 372.17 858.326C395.04 855.122 414.1 864.683 411.58 869.061V869.07Z" fill="#171717"/>
<path fill-rule="evenodd" clip-rule="evenodd" d="M342.02 908.342C343.77 901.387 392.09 904.386 392.83 904.544C392.52 904.471 393.13 902.949 392.8 902.943C372.09 901.86 409.57 901.611 404.61 906.005C406.37 904.462 340.84 913.171 342.02 908.353V908.342Z" fill="#171717"/>
<path fill-rule="evenodd" clip-rule="evenodd" d="M1394.36 1203.41C1401.84 1186.58 1506.54 1186.75 1480.71 1213.58C1459.09 1236.05 1387.92 1217.95 1394.36 1203.41Z" fill="#171717"/>
<path fill-rule="evenodd" clip-rule="evenodd" d="M1103.31 814.408C1106.23 817.891 1101.19 823.566 1099.68 825.665C1097.35 828.838 1090.03 840.609 1056.89 837.388C1041.05 835.858 1012.24 802.715 1016.8 797.816C1026.17 787.731 1100.85 811.449 1103.34 814.407L1103.31 814.408Z" fill="#171717"/>
<path fill-rule="evenodd" clip-rule="evenodd" d="M916.49 784.581C930.26 780.939 970.24 772.757 994.77 782.049C1027.22 794.351 981.37 806.345 981.77 817.445C981.99 824.075 998.57 832.727 1005.25 834.786C1005.96 834.993 1038.63 837.458 1042.27 840.754C1052.93 850.358 1010.72 862.581 1020.02 874.651C1023.07 878.59 1048.75 879.515 1020.17 881.066C996.25 882.338 1024 884.752 1025.04 890.6C1026.72 900.084 1007.66 897.459 1011.45 901.986C1010.41 900.728 1029.96 900.29 1034.49 901.712C1031.49 900.771 1047.76 913.852 1048.59 914.35C1048.65 914.387 1048.73 914.427 1048.79 914.465C1085.17 936.254 1060.66 894.601 1075.67 889.998C1083.77 887.528 1099.04 908.133 1103.71 907.286C1114.04 905.445 1092.68 898.246 1103.3 889.669C1110.44 883.929 1114.21 893.476 1117.01 884.71C1123.88 863.56 1115.71 873.601 1149.12 877.921C1173.37 881.023 1229.4 862.53 1259.56 868.598C1280.43 872.794 1263.29 881.438 1273.8 886.051C1280.31 888.914 1318.19 893.464 1329.18 888.595C1355.91 876.763 1359.85 879.07 1402.58 873.316C1471.11 864.08 1599.5 813.489 1670.12 798.224C1698.31 792.125 1737.56 808.429 1686.19 825.645C1683.38 826.606 1682.96 828.155 1681.22 829.398C1659.12 837.493 1637.65 845.954 1618.8 854.716C1599.45 863.708 1571.53 880.089 1545.86 890.834C1526.82 898.778 1508.46 903.333 1509.45 910.482C1509.52 911.311 1518.55 912.728 1518.7 911.974C1517.37 917.694 1502.29 918.195 1509.75 923.303C1514.38 926.491 1546.85 927.961 1542.08 926.124C1559.64 932.937 1543.95 944.368 1528.75 947.097C1531.07 946.679 1488.2 946.31 1479.51 946.157C1482.87 945.836 1459.52 940.066 1454.86 941.578C1443.51 945.298 1473.86 949.811 1455.09 951.178C1459.3 950.882 1446.9 945.042 1445.72 944.89C1446.25 944.943 1414.07 944.993 1408.99 950.122C1396.06 963.2 1448.29 959.551 1455.34 960.775C1466.04 962.641 1462.47 968.593 1478.6 968.51C1476.21 968.508 1482.37 966.149 1487.22 964.635C1488.52 966.223 1490.22 966.446 1492.31 963.54C1492.67 963.086 1490.21 963.691 1487.22 964.635C1484.42 961.386 1483.19 952.336 1482.83 952.438C1501.68 947.009 1569.36 974.335 1524.65 966.358C1504.83 962.835 1520.52 965.363 1506.25 968.181C1497.83 969.852 1459.69 971.018 1445.76 972.992C1454.25 975.439 1463.05 971.878 1467.14 973.567C1470.86 975.116 1460.08 976.876 1462.04 979.089C1463.45 980.663 1476.37 981.194 1477.03 981.969C1478.16 983.214 1470.9 985.313 1470.51 986.744C1470.02 988.605 1479.4 995.43 1481.89 995.889C1481.86 995.879 1489.28 995.801 1495.21 995.788C1495.68 996.604 1503.59 998.414 1505.17 997.331C1501.13 1000.11 1486.41 998.091 1482.16 1001.73C1476.24 1006.84 1478.26 1013.79 1481.99 1014.69C1501.41 1019.37 1496.26 1011.78 1498.51 1011.83C1505.45 1011.99 1512.92 1021.1 1509.44 1024.82C1506.75 1027.7 1500.59 1027.62 1499.34 1029.38C1498.5 1030.57 1502.17 1033.56 1502.15 1034.09C1501.71 1041.61 1480.85 1042.47 1479.43 1044.36C1477.87 1046.43 1490.1 1050.96 1499.41 1051.43C1504.79 1051.68 1507.08 1049.91 1507.7 1050C1512.55 1050.67 1512.56 1052.55 1516.59 1053.79C1522.62 1055.65 1534.5 1055.57 1540.56 1057.22C1541.72 1057.54 1537.67 1059.94 1538.72 1060.35C1545.44 1062.97 1554.38 1061.56 1558.74 1064.18C1559.96 1064.92 1565.18 1073.83 1565.4 1074.96C1566.83 1081.77 1551.07 1093.19 1531.09 1095.52C1527.53 1095.94 1522.3 1094.76 1519.98 1095.48C1517.64 1096.21 1519.73 1099.04 1515.61 1099.75C1513.37 1100.14 1508.36 1098.42 1500.94 1099.49C1495.33 1100.29 1494.4 1103.66 1490.84 1104.04C1484.64 1104.7 1487.2 1100.02 1477.27 1101.9C1475.98 1102.14 1475.24 1106.27 1469.33 1105.95C1467.47 1105.85 1464.25 1100.64 1463.29 1100.38C1457.66 1098.76 1433.46 1099.88 1427.11 1098.79C1417.26 1097.09 1403.8 1087.72 1403.02 1079.78C1402.69 1076.4 1397.94 1072.83 1398.82 1071.09C1399.74 1069.28 1421.94 1055.85 1412.67 1053.79C1404.05 1051.88 1406.95 1057.89 1398.62 1058.77C1394.16 1059.23 1388.37 1057.03 1377.49 1056.8C1353.87 1056.3 1351.31 1062.21 1338.67 1061.51C1339.56 1075.34 1341.14 1089.87 1343.17 1103.39C1344.4 1111.56 1345.77 1119.38 1347.23 1126.45C1347.23 1126.59 1347.29 1126.74 1347.32 1126.87C1347.54 1127.91 1347.76 1128.93 1347.98 1129.93C1348.02 1130.09 1348.05 1130.26 1348.08 1130.41C1348.3 1131.43 1348.55 1132.45 1348.77 1133.43C1353.52 1153.68 1350.17 1171.4 1372.83 1176.39C1374.64 1176.79 1390.8 1175.62 1391.23 1176.17C1392.74 1177.95 1367 1185.51 1368.37 1182.85C1363.8 1191.83 1392.14 1189.71 1405.61 1198.42C1428.25 1213.09 1403.61 1220.72 1443.09 1223.61C1497.6 1227.6 1415.31 1238.94 1420.32 1236.7C1394.64 1248.18 1431.42 1261.78 1421.15 1271.93C1420.49 1272.6 1404.72 1271.64 1402.71 1272.15C1401.09 1272.58 1380.14 1284.01 1379.97 1285.23C1379.52 1288.83 1397.41 1292.89 1394.1 1297.87C1393.66 1298.53 1378.85 1293.64 1371.12 1299.76C1365.74 1304.01 1387.25 1304.5 1371.31 1307.75C1363.03 1309.46 1361.09 1304.68 1348.16 1304.84C1330.21 1305.03 1335.63 1309.98 1325.26 1309.92C1326.19 1309.91 1316.71 1298.74 1302.04 1303.78C1283.27 1310.21 1313 1313.15 1311.56 1316.48C1309.85 1320.44 1297.04 1316.98 1293.28 1323.1C1285.07 1336.45 1324.51 1342.46 1303.13 1350.22C1296.25 1352.7 1283.81 1346.16 1275.27 1342.53C1231.45 1323.83 1238.25 1352.14 1220.34 1359.21C1194.97 1369.25 1192.68 1349.74 1192.41 1346.72C1191.94 1341.72 1158.87 1322.28 1150.4 1323.2C1120.21 1326.46 1146.2 1357.44 1132.92 1365.06C1125.68 1369.2 1109.87 1362.67 1109.98 1368.52C1110.07 1374.91 1151.92 1381.61 1151.91 1387.24C1151.94 1388.39 1126.72 1391.81 1124.53 1400.4C1122.55 1408.16 1110.23 1404.28 1106.42 1411.82C1103.19 1418.14 1115.92 1411.96 1120.37 1418.06C1127.95 1428.49 1084.36 1431.16 1060.76 1431.58C1063.28 1431.54 1055.69 1426.6 1046.85 1426.95C1032.55 1427.5 1031 1437.81 1010.29 1441.79C983.71 1446.92 956.28 1447.17 946.03 1453.76C924.24 1467.78 948.87 1453.76 932.09 1447.52C919.41 1442.83 885.49 1448.75 890.62 1449.62C859.41 1444.3 879.03 1434.72 880.88 1427.3C886.91 1403.33 836.08 1424.12 848.72 1430.89C850.8 1432.02 869.6 1429.43 867.19 1432.27C864.18 1435.78 841.72 1448.74 816.7 1442.48C802.33 1438.88 835.05 1420.94 834.44 1411.84C833.97 1404.97 820.57 1411.12 829.65 1403.88C822.67 1409.5 861 1390.06 875.5 1393.74C893.35 1398.23 863.2 1409.6 875.95 1412.95C878.13 1413.51 918.31 1410.3 926.34 1397.93C925.33 1399.44 912.71 1395.58 912.44 1394.89C908.27 1386.23 955.51 1367.78 930.27 1369.05C900.76 1370.51 910.2 1400.27 880.11 1393.68C877.23 1393.04 874.89 1385.24 875.24 1382.52C877.13 1368.57 912.46 1360.08 925.28 1353.1C935.36 1347.58 943.57 1324.96 915.66 1337.19C919.39 1335.56 924.22 1343.66 925.71 1345.99C926.23 1352.56 909.58 1340.22 906.52 1340.49C905.51 1340.58 896.87 1344.81 902.05 1345.35C887.26 1343.8 902.44 1339.12 883.44 1339.17C851.51 1339.26 876.73 1372.72 842.37 1355.68C839.87 1354.44 855.53 1353.49 856.09 1352.31C864.54 1335.1 782.8 1350.66 777.67 1350.04C754.64 1347.19 772.19 1333.5 740.8 1350.47C707.83 1368.29 739.18 1352.91 731.32 1337.77C727.07 1329.68 728.79 1324.97 749.6 1331.16C780.51 1340.34 777.15 1322.94 799.95 1316.15C816.05 1311.31 831.8 1316.16 836.67 1309.3C838.3 1307 803.04 1287.42 799.27 1287.31C790.72 1287.04 780.23 1294.92 776.35 1293.98C764.2 1291.09 758.41 1280.34 775.97 1277.98C775.33 1278.06 796.24 1282.78 798.15 1283.68C795.89 1283.53 793.19 1283.2 789.91 1282.62C796.88 1283.83 798.86 1284.04 798.15 1283.68C804.09 1284.09 806.9 1283.11 808.34 1280.81C808.77 1280.12 793.73 1278.83 787.15 1278.76C784.01 1276.77 775.72 1272.99 775.86 1273.16C775.58 1272.85 775.31 1272.54 775.05 1272.24C772.45 1269.22 771.08 1267.11 770.46 1265.72C768.11 1260.45 776.34 1264.86 770.46 1265.72C768.84 1265.94 766.14 1265.91 761.85 1265.34C747.21 1263.35 770.47 1256.43 747.87 1259.09C726.24 1261.65 755.54 1271.96 752.93 1276.66C750.23 1281.36 699.87 1300.04 684.28 1298.3C683.92 1298.26 679.2 1288.76 682.1 1285.63C686.64 1285.8 689.53 1285.77 688.57 1285.42C685.08 1284.22 683.09 1284.53 682.1 1285.63C670.37 1285.25 647.63 1283.67 650.86 1282.8C642.38 1284.32 642.54 1292.03 619.66 1295.86C581.25 1302.32 560.83 1293.57 546.19 1307.94C531.11 1322.79 540.32 1303.39 527.57 1300.17C514.64 1296.86 470.43 1312.32 490.67 1300.6C497.69 1296.55 480.34 1292.59 462.87 1294.53C453.74 1295.53 448.65 1301.59 435.41 1302.85C439.98 1302.43 430.24 1297.98 430.72 1298.1C412.52 1293.19 413.23 1302.64 407.8 1304.78C409.58 1304.09 403.8 1303.23 400.11 1303.22C399.86 1303.21 399.33 1303.21 398.57 1303.29C399.02 1303.25 399.52 1303.23 400.11 1303.22C403.21 1303.6 383.32 1309.96 383.07 1312.3C367.63 1309.48 334.17 1299.54 333.91 1299.25C327.35 1291.62 354.53 1278.71 356.43 1278.16C352.97 1279.13 359.05 1282.93 361.19 1282.92C402.92 1282.84 372.1 1275 383.81 1265.03C384.39 1264.51 401.53 1261.96 402.17 1261.61C415.41 1254.34 383.51 1227.02 405.62 1213.52C413.66 1208.62 466.14 1206.66 469.95 1204.74C481.84 1198.75 458.74 1189.27 460.17 1193.1C457.82 1188.45 471.32 1188.83 469.54 1187.13C468.79 1186.4 429.71 1188.31 446.37 1181C467.77 1171.56 474.9 1165.32 464.33 1161.55C462.77 1161 442.1 1166.59 441.32 1163.42C441.04 1162.1 463.09 1156.75 464.18 1155.13C468.63 1148.58 445.54 1140.86 445.32 1136.15C445.34 1137.24 458.44 1133.47 459.04 1132.79C463.4 1128.04 462.54 1115.49 449.37 1113.67C451.8 1114.01 437.02 1116.85 435.73 1117.02C437.63 1116.43 460.59 1102.08 453.64 1099.2C449.47 1097.46 418.36 1113.54 412.32 1107.69C404.36 1099.95 425.97 1103.74 435.18 1099.42C445.24 1094.73 459.51 1072.66 446.98 1068.03C446.57 1067.74 445.53 1067.48 443.67 1067.28C463.49 1063.77 415.68 1062.5 415.92 1064.4C414.56 1053.3 436.41 1060.73 443.26 1049.66C440.9 1053.48 422.86 1051.56 424.9 1053.09C409.9 1041.86 456.5 1044 442.99 1038.45C431.18 1033.62 401.9 1046.83 401.67 1046.94C380.84 1058.74 408.46 1035.2 410.61 1028.9C411.17 1028.6 411.21 1028.18 410.41 1027.63C410.78 1027.89 410.79 1028.32 410.61 1028.9C407.09 1030.72 383.36 1028.43 380.07 1027.1C382.25 1026.61 383.34 1026.33 382.78 1026.35C379.75 1026.47 379.16 1026.74 380.07 1027.1C369.89 1029.31 335.88 1035.48 332.24 1033.35C322.61 1027.75 356.31 1021.76 373.54 1019.39C365.49 1021.36 372.21 1025.26 373.75 1026.3C373.53 1026.38 373.45 1026.43 373.53 1026.46C374.19 1026.67 374.13 1026.58 373.75 1026.3C377.35 1024.96 424.42 1016.1 410.07 1013.2C399.31 1011.03 374.89 1018.71 359.52 1018.62C356.34 1018.6 322.36 1013.9 314.78 1012.93C318.12 1012.87 310.47 1007.64 308.63 1009.6C323.37 993.662 190.05 1030.47 221.1 1010.65C228.19 1006.11 215.63 1006.76 212.34 1007.43C218.88 1006.05 269.35 1000.86 285.27 995.473C287 994.896 287.72 994.38 287.97 993.966C288.34 994.324 288.88 994.786 289.86 995.419C302.73 1003.74 331.07 990.679 326.6 988.574C323.45 987.089 283.86 988.984 285.15 989.067C278.56 988.608 267.5 984.208 252.74 983.044C205.24 979.34 154.34 985.562 183.32 971.054C203.26 961.078 148.18 965.222 155.3 956.981C155.24 957.049 169.53 951.713 187.51 953.393C197.26 954.302 200.34 963.674 206.15 964.385C223.15 966.469 205.8 958.92 229.22 964.111C227.98 963.842 205.47 967.822 210.9 969.135C213.84 969.832 275.1 957.168 287.49 956.942C286.66 957.547 302.13 962.717 293.75 964.945C296.99 964.096 205.59 963.279 229.37 970.517C241.52 974.211 248.15 965.566 256.95 966.984C261.38 967.703 250.39 971.342 248.23 971.826C247.84 971.822 247.67 971.824 247.84 971.899C247.9 971.917 248.01 971.878 248.23 971.826C251.52 971.972 274.25 974.886 289.37 974.6C294.31 974.511 303.96 969.922 312.36 971.132C315.94 971.646 307.28 978.615 326.34 977.374C339.31 976.535 344.73 969.41 358.37 967.39C382.04 963.876 433.51 955.762 431.7 950.5C428.73 941.509 414.85 952.498 400.67 951.894C403.33 951.012 394.43 944.516 394.71 944.532C391.9 944.429 367.8 954.776 367.13 948.062C366.51 941.869 443.47 938.15 422.09 931.401C416.37 929.584 391.08 936.066 389.87 933.375C384.19 921.292 458.97 910.048 458.57 901.478C458.74 901.367 458.65 901.066 458.24 900.533C458.5 900.843 458.56 901.145 458.57 901.478C457.44 902.321 442.24 892.782 435.84 897.029C453.66 882.528 545.01 888.338 563.74 876.841C564.01 876.674 555.26 875.106 563.66 873.65C558.34 874.573 576.63 873.993 587.61 874.615C573.42 874.012 584.38 881.823 586.89 881.383C599.77 879.138 584 869.382 604.95 865.158C608.73 864.371 625.78 868.837 623.46 868.133C651.06 876.547 626.34 870.052 618.96 873.001C601.95 879.758 629.53 876.705 614.54 881.055C612.39 881.667 610.16 882.152 607.75 882.551C604.7 882.265 601.95 882.238 600.73 882.82C600.31 883.021 600.15 883.247 600.01 883.492C570.7 885.922 530.41 878.538 531.69 888.448C531.52 887.238 553.75 894.446 554.91 894.579C572.44 896.783 548.74 891.535 568.59 889.61C580.59 888.442 612.09 896.254 610.26 897.124C621.74 891.684 598.77 886.507 599.98 883.492C602.65 883.256 605.23 882.952 607.69 882.552C612.9 883.027 618.95 884.235 619.17 884.213C623.3 883.831 634.6 880.62 642.6 877.898C642.83 877.816 643.05 877.745 643.27 877.674C643.72 877.513 644.17 877.361 644.61 877.208C644.92 877.098 645.23 876.996 645.51 876.886C645.84 876.765 646.18 876.644 646.48 876.523C646.76 876.422 647.01 876.321 647.26 876.222C647.76 876.028 648.24 875.837 648.65 875.657C648.79 875.598 648.9 875.547 649.04 875.486C649.35 875.357 649.63 875.236 649.88 875.116C649.99 875.055 650.1 875.004 650.21 874.945C650.4 874.834 650.6 874.745 650.74 874.645C650.79 874.606 650.88 874.556 650.93 874.525C651.1 874.406 651.21 874.298 651.2 874.219C651.59 870.425 630.18 870.552 627.96 864.885C629.46 868.725 656.65 853.515 632.26 850.406C628.48 849.924 589.47 865.626 586.26 855.759C586.47 856.46 621.31 844.842 622.87 845.536C622.36 843.862 613.63 831.57 617.99 832.955C612.19 831.109 581.22 833.606 581.13 833.394C575.42 817.743 620.19 830.701 627.13 829.642C633.1 828.722 660.85 813.252 681.97 811.369C688.08 810.828 708.61 816.209 719 815.725C720.3 815.669 732.42 809.998 737.29 809.1C762.31 804.475 821.06 797.623 824.58 796.847C825.98 796.547 823.04 792.206 824.47 792.053C828.28 791.636 839.97 794.975 842.95 795.027C860.3 795.339 902.91 788.13 916.49 784.551V784.581ZM1028.06 1414.41C1031.47 1419.69 1047.14 1419.11 1055.74 1415.68C1071.42 1409.45 1023.74 1407.59 1028.06 1414.41ZM1059.74 1388.38C1064.3 1389.9 1074.02 1386.97 1078.1 1384.97C1097.58 1375.47 1041.87 1382.42 1059.74 1388.38ZM1031.15 1348.68C1043.36 1357.34 1023.04 1350.66 1008.25 1355.37C972.26 1366.85 1018.3 1383.38 1045.49 1369.35C1043.96 1370.12 1058.43 1344.62 1058.72 1345.16C1056.14 1340.56 1019.51 1340.44 1031.15 1348.69V1348.68ZM1095.24 1328.71C1081.85 1330.65 1073.63 1339.35 1077.2 1346.53C1077.37 1346.91 1090.28 1346 1091.02 1346.37C1093.1 1347.41 1101.49 1358.64 1109.8 1360.57C1116.15 1362.05 1122.13 1359.31 1123.56 1358.81C1150.14 1349.17 1112.36 1326.21 1095.24 1328.71ZM470.58 1230.41C455.75 1246.41 409.53 1244.78 407.04 1272.81C406.67 1277.45 395.28 1277.1 402.65 1280.87C421.34 1290.43 444.23 1245.13 457.05 1241.78C457.75 1241.6 456.54 1240.44 457.01 1240.18C466.51 1235.16 475.75 1243.27 484.61 1236.65C491.13 1231.75 479.77 1220.53 470.61 1230.42L470.58 1230.41ZM487.92 1183.74C487.41 1189.39 473.54 1192.42 474.37 1195.12C476.49 1201.99 490.76 1195.71 492.94 1199.71C494.82 1203.1 484.09 1202.32 483.8 1203.03C481.14 1209.6 458.11 1219.9 475.04 1223.95C484.74 1226.25 497.87 1218.24 504.92 1213.36C504.34 1214.92 503.53 1216.24 502.57 1217.23C512.68 1207.18 511.2 1209.03 504.92 1213.36C510.62 1198.5 499.68 1159.99 491.66 1145.27C490.13 1142.49 498.32 1141.73 496.11 1138.81C494.2 1136.21 485.26 1137.13 482.2 1134.16C481.22 1133.25 489.28 1128 486.64 1127.69C453.06 1123.78 489.04 1172.45 487.95 1183.75L487.92 1183.74ZM481.4 1116.76C477.95 1118.37 486.52 1102.58 472.2 1102.23C466.78 1102.11 472.75 1121.77 481.4 1116.76ZM489.62 1058.77C490.9 1059.39 510.65 1053.01 507.98 1055.35C523.1 1042.19 466.71 1047.77 489.62 1058.77ZM563.06 1045.08C573.62 1048.6 581.07 1042.48 581.35 1040.06C581.91 1035.32 550.03 1040.75 563.06 1045.08ZM326.73 1002.68C326.03 1000.13 352.23 1003.77 346.17 1004.37C360.91 1003.5 373.19 997.563 372.86 994.481C372.33 989.487 324.8 997.952 326.71 1002.67L326.73 1002.68ZM377.21 983.226C379.08 983.643 407.51 979.633 416.08 978.328C416.56 978.45 417.35 978.343 418.58 977.927C418.46 977.969 417.54 978.125 416.08 978.328C412.83 977.556 425.16 966.225 427.64 971.412C427.88 971.927 434.89 968.747 432.15 968.155C412.68 963.834 349.44 976.982 377.21 983.236V983.226ZM726.56 942.228C728.64 941.92 735.24 937.416 731.02 935.776C723.22 932.753 701.92 945.958 726.56 942.228ZM1495.96 925.068C1502.2 922.612 1516.29 920.705 1500.34 915.416C1478.73 908.199 1470.62 935.081 1495.96 925.068ZM601.26 906.872C600.62 906.988 608.32 902.06 601.11 900.466C587.55 897.443 582.26 910.42 601.26 906.872Z" fill="#171717"/>
<path fill-rule="evenodd" clip-rule="evenodd" d="M1566.79 1149.98C1567.33 1148.48 1571.38 1147.35 1574.99 1149.3C1580.81 1152.46 1565.82 1152.62 1566.79 1149.98Z" fill="#171717"/>
<path fill-rule="evenodd" clip-rule="evenodd" d="M1447.34 1164.97C1453.45 1164.15 1453.18 1166.65 1453.71 1168.05C1456.48 1175.23 1436.29 1166.45 1447.34 1164.97Z" fill="#171717"/>
<path fill-rule="evenodd" clip-rule="evenodd" d="M1452.6 1154.34C1454.29 1155.38 1456.71 1156.43 1452.56 1157.59C1445.94 1159.43 1447.17 1151.05 1452.6 1154.34Z" fill="#171717"/>
<path fill-rule="evenodd" clip-rule="evenodd" d="M1468.4 1081C1469.99 1080.56 1473.91 1081.94 1474.18 1082.09C1479.72 1085.38 1459.98 1083.36 1468.4 1081Z" fill="#171717"/>
<path fill-rule="evenodd" clip-rule="evenodd" d="M1418.19 1156.95C1406.15 1156.63 1392.63 1151.47 1391.8 1146.53C1391.66 1145.78 1394.46 1143.69 1393.65 1142.79C1391.54 1140.42 1384.04 1139.47 1382.11 1137.38C1381.13 1136.31 1379.76 1129.78 1383.4 1128.4C1394.17 1124.31 1403.1 1135.51 1411.96 1137.67C1420.46 1139.77 1429.02 1138.39 1434.14 1140.65C1446.17 1145.94 1436.85 1157.44 1418.19 1156.95Z" fill="#171717"/>
<path fill-rule="evenodd" clip-rule="evenodd" d="M1405.85 1178.69C1409.76 1178.22 1410.31 1179.29 1411.31 1180.41C1415.85 1185.45 1396.14 1179.88 1405.85 1178.69Z" fill="#171717"/>
<path fill-rule="evenodd" clip-rule="evenodd" d="M1437.64 1082.57C1437.88 1082.71 1439.83 1084.63 1437.91 1085.18C1429.59 1087.52 1430.81 1078.39 1437.64 1082.57Z" fill="#171717"/>
<path fill-rule="evenodd" clip-rule="evenodd" d="M1376.11 1127.21C1372.66 1128.55 1377.5 1133.53 1375.14 1135.56C1363.6 1145.43 1335.08 1133.68 1329.84 1128.25C1325.44 1123.69 1321.75 1117.09 1324.76 1116.21C1329.77 1114.76 1329.54 1118.51 1335.68 1119.63C1340.07 1120.42 1356.06 1120.95 1361.24 1122.2C1365.42 1123.2 1364.75 1125.39 1370.95 1124.87C1374.98 1124.53 1373.39 1117.82 1384.69 1119.43C1393.8 1120.73 1383.71 1128.22 1383.4 1128.41C1381.82 1129.4 1377.42 1126.7 1376.11 1127.22V1127.21Z" fill="#171717"/>
<path fill-rule="evenodd" clip-rule="evenodd" d="M1361.46 1093.04C1361.54 1093.16 1362.68 1094.15 1360.85 1094.29C1355.15 1094.74 1358.44 1089.33 1361.46 1093.04Z" fill="#171717"/>
<path fill-rule="evenodd" clip-rule="evenodd" d="M1318.72 1109.27C1323.62 1112.52 1310.75 1110.43 1310.5 1109.94C1309.32 1107.48 1315.57 1107.17 1318.72 1109.27Z" fill="#171717"/>
<path fill-rule="evenodd" clip-rule="evenodd" d="M1320.43 1006.98C1326.73 1001.09 1374.26 1009.87 1362.96 1016.66C1355.71 1021.03 1312.39 1014.46 1320.43 1006.98Z" fill="#171717"/>
<path fill-rule="evenodd" clip-rule="evenodd" d="M1299.47 998.282C1299.02 998.219 1296.46 998.203 1293.45 998.198C1293.25 997.78 1294.71 997.627 1299.47 998.282Z" fill="#171717"/>
<path fill-rule="evenodd" clip-rule="evenodd" d="M1360.11 1108.5C1366.75 1106.8 1369.17 1110.13 1369.84 1111.17C1373.21 1116.55 1351.37 1110.74 1360.11 1108.5Z" fill="#171717"/>
<path fill-rule="evenodd" clip-rule="evenodd" d="M1346.84 1093.88C1352.02 1092.59 1354.14 1098.52 1354.13 1098.32C1355.19 1104.62 1342.1 1095.06 1346.84 1093.88Z" fill="#171717"/>
<path fill-rule="evenodd" clip-rule="evenodd" d="M3600.91 1159.27C3617.04 1150.68 3653.73 1124.86 3615.47 1103.8C3564.81 1075.93 3511.65 1104.58 3464.53 1100.24C3436.4 1097.67 3400.46 1082.56 3392.04 1077C3391.2 1076.41 3382.32 1051.98 3368.5 1048.15C3328.24 1036.97 3274.29 1062.92 3223.49 1051.81C3206.91 1048.18 3204.23 1029.34 3196.26 1049.36C3189.7 1066.13 3180.79 1045.26 3156.01 1042.37C3115.82 1037.7 3126.04 1052.39 3107 1048.01C3112.3 1049.22 3115.1 1035.29 3109.28 1031.51C3113.13 1034.02 3058.38 1017.52 3056.31 1016.74C3056.15 1016.68 3055.99 1016.61 3055.83 1016.55C2965.08 982.391 3140.75 1015.25 3161.03 1006.11C3171.91 1001.18 3085.15 982.663 3088.98 979.604C3097.3 972.836 3126.83 990.851 3163.76 986.332C3188.48 983.277 3148.13 977.08 3185.48 978.261C3275.62 981.034 3232.59 983.256 3215.87 957.605C3203.88 939.006 3285.12 905.386 3260.82 881.441C3244.02 864.872 3206.48 874.066 3187.41 864.812C3175.56 859.081 3158.08 830.126 3179.29 823.986C3230.83 809.044 3221.23 805.369 3247.73 776.684C3290.28 730.678 3511.33 656.644 3579.58 611.34C3606.85 593.257 3539.52 559.023 3463.92 589.75C3459.71 591.428 3453.11 591.161 3447.75 591.962C3412.3 604.929 3375.33 617.311 3337.21 627.695C3298.09 638.355 3227.18 652.492 3180.31 667.059C3145.65 677.877 3125.42 689.442 3095.11 686.124C3091.59 685.767 3086.01 678.746 3089.23 678.912C3064.87 677.781 3062.01 688.464 3040.69 681.227C3027.37 676.729 3022.71 652.799 3030.28 656.902C3002.2 641.765 2952.9 648.902 2940.58 658.856C2942.46 657.335 2941.95 688.358 2942.17 694.674C2943.7 692.366 2967.07 711.297 2960.42 714.101C2944.08 720.923 2926.38 697.409 2919.67 710.435C2921.13 707.51 2945.33 718.57 2945.92 719.479C2945.72 719.074 2943.94 742.242 2921.91 744.029C2865.75 748.573 2883.78 712.279 2878.93 706.75C2871.53 698.362 2846.08 698.762 2847.22 687.17C2847.11 688.892 2857.42 685.317 2864.09 682.372C2857.41 680.854 2856.55 679.554 2868.99 679.104C2870.93 679.015 2868.24 680.566 2864.09 682.372C2877.75 685.577 2916.12 689.762 2915.66 689.987C2939.63 678.391 2826.89 619.657 2858.59 654.78C2872.59 670.342 2862.62 658.117 2849.96 667.369C2842.45 672.826 2835.65 699.881 2826.59 709.192C2816.61 702.182 2832.16 697.143 2825.19 693.582C2818.79 690.337 2810.8 697.462 2801.49 695.239C2794.88 693.646 2793.25 684.148 2789.99 683.386C2784.76 682.121 2775.5 686.585 2769.4 686.342C2761.47 686.016 2732.95 676.767 2731.12 674.809C2731.16 674.834 2731.85 669.517 2732.2 665.249C2728.76 664.614 2721.45 658.252 2726.13 657.511C2714.12 659.406 2721.99 670.749 2706.31 672.476C2684.36 674.882 2654.95 670.89 2651.3 667.872C2632.36 652.172 2664.36 658.657 2664.25 657.018C2663.91 651.954 2625.58 643.249 2609.63 644.402C2597.26 645.286 2597.31 649.752 2589.76 650.01C2584.66 650.183 2572.17 646.451 2569.88 646.266C2537.94 643.84 2533.27 658.557 2525.2 658.891C2516.34 659.255 2497.68 648.796 2496.15 641.914C2495.32 637.948 2502.97 636.945 2502.61 636.465C2499.99 632.725 2492.02 632.028 2486.95 628.679C2479.34 623.654 2480.26 615.119 2473.56 610.157C2472.23 609.201 2461.87 611.244 2460.19 610.339C2449.37 604.537 2455.81 598.617 2444.87 594.517C2441.81 593.365 2404.21 586.355 2399.42 585.782C2370.57 582.27 2321.31 589.451 2310.46 603C2308.52 605.414 2313.27 609.61 2310.1 611.016C2306.88 612.438 2294.98 609.9 2291.75 612.604C2289.99 614.077 2297.04 618.317 2292.16 623.276C2288.45 627.018 2274.13 626.463 2272.33 628.888C2269.23 633.112 2289.22 632.975 2280.78 639.447C2279.69 640.287 2262.11 639.317 2263.19 643.692C2263.5 645.064 2285.46 649.281 2286.53 650.07C2293.14 654.719 2287.22 671.749 2291.53 676.72C2298.27 684.437 2337.42 697.555 2371.06 701.01C2385.41 702.485 2400.34 707.209 2407.76 707.205C2415.48 707.207 2473.59 696.116 2481.88 703.544C2489.58 710.45 2464.23 706.173 2460.08 711.851C2457.9 714.894 2466.95 719.865 2467.41 727.79C2468.38 744.991 2443.16 744.679 2445.52 754.038C2386.84 748.352 2325.23 741.912 2267.9 735.512C2233.27 731.642 2200.14 727.806 2170.18 724.173C2169.59 724.12 2168.98 724.025 2168.41 723.953C2164.03 723.416 2159.69 722.883 2155.44 722.358C2154.78 722.279 2154.08 722.195 2153.42 722.115C2149.09 721.583 2144.8 721.034 2140.63 720.517C2054.88 709.705 1979.47 705.65 1959.4 687.505C1957.79 686.057 1963.54 674.839 1961.22 674.324C1953.74 672.592 1920.38 688.375 1931.75 688.359C1893.38 688.371 1903.79 668.729 1867.46 655.845C1806.24 634.181 1772.66 649.149 1762.3 619.653C1747.99 578.923 1695.84 634.068 1705.62 631.281C1655.63 645.588 1599.67 614.129 1556.06 617.825C1553.18 618.055 1556.51 629.764 1554.23 631.026C1552.33 632.037 1502.77 642.96 1497.56 642.634C1482.26 641.644 1465.9 627.276 1444.59 627.844C1441.77 627.916 1461.83 640.376 1435.47 643.709C1417.14 646.034 1416.12 630.356 1401.52 640.655C1393.9 646 1414.07 649.139 1412.79 658.396C1411.09 671.262 1390.35 665.545 1390.07 673.038C1390.17 672.374 1437.13 683.282 1415.02 692.009C1386.83 703.184 1375.79 680.697 1361.55 680.516C1344.67 680.301 1358.74 690.797 1332.57 691.274C1275.48 692.31 1251.88 661.705 1217.91 674.276C1207.03 678.328 1234.21 689.677 1249.2 697.159C1326.49 735.548 1206.59 720.32 1175.7 730.641C1131.84 745.255 1214.56 754.023 1227.39 755.32C1248.58 757.488 1329.55 788.407 1325.22 794.17C1309.91 814.737 1179.6 784.698 1146.64 791.49C1128.67 795.189 1155.63 808.965 1130.8 806.749C1103.69 804.354 1077.26 771.759 1053.37 769.712C1048.48 769.272 1032.75 786.195 996.16 784.633C963.11 783.23 978.98 793.522 946.79 793.517C919.8 793.535 946.66 786.619 920.97 781.19C877.05 771.919 863.6 802.351 860.64 819.199C860.94 817.393 881.54 824.664 879.63 830.91C876.6 841.01 832.77 838.37 814.83 851.834C791.79 869.113 789.37 888.78 760.9 893.757C700.3 904.339 761.05 891.712 786.72 906.084C806.04 916.931 779.25 939.209 775.81 935.195C796.86 959.621 838.5 948.983 870.08 950.357C972.17 954.756 881.44 983.794 853.29 972.214C848.6 970.307 860.5 957.705 848.32 958.402C833.29 959.292 777.15 970.742 802.54 991.057C817.13 1002.72 894.86 985.695 933.5 989.456C962.65 992.301 935.86 999.711 967.04 995.813C942.87 998.794 1027.25 978.272 1012.35 966.479C994.12 951.981 944.39 969.554 930.81 959.143C928.54 957.369 944.09 929.595 997.02 928.326C990.57 928.498 1006.33 939.002 1009.25 939.447C1045.83 945.611 1126.45 918.311 1119.85 936.032C1112.19 956.759 986.3 939.094 1012.8 963.18C1015.38 965.489 1048.41 970.026 1059.98 970.764C1119.31 974.492 1157.07 952.137 1187.33 945.448C1211.27 940.205 1307.68 942.541 1254.4 958.185C1261.53 956.095 1227.33 949.656 1217.53 947.733C1189.66 944.964 1241.23 961.461 1239.93 963.564C1239.5 964.259 1221.14 968.945 1219.08 965.01C1224.96 976.236 1245.58 967.008 1244.45 980.675C1242.49 1003.64 1101.64 973.267 1172.32 1004.24C1177.46 1006.49 1182.29 995.56 1187.32 995.586C1260.78 995.777 1190.76 1048.99 1193.16 1052.91C1204.11 1070.54 1263.13 1062.89 1189.51 1079.31C1112.25 1096.56 1179.1 1079.6 1242.98 1090.78C1277.15 1096.79 1297.23 1097.28 1271.96 1080.03C1234.46 1054.4 1308.2 1063.18 1338.13 1049.23C1359.46 1039.39 1339.62 1026.28 1369.01 1025.28C1378.84 1024.94 1460.29 1057.49 1460.54 1060.24C1461.27 1066.5 1427.3 1071.18 1431.1 1074.32C1442.79 1084.13 1488.18 1092.23 1499.04 1080.43C1498.65 1080.86 1479.65 1064.08 1475.9 1062.37C1476.42 1064.05 1477.73 1066.13 1480.02 1068.7C1475.2 1063.23 1474.43 1061.74 1475.9 1062.37C1474.45 1057.95 1478.76 1056.28 1488.6 1056.08C1491.55 1056.02 1496.28 1067.33 1496.25 1072.09C1504.57 1075.08 1520.21 1082.44 1519.48 1082.27C1520.82 1082.59 1522.12 1082.9 1523.38 1083.19C1536.07 1086.17 1544.97 1087.92 1550.84 1088.88C1554.78 1084.96 1573.09 1092.49 1550.84 1088.88C1549.81 1089.97 1549.79 1091.92 1552.02 1095.22C1559.78 1106.49 1590.29 1092.27 1577.88 1107.57C1565.95 1122.23 1523.61 1097.35 1503.52 1097.52C1483.43 1097.75 1401.67 1127.21 1408.29 1139.07C1408.47 1139.35 1448.56 1146.22 1462 1145.27C1461.5 1141.94 1461.78 1139.87 1463.18 1140.69C1468.14 1143.64 1466.7 1144.96 1462 1145.27C1463.04 1153.86 1468.62 1170.82 1472.5 1168.81C1465.62 1174.36 1432.91 1171.44 1415.54 1186.52C1386.23 1211.84 1422.41 1229.74 1360.65 1235.04C1296.86 1240.49 1379.69 1240.93 1392.77 1251.3C1406.18 1261.82 1338.38 1288.03 1389.12 1277.72C1406.65 1274.14 1422.65 1288.09 1413.57 1299.97C1408.86 1306.18 1382.88 1307.64 1376.88 1316.72C1378.91 1313.58 1397.32 1322.22 1396.82 1321.83C1416.8 1336.73 1376.72 1332.78 1367.35 1335.9C1370.39 1334.87 1373.75 1339.35 1373.6 1342.01C1373.65 1342.2 1373.6 1342.58 1373.23 1343.1C1373.45 1342.79 1373.54 1342.43 1373.6 1342.01C1372.16 1339.64 1344.19 1351.65 1334.25 1350.98C1345.45 1363.13 1386.02 1390.86 1387.24 1391.15C1419.35 1398.67 1475.47 1383.79 1477.89 1382.62C1473.61 1384.76 1457.79 1379 1457.92 1377.46C1460.27 1347.42 1492.06 1372.49 1534.98 1367.69C1537.2 1367.46 1548.89 1356.05 1550.41 1355.71C1581.91 1348.83 1696.38 1381.79 1754.76 1370.78C1775.97 1366.78 1786.81 1329.68 1795.15 1327.63C1821.17 1321.26 1860.31 1341.36 1844.12 1338.93C1863.75 1342.32 1862.81 1332.46 1869.93 1334.36C1872.97 1335.16 1862.96 1362.63 1894.85 1353.29C1935.95 1341.32 1962.79 1338.46 1978.29 1347.45C1980.54 1348.77 1955.8 1361.63 1969.21 1363.34C1974.82 1364.03 1998.62 1350.1 2005.53 1349.9C2033.55 1349.08 2065.23 1368.54 2085.2 1370.42C2080.6 1370 2097.24 1361.94 2100.16 1361.76C2120.54 1360.35 2173.76 1365.55 2180.87 1375.7C2179.53 1373.83 2166.75 1383.44 2165.96 1384.31C2168.6 1383.16 2230.64 1371.85 2242.52 1377.91C2249.69 1381.55 2179.92 1398.09 2204.45 1404.58C2236.93 1413.14 2221.9 1396.18 2240.69 1391.13C2261.09 1385.59 2355.49 1383.37 2374.54 1394.08C2375.74 1394.48 2376.8 1395.33 2377.57 1396.74C2393.43 1383.74 2396.52 1418.65 2388.43 1417.78C2435.53 1422.82 2405.01 1404.36 2452.35 1403.47C2436.02 1403.77 2443.32 1417.47 2436.89 1415.44C2483.85 1430.34 2477.05 1395.99 2499.94 1407.75C2519.88 1418.02 2462.35 1434.3 2461.88 1434.42C2410.79 1445.12 2512.07 1433.82 2538.91 1434.56C2540.21 1434.27 2542 1434.39 2544.33 1435.17C2543.24 1434.81 2541.42 1434.65 2538.91 1434.56C2531.01 1436.44 2539.62 1454.37 2545.1 1457.23C2547.26 1455.83 2548.53 1455.15 2548.39 1455.54C2547.76 1457.69 2546.58 1458.01 2545.1 1457.23C2535.22 1463.75 2507.37 1486 2516.22 1489.4C2539.53 1498.39 2566.63 1476.3 2577.51 1464.75C2568.74 1469.82 2552.53 1463.56 2548.17 1462.07C2547.81 1462.19 2547.59 1462.24 2547.47 1462.17C2546.62 1461.62 2547 1461.69 2548.17 1462.07C2554.04 1459.97 2593.95 1429.29 2605.56 1440.68C2614.28 1449.23 2580.46 1464.01 2580.09 1475.12C2580.03 1477.42 2598.32 1503.62 2602.08 1509.44C2602.5 1507.05 2624.35 1514.47 2615.91 1515.08C2684.32 1510.27 2521.55 1592.89 2607.24 1577.76C2626.86 1574.31 2623.46 1583.11 2620.48 1585.25C2626.64 1581.04 2651.13 1546.57 2674.78 1537.06C2677.31 1536.03 2679.54 1535.7 2681.31 1535.67C2679.81 1535.27 2677.87 1534.71 2675.23 1533.78C2640.54 1521.47 2697.36 1505.82 2706.08 1509.81C2712.23 1512.62 2702.26 1540.45 2701.97 1539.49C2703.6 1544.4 2721.75 1553.98 2725.97 1565.04C2739.4 1600.61 2710.5 1635.01 2773.51 1619.43C2816.84 1608.7 2796.57 1646.87 2831.91 1644.75C2831.62 1644.77 2854.97 1636.42 2848.71 1622.86C2845.32 1615.5 2805.68 1609.86 2802.94 1605.41C2794.92 1592.41 2826.13 1607.66 2805.22 1588.9C2806.31 1589.89 2788.31 1604.65 2783 1600.26C2780.19 1597.89 2836.93 1558.37 2838.5 1549.53C2835.89 1549.91 2814.68 1536.88 2804.82 1542.1C2808.58 1540.08 2807.61 1606.22 2778.03 1586.45C2762.94 1576.35 2799.96 1574.73 2794.37 1567.87C2791.53 1564.42 2775.55 1571.01 2773.39 1572.38C2773.39 1572.67 2773.37 1572.78 2773.06 1572.64C2772.99 1572.58 2773.16 1572.52 2773.39 1572.38C2772.93 1569.96 2761.66 1552.52 2763.61 1541.73C2764.23 1538.2 2784.18 1532.93 2779.45 1526.43C2777.44 1523.67 2747.43 1527.36 2753.63 1514.09C2757.82 1505.05 2788.33 1503.74 2797.57 1494.65C2813.64 1478.88 2850.59 1444.76 2872.85 1447.98C2910.89 1453.4 2863.55 1459.39 2865.42 1469.83C2869.3 1468.24 2896.45 1477.02 2896.4 1476.81C2896.7 1478.87 2851.59 1492.46 2880.07 1495.39C2906.34 1498.1 2925.86 1444.01 2953.48 1461.88C2960.92 1466.66 2932.17 1482.51 2943.54 1484.37C2994.57 1492.87 3045.94 1443.1 3082.31 1446.52C3082.79 1446.43 3084.07 1446.61 3086.31 1447.1C3085 1446.8 3083.72 1446.64 3082.31 1446.52C3078.68 1447.02 3118.44 1461.46 3100.1 1464.51C3162.54 1456.97 3142.3 1389.04 3192.03 1379.74C3192.75 1379.6 3198.99 1386.48 3205.58 1380.96C3201.4 1384.46 3204.75 1371.49 3202.64 1363.36C3204.52 1373.8 3171.88 1363.05 3173.87 1361.4C3184.03 1352.94 3224.69 1367.87 3243.64 1354.31C3247.16 1351.88 3229.03 1337.96 3231.91 1339.89C3197.52 1316.93 3223.9 1337.12 3211.02 1341.36C3181.5 1351.14 3195.8 1332.39 3176.61 1341.6C3173.9 1342.93 3171.74 1344.36 3169.92 1345.95C3170.99 1348.25 3170.97 1350.24 3168.44 1350.91C3167.56 1351.14 3166.6 1351.17 3165.55 1351.18C3153.81 1371.41 3183.21 1403.13 3141.19 1398.6C3146.32 1399.16 3116.79 1380.51 3116.28 1379.63C3107.78 1366.19 3128.91 1385.18 3138.05 1371.58C3143.59 1363.36 3111.95 1337.82 3108.16 1338.82C3131.82 1332.54 3152.69 1350.98 3165.55 1351.2C3166.68 1349.37 3168.1 1347.62 3169.92 1345.99C3168.15 1342.06 3163.32 1337.26 3163.42 1337.11C3165.24 1334.28 3179.43 1327.31 3191.37 1322.54C3191.73 1322.4 3192.04 1322.27 3192.36 1322.14C3193.06 1321.87 3193.73 1321.61 3194.4 1321.34C3194.88 1321.16 3195.33 1320.97 3195.81 1320.81C3196.34 1320.62 3196.87 1320.42 3197.4 1320.25C3197.84 1320.08 3198.28 1319.94 3198.72 1319.79C3199.56 1319.5 3200.4 1319.23 3201.18 1319C3201.44 1318.92 3201.66 1318.85 3201.93 1318.78C3202.49 1318.6 3203.02 1318.45 3203.54 1318.31C3203.8 1318.25 3204.02 1318.19 3204.28 1318.13C3204.76 1318.03 3205.15 1317.93 3205.58 1317.86C3205.75 1317.84 3205.97 1317.8 3206.1 1317.77C3206.61 1317.69 3207.08 1317.65 3207.41 1317.68C3223.54 1318.79 3221.96 1334.17 3245.92 1337.83C3229.69 1335.35 3295.59 1321.32 3307.61 1340.02C3309.47 1342.92 3240.9 1365.29 3282.64 1371.21C3279.67 1370.8 3330.7 1349.94 3327.83 1348.56C3334.91 1349.54 3386.68 1360.32 3381.01 1356.67C3388.57 1361.52 3376.46 1382.93 3377.36 1383.07C3443.54 1392.89 3390.69 1355.91 3395.53 1351.29C3399.72 1347.33 3466.76 1332.99 3475.77 1318.46C3478.37 1314.25 3456.52 1297.49 3459.08 1290.18C3459.38 1289.27 3484.05 1282.61 3488.1 1279.43C3508.95 1263.09 3540.9 1223.26 3544.36 1221.01C3545.71 1220.11 3564 1223.81 3564.72 1222.84C3566.67 1220.25 3553.06 1210.61 3552.98 1208.44C3552.5 1195.83 3585.18 1167.76 3601.04 1159.28L3600.91 1159.27ZM931.98 849.025C909.71 844.638 912.97 833.563 927.92 828.614C955.15 819.593 960.71 854.626 931.98 849.025ZM1044.04 835.699C1037.81 831.86 1050.72 825.928 1059.42 823.717C1100.71 813.15 1068.48 850.751 1044.04 835.699ZM1211.21 870.785C1175.05 858.832 1202.41 875.904 1181.7 884.839C1131.22 906.58 1063.28 867.381 1124.17 852.911C1120.82 853.73 1229.8 852.616 1227.51 852.205C1246.91 855.743 1245.65 882.178 1211.17 870.781L1211.21 870.785ZM1299.14 831.902C1290.23 840.836 1252.92 843.59 1222.58 838.396C1220.98 838.132 1225.49 829.163 1223.95 828.494C1219.63 826.621 1172.35 816.478 1164.55 809.785C1158.58 804.667 1170.5 801.358 1172.71 800.517C1214.91 784.877 1310.59 820.482 1299.14 831.902ZM1686.21 1317.82C1617.56 1322.66 1622.22 1356.55 1503.06 1348.11C1483.37 1346.69 1484.28 1355.02 1468.62 1348.34C1428.95 1331.38 1622.43 1331.43 1637.26 1323.41C1638.07 1322.98 1642.93 1324.27 1644.06 1324.03C1665.82 1319.01 1631.85 1309.4 1660.4 1305.43C1681.53 1302.52 1728.6 1314.8 1686.18 1317.79L1686.21 1317.82ZM1885.19 1322.35C1861.21 1320.66 1847.64 1329.55 1836.24 1327.97C1807.17 1323.93 1834.5 1315.94 1817.62 1312.91C1803.34 1310.32 1806.13 1318.33 1803.12 1318.29C1775.07 1317.8 1730.23 1330.64 1713.82 1316.95C1704.53 1309.13 1739.18 1302.59 1760.25 1299.29C1753.6 1299.14 1747.96 1299.25 1743.71 1299.58C1786.9 1295.97 1778.96 1296.35 1760.25 1299.29C1823.65 1300.62 1986.61 1322.55 2048.73 1333.7C2060.48 1335.82 2064.11 1330.2 2076.38 1332.85C2087.35 1335.18 2082.98 1341.28 2095.45 1344.57C2099.29 1345.61 2121.95 1341.72 2123.13 1343.74C2138.1 1369.35 1933.21 1325.67 1885.16 1322.33L1885.19 1322.35ZM2169.32 1351.5C2162.3 1353.39 2229.76 1352.98 2230.54 1363.43C2230.79 1367.38 2147.6 1355.9 2169.32 1351.5ZM2415.92 1366.74C2413.36 1365.59 2441.4 1353.69 2431.35 1354.76C2487.97 1348.67 2461.52 1387.26 2415.92 1366.74ZM2477.61 1318.83C2463.19 1309.93 2489.56 1306.8 2499.83 1307.48C2520.01 1308.81 2495.36 1329.8 2477.61 1318.83ZM2646.2 1504.56C2656.99 1506 2642.79 1485.8 2639.95 1489.94C2644.36 1479.64 2670.17 1472.96 2683.24 1474.32C2704.42 1476.53 2666.17 1507.68 2646.24 1504.59L2646.2 1504.56ZM2731.25 1475.3C2729.57 1473.8 2747.98 1454.78 2753.93 1449.08C2753.44 1448.69 2753.93 1448.16 2755.75 1447.43C2755.57 1447.5 2754.86 1448.1 2753.93 1449.08C2757.05 1451.7 2805.76 1446.96 2783.86 1443.28C2781.68 1442.92 2795.53 1439.03 2797.91 1441.22C2815.31 1456.82 2756.41 1497.59 2731.2 1475.3H2731.25ZM2922.29 1238.57C2923.7 1237.19 2943.15 1234.07 2949.91 1237.71C2962.36 1244.44 2905.26 1254.96 2922.29 1238.57ZM3032.52 690.516C3043.25 686.919 3052.04 677.461 3073.72 690.882C3103.31 709.09 2988.77 705.121 3032.52 690.516ZM3066.34 1341.74C3065.81 1342.16 3087.11 1338.42 3093.53 1344.19C3105.71 1355.06 3050.35 1354.14 3066.34 1341.74Z" fill="#171717"/>
<path fill-rule="evenodd" clip-rule="evenodd" d="M1345.49 454.029C1348.83 451.881 1343.4 448.221 1341.72 447.576C1310.25 435.529 1330.19 463.938 1345.49 454.029Z" fill="#171717"/>
<path fill-rule="evenodd" clip-rule="evenodd" d="M1210.87 684.702C1215.6 686.731 1231.31 683.685 1222.73 680.045C1218.15 678.086 1204.4 681.947 1210.87 684.702Z" fill="#171717"/>
<path fill-rule="evenodd" clip-rule="evenodd" d="M1171.07 711.464C1172.64 711.608 1194.62 705.922 1182.96 705.197C1170.59 704.434 1163.13 710.753 1171.07 711.464Z" fill="#171717"/>
<path fill-rule="evenodd" clip-rule="evenodd" d="M1133.23 489.963C1128.41 496.969 1160.73 503.36 1160.59 491.89C1160.57 488.881 1157.75 488.056 1152.88 486.984C1162.59 489.15 1131.77 492.096 1133.23 489.963Z" fill="#171717"/>
<path fill-rule="evenodd" clip-rule="evenodd" d="M1083.61 934.682C1076.95 926.651 1058.59 923.494 1052.38 929.514C1043.39 938.238 1029.45 927.924 1024.97 930.781C988.27 954.139 1106.01 961.723 1083.61 934.682Z" fill="#171717"/>
<path fill-rule="evenodd" clip-rule="evenodd" d="M987.94 840.643C979.17 836.954 971.08 837.892 968.38 838.807C947.71 845.869 1013.47 851.387 987.94 840.643Z" fill="#171717"/>
<path fill-rule="evenodd" clip-rule="evenodd" d="M869.92 198.48C874.14 198.619 884.66 191.808 885.73 192.261C866.51 184.198 853.22 197.911 869.92 198.48Z" fill="#171717"/>
<path fill-rule="evenodd" clip-rule="evenodd" d="M690.8 156.296C683.71 153.29 679.23 164.803 690.65 162.701C698.37 161.279 695.79 158.416 690.8 156.296Z" fill="#171717"/>
<path fill-rule="evenodd" clip-rule="evenodd" d="M676.03 119.294C660.34 117.261 661.24 122.732 664.15 123.968C668.59 125.857 691.33 121.293 676.03 119.294Z" fill="#171717"/>
<path fill-rule="evenodd" clip-rule="evenodd" d="M636.29 142.85C636.01 141.821 635.09 135.382 628.58 137.952C620.6 141.1 638.31 150.522 636.29 142.85Z" fill="#171717"/>
<path fill-rule="evenodd" clip-rule="evenodd" d="M603.57 868.112C586.61 863.497 545.02 875.562 560.2 882.014C569.72 886.074 618.57 872.189 603.57 868.112Z" fill="#171717"/>
<path fill-rule="evenodd" clip-rule="evenodd" d="M586.8 249.593C571.22 228.914 542.05 261.056 574.82 260.654C591.48 260.442 594.67 259.991 586.8 249.593Z" fill="#171717"/>
<path fill-rule="evenodd" clip-rule="evenodd" d="M552.93 191.508C554.57 184.407 508.34 169.537 498.49 176.444C494.36 179.325 550.64 201.268 552.93 191.508Z" fill="#171717"/>
<path fill-rule="evenodd" clip-rule="evenodd" d="M540.01 241.015C552.71 239.447 543.26 232.81 540.28 229.805C525.8 215.186 521.58 243.316 540.01 241.015Z" fill="#171717"/>
<path fill-rule="evenodd" clip-rule="evenodd" d="M530.45 314.584C530.6 313.521 524.45 305.838 518.89 308.048C509.73 311.622 529.8 320.154 530.45 314.584Z" fill="#171717"/>
<path fill-rule="evenodd" clip-rule="evenodd" d="M506.96 314.302C503.6 311.996 474.7 307.413 475.75 310.718C476.28 312.443 515.02 319.81 506.96 314.302Z" fill="#171717"/>
<path fill-rule="evenodd" clip-rule="evenodd" d="M451.709 831.063C457.739 833.597 482.23 831.095 467.55 824.835C455.51 819.719 445.029 828.209 451.709 831.063Z" fill="#171717"/>
<path fill-rule="evenodd" clip-rule="evenodd" d="M445.19 278.335C423.49 270.175 436.31 294.513 448.84 289.592C459.61 285.354 448.57 279.606 445.19 278.335Z" fill="#171717"/>
<path fill-rule="evenodd" clip-rule="evenodd" d="M416.77 819.433C406.79 815.173 397.96 819.512 404.97 822.506C411.97 825.472 420.72 821.103 416.77 819.433Z" fill="#171717"/>
<path fill-rule="evenodd" clip-rule="evenodd" d="M419.971 849.909C423.561 848.271 418.041 843.751 416.201 843.448C401.741 841.039 411.331 853.86 419.971 849.909Z" fill="#171717"/>
<path fill-rule="evenodd" clip-rule="evenodd" d="M407.59 212.209C406.4 210.828 405.61 210.047 403.75 208.96C378.43 194.32 425.4 233.559 407.59 212.209Z" fill="#171717"/>
<path fill-rule="evenodd" clip-rule="evenodd" d="M535.82 918.56C536.9 918.221 536.99 911.571 532.09 910.506C526.01 909.193 521.76 913.313 516.4 911.912C514.57 911.441 497.79 903.379 500.8 910.134C499.67 907.619 525.89 921.617 535.82 918.56Z" fill="#171717"/>
<path fill-rule="evenodd" clip-rule="evenodd" d="M431.57 247.903C426.05 244.419 429.39 230.071 433.85 234.324C427.99 227.768 411.54 223.656 399.51 221.725C397.89 221.481 391.019 216.33 395.629 220.087C399.519 223.229 418.5 244.417 431.57 247.903Z" fill="#171717"/>
<path fill-rule="evenodd" clip-rule="evenodd" d="M433.85 234.323C434.04 234.54 434.25 234.747 434.43 234.964C434.25 234.708 434.04 234.501 433.85 234.323Z" fill="#171717"/>
<path fill-rule="evenodd" clip-rule="evenodd" d="M438.05 247.823C436.17 248.592 433.97 248.537 431.57 247.903C433.06 248.838 435.16 249 438.05 247.823Z" fill="#171717"/>
<path fill-rule="evenodd" clip-rule="evenodd" d="M1244.36 425.594C1251.84 442.416 1356.54 442.245 1330.71 415.417C1309.09 392.949 1237.92 411.051 1244.36 425.594Z" fill="#171717"/>
<path fill-rule="evenodd" clip-rule="evenodd" d="M953.31 814.591C956.23 811.108 951.19 805.433 949.68 803.334C947.35 800.161 940.03 788.39 906.89 791.611C891.05 793.141 862.24 826.284 866.8 831.183C876.17 841.268 950.85 817.55 953.34 814.592L953.31 814.591Z" fill="#171717"/>
<path fill-rule="evenodd" clip-rule="evenodd" d="M902.44 147.617C895.71 141.315 877.25 137.218 867.26 143.985C847.75 157.243 919.51 163.664 902.44 147.617Z" fill="#171717"/>
<path fill-rule="evenodd" clip-rule="evenodd" d="M766.49 844.418C780.26 848.06 820.24 856.242 844.77 846.95C877.22 834.648 831.37 822.654 831.77 811.554C831.99 804.924 848.57 796.272 855.25 794.213C855.96 794.006 888.63 791.541 892.27 788.245C902.93 778.641 860.72 766.418 870.02 754.348C873.07 750.409 898.75 749.484 870.17 747.933C846.25 746.662 874 744.247 875.04 738.399C876.72 728.915 857.66 731.54 861.45 727.013C860.41 728.271 879.96 728.709 884.49 727.287C881.49 728.228 897.76 715.147 898.59 714.649C898.65 714.612 898.73 714.572 898.79 714.534C935.17 692.745 910.66 734.398 925.67 739.001C933.77 741.471 949.04 720.866 953.71 721.713C964.04 723.554 942.68 730.753 953.3 739.33C960.44 745.07 964.21 735.523 967.01 744.289C973.88 765.439 965.71 755.398 999.12 751.079C1023.37 747.976 1079.4 766.469 1109.56 760.401C1130.43 756.205 1113.29 747.561 1123.8 742.948C1130.31 740.085 1168.19 735.535 1179.18 740.404C1205.91 752.236 1209.85 749.929 1252.58 755.683C1321.11 764.919 1449.5 815.51 1520.12 830.775C1548.31 836.874 1587.56 820.57 1536.19 803.354C1533.38 802.393 1532.96 800.844 1531.22 799.601C1509.12 791.506 1487.65 783.045 1468.8 774.283C1449.45 765.291 1421.53 748.91 1395.86 738.165C1376.82 730.221 1358.46 725.666 1359.45 718.517C1359.52 717.688 1368.55 716.271 1368.7 717.025C1367.37 711.305 1352.29 710.804 1359.75 705.696C1364.38 702.508 1396.85 701.038 1392.08 702.875C1409.64 696.062 1393.95 684.631 1378.75 681.902C1381.07 682.32 1338.2 682.689 1329.51 682.842C1332.87 683.163 1309.52 688.933 1304.86 687.421C1293.51 683.702 1323.86 679.188 1305.09 677.822C1309.3 678.117 1296.9 683.957 1295.72 684.11C1296.25 684.056 1264.07 684.006 1258.99 678.877C1246.06 665.799 1298.29 669.448 1305.34 668.224C1316.04 666.358 1312.47 660.406 1328.6 660.489C1326.21 660.491 1332.37 662.85 1337.22 664.364C1338.52 662.776 1340.22 662.553 1342.31 665.459C1342.67 665.913 1340.21 665.308 1337.22 664.364C1334.42 667.613 1333.19 676.663 1332.83 676.561C1351.68 681.99 1419.36 654.664 1374.65 662.641C1354.83 666.164 1370.52 663.636 1356.25 660.818C1347.83 659.147 1309.69 657.981 1295.76 656.007C1304.25 653.56 1313.05 657.121 1317.14 655.432C1320.86 653.883 1310.08 652.123 1312.04 649.91C1313.45 648.336 1326.37 647.805 1327.03 647.03C1328.16 645.785 1320.9 643.686 1320.51 642.255C1320.02 640.394 1329.4 633.569 1331.89 633.11C1331.86 633.12 1339.28 633.198 1345.21 633.211C1345.68 632.395 1353.59 630.585 1355.17 631.668C1351.13 628.886 1336.41 630.908 1332.16 627.264C1326.24 622.163 1328.26 615.212 1331.99 614.31C1351.41 609.628 1346.26 617.224 1348.51 617.172C1355.45 617.011 1362.92 607.898 1359.44 604.183C1356.75 601.3 1350.59 601.382 1349.34 599.619C1348.5 598.428 1352.17 595.443 1352.15 594.906C1351.71 587.388 1330.85 586.526 1329.43 584.643C1327.87 582.573 1340.1 578.04 1349.41 577.573C1354.79 577.315 1357.08 579.09 1357.7 579C1362.55 578.326 1362.56 576.45 1366.59 575.209C1372.62 573.347 1384.5 573.429 1390.56 571.782C1391.72 571.455 1387.67 569.061 1388.72 568.653C1395.44 566.029 1404.38 567.443 1408.74 564.818C1409.96 564.082 1415.18 555.167 1415.4 554.037C1416.83 547.226 1401.07 535.805 1381.09 533.478C1377.53 533.062 1372.3 534.241 1369.98 533.521C1367.64 532.789 1369.73 529.963 1365.61 529.249C1363.37 528.862 1358.36 530.578 1350.94 529.513C1345.33 528.705 1344.4 525.344 1340.84 524.96C1334.64 524.3 1337.2 528.979 1327.27 527.104C1325.98 526.863 1325.24 522.732 1319.33 523.054C1317.47 523.147 1314.25 528.354 1313.29 528.618C1307.66 530.24 1283.46 529.123 1277.11 530.209C1267.26 531.909 1253.8 541.283 1253.02 549.215C1252.69 552.599 1247.94 556.168 1248.82 557.906C1249.74 559.714 1271.94 573.146 1262.67 575.204C1254.05 577.115 1256.95 571.112 1248.62 570.231C1244.16 569.768 1238.37 571.966 1227.49 572.197C1203.87 572.697 1201.31 566.787 1188.67 567.486C1189.56 553.657 1191.14 539.131 1193.17 525.605C1194.4 517.436 1195.77 509.618 1197.23 502.545C1197.23 502.406 1197.29 502.262 1197.32 502.126C1197.54 501.092 1197.76 500.069 1197.98 499.065C1198.02 498.91 1198.05 498.744 1198.08 498.589C1198.3 497.565 1198.55 496.551 1198.77 495.569C1203.52 475.318 1200.17 457.596 1222.83 452.611C1224.64 452.213 1240.8 453.382 1241.23 452.83C1242.74 451.051 1217 443.488 1218.37 446.151C1213.8 437.168 1242.14 439.294 1255.61 430.583C1278.25 415.908 1253.61 408.28 1293.09 405.389C1347.6 401.397 1265.31 390.055 1270.32 392.302C1244.64 380.823 1281.42 367.223 1271.15 357.07C1270.49 356.399 1254.72 357.363 1252.71 356.85C1251.09 356.422 1230.14 344.988 1229.97 343.764C1229.52 340.166 1247.41 336.109 1244.1 331.127C1243.66 330.467 1228.85 335.361 1221.12 329.242C1215.74 324.988 1237.25 324.501 1221.31 321.244C1213.03 319.544 1211.09 324.317 1198.16 324.163C1180.21 323.969 1185.63 319.023 1175.26 319.075C1176.19 319.086 1166.71 330.255 1152.04 325.217C1133.27 318.791 1163 315.853 1161.56 312.514C1159.85 308.557 1147.04 312.019 1143.28 305.899C1135.07 292.546 1174.51 286.539 1153.13 278.783C1146.25 276.298 1133.81 282.842 1125.27 286.471C1081.45 305.174 1088.25 276.859 1070.34 269.789C1044.97 259.749 1042.68 279.257 1042.41 282.282C1041.94 287.278 1008.87 306.723 1000.4 305.802C970.21 302.542 996.2 271.555 982.92 263.944C975.68 259.794 959.87 266.327 959.98 260.477C960.07 254.09 1001.92 247.388 1001.91 241.762C1001.94 240.61 976.72 237.194 974.53 228.601C972.55 220.841 960.23 224.72 956.42 217.182C953.19 210.863 965.92 217.041 970.37 210.94C977.95 200.51 934.36 197.843 910.76 197.416C913.28 197.456 905.69 202.396 896.85 202.047C882.55 201.496 881 191.192 860.29 187.204C833.71 182.082 806.28 181.825 796.03 175.236C774.24 161.214 798.87 175.241 782.09 181.478C769.41 186.173 735.49 180.25 740.62 179.383C709.41 184.697 729.03 194.278 730.88 201.695C736.91 225.669 686.08 204.884 698.72 198.108C700.8 196.981 719.6 199.568 717.19 196.726C714.18 193.223 691.72 180.257 666.7 186.524C652.33 190.124 685.05 208.056 684.44 217.162C683.97 224.033 670.57 217.876 679.65 225.115C672.67 219.503 711 238.938 725.5 235.262C743.35 230.766 713.2 219.399 725.95 216.054C728.13 215.494 768.31 218.696 776.34 231.07C775.33 229.564 762.71 233.418 762.44 234.109C758.27 242.772 805.51 261.219 780.27 259.952C750.76 258.487 760.2 228.729 730.11 235.317C727.23 235.956 724.89 243.762 725.24 246.482C727.13 260.434 762.46 268.922 775.28 275.902C785.36 281.424 793.57 304.036 765.66 291.807C769.39 293.444 774.22 285.335 775.71 283.009C776.23 276.441 759.58 288.775 756.52 288.504C755.51 288.414 746.87 284.189 752.05 283.645C737.26 285.199 752.44 289.882 733.44 289.832C701.51 289.736 726.73 256.277 692.37 273.314C689.87 274.554 705.53 275.512 706.09 276.691C714.54 293.895 632.8 278.34 627.67 278.963C604.64 281.805 622.19 295.503 590.8 278.524C557.83 260.706 589.18 276.092 581.32 291.227C577.07 299.323 578.79 304.032 599.6 297.843C630.51 288.657 627.15 306.063 649.95 312.849C666.05 317.69 681.8 312.837 686.67 319.703C688.3 321.998 653.04 341.583 649.27 341.685C640.72 341.955 630.23 334.074 626.35 335.016C614.2 337.908 608.41 348.663 625.97 351.019C625.33 350.935 646.24 346.221 648.15 345.316C645.89 345.464 643.19 345.803 639.91 346.381C646.88 345.165 648.86 344.962 648.15 345.316C654.09 344.907 656.9 345.89 658.34 348.19C658.77 348.88 643.73 350.166 637.15 350.235C634.01 352.23 625.72 356.008 625.86 355.835C625.58 356.154 625.31 356.462 625.05 356.761C622.45 359.78 621.08 361.892 620.46 363.281C618.11 368.548 626.34 364.142 620.46 363.281C618.84 363.057 616.14 363.085 611.85 363.659C597.21 365.653 620.47 372.572 597.87 369.909C576.24 367.346 605.54 357.039 602.93 352.338C600.23 347.638 549.87 328.958 534.28 330.697C533.92 330.741 529.2 340.239 532.1 343.369C536.64 343.199 539.53 343.234 538.57 343.574C535.08 344.782 533.09 344.464 532.1 343.369C520.37 343.748 497.63 345.324 500.86 346.201C492.38 344.675 492.54 336.971 469.66 333.142C431.25 326.678 410.83 335.432 396.19 321.055C381.11 306.204 390.32 325.606 377.57 328.833C364.64 332.139 320.43 316.677 340.67 328.395C347.69 332.444 330.34 336.409 312.87 334.472C303.74 333.466 298.65 327.407 285.41 326.146C289.98 326.571 280.24 331.018 280.72 330.895C262.52 335.808 263.23 326.361 257.8 324.215C259.58 324.911 253.8 325.77 250.11 325.775C249.86 325.791 249.33 325.785 248.57 325.708C249.02 325.752 249.52 325.768 250.11 325.775C253.21 325.401 233.32 319.041 233.07 316.703C217.63 319.518 184.17 329.455 183.91 329.744C177.35 337.384 204.53 350.288 206.43 350.837C202.97 349.869 209.05 346.073 211.19 346.079C252.92 346.155 222.1 353.994 233.81 363.968C234.39 364.485 251.53 367.043 252.17 367.391C265.41 374.66 233.51 401.983 255.62 415.48C263.66 420.382 316.14 422.334 319.95 424.256C331.84 430.247 308.74 439.73 310.17 435.9C307.82 440.551 321.32 440.174 319.54 441.871C318.79 442.596 279.71 440.686 296.37 448.004C317.77 457.441 324.9 463.679 314.33 467.45C312.77 467.998 292.1 462.409 291.32 465.575C291.04 466.9 313.09 472.252 314.18 473.866C318.63 480.415 295.54 488.141 295.32 492.847C295.34 491.762 308.44 495.532 309.04 496.213C313.4 500.962 312.54 513.506 299.37 515.33C301.8 514.988 287.02 512.147 285.73 511.976C287.63 512.574 310.59 526.923 303.64 529.8C299.47 531.538 268.36 515.46 262.32 521.308C254.36 529.048 275.97 525.26 285.18 529.581C295.24 534.27 309.51 556.34 296.98 560.967C296.57 561.257 295.53 561.517 293.67 561.719C313.49 565.228 265.68 566.504 265.92 564.594C264.56 575.703 286.41 568.265 293.26 579.336C290.9 575.517 272.86 577.443 274.9 575.905C259.9 587.135 306.5 585.002 292.99 590.546C281.18 595.378 251.9 582.165 251.67 582.056C230.84 570.261 258.46 593.798 260.61 600.095C261.17 600.394 261.21 600.815 260.41 601.373C260.78 601.113 260.79 600.684 260.61 600.095C257.09 598.275 233.36 600.573 230.07 601.901C232.25 602.385 233.34 602.671 232.78 602.645C229.75 602.533 229.16 602.261 230.07 601.901C219.89 599.69 185.88 593.522 182.24 595.647C172.61 601.248 206.31 607.244 223.54 609.609C215.49 607.637 222.21 603.742 223.75 602.696C223.53 602.614 223.45 602.564 223.53 602.535C224.19 602.328 224.13 602.417 223.75 602.696C227.35 604.037 274.42 612.899 260.07 615.796C249.31 617.974 224.89 610.288 209.52 610.378C206.34 610.4 172.36 615.095 164.78 616.069C168.12 616.128 160.47 621.361 158.63 619.395C173.37 635.337 40.0503 598.529 71.1003 618.354C78.1903 622.893 65.6303 622.236 62.3403 621.572C68.8803 622.948 119.35 628.14 135.27 633.526C137 634.103 137.72 634.619 137.97 635.033C138.34 634.675 138.88 634.213 139.86 633.58C152.73 625.263 181.07 638.32 176.6 640.425C173.45 641.91 133.86 640.015 135.15 639.932C128.56 640.391 117.5 644.791 102.74 645.955C55.2402 649.659 4.34031 643.437 33.3203 657.945C53.2603 667.921 -1.81971 663.777 5.30029 672.018C5.24029 671.95 19.5303 677.286 37.5103 675.606C47.2603 674.697 50.3401 665.325 56.1501 664.614C73.1501 662.53 55.8002 670.079 79.2202 664.888C77.9802 665.157 55.4701 661.177 60.9001 659.864C63.8401 659.167 125.1 671.831 137.49 672.057C136.66 671.452 152.13 666.282 143.75 664.054C146.99 664.903 55.5904 665.72 79.3704 658.482C91.5204 654.788 98.1502 663.433 106.95 662.015C111.38 661.296 100.39 657.657 98.2302 657.173C97.8402 657.177 97.6703 657.175 97.8403 657.1C97.9003 657.082 98.0102 657.121 98.2302 657.173C101.52 657.027 124.25 654.113 139.37 654.4C144.31 654.488 153.96 659.077 162.36 657.867C165.94 657.353 157.28 650.384 176.34 651.626C189.31 652.464 194.73 659.589 208.37 661.609C232.04 665.123 283.51 673.237 281.7 678.499C278.73 687.49 264.85 676.501 250.67 677.105C253.33 677.987 244.43 684.483 244.71 684.467C241.9 684.57 217.8 674.223 217.13 680.937C216.51 687.13 293.47 690.849 272.09 697.598C266.37 699.415 241.08 692.933 239.87 695.624C234.19 707.707 308.97 718.951 308.57 727.521C308.74 727.632 308.65 727.933 308.24 728.466C308.5 728.156 308.56 727.854 308.57 727.521C307.44 726.678 292.24 736.217 285.84 731.97C303.66 746.471 395.01 740.661 413.74 752.158C414.01 752.325 405.26 753.893 413.66 755.349C408.34 754.426 426.63 755.006 437.61 754.384C423.42 754.987 434.38 747.176 436.89 747.616C449.77 749.861 434 759.617 454.95 763.841C458.73 764.628 475.78 760.162 473.46 760.866C501.06 752.452 476.34 758.947 468.96 755.998C451.95 749.241 479.53 752.294 464.54 747.944C462.39 747.332 460.16 746.847 457.75 746.448C454.7 746.734 451.95 746.761 450.73 746.179C450.31 745.978 450.15 745.752 450.01 745.507C420.7 743.077 380.41 750.461 381.69 740.551C381.52 741.761 403.75 734.553 404.91 734.42C422.44 732.216 398.74 737.464 418.59 739.389C430.59 740.557 462.09 732.745 460.26 731.875C471.74 737.315 448.77 742.492 449.98 745.507C452.65 745.743 455.23 746.047 457.69 746.447C462.9 745.972 468.95 744.764 469.17 744.786C473.3 745.168 484.6 748.379 492.6 751.101C492.83 751.183 493.05 751.254 493.27 751.325C493.72 751.486 494.17 751.638 494.61 751.791C494.92 751.901 495.23 752.003 495.51 752.113C495.84 752.234 496.18 752.355 496.48 752.476C496.76 752.577 497.01 752.678 497.26 752.777C497.76 752.971 498.24 753.162 498.65 753.342C498.79 753.401 498.9 753.452 499.04 753.513C499.35 753.642 499.63 753.763 499.88 753.883C499.99 753.944 500.1 753.995 500.21 754.054C500.4 754.165 500.6 754.254 500.74 754.354C500.79 754.393 500.88 754.443 500.93 754.474C501.1 754.593 501.21 754.701 501.2 754.78C501.59 758.574 480.18 758.447 477.96 764.114C479.46 760.274 506.65 775.484 482.26 778.593C478.48 779.075 439.47 763.373 436.26 773.24C436.47 772.539 471.31 784.157 472.87 783.463C472.36 785.137 463.63 797.429 467.99 796.044C462.19 797.89 431.22 795.393 431.13 795.605C425.42 811.256 470.19 798.298 477.13 799.357C483.1 800.277 510.85 815.747 531.97 817.63C538.08 818.171 558.61 812.79 569 813.274C570.3 813.33 582.42 819.001 587.29 819.899C612.31 824.524 671.06 831.376 674.58 832.152C675.98 832.452 673.04 836.793 674.47 836.946C678.28 837.363 689.97 834.024 692.95 833.972C710.3 833.66 752.91 840.869 766.49 844.448V844.418ZM878.06 214.59C881.47 209.307 897.14 209.894 905.74 213.317C921.42 219.55 873.74 221.405 878.06 214.59ZM909.74 240.617C914.3 239.099 924.02 242.027 928.1 244.029C947.58 253.531 891.87 246.578 909.74 240.617ZM881.15 280.316C893.36 271.66 873.04 278.334 858.25 273.626C822.26 262.151 868.3 245.624 895.49 259.652C893.96 258.881 908.43 284.381 908.72 283.838C906.14 288.437 869.51 288.558 881.15 280.306V280.316ZM945.24 300.291C931.85 298.345 923.63 289.651 927.2 282.466C927.37 282.087 940.28 283.002 941.02 282.63C943.1 281.59 951.49 270.359 959.8 268.426C966.15 266.948 972.13 269.686 973.56 270.191C1000.14 279.826 962.36 302.791 945.24 300.291ZM320.58 398.592C305.75 382.593 259.53 384.22 257.04 356.186C256.67 351.552 245.28 351.896 252.65 348.124C271.34 338.569 294.23 383.872 307.05 387.218C307.75 387.402 306.54 388.56 307.01 388.819C316.51 393.837 325.75 385.731 334.61 392.353C341.13 397.254 329.77 408.469 320.61 398.583L320.58 398.592ZM337.92 445.255C337.41 439.613 323.54 436.575 324.37 433.881C326.49 427.01 340.76 433.285 342.94 429.285C344.82 425.9 334.09 426.68 333.8 425.973C331.14 419.397 308.11 409.101 325.04 405.044C334.74 402.745 347.87 410.755 354.92 415.635C354.34 414.076 353.53 412.757 352.57 411.769C362.68 421.824 361.2 419.97 354.92 415.635C360.62 430.502 349.68 469.004 341.66 483.727C340.13 486.511 348.32 487.274 346.11 490.188C344.2 492.792 335.26 491.865 332.2 494.838C331.22 495.754 339.28 500.997 336.64 501.307C303.06 505.215 339.04 456.55 337.95 445.246L337.92 445.255ZM331.4 512.244C327.95 510.631 336.52 526.419 322.2 526.767C316.78 526.888 322.75 507.228 331.4 512.244ZM339.62 570.226C340.9 569.608 360.65 575.986 357.98 573.649C373.1 586.811 316.71 581.227 339.62 570.226ZM413.06 583.915C423.62 580.398 431.07 586.524 431.35 588.939C431.91 593.684 400.03 588.244 413.06 583.915ZM176.73 626.321C176.03 628.871 202.23 625.227 196.17 624.628C210.91 625.497 223.19 631.436 222.86 634.518C222.33 639.512 174.8 631.047 176.71 626.331L176.73 626.321ZM227.21 645.773C229.08 645.356 257.51 649.366 266.08 650.671C266.56 650.549 267.35 650.656 268.58 651.072C268.46 651.03 267.54 650.874 266.08 650.671C262.83 651.443 275.16 662.774 277.64 657.587C277.88 657.072 284.89 660.252 282.15 660.844C262.68 665.165 199.44 652.017 227.21 645.763V645.773ZM576.56 686.771C578.64 687.079 585.24 691.583 581.02 693.223C573.22 696.246 551.92 683.041 576.56 686.771ZM1345.96 703.931C1352.2 706.387 1366.29 708.294 1350.34 713.583C1328.73 720.8 1320.62 693.918 1345.96 703.931ZM451.26 722.127C450.62 722.011 458.32 726.939 451.11 728.533C437.55 731.556 432.26 718.579 451.26 722.127Z" fill="#171717"/>
<path fill-rule="evenodd" clip-rule="evenodd" d="M1416.79 479.022C1417.33 480.524 1421.38 481.646 1424.99 479.696C1430.81 476.543 1415.82 476.384 1416.79 479.022Z" fill="#171717"/>
<path fill-rule="evenodd" clip-rule="evenodd" d="M1297.34 464.025C1303.45 464.85 1303.18 462.346 1303.71 460.945C1306.48 453.77 1286.29 462.546 1297.34 464.025Z" fill="#171717"/>
<path fill-rule="evenodd" clip-rule="evenodd" d="M1302.6 474.658C1304.29 473.622 1306.71 472.568 1302.56 471.414C1295.94 469.567 1297.17 477.954 1302.6 474.658Z" fill="#171717"/>
<path fill-rule="evenodd" clip-rule="evenodd" d="M1318.4 547.996C1319.99 548.444 1323.91 547.055 1324.18 546.911C1329.72 543.619 1309.98 545.64 1318.4 547.996Z" fill="#171717"/>
<path fill-rule="evenodd" clip-rule="evenodd" d="M1268.19 472.048C1256.15 472.374 1242.63 477.527 1241.8 482.469C1241.66 483.22 1244.46 485.304 1243.65 486.214C1241.54 488.581 1234.04 489.526 1232.11 491.623C1231.13 492.686 1229.76 499.214 1233.4 500.597C1244.17 504.691 1253.1 493.485 1261.96 491.325C1270.46 489.228 1279.02 490.609 1284.14 488.346C1296.17 483.058 1286.85 471.557 1268.19 472.048Z" fill="#171717"/>
<path fill-rule="evenodd" clip-rule="evenodd" d="M1255.85 450.306C1259.76 450.781 1260.31 449.705 1261.31 448.593C1265.85 443.548 1246.14 449.116 1255.85 450.306Z" fill="#171717"/>
<path fill-rule="evenodd" clip-rule="evenodd" d="M1287.64 546.43C1287.88 546.288 1289.83 544.366 1287.91 543.817C1279.59 541.481 1280.81 550.609 1287.64 546.43Z" fill="#171717"/>
<path fill-rule="evenodd" clip-rule="evenodd" d="M1226.11 501.792C1222.66 500.452 1227.5 495.471 1225.14 493.438C1213.6 483.573 1185.08 495.316 1179.84 500.745C1175.44 505.311 1171.75 511.91 1174.76 512.786C1179.77 514.242 1179.54 510.488 1185.68 509.369C1190.07 508.583 1206.06 508.051 1211.24 506.803C1215.42 505.797 1214.75 503.612 1220.95 504.125C1224.98 504.465 1223.39 511.176 1234.69 509.572C1243.8 508.273 1233.71 500.779 1233.4 500.59C1231.82 499.595 1227.42 502.295 1226.11 501.783V501.792Z" fill="#171717"/>
<path fill-rule="evenodd" clip-rule="evenodd" d="M1211.46 535.962C1211.54 535.837 1212.68 534.853 1210.85 534.705C1205.15 534.256 1208.44 539.669 1211.46 535.962Z" fill="#171717"/>
<path fill-rule="evenodd" clip-rule="evenodd" d="M1168.72 519.728C1173.62 516.474 1160.75 518.569 1160.5 519.054C1159.32 521.52 1165.57 521.829 1168.72 519.728Z" fill="#171717"/>
<path fill-rule="evenodd" clip-rule="evenodd" d="M1170.43 622.02C1176.73 627.906 1224.26 619.125 1212.96 612.337C1205.71 607.974 1162.39 614.54 1170.43 622.02Z" fill="#171717"/>
<path fill-rule="evenodd" clip-rule="evenodd" d="M1149.47 630.717C1149.02 630.78 1146.46 630.796 1143.45 630.801C1143.25 631.219 1144.71 631.372 1149.47 630.717Z" fill="#171717"/>
<path fill-rule="evenodd" clip-rule="evenodd" d="M1210.11 520.503C1216.75 522.194 1219.17 518.873 1219.84 517.825C1223.21 512.453 1201.37 518.261 1210.11 520.503Z" fill="#171717"/>
<path fill-rule="evenodd" clip-rule="evenodd" d="M1196.84 535.117C1202.02 536.409 1204.14 530.476 1204.13 530.681C1205.19 524.375 1192.1 533.937 1196.84 535.117Z" fill="#171717"/>
<path fill-rule="evenodd" clip-rule="evenodd" d="M3610.91 826.419C3627.04 817.827 3663.73 792.012 3625.47 770.948C3574.81 743.079 3521.65 771.732 3474.53 767.39C3446.4 764.819 3410.46 749.71 3402.04 744.145C3401.2 743.558 3392.32 719.124 3378.5 715.296C3338.24 704.113 3284.28 730.064 3233.49 718.955C3216.91 715.325 3214.23 696.483 3206.26 716.505C3199.7 733.274 3190.79 712.405 3166.01 709.522C3125.82 704.848 3136.04 719.537 3117 715.156C3122.3 716.366 3125.1 702.439 3119.28 698.656C3123.13 701.163 3068.38 684.665 3066.31 683.887C3066.15 683.832 3065.99 683.755 3065.83 683.701C2975.07 649.539 3150.75 682.397 3171.03 673.262C3181.91 668.33 3095.15 649.811 3098.98 646.752C3107.3 639.984 3136.83 657.999 3173.76 653.48C3198.48 650.425 3158.13 644.228 3195.48 645.409C3285.62 648.182 3242.59 650.404 3225.87 624.753C3213.88 606.154 3295.12 572.534 3270.82 548.588C3254.02 532.02 3216.48 541.214 3197.41 531.96C3185.56 526.228 3168.08 497.274 3189.29 491.134C3240.83 476.192 3231.23 472.517 3257.73 443.832C3300.28 397.826 3521.33 323.791 3589.58 278.488C3616.84 260.405 3549.52 226.171 3473.92 256.898C3469.71 258.576 3463.11 258.309 3457.75 259.11C3422.3 272.077 3385.33 284.459 3347.21 294.843C3308.09 305.503 3237.18 319.64 3190.31 334.207C3155.65 345.025 3135.42 356.589 3105.11 353.272C3101.59 352.915 3096.01 345.894 3099.22 346.06C3074.87 344.929 3072.01 355.612 3050.68 348.375C3037.37 343.877 3032.71 319.947 3040.28 324.05C3012.2 308.913 2962.9 316.05 2950.58 326.004C2952.46 324.482 2951.95 355.506 2952.17 361.822C2953.7 359.514 2977.07 378.445 2970.42 381.249C2954.08 388.071 2936.38 364.557 2929.67 377.583C2931.13 374.658 2955.33 385.718 2955.92 386.627C2955.72 386.222 2953.94 409.39 2931.91 411.177C2875.75 415.72 2893.78 379.427 2888.93 373.898C2881.53 365.51 2856.08 365.91 2857.22 354.318C2857.11 356.04 2867.42 352.465 2874.09 349.52C2867.41 348.002 2866.54 346.702 2878.98 346.252C2880.93 346.163 2878.24 347.714 2874.09 349.52C2887.75 352.725 2926.12 356.91 2925.66 357.134C2949.63 345.539 2836.89 286.805 2868.59 321.928C2882.59 337.49 2872.62 325.265 2859.96 334.516C2852.45 339.974 2845.65 367.029 2836.59 376.34C2826.61 369.33 2842.16 364.291 2835.18 360.729C2828.79 357.485 2820.8 364.61 2811.49 362.387C2804.88 360.794 2803.25 351.296 2799.99 350.534C2794.76 349.269 2785.49 353.733 2779.4 353.49C2771.47 353.164 2742.95 343.915 2741.12 341.957C2741.16 341.982 2741.85 336.665 2742.2 332.397C2738.76 331.762 2731.45 325.4 2736.13 324.659C2724.12 326.554 2731.99 337.896 2716.31 339.623C2694.36 342.03 2664.95 338.038 2661.3 335.02C2642.36 319.32 2674.36 325.805 2674.25 324.165C2673.91 319.102 2635.58 310.397 2619.63 311.55C2607.26 312.434 2607.31 316.9 2599.76 317.158C2594.66 317.331 2582.17 313.599 2579.88 313.414C2547.94 310.988 2543.27 325.705 2535.2 326.039C2526.34 326.403 2507.68 315.944 2506.15 309.062C2505.32 305.096 2512.97 304.093 2512.61 303.613C2509.99 299.873 2502.02 299.176 2496.95 295.827C2489.34 290.802 2490.26 282.267 2483.56 277.305C2482.23 276.349 2471.87 278.392 2470.19 277.487C2459.37 271.685 2465.81 265.765 2454.87 261.665C2451.81 260.513 2414.21 253.503 2409.42 252.93C2380.57 249.418 2331.31 256.599 2320.46 270.148C2318.52 272.562 2323.27 276.758 2320.1 278.164C2316.88 279.586 2304.98 277.048 2301.75 279.752C2299.99 281.225 2307.04 285.465 2302.16 290.424C2298.45 294.166 2284.13 293.611 2282.33 296.036C2279.23 300.26 2299.22 300.123 2290.78 306.595C2289.69 307.435 2272.11 306.465 2273.19 310.84C2273.5 312.212 2295.46 316.429 2296.53 317.218C2303.14 321.867 2297.22 338.897 2301.53 343.868C2308.27 351.585 2347.42 364.703 2381.06 368.158C2395.41 369.632 2410.34 374.357 2417.76 374.353C2425.48 374.355 2483.59 363.264 2491.88 370.692C2499.58 377.598 2474.23 373.321 2470.08 378.999C2467.9 382.042 2476.95 387.013 2477.41 394.938C2478.38 412.139 2453.16 411.827 2455.52 421.186C2396.84 415.5 2335.23 409.06 2277.9 402.66C2243.27 398.79 2210.14 394.954 2180.18 391.321C2179.59 391.268 2178.98 391.173 2178.41 391.101C2174.03 390.564 2169.69 390.031 2165.44 389.506C2164.78 389.427 2164.08 389.343 2163.42 389.263C2159.09 388.731 2154.8 388.182 2150.63 387.665C2064.88 376.853 1989.47 372.798 1969.4 354.653C1967.79 353.205 1973.54 341.987 1971.22 341.472C1963.74 339.74 1930.38 355.523 1941.75 355.507C1903.38 355.519 1913.79 335.877 1877.46 322.992C1816.24 301.329 1782.66 316.297 1772.3 286.801C1757.99 246.071 1705.84 301.216 1715.62 298.429C1665.63 312.736 1609.67 281.277 1566.06 284.973C1563.18 285.203 1566.51 296.912 1564.23 298.174C1562.33 299.185 1512.77 310.107 1507.56 309.782C1492.26 308.792 1475.9 294.424 1454.59 294.992C1451.77 295.064 1471.83 307.524 1445.47 310.857C1427.14 313.182 1426.12 297.504 1411.52 307.803C1403.9 313.148 1424.07 316.287 1422.79 325.544C1421.09 338.41 1400.35 332.693 1400.07 340.186C1400.17 339.522 1447.13 350.43 1425.02 359.157C1396.83 370.332 1385.79 347.845 1371.55 347.664C1354.67 347.449 1368.74 357.944 1342.57 358.422C1285.48 359.458 1261.88 328.853 1227.91 341.423C1217.03 345.476 1244.21 356.825 1259.2 364.307C1336.49 402.696 1216.59 387.468 1185.7 397.789C1141.84 412.403 1224.56 421.171 1237.39 422.468C1258.58 424.636 1339.55 455.555 1335.22 461.318C1319.91 481.885 1189.6 451.845 1156.64 458.638C1138.67 462.336 1165.63 476.113 1140.8 473.897C1113.69 471.502 1087.26 438.907 1063.37 436.86C1058.48 436.42 1042.75 453.342 1006.16 451.781C973.11 450.378 988.98 460.67 956.79 460.664C929.8 460.683 956.66 453.767 930.97 448.338C887.05 439.067 873.6 469.499 870.64 486.347C870.94 484.541 891.54 491.812 889.63 498.058C886.6 508.158 842.77 505.518 824.83 518.982C801.79 536.261 799.37 555.928 770.9 560.905C710.3 571.487 771.05 558.86 796.72 573.232C816.04 584.079 789.25 606.357 785.81 602.343C806.86 626.769 848.5 616.131 880.08 617.505C982.17 621.904 891.44 650.942 863.29 639.362C858.6 637.455 870.5 624.853 858.32 625.55C843.29 626.44 787.15 637.89 812.54 658.205C827.13 669.867 904.86 652.843 943.5 656.604C972.65 659.449 945.86 666.859 977.04 662.961C952.87 665.942 1037.25 645.42 1022.35 633.627C1004.12 619.129 954.39 636.702 940.81 626.291C938.54 624.516 954.09 596.743 1007.02 595.474C1000.57 595.646 1016.33 606.15 1019.25 606.595C1055.83 612.759 1136.45 585.459 1129.85 603.18C1122.19 623.907 996.3 606.242 1022.8 630.328C1025.38 632.637 1058.41 637.174 1069.98 637.912C1129.31 641.64 1167.07 619.285 1197.33 612.596C1221.27 607.353 1317.68 609.689 1264.4 625.333C1271.53 623.243 1237.33 616.804 1227.53 614.881C1199.66 612.112 1251.23 628.609 1249.93 630.712C1249.5 631.407 1231.14 636.093 1229.08 632.158C1234.96 643.384 1255.58 634.155 1254.45 647.823C1252.49 670.793 1111.64 640.415 1182.32 671.387C1187.46 673.642 1192.29 662.708 1197.32 662.734C1270.78 662.925 1200.76 716.136 1203.16 720.061C1214.11 737.689 1273.13 730.043 1199.51 746.463C1122.25 763.712 1189.1 746.745 1252.98 757.932C1287.15 763.942 1307.23 764.423 1281.96 747.174C1244.46 721.553 1318.2 730.327 1348.13 716.375C1369.46 706.54 1349.62 693.426 1379.01 692.424C1388.84 692.084 1470.29 724.635 1470.54 727.389C1471.27 733.645 1437.3 738.332 1441.1 741.468C1452.79 751.277 1498.18 759.377 1509.04 747.58C1508.65 748.012 1489.65 731.225 1485.9 729.522C1486.42 731.201 1487.73 733.276 1490.02 735.844C1485.2 730.38 1484.43 728.883 1485.9 729.522C1484.45 725.096 1488.76 723.424 1498.6 723.228C1501.55 723.169 1506.28 734.474 1506.25 739.239C1514.57 742.229 1530.21 749.587 1529.48 749.419C1530.82 749.74 1532.12 750.043 1533.38 750.339C1546.07 753.313 1554.97 755.07 1560.84 756.03C1564.78 752.106 1583.09 759.642 1560.84 756.03C1559.81 757.116 1559.79 759.071 1562.02 762.367C1569.78 773.641 1600.29 759.415 1587.88 774.719C1575.95 789.373 1533.61 764.499 1513.52 764.667C1493.43 764.896 1411.67 794.358 1418.29 806.221C1418.47 806.498 1458.56 813.366 1472 812.418C1471.5 809.09 1471.78 807.017 1473.18 807.836C1478.14 810.791 1476.7 812.106 1472 812.418C1473.04 821.006 1478.62 837.969 1482.5 835.956C1475.62 841.51 1442.91 838.586 1425.54 853.671C1396.23 878.983 1432.41 896.889 1370.65 902.19C1306.86 907.636 1389.69 908.079 1402.77 918.445C1416.18 928.965 1348.38 955.177 1399.12 944.869C1416.65 941.292 1432.65 955.238 1423.57 967.115C1418.86 973.331 1392.88 974.784 1386.88 983.864C1388.91 980.725 1407.32 989.368 1406.82 988.976C1426.8 1003.88 1386.72 999.923 1377.35 1003.05C1380.39 1002.02 1383.75 1006.5 1383.6 1009.16C1383.65 1009.34 1383.6 1009.73 1383.23 1010.24C1383.45 1009.94 1383.54 1009.58 1383.6 1009.16C1382.16 1006.79 1354.19 1018.79 1344.25 1018.12C1355.45 1030.28 1396.02 1058.01 1397.24 1058.3C1429.35 1065.81 1485.47 1050.94 1487.89 1049.77C1483.61 1051.91 1467.79 1046.15 1467.92 1044.61C1470.27 1014.57 1502.06 1039.64 1544.98 1034.84C1547.2 1034.61 1558.89 1023.2 1560.41 1022.86C1591.91 1015.98 1706.38 1048.93 1764.76 1037.93C1785.97 1033.93 1796.81 996.825 1805.15 994.783C1831.17 988.405 1870.31 1008.51 1854.12 1006.08C1873.75 1009.47 1872.81 999.606 1879.93 1001.51C1882.97 1002.31 1872.96 1029.78 1904.85 1020.44C1945.95 1008.47 1972.79 1005.61 1988.29 1014.6C1990.54 1015.92 1965.8 1028.77 1979.21 1030.49C1984.82 1031.18 2008.62 1017.25 2015.53 1017.05C2043.55 1016.23 2075.23 1035.69 2095.2 1037.57C2090.6 1037.15 2107.24 1029.09 2110.16 1028.91C2130.54 1027.5 2183.76 1032.7 2190.87 1042.85C2189.53 1040.98 2176.75 1050.59 2175.96 1051.45C2178.6 1050.3 2240.64 1039 2252.52 1045.06C2259.69 1048.69 2189.92 1065.24 2214.45 1071.72C2246.93 1080.29 2231.9 1063.33 2250.69 1058.27C2271.09 1052.74 2365.49 1050.51 2384.54 1061.23C2385.74 1061.63 2386.8 1062.47 2387.57 1063.89C2403.43 1050.89 2406.52 1085.8 2398.43 1084.93C2445.53 1089.97 2415.01 1071.51 2462.35 1070.61C2446.02 1070.92 2453.32 1084.62 2446.89 1082.59C2493.85 1097.49 2487.05 1063.14 2509.94 1074.9C2529.88 1085.17 2472.35 1101.44 2471.88 1101.57C2420.79 1112.27 2522.07 1100.97 2548.91 1101.71C2550.21 1101.42 2552 1101.54 2554.33 1102.32C2553.24 1101.96 2551.42 1101.8 2548.91 1101.71C2541.01 1103.59 2549.62 1121.52 2555.1 1124.37C2557.26 1122.98 2558.53 1122.3 2558.39 1122.69C2557.76 1124.84 2556.58 1125.16 2555.1 1124.37C2545.22 1130.9 2517.37 1153.15 2526.22 1156.55C2549.53 1165.54 2576.63 1143.44 2587.51 1131.89C2578.74 1136.97 2562.53 1130.71 2558.17 1129.21C2557.81 1129.34 2557.59 1129.38 2557.47 1129.32C2556.62 1128.77 2557 1128.84 2558.17 1129.21C2564.04 1127.11 2603.95 1096.43 2615.56 1107.83C2624.28 1116.37 2590.46 1131.16 2590.09 1142.27C2590.03 1144.57 2608.32 1170.77 2612.08 1176.58C2612.5 1174.2 2634.35 1181.62 2625.91 1182.23C2694.32 1177.42 2531.55 1260.04 2617.24 1244.91C2636.86 1241.46 2633.46 1250.26 2630.48 1252.4C2636.64 1248.19 2661.13 1213.71 2684.78 1204.21C2687.31 1203.18 2689.54 1202.85 2691.31 1202.82C2689.81 1202.42 2687.87 1201.86 2685.23 1200.93C2650.54 1188.62 2707.36 1172.97 2716.08 1176.96C2722.23 1179.77 2712.26 1207.6 2711.97 1206.64C2713.6 1211.55 2731.75 1221.13 2735.97 1232.19C2749.4 1267.76 2720.5 1302.16 2783.51 1286.58C2826.84 1275.85 2806.57 1314.02 2841.91 1311.9C2841.62 1311.91 2864.97 1303.57 2858.71 1290C2855.32 1282.65 2815.68 1277.01 2812.94 1272.56C2804.92 1259.55 2836.13 1274.81 2815.22 1256.04C2816.31 1257.03 2798.31 1271.8 2793 1267.4C2790.19 1265.03 2846.93 1225.52 2848.49 1216.68C2845.89 1217.06 2824.68 1204.02 2814.82 1209.25C2818.58 1207.22 2817.61 1273.37 2788.03 1253.6C2772.94 1243.49 2809.96 1241.88 2804.37 1235.02C2801.53 1231.56 2785.55 1238.15 2783.39 1239.53C2783.39 1239.81 2783.37 1239.93 2783.06 1239.78C2782.98 1239.73 2783.16 1239.67 2783.39 1239.53C2782.93 1237.1 2771.66 1219.67 2773.61 1208.88C2774.23 1205.35 2794.18 1200.07 2789.45 1193.58C2787.44 1190.81 2757.43 1194.51 2763.63 1181.23C2767.82 1172.2 2798.33 1170.89 2807.57 1161.8C2823.64 1146.03 2860.59 1111.91 2882.85 1115.13C2920.89 1120.55 2873.55 1126.54 2875.42 1136.98C2879.3 1135.39 2906.45 1144.17 2906.4 1143.96C2906.7 1146.02 2861.59 1159.61 2890.07 1162.54C2916.33 1165.24 2935.86 1111.16 2963.48 1129.03C2970.92 1133.81 2942.17 1149.66 2953.54 1151.52C3004.57 1160.02 3055.94 1110.25 3092.31 1113.66C3092.79 1113.58 3094.07 1113.76 3096.31 1114.25C3095 1113.95 3093.72 1113.79 3092.31 1113.66C3088.68 1114.17 3128.44 1128.61 3110.1 1131.66C3172.54 1124.12 3152.3 1056.19 3202.03 1046.89C3202.75 1046.75 3208.98 1053.63 3215.58 1048.11C3211.4 1051.6 3214.75 1038.64 3212.64 1030.5C3214.51 1040.94 3181.88 1030.2 3183.87 1028.55C3194.03 1020.09 3234.69 1035.01 3253.64 1021.46C3257.16 1019.03 3239.03 1005.11 3241.91 1007.04C3207.52 984.08 3233.9 1004.26 3221.02 1008.5C3191.5 1018.29 3205.8 999.534 3186.61 1008.75C3183.9 1010.08 3181.74 1011.51 3179.92 1013.1C3180.99 1015.39 3180.97 1017.39 3178.44 1018.06C3177.56 1018.28 3176.6 1018.32 3175.55 1018.33C3163.81 1038.56 3193.2 1070.28 3151.19 1065.74C3156.32 1066.31 3126.79 1047.66 3126.28 1046.77C3117.78 1033.34 3138.91 1052.33 3148.05 1038.73C3153.59 1030.51 3121.95 1004.97 3118.16 1005.97C3141.82 999.683 3162.69 1018.12 3175.55 1018.35C3176.68 1016.51 3178.1 1014.77 3179.92 1013.14C3178.15 1009.21 3173.32 1004.41 3173.42 1004.26C3175.24 1001.43 3189.43 994.453 3201.37 989.684C3201.73 989.552 3202.04 989.415 3202.35 989.283C3203.06 989.017 3203.73 988.752 3204.4 988.487C3204.88 988.304 3205.33 988.122 3205.81 987.961C3206.34 987.764 3206.87 987.568 3207.4 987.393C3207.84 987.228 3208.28 987.086 3208.72 986.942C3209.56 986.649 3210.4 986.377 3211.18 986.145C3211.44 986.066 3211.66 986.001 3211.93 985.922C3212.49 985.751 3213.02 985.594 3213.54 985.458C3213.8 985.402 3214.02 985.338 3214.28 985.281C3214.76 985.182 3215.15 985.074 3215.58 985.01C3215.75 984.985 3215.96 984.943 3216.1 984.914C3216.61 984.836 3217.08 984.798 3217.41 984.828C3233.54 985.932 3231.96 1001.32 3255.92 1004.98C3239.69 1002.5 3305.59 988.465 3317.61 1007.17C3319.47 1010.07 3250.9 1032.44 3292.64 1038.36C3289.67 1037.95 3340.7 1017.09 3337.83 1015.71C3344.91 1016.69 3396.68 1027.47 3391.01 1023.82C3398.57 1028.67 3386.46 1050.07 3387.36 1050.22C3453.54 1060.04 3400.69 1023.06 3405.53 1018.44C3409.72 1014.48 3476.76 1000.13 3485.77 985.604C3488.37 981.394 3466.52 964.64 3469.08 957.331C3469.38 956.42 3494.05 949.758 3498.1 946.578C3518.95 930.24 3550.9 890.412 3554.36 888.158C3555.71 887.26 3574 890.96 3574.72 889.989C3576.67 887.394 3563.06 877.754 3562.98 875.586C3562.5 862.973 3595.18 834.904 3611.04 826.43L3610.91 826.419ZM941.98 516.173C919.71 511.786 922.97 500.711 937.92 495.762C965.15 486.741 970.71 521.774 941.98 516.173ZM1054.04 502.847C1047.81 499.008 1060.72 493.076 1069.42 490.865C1110.71 480.298 1078.48 517.899 1054.04 502.847ZM1221.21 537.933C1185.05 525.98 1212.41 543.052 1191.7 551.987C1141.22 573.728 1073.28 534.529 1134.17 520.059C1130.82 520.878 1239.8 519.764 1237.51 519.353C1256.91 522.891 1255.65 549.326 1221.17 537.929L1221.21 537.933ZM1309.14 499.05C1300.23 507.984 1262.92 510.738 1232.58 505.544C1230.98 505.28 1235.49 496.311 1233.95 495.642C1229.63 493.769 1182.35 483.626 1174.55 476.933C1168.58 471.815 1180.5 468.506 1182.71 467.664C1224.91 452.025 1320.59 487.63 1309.14 499.05ZM1696.21 984.963C1627.56 989.808 1632.22 1023.7 1513.06 1015.26C1493.37 1013.84 1494.28 1022.17 1478.62 1015.49C1438.95 998.53 1632.43 998.577 1647.26 990.562C1648.07 990.124 1652.93 991.419 1654.06 991.174C1675.82 986.162 1641.85 976.546 1670.4 972.576C1691.53 969.669 1738.6 981.95 1696.18 984.938L1696.21 984.963ZM1895.19 989.5C1871.21 987.809 1857.64 996.693 1846.24 995.116C1817.17 991.077 1844.5 983.084 1827.62 980.057C1813.34 977.469 1816.13 985.483 1813.12 985.434C1785.07 984.947 1740.23 997.783 1723.82 984.103C1714.53 976.28 1749.18 969.74 1770.25 966.44C1763.6 966.291 1757.96 966.394 1753.71 966.724C1796.9 963.115 1788.96 963.498 1770.25 966.44C1833.65 967.763 1996.61 989.696 2058.73 1000.85C2070.48 1002.97 2074.11 997.346 2086.38 999.997C2097.35 1002.33 2092.98 1008.43 2105.45 1011.72C2109.29 1012.76 2131.95 1008.87 2133.13 1010.88C2148.1 1036.5 1943.21 992.819 1895.16 989.474L1895.19 989.5ZM2179.32 1018.65C2172.3 1020.54 2239.76 1020.13 2240.54 1030.57C2240.79 1034.53 2157.6 1023.05 2179.32 1018.65ZM2425.92 1033.89C2423.36 1032.74 2451.4 1020.84 2441.35 1021.91C2497.97 1015.82 2471.52 1054.41 2425.92 1033.89ZM2487.61 985.974C2473.19 977.08 2499.56 973.951 2509.83 974.63C2530.01 975.956 2505.36 996.942 2487.61 985.974ZM2656.2 1171.71C2666.99 1173.15 2652.79 1152.95 2649.95 1157.09C2654.36 1146.79 2680.17 1140.11 2693.24 1141.47C2714.42 1143.68 2676.17 1174.83 2656.24 1171.73L2656.2 1171.71ZM2741.25 1142.45C2739.57 1140.95 2757.98 1121.93 2763.93 1116.23C2763.44 1115.84 2763.93 1115.31 2765.75 1114.58C2765.57 1114.64 2764.86 1115.25 2763.93 1116.23C2767.05 1118.85 2815.76 1114.11 2793.86 1110.43C2791.68 1110.06 2805.52 1106.18 2807.91 1108.37C2825.31 1123.97 2766.41 1164.73 2741.2 1142.44L2741.25 1142.45ZM2932.29 905.716C2933.7 904.335 2953.15 901.218 2959.91 904.859C2972.36 911.584 2915.26 922.112 2932.29 905.716ZM3042.52 357.664C3053.25 354.067 3062.03 344.609 3083.72 358.03C3113.31 376.237 2998.77 372.269 3042.52 357.664ZM3076.34 1008.89C3075.81 1009.31 3097.11 1005.57 3103.53 1011.34C3115.71 1022.21 3060.35 1021.29 3076.34 1008.89Z" fill="#171717"/>
</svg>
