<svg width="3381" height="395" viewBox="0 0 3381 395" fill="none" xmlns="http://www.w3.org/2000/svg">
<g clip-path="url(#clip0_1727_71)">
<g clip-path="url(#clip1_1727_71)">
<path fill-rule="evenodd" clip-rule="evenodd" d="M17.0875 -92.5814C0.955624 -101.173 -35.727 -126.987 2.53451 -148.051C53.1951 -175.92 106.35 -147.268 153.466 -151.61C181.605 -154.181 217.538 -169.29 225.958 -174.855C226.802 -175.442 235.682 -199.876 249.501 -203.704C289.761 -214.887 343.715 -188.936 394.513 -200.045C411.089 -203.675 413.77 -222.517 421.743 -202.495C428.305 -185.726 437.21 -206.595 461.989 -209.478C502.179 -214.152 491.96 -199.463 510.998 -203.844C505.705 -202.634 502.899 -216.561 508.716 -220.344C504.866 -217.837 559.619 -234.335 561.692 -235.113C561.85 -235.168 562.013 -235.245 562.171 -235.299C652.925 -269.461 477.249 -236.603 456.974 -245.738C446.094 -250.67 532.846 -269.189 529.024 -272.248C520.703 -279.016 491.173 -261.001 454.238 -265.52C429.517 -268.575 469.872 -274.772 432.516 -273.591C342.377 -270.818 385.407 -268.596 402.126 -294.247C414.122 -312.846 332.876 -346.466 357.179 -370.412C373.981 -386.98 411.517 -377.786 430.595 -387.04C442.437 -392.772 459.918 -421.726 438.71 -427.866C387.168 -442.808 396.774 -446.483 370.268 -475.168C327.723 -521.174 106.67 -595.209 38.4217 -640.512C11.1551 -658.595 78.4809 -692.829 154.077 -662.102C158.295 -660.424 164.891 -660.691 170.252 -659.89C205.698 -646.923 242.667 -634.541 280.789 -624.157C319.911 -613.497 390.82 -599.36 437.693 -584.793C472.348 -573.975 492.583 -562.411 522.891 -565.728C526.406 -566.085 531.986 -573.106 528.774 -572.94C553.127 -574.071 555.988 -563.388 577.315 -570.625C590.629 -575.123 595.29 -599.053 587.722 -594.95C615.799 -610.087 665.099 -602.95 677.424 -592.996C675.537 -594.518 676.053 -563.494 675.827 -557.178C674.299 -559.486 650.933 -540.555 657.579 -537.751C673.924 -530.929 691.617 -554.443 698.329 -541.417C696.871 -544.342 672.673 -533.282 672.084 -532.373C672.285 -532.778 674.06 -509.61 696.086 -507.823C752.246 -503.28 734.216 -539.573 739.068 -545.102C746.474 -553.49 771.918 -553.09 770.782 -564.682C770.892 -562.96 760.575 -566.535 753.91 -569.48C760.59 -570.998 761.455 -572.298 749.015 -572.748C747.069 -572.837 749.757 -571.286 753.91 -569.48C740.253 -566.275 701.883 -562.09 702.336 -561.866C678.367 -573.461 791.111 -632.195 759.412 -597.072C745.411 -581.51 755.384 -593.735 768.043 -584.484C775.55 -579.026 782.353 -551.971 791.41 -542.66C801.389 -549.67 785.84 -554.709 792.815 -558.271C799.21 -561.515 807.205 -554.39 816.509 -556.613C823.123 -558.206 824.751 -567.704 828.008 -568.466C833.239 -569.731 842.505 -565.267 848.601 -565.51C856.527 -565.836 885.052 -575.085 886.88 -577.043C886.837 -577.018 886.148 -582.335 885.805 -586.603C889.245 -587.238 896.547 -593.6 891.872 -594.341C903.88 -592.446 896.012 -581.104 911.689 -579.377C933.635 -576.97 963.053 -580.962 966.704 -583.98C985.642 -599.68 953.637 -593.195 953.749 -594.835C954.094 -599.898 992.425 -608.603 1008.37 -607.45C1020.74 -606.566 1020.69 -602.1 1028.24 -601.842C1033.34 -601.669 1045.83 -605.401 1048.12 -605.586C1080.06 -608.012 1084.73 -593.295 1092.8 -592.961C1101.66 -592.597 1120.32 -603.056 1121.85 -609.938C1122.68 -613.904 1115.03 -614.907 1115.39 -615.387C1118.01 -619.127 1125.98 -619.824 1131.05 -623.173C1138.66 -628.198 1137.74 -636.733 1144.44 -641.695C1145.77 -642.651 1156.13 -640.608 1157.81 -641.513C1168.63 -647.315 1162.19 -653.235 1173.12 -657.335C1176.19 -658.487 1213.79 -665.497 1218.58 -666.07C1247.43 -669.582 1296.69 -662.401 1307.54 -648.852C1309.48 -646.438 1304.73 -642.242 1307.9 -640.836C1311.12 -639.414 1323.02 -641.952 1326.25 -639.248C1328.01 -637.775 1320.96 -633.535 1325.84 -628.576C1329.55 -624.834 1343.87 -625.389 1345.67 -622.964C1348.77 -618.74 1328.78 -618.877 1337.22 -612.405C1338.31 -611.565 1355.89 -612.535 1354.81 -608.16C1354.5 -606.788 1332.54 -602.571 1331.47 -601.782C1324.86 -597.133 1330.78 -580.103 1326.47 -575.132C1319.73 -567.415 1280.58 -554.297 1246.94 -550.842C1232.59 -549.368 1217.66 -544.643 1210.24 -544.647C1202.52 -544.645 1144.41 -555.736 1136.12 -548.308C1128.42 -541.402 1153.77 -545.679 1157.92 -540.001C1160.1 -536.958 1151.05 -531.987 1150.59 -524.062C1149.62 -506.861 1174.84 -507.173 1172.48 -497.814C1231.16 -503.5 1292.77 -509.94 1350.1 -516.34C1384.73 -520.21 1417.86 -524.046 1447.82 -527.679C1448.41 -527.732 1449.02 -527.827 1449.59 -527.899C1453.97 -528.436 1458.31 -528.969 1462.56 -529.494C1463.22 -529.573 1463.92 -529.657 1464.58 -529.737C1468.91 -530.269 1473.2 -530.818 1477.37 -531.335C1563.12 -542.147 1638.53 -546.202 1658.6 -564.347C1660.21 -565.795 1654.46 -577.013 1656.78 -577.528C1664.26 -579.26 1697.62 -563.477 1686.25 -563.493C1724.61 -563.481 1714.21 -583.123 1750.54 -596.008C1811.76 -617.671 1845.34 -602.703 1855.7 -632.199C1870.01 -672.929 1922.16 -617.784 1912.38 -620.571C1962.37 -606.264 2018.33 -637.723 2061.94 -634.027C2064.82 -633.797 2061.49 -622.088 2063.77 -620.826C2065.67 -619.815 2115.23 -608.893 2120.44 -609.218C2135.74 -610.208 2152.1 -624.576 2173.41 -624.008C2176.23 -623.936 2156.17 -611.476 2182.53 -608.143C2200.86 -605.818 2201.88 -621.496 2216.48 -611.197C2224.1 -605.852 2203.93 -602.713 2205.21 -593.456C2206.91 -580.59 2227.65 -586.307 2227.93 -578.814C2227.83 -579.478 2180.87 -568.57 2202.98 -559.843C2231.17 -548.668 2242.21 -571.155 2256.45 -571.336C2273.33 -571.551 2259.26 -561.056 2285.43 -560.578C2342.52 -559.542 2366.12 -590.147 2400.09 -577.577C2410.97 -573.524 2383.79 -562.175 2368.8 -554.693C2291.51 -516.304 2411.41 -531.532 2442.3 -521.211C2486.16 -506.597 2403.44 -497.829 2390.61 -496.532C2369.42 -494.364 2288.45 -463.445 2292.78 -457.682C2308.09 -437.115 2438.4 -467.155 2471.36 -460.362C2489.33 -456.664 2462.36 -442.887 2487.2 -445.103C2514.31 -447.498 2540.74 -480.093 2564.63 -482.14C2569.52 -482.58 2585.25 -465.658 2621.84 -467.219C2654.89 -468.622 2639.02 -458.33 2671.21 -458.336C2698.2 -458.317 2671.34 -465.233 2697.03 -470.662C2740.95 -479.933 2754.4 -449.501 2757.35 -432.653C2757.06 -434.459 2736.45 -427.188 2738.37 -420.942C2741.4 -410.842 2785.23 -413.482 2803.17 -400.018C2826.21 -382.739 2828.63 -363.072 2857.1 -358.095C2917.7 -347.513 2856.95 -360.14 2831.28 -345.768C2811.96 -334.921 2838.75 -312.643 2842.19 -316.657C2821.14 -292.231 2779.5 -302.869 2747.92 -301.495C2645.83 -297.096 2736.56 -268.058 2764.71 -279.638C2769.4 -281.545 2757.5 -294.147 2769.68 -293.45C2784.71 -292.56 2840.85 -281.11 2815.46 -260.795C2800.87 -249.133 2723.14 -266.157 2684.5 -262.396C2655.35 -259.551 2682.14 -252.141 2650.96 -256.039C2675.13 -253.058 2590.75 -273.58 2605.65 -285.373C2623.88 -299.871 2673.61 -282.298 2687.19 -292.709C2689.46 -294.484 2673.91 -322.257 2620.98 -323.526C2627.43 -323.354 2611.67 -312.85 2608.75 -312.405C2572.17 -306.241 2491.55 -333.541 2498.15 -315.82C2505.81 -295.093 2631.7 -312.758 2605.2 -288.672C2602.62 -286.363 2569.59 -281.826 2558.02 -281.088C2498.69 -277.36 2460.93 -299.715 2430.67 -306.404C2406.73 -311.647 2310.32 -309.311 2363.6 -293.667C2356.47 -295.757 2390.67 -302.196 2400.47 -304.119C2428.34 -306.888 2376.77 -290.391 2378.07 -288.288C2378.5 -287.593 2396.86 -282.907 2398.92 -286.842C2393.04 -275.616 2372.42 -284.845 2373.55 -271.177C2375.51 -248.207 2516.36 -278.585 2445.68 -247.613C2440.54 -245.358 2435.71 -256.292 2430.68 -256.266C2357.22 -256.075 2427.24 -202.864 2424.84 -198.939C2413.89 -181.311 2354.87 -188.957 2428.49 -172.537C2505.75 -155.288 2438.9 -172.255 2375.02 -161.068C2340.84 -155.058 2320.77 -154.577 2346.04 -171.826C2383.54 -197.447 2309.8 -188.673 2279.87 -202.625C2258.54 -212.46 2278.38 -225.574 2248.99 -226.576C2239.16 -226.916 2157.71 -194.365 2157.46 -191.611C2156.73 -185.355 2190.7 -180.668 2186.9 -177.532C2175.21 -167.723 2129.82 -159.623 2118.96 -171.42C2119.35 -170.988 2138.35 -187.775 2142.1 -189.478C2141.58 -187.799 2140.27 -185.724 2137.98 -183.156C2142.8 -188.62 2143.57 -190.117 2142.1 -189.478C2143.55 -193.904 2139.24 -195.576 2129.4 -195.772C2126.45 -195.831 2121.72 -184.526 2121.75 -179.761C2113.43 -176.771 2097.79 -169.413 2098.52 -169.581C2097.18 -169.26 2095.88 -168.957 2094.62 -168.661C2081.93 -165.687 2073.03 -163.93 2067.16 -162.97C2044.91 -159.358 2063.22 -166.894 2067.16 -162.97C2068.19 -161.884 2068.21 -159.928 2065.98 -156.632C2058.22 -145.358 2027.71 -159.585 2040.12 -144.281C2052.05 -129.627 2094.39 -154.501 2114.48 -154.333C2134.57 -154.104 2216.33 -124.642 2209.71 -112.779C2209.53 -112.502 2169.44 -105.634 2156 -106.582C2156.5 -109.91 2156.22 -111.983 2154.82 -111.164C2149.86 -108.209 2151.3 -106.894 2156 -106.582C2154.96 -97.9938 2149.38 -81.0301 2145.5 -83.0429C2152.38 -77.4892 2185.09 -80.4141 2202.46 -65.329C2231.77 -40.0167 2195.59 -22.111 2257.35 -16.8104C2321.14 -11.3636 2238.31 -10.9213 2225.23 -0.554972C2211.82 9.96463 2279.62 36.1773 2228.88 25.8691C2211.35 22.2919 2195.35 36.2377 2204.43 48.1151C2209.14 54.3311 2235.12 55.7837 2241.12 64.8644C2239.09 61.7245 2220.68 70.368 2221.18 69.9765C2201.2 84.8764 2241.28 80.9236 2250.65 84.0522C2247.61 83.0224 2244.25 87.5017 2244.4 90.1561C2244.35 90.3437 2244.4 90.7259 2244.77 91.2445C2244.55 90.9388 2244.46 90.5779 2244.4 90.1561C2245.84 87.7854 2273.81 99.7948 2283.75 99.1231C2272.55 111.277 2231.98 139.007 2230.76 139.303C2198.64 146.814 2142.53 131.941 2140.11 130.771C2144.39 132.912 2160.21 127.148 2160.08 125.612C2157.73 95.5701 2125.94 120.637 2083.02 115.839C2080.8 115.612 2069.11 104.197 2067.59 103.862C2036.09 96.9783 1921.62 129.933 1863.24 118.93C1842.03 114.926 1831.19 77.8249 1822.85 75.7826C1796.83 69.4055 1757.69 89.5084 1773.88 87.0775C1754.25 90.4717 1755.19 80.6062 1748.07 82.5101C1745.03 83.3129 1755.04 110.775 1723.15 101.439C1682.05 89.4685 1655.21 86.6081 1639.71 95.5989C1637.46 96.9225 1662.2 109.774 1648.79 111.492C1643.18 112.179 1619.38 98.2464 1612.47 98.0495C1584.45 97.2303 1552.77 116.689 1532.8 118.565C1537.4 118.151 1520.76 110.09 1517.84 109.908C1497.46 108.5 1444.24 113.697 1437.13 123.85C1438.47 121.977 1451.25 131.586 1452.04 132.454C1449.4 131.303 1387.36 119.997 1375.48 126.056C1368.31 129.695 1438.08 146.238 1413.55 152.725C1381.07 161.286 1396.1 144.331 1377.31 139.275C1356.91 133.736 1262.51 131.515 1243.46 142.23C1242.26 142.628 1241.2 143.474 1240.43 144.886C1224.57 131.89 1221.47 166.802 1229.57 165.932C1182.47 170.965 1212.99 152.51 1165.65 151.615C1181.98 151.92 1174.68 165.618 1181.11 163.589C1134.15 178.492 1140.95 144.141 1118.06 155.896C1098.12 166.168 1155.65 182.443 1156.12 182.565C1207.21 193.268 1105.93 181.966 1079.09 182.713C1077.79 182.42 1076 182.541 1073.67 183.32C1074.76 182.96 1076.58 182.796 1079.09 182.713C1086.99 184.586 1078.38 202.515 1072.9 205.374C1070.74 203.977 1069.47 203.299 1069.61 203.691C1070.24 205.837 1071.42 206.157 1072.9 205.374C1082.78 211.9 1110.63 234.15 1101.78 237.553C1078.47 246.535 1051.37 224.444 1040.49 212.894C1049.26 217.972 1065.47 211.705 1069.83 210.214C1070.19 210.342 1070.41 210.384 1070.53 210.316C1071.38 209.768 1071 209.842 1069.83 210.214C1063.96 208.113 1024.05 177.435 1012.44 188.829C1003.72 197.375 1037.54 212.163 1037.9 223.272C1037.97 225.57 1019.68 251.766 1015.92 257.585C1015.5 255.198 993.651 262.621 1002.09 263.227C933.681 258.423 1096.45 341.041 1010.76 325.911C991.144 322.459 994.542 331.262 997.522 333.396C991.36 329.187 966.866 294.715 943.223 285.211C940.688 284.176 938.462 283.847 936.69 283.82C938.193 283.422 940.131 282.861 942.769 281.93C977.459 269.62 920.642 253.97 911.921 257.956C905.768 260.769 915.738 288.6 916.026 287.636C914.397 292.55 896.252 302.131 892.027 313.185C878.605 348.76 907.496 383.161 844.486 367.579C801.158 356.849 821.427 395.019 786.088 392.901C786.383 392.915 763.029 384.568 769.289 371.004C772.679 363.65 812.321 358.006 815.06 353.561C823.083 340.555 791.87 355.812 812.775 337.043C811.694 338.035 829.687 352.797 834.998 348.405C837.813 346.034 781.067 306.52 779.505 297.677C782.114 298.056 803.318 285.024 813.184 290.248C809.422 288.225 810.389 354.368 839.969 334.597C855.064 324.494 818.036 322.876 823.629 316.017C826.468 312.563 842.451 319.153 844.612 320.529C844.614 320.813 844.63 320.932 844.94 320.784C845.015 320.733 844.842 320.668 844.612 320.529C845.073 318.104 856.341 300.669 854.391 289.881C853.774 286.351 833.822 281.075 838.549 274.578C840.558 271.813 870.571 275.509 864.374 262.234C860.183 253.195 829.666 251.889 820.428 242.797C804.357 227.026 767.405 192.906 745.148 196.131C707.113 201.55 754.449 207.539 752.576 217.977C748.7 216.387 721.549 225.167 721.602 224.958C721.301 227.022 766.408 240.608 737.934 243.539C711.664 246.245 692.136 192.161 664.518 210.026C657.08 214.809 685.834 230.662 674.464 232.521C623.434 241.022 572.058 191.249 535.689 194.663C535.21 194.582 533.934 194.759 531.692 195.245C532.997 194.945 534.277 194.79 535.689 194.663C539.323 195.172 499.558 209.607 517.902 212.662C455.463 205.119 475.698 137.188 425.971 127.887C425.247 127.752 419.015 134.628 412.424 129.106C416.6 132.604 413.249 119.642 415.358 111.505C413.485 121.943 446.12 111.201 444.132 109.548C433.974 101.09 393.315 116.014 374.362 102.459C370.837 100.028 388.968 86.112 386.092 88.0387C420.482 65.0813 394.101 85.2633 406.983 89.5038C436.501 99.2928 422.198 80.5339 441.393 89.7482C444.096 91.0751 446.264 92.5079 448.078 94.0971C447.013 96.3946 447.032 98.3898 449.561 99.0562C450.436 99.2845 451.403 99.3176 452.448 99.3258C464.189 119.561 434.795 151.28 476.809 146.744C471.683 147.307 501.207 128.657 501.718 127.775C510.222 114.338 489.091 133.332 479.953 119.73C474.41 111.511 506.05 85.9682 509.836 86.9709C486.18 80.6841 465.312 99.1248 452.451 99.3478C451.318 97.515 449.903 95.7653 448.084 94.1366C449.85 90.2105 454.683 85.4125 454.58 85.2616C452.759 82.4277 438.573 75.4535 426.626 70.6841C426.268 70.5517 425.956 70.4152 425.645 70.2831C424.939 70.0175 424.271 69.753 423.602 69.4885C423.118 69.3051 422.672 69.1229 422.191 68.9616C421.66 68.7647 421.129 68.5679 420.601 68.393C420.156 68.2284 419.715 68.0857 419.283 67.9422C418.436 67.6493 417.602 67.3774 416.818 67.1455C416.56 67.0664 416.34 67.0017 416.073 66.9234C415.509 66.7518 414.983 66.5945 414.46 66.4592C414.196 66.4029 413.976 66.3381 413.721 66.281C413.24 66.182 412.85 66.0748 412.419 66.0112C412.251 65.9863 412.034 65.9436 411.902 65.9154C411.387 65.8372 410.924 65.7988 410.589 65.829C394.461 66.9331 396.039 82.318 372.082 85.9811C388.314 83.5023 322.411 69.4657 310.393 88.1687C308.531 91.0671 377.099 113.439 335.359 119.356C338.325 118.947 287.302 98.0874 290.172 96.7084C283.088 97.6927 231.318 108.466 236.989 104.816C229.433 109.672 241.537 131.075 240.64 131.218C174.464 141.041 227.309 104.059 222.474 99.441C218.28 95.4775 151.244 81.1336 142.226 66.6049C139.628 62.3954 161.48 45.6408 158.921 38.3322C158.621 37.4207 133.951 30.7581 129.901 27.5777C109.051 11.2402 77.1003 -28.5876 73.6366 -30.8423C72.2939 -31.74 54.0048 -28.0398 53.2841 -29.0113C51.3309 -31.6064 64.9412 -41.246 65.0169 -43.4144C65.4989 -56.0269 32.8197 -84.0962 16.9607 -92.57L17.0875 -92.5814ZM2686.02 -402.827C2708.29 -407.214 2705.03 -418.289 2690.08 -423.238C2662.85 -432.259 2657.29 -397.226 2686.02 -402.827ZM2573.96 -416.153C2580.19 -419.992 2567.28 -425.924 2558.58 -428.135C2517.29 -438.702 2549.52 -401.101 2573.96 -416.153ZM2406.79 -381.067C2442.95 -393.02 2415.59 -375.948 2436.3 -367.013C2486.78 -345.272 2554.72 -384.471 2493.83 -398.941C2497.18 -398.122 2388.2 -399.236 2390.49 -399.647C2371.09 -396.109 2372.35 -369.674 2406.83 -381.071L2406.79 -381.067ZM2318.85 -419.95C2327.77 -411.016 2365.08 -408.262 2395.42 -413.456C2397.02 -413.72 2392.51 -422.689 2394.05 -423.358C2398.37 -425.231 2445.65 -435.374 2453.45 -442.067C2459.42 -447.185 2447.5 -450.494 2445.29 -451.336C2403.09 -466.975 2307.41 -431.37 2318.85 -419.95ZM1931.79 65.9631C2000.44 70.8079 1995.78 104.701 2114.94 96.2622C2134.63 94.8373 2133.72 103.17 2149.38 96.4857C2189.05 79.5297 1995.57 79.5767 1980.74 71.5621C1979.93 71.1237 1975.07 72.4194 1973.94 72.1736C1952.18 67.1623 1986.15 57.5455 1957.6 53.5759C1936.47 50.6687 1889.4 62.9495 1931.82 65.9379L1931.79 65.9631ZM1732.81 70.4996C1756.79 68.809 1770.36 77.6933 1781.76 76.1162C1810.83 72.0774 1783.5 64.0847 1800.38 61.0583C1814.66 58.4701 1811.87 66.4828 1814.88 66.4338C1842.93 65.9471 1887.77 78.7833 1904.18 65.1029C1913.47 57.2798 1878.82 50.7411 1857.75 47.4411C1864.4 47.2921 1870.04 47.394 1874.29 47.724C1831.1 44.115 1839.04 44.4991 1857.75 47.4411C1794.35 48.7643 1631.39 70.6973 1569.27 81.8507C1557.52 83.9661 1553.89 78.3466 1541.62 80.9981C1530.65 83.3279 1535.02 89.4326 1522.55 92.7165C1518.71 93.7559 1496.05 89.8655 1494.87 91.8847C1479.9 117.498 1684.79 73.819 1732.84 70.4744L1732.81 70.4996ZM1448.68 99.647C1455.7 101.542 1388.24 101.131 1387.46 111.573C1387.21 115.527 1470.4 104.049 1448.68 99.647ZM1202.08 114.886C1204.64 113.739 1176.6 101.838 1186.65 102.908C1130.03 96.8166 1156.48 135.409 1202.08 114.886ZM1140.39 66.9748C1154.81 58.0808 1128.44 54.9516 1118.17 55.6308C1097.99 56.9567 1122.64 77.9431 1140.39 66.9748ZM971.803 252.711C961.008 254.15 975.209 233.947 978.045 238.091C973.643 227.79 947.826 221.111 934.756 222.469C913.576 224.677 951.83 255.829 971.76 252.733L971.803 252.711ZM886.753 223.447C888.433 221.948 870.025 202.927 864.069 197.227C864.564 196.836 864.07 196.311 862.246 195.577C862.43 195.645 863.137 196.253 864.069 197.227C860.95 199.852 812.238 195.108 834.14 191.425C836.316 191.065 822.475 187.177 820.093 189.366C802.69 204.969 861.588 245.735 886.798 223.443L886.753 223.447ZM695.705 -13.2837C694.296 -14.6647 674.853 -17.7812 668.091 -14.1395C655.635 -7.41481 712.743 3.11216 695.705 -13.2837ZM585.481 -561.336C574.749 -564.933 565.965 -574.391 544.283 -560.97C514.688 -542.763 629.226 -546.731 585.481 -561.336ZM551.662 89.8927C552.187 90.3125 530.889 86.5667 524.468 92.3393C512.292 103.211 567.651 102.287 551.662 89.8927Z" fill="#171717"/>
<path fill-rule="evenodd" clip-rule="evenodd" d="M2701.51 -467.272C2687.74 -470.914 2647.76 -479.095 2623.23 -469.804C2590.78 -457.502 2636.63 -445.508 2636.23 -434.407C2636.01 -427.778 2619.43 -419.126 2612.75 -417.066C2612.04 -416.859 2579.37 -414.394 2575.73 -411.098C2565.07 -401.495 2607.28 -389.271 2597.98 -377.201C2594.93 -373.263 2569.25 -372.338 2597.83 -370.787C2621.75 -369.515 2594 -367.1 2592.96 -361.253C2591.28 -351.769 2610.34 -354.393 2606.55 -349.866C2607.59 -351.125 2588.04 -351.562 2583.51 -350.14C2586.51 -351.081 2570.24 -338 2569.41 -337.503C2569.36 -337.465 2569.27 -337.426 2569.21 -337.388C2532.83 -315.599 2557.34 -357.252 2542.33 -361.855C2534.23 -364.325 2518.96 -343.719 2514.29 -344.566C2503.96 -346.408 2525.32 -353.606 2514.7 -362.183C2507.56 -367.924 2503.79 -358.377 2500.99 -367.142C2494.12 -388.292 2502.29 -378.252 2468.88 -373.932C2444.63 -370.83 2388.6 -389.323 2358.44 -383.255C2337.57 -379.059 2354.71 -370.415 2344.2 -365.802C2337.69 -362.938 2299.81 -358.388 2288.82 -363.257C2262.09 -375.09 2258.15 -372.783 2215.42 -378.536C2146.89 -387.772 2018.5 -438.363 1947.88 -453.629C1919.69 -459.728 1880.44 -443.423 1931.81 -426.207C1934.62 -425.246 1935.04 -423.697 1936.78 -422.455C1958.88 -414.36 1980.35 -405.899 1999.2 -397.137C2018.55 -388.144 2046.47 -371.764 2072.14 -361.018C2091.18 -353.075 2109.54 -348.519 2108.55 -341.37C2108.48 -340.542 2099.45 -339.124 2099.3 -339.879C2100.63 -334.159 2115.71 -333.658 2108.25 -328.55C2103.62 -325.361 2071.15 -323.892 2075.92 -325.729C2058.36 -318.916 2074.05 -307.485 2089.25 -304.756C2086.93 -305.174 2129.8 -305.543 2138.49 -305.695C2135.13 -306.017 2158.48 -311.786 2163.14 -310.275C2174.49 -306.555 2144.14 -302.041 2162.91 -300.675C2158.7 -300.97 2171.1 -306.811 2172.28 -306.963C2171.75 -306.91 2203.93 -306.86 2209.01 -301.731C2221.94 -288.652 2169.71 -292.301 2162.66 -291.078C2151.96 -289.211 2155.53 -283.26 2139.4 -283.343C2141.79 -283.344 2135.63 -285.704 2130.78 -287.218C2129.48 -285.63 2127.78 -285.407 2125.69 -288.313C2125.33 -288.767 2127.79 -288.162 2130.78 -287.218C2133.58 -290.466 2134.81 -299.517 2135.17 -299.414C2116.32 -304.843 2048.64 -277.517 2093.35 -285.494C2113.17 -289.018 2097.48 -286.49 2111.75 -283.672C2120.17 -282 2158.31 -280.834 2172.24 -278.86C2163.75 -276.413 2154.95 -279.974 2150.86 -278.285C2147.14 -276.736 2157.92 -274.977 2155.96 -272.763C2154.55 -271.189 2141.63 -270.658 2140.97 -269.884C2139.84 -268.639 2147.1 -266.54 2147.49 -265.109C2147.98 -263.247 2138.6 -256.422 2136.11 -255.963C2136.14 -255.974 2128.72 -256.051 2122.79 -256.064C2122.32 -255.249 2114.41 -253.439 2112.83 -254.522C2116.87 -251.74 2131.59 -253.761 2135.84 -250.118C2141.76 -245.017 2139.74 -238.066 2136.01 -237.163C2116.59 -232.481 2121.74 -240.077 2119.49 -240.025C2112.55 -239.865 2105.08 -230.752 2108.56 -227.036C2111.25 -224.153 2117.41 -224.236 2118.66 -222.472C2119.5 -221.281 2115.83 -218.297 2115.85 -217.759C2116.29 -210.241 2137.15 -209.379 2138.57 -207.496C2140.13 -205.427 2127.9 -200.893 2118.59 -200.426C2113.21 -200.168 2110.92 -201.944 2110.3 -201.853C2105.45 -201.18 2105.44 -199.303 2101.42 -198.063C2095.38 -196.201 2083.5 -196.282 2077.44 -194.635C2076.28 -194.308 2080.33 -191.914 2079.28 -191.507C2072.56 -188.883 2063.62 -190.296 2059.26 -187.672C2058.04 -186.936 2052.82 -178.02 2052.6 -176.891C2051.17 -170.08 2066.93 -158.659 2086.91 -156.331C2090.47 -155.916 2095.7 -157.095 2098.02 -156.374C2100.36 -155.643 2098.27 -152.816 2102.39 -152.102C2104.63 -151.715 2109.64 -153.432 2117.06 -152.367C2122.67 -151.558 2123.6 -148.197 2127.16 -147.814C2133.36 -147.153 2130.8 -151.833 2140.73 -149.957C2142.02 -149.716 2142.76 -145.585 2148.68 -145.907C2150.53 -146 2153.75 -151.208 2154.71 -151.472C2160.34 -153.093 2184.54 -151.976 2190.89 -153.063C2200.74 -154.763 2214.2 -164.137 2214.98 -172.068C2215.31 -175.453 2220.06 -179.021 2219.18 -180.759C2218.26 -182.568 2196.06 -195.999 2205.33 -198.058C2213.95 -199.968 2211.05 -193.966 2219.38 -193.084C2223.84 -192.622 2229.63 -194.82 2240.51 -195.051C2264.13 -195.55 2266.69 -189.641 2279.33 -190.339C2278.44 -176.511 2276.86 -161.984 2274.83 -148.459C2273.6 -140.289 2272.23 -132.471 2270.77 -125.398C2270.77 -125.26 2270.71 -125.115 2270.68 -124.979C2270.46 -123.945 2270.24 -122.922 2270.02 -121.919C2269.99 -121.763 2269.95 -121.597 2269.92 -121.442C2269.7 -120.419 2269.45 -119.405 2269.23 -118.422C2264.48 -98.1717 2267.83 -80.4499 2245.17 -75.465C2243.36 -75.0664 2227.2 -76.2352 2226.77 -75.6839C2225.26 -73.9041 2251 -66.3415 2249.63 -69.0041C2254.2 -60.0214 2225.86 -62.1474 2212.39 -53.4368C2189.75 -38.7619 2214.39 -31.1335 2174.91 -28.2421C2120.4 -24.2501 2202.69 -12.9082 2197.68 -15.1556C2223.36 -3.67651 2186.58 9.92392 2196.85 20.0769C2197.51 20.748 2213.28 19.7839 2215.29 20.2961C2216.91 20.7248 2237.86 32.1585 2238.03 33.3823C2238.48 36.9808 2220.59 41.0378 2223.9 46.0197C2224.34 46.6793 2239.15 41.7859 2246.88 47.9046C2252.26 52.159 2230.75 52.6457 2246.69 55.9023C2254.97 57.6026 2256.91 52.8297 2269.84 52.9834C2287.79 53.1773 2282.37 58.1237 2292.74 58.0713C2291.81 58.0603 2301.29 46.8911 2315.96 51.9299C2334.73 58.3556 2305 61.294 2306.44 64.6321C2308.15 68.589 2320.96 65.1272 2324.73 71.2476C2332.93 84.6002 2293.49 90.6075 2314.87 98.3635C2321.75 100.848 2334.19 94.3049 2342.74 90.6752C2386.55 71.9728 2379.75 100.288 2397.66 107.357C2423.03 117.398 2425.32 97.8891 2425.59 94.8643C2426.07 89.8688 2459.13 70.4232 2467.6 71.3444C2497.8 74.6045 2471.8 105.592 2485.08 113.203C2492.32 117.352 2508.13 110.82 2508.02 116.67C2507.93 123.057 2466.08 129.758 2466.09 135.384C2466.06 136.537 2491.28 139.953 2493.47 148.545C2495.45 156.305 2507.77 152.427 2511.58 159.964C2514.81 166.283 2502.08 160.105 2497.63 166.206C2490.05 176.636 2533.64 179.303 2557.24 179.731C2554.72 179.691 2562.31 174.751 2571.15 175.1C2585.45 175.651 2587 185.955 2607.71 189.942C2634.29 195.064 2661.72 195.322 2671.97 201.91C2693.76 215.932 2669.13 201.906 2685.91 195.668C2698.59 190.974 2732.51 196.896 2727.38 197.763C2758.59 192.449 2738.97 182.868 2737.12 175.452C2731.09 151.478 2781.92 172.263 2769.28 179.038C2767.2 180.166 2748.4 177.579 2750.81 180.42C2753.82 183.924 2776.28 196.889 2801.3 190.623C2815.67 187.023 2782.95 169.091 2783.56 159.985C2784.03 153.114 2797.43 159.27 2788.35 152.032C2795.33 157.643 2757 138.209 2742.5 141.885C2724.65 146.381 2754.8 157.748 2742.05 161.093C2739.87 161.653 2699.69 158.45 2691.66 146.076C2692.67 147.583 2705.29 143.728 2705.56 143.038C2709.73 134.374 2662.49 115.927 2687.73 117.195C2717.24 118.659 2707.8 148.417 2737.89 141.83C2740.77 141.19 2743.11 133.384 2742.76 130.665C2740.87 116.713 2705.54 108.225 2692.72 101.244C2682.64 95.7228 2674.43 73.11 2702.34 85.3392C2698.61 83.7028 2693.78 91.8113 2692.29 94.1379C2691.77 100.706 2708.42 88.3714 2711.48 88.642C2712.49 88.7321 2721.13 92.9571 2715.95 93.501C2730.74 91.9479 2715.56 87.2644 2734.56 87.3146C2766.49 87.4108 2741.27 120.869 2775.63 103.832C2778.13 102.592 2762.47 101.634 2761.91 100.455C2753.46 83.2511 2835.2 98.8065 2840.33 98.1839C2863.36 95.3416 2845.81 81.6434 2877.2 98.6222C2910.17 116.44 2878.82 101.054 2886.69 85.9194C2890.93 77.8234 2889.21 73.1144 2868.4 79.3039C2837.49 88.4896 2840.85 71.0839 2818.05 64.2976C2801.95 59.4566 2786.2 64.3098 2781.33 57.4435C2779.7 55.1482 2814.96 35.5634 2818.73 35.4611C2827.28 35.1917 2837.77 43.0721 2841.65 42.1309C2853.8 39.2388 2859.59 28.4835 2842.03 26.1273C2842.67 26.2117 2821.76 30.9252 2819.85 31.8302C2822.11 31.6821 2824.81 31.3433 2828.09 30.7659C2821.12 31.9817 2819.14 32.1842 2819.85 31.8302C2813.91 32.2394 2811.1 31.2569 2809.66 28.956C2809.23 28.2664 2824.27 26.9802 2830.85 26.9113C2833.99 24.9165 2842.29 21.1384 2842.14 21.3116C2842.42 20.9929 2842.69 20.6847 2842.95 20.385C2845.55 17.3666 2846.92 15.2547 2847.54 13.8654C2849.89 8.59852 2841.66 13.0043 2847.54 13.8654C2849.16 14.0894 2851.86 14.0618 2856.15 13.4879C2870.79 11.4933 2847.53 4.57439 2870.13 7.23772C2891.76 9.80012 2862.46 20.1074 2865.07 24.8085C2867.77 29.5084 2918.13 48.1885 2933.72 46.4497C2934.08 46.405 2938.8 36.9079 2935.9 33.7772C2931.36 33.9472 2928.47 33.9128 2929.43 33.5724C2932.92 32.3643 2934.91 32.6822 2935.9 33.7772C2947.63 33.3984 2970.37 31.8222 2967.14 30.9457C2975.62 32.471 2975.46 40.1757 2998.34 44.0046C3036.75 50.4682 3057.17 41.7144 3071.81 56.0914C3086.89 70.9422 3077.68 51.5409 3090.43 48.313C3103.36 45.008 3147.57 60.4696 3127.33 48.7518C3120.31 44.7021 3137.66 40.7373 3155.13 42.6744C3164.27 43.6808 3169.35 49.7397 3182.59 51.0009C3178.02 50.5753 3187.76 46.1289 3187.28 46.2511C3205.48 41.3389 3204.78 50.7859 3210.2 52.9311C3208.42 52.2358 3214.2 51.3768 3217.89 51.3717C3218.14 51.3551 3218.67 51.3615 3219.43 51.4389C3218.98 51.3944 3218.48 51.3787 3217.89 51.3717C3214.79 51.7451 3234.68 58.1059 3234.93 60.4435C3250.37 57.6285 3283.83 47.6911 3284.09 47.4021C3290.65 39.7629 3263.47 26.8584 3261.57 26.3091C3265.03 27.2779 3258.95 31.0738 3256.81 31.0676C3215.08 30.9915 3245.9 23.1524 3234.19 13.1785C3233.61 12.662 3216.47 10.104 3215.83 9.75515C3202.59 2.48617 3234.49 -24.8367 3212.38 -38.3334C3204.34 -43.2354 3151.86 -45.188 3148.05 -47.1098C3136.16 -53.1003 3159.26 -62.5836 3157.83 -58.7538C3160.18 -63.4043 3146.68 -63.0275 3148.46 -64.725C3149.21 -65.4497 3188.3 -63.5392 3171.63 -70.8575C3150.23 -80.294 3143.1 -86.533 3153.67 -90.3032C3155.23 -90.8519 3175.9 -85.2623 3176.68 -88.4282C3176.96 -89.7533 3154.91 -95.1056 3153.82 -96.72C3149.37 -103.268 3172.46 -110.995 3172.68 -115.7C3172.66 -114.615 3159.56 -118.385 3158.96 -119.066C3154.6 -123.816 3155.46 -136.359 3168.63 -138.184C3166.2 -137.841 3180.98 -135 3182.27 -134.829C3180.37 -135.428 3157.41 -149.777 3164.36 -152.654C3168.53 -154.391 3199.64 -138.314 3205.68 -144.162C3213.64 -151.901 3192.03 -148.113 3182.82 -152.434C3172.76 -157.124 3158.49 -179.193 3171.02 -183.821C3171.43 -184.11 3172.47 -184.371 3174.33 -184.573C3154.51 -188.082 3202.32 -189.358 3202.08 -187.448C3203.44 -198.556 3181.59 -191.118 3174.74 -202.19C3177.1 -198.37 3195.14 -200.297 3193.1 -198.758C3208.1 -209.988 3161.5 -207.855 3175.01 -213.399C3186.82 -218.231 3216.1 -205.018 3216.33 -204.909C3237.16 -193.114 3209.55 -216.652 3207.39 -222.949C3206.83 -223.248 3206.79 -223.668 3207.59 -224.226C3207.22 -223.966 3207.21 -223.538 3207.39 -222.949C3210.91 -221.129 3234.64 -223.427 3237.93 -224.755C3235.75 -225.239 3234.66 -225.525 3235.22 -225.499C3238.25 -225.386 3238.84 -225.115 3237.93 -224.755C3248.11 -222.544 3282.12 -216.375 3285.76 -218.501C3295.39 -224.101 3261.69 -230.097 3244.46 -232.462C3252.51 -230.49 3245.79 -226.595 3244.25 -225.549C3244.47 -225.468 3244.55 -225.418 3244.47 -225.389C3243.81 -225.181 3243.87 -225.27 3244.25 -225.549C3240.65 -226.891 3193.58 -235.752 3207.93 -238.65C3218.69 -240.827 3243.11 -233.142 3258.48 -233.232C3261.66 -233.254 3295.64 -237.948 3303.22 -238.922C3299.88 -238.981 3307.53 -244.215 3309.37 -242.248C3294.63 -258.191 3427.95 -221.382 3396.9 -241.207C3389.81 -245.746 3402.37 -245.09 3405.66 -244.426C3399.12 -245.802 3348.65 -250.993 3332.73 -256.379C3331 -256.956 3330.28 -257.472 3330.03 -257.887C3329.66 -257.529 3329.12 -257.066 3328.14 -256.434C3315.27 -248.117 3286.93 -261.174 3291.4 -263.278C3294.55 -264.764 3334.14 -262.868 3332.85 -262.786C3339.44 -263.245 3350.5 -267.644 3365.26 -268.808C3412.76 -272.512 3463.66 -266.291 3434.68 -280.799C3414.74 -290.774 3469.82 -286.631 3462.7 -294.872C3462.76 -294.803 3448.47 -300.14 3430.49 -298.46C3420.74 -297.55 3417.66 -288.179 3411.85 -287.467C3394.85 -285.383 3412.2 -292.933 3388.78 -287.742C3390.02 -288.01 3412.53 -284.03 3407.1 -282.717C3404.16 -282.021 3342.9 -294.684 3330.51 -294.911C3331.34 -294.306 3315.87 -289.135 3324.25 -286.907C3321.01 -287.756 3412.41 -288.574 3388.63 -281.335C3376.48 -277.642 3369.85 -286.286 3361.05 -284.868C3356.62 -284.149 3367.61 -280.511 3369.77 -280.026C3370.16 -280.03 3370.33 -280.028 3370.16 -279.954C3370.1 -279.935 3369.99 -279.975 3369.77 -280.026C3366.48 -279.88 3343.75 -276.967 3328.63 -277.253C3323.69 -277.342 3314.04 -281.93 3305.64 -280.721C3302.06 -280.207 3310.72 -273.237 3291.66 -274.479C3278.69 -275.318 3273.27 -282.443 3259.63 -284.462C3235.96 -287.976 3184.49 -296.09 3186.3 -301.353C3189.27 -310.344 3203.15 -299.355 3217.33 -299.958C3214.67 -300.841 3223.57 -307.337 3223.29 -307.321C3226.1 -307.424 3250.2 -297.077 3250.87 -303.79C3251.49 -309.984 3174.53 -313.703 3195.91 -320.452C3201.63 -322.269 3226.92 -315.786 3228.13 -318.478C3233.81 -330.561 3159.03 -341.805 3159.43 -350.374C3159.26 -350.485 3159.35 -350.787 3159.76 -351.319C3159.5 -351.009 3159.44 -350.707 3159.43 -350.374C3160.56 -349.531 3175.76 -359.07 3182.16 -354.823C3164.34 -369.324 3072.99 -363.514 3054.26 -375.011C3053.99 -375.179 3062.74 -376.746 3054.34 -378.202C3059.66 -377.28 3041.37 -377.86 3030.39 -377.238C3044.58 -377.841 3033.62 -370.03 3031.11 -370.469C3018.23 -372.714 3034 -382.47 3013.05 -386.694C3009.28 -387.481 2992.22 -383.016 2994.54 -383.72C2966.94 -375.305 2991.66 -381.801 2999.04 -378.851C3016.05 -372.094 2988.47 -375.147 3003.46 -370.798C3005.61 -370.186 3007.84 -369.701 3010.25 -369.301C3013.3 -369.587 3016.05 -369.614 3017.27 -369.032C3017.69 -368.831 3017.85 -368.605 3017.99 -368.361C3047.3 -365.931 3087.59 -373.314 3086.31 -363.405C3086.48 -364.614 3064.25 -357.407 3063.09 -357.273C3045.56 -355.07 3069.26 -360.317 3049.41 -362.242C3037.41 -363.411 3005.91 -355.599 3007.74 -354.728C2996.26 -360.168 3019.24 -365.345 3018.02 -368.36C3015.35 -368.597 3012.77 -368.9 3010.31 -369.301C3005.1 -368.825 2999.05 -367.618 2998.83 -367.639C2994.7 -368.021 2983.4 -371.233 2975.4 -373.955C2975.17 -374.037 2974.95 -374.107 2974.73 -374.178C2974.28 -374.339 2973.83 -374.492 2973.39 -374.644C2973.08 -374.754 2972.77 -374.856 2972.49 -374.966C2972.16 -375.087 2971.83 -375.209 2971.52 -375.33C2971.24 -375.431 2970.99 -375.532 2970.74 -375.631C2970.24 -375.825 2969.76 -376.016 2969.35 -376.196C2969.21 -376.255 2969.1 -376.305 2968.96 -376.367C2968.65 -376.496 2968.37 -376.617 2968.12 -376.737C2968.02 -376.798 2967.9 -376.848 2967.79 -376.907C2967.6 -377.018 2967.4 -377.108 2967.26 -377.208C2967.21 -377.247 2967.12 -377.297 2967.07 -377.327C2966.9 -377.447 2966.79 -377.554 2966.8 -377.633C2966.41 -381.427 2987.82 -381.301 2990.04 -386.968C2988.54 -383.128 2961.35 -398.338 2985.74 -401.447C2989.52 -401.929 3028.53 -386.227 3031.74 -396.093C3031.53 -395.392 2996.69 -407.01 2995.13 -406.316C2995.64 -407.991 3004.37 -420.283 3000.01 -418.897C3005.81 -420.743 3036.78 -418.247 3036.87 -418.459C3042.58 -434.109 2997.81 -421.152 2990.87 -422.211C2984.9 -423.131 2957.15 -438.601 2936.03 -440.483C2929.92 -441.025 2909.39 -435.644 2899 -436.128C2897.7 -436.184 2885.58 -441.855 2880.71 -442.753C2855.69 -447.377 2796.94 -454.23 2793.42 -455.005C2792.02 -455.305 2794.96 -459.646 2793.53 -459.8C2789.72 -460.216 2778.03 -456.877 2775.05 -456.825C2757.7 -456.513 2715.09 -463.722 2701.51 -467.302L2701.51 -467.272ZM2589.94 162.557C2586.53 167.84 2570.86 167.253 2562.26 163.829C2546.58 157.597 2594.26 155.741 2589.94 162.557ZM2558.26 136.529C2553.7 138.048 2543.98 135.119 2539.9 133.117C2520.42 123.616 2576.13 130.568 2558.26 136.529ZM2586.85 96.8305C2574.64 105.486 2594.96 98.8122 2609.75 103.52C2645.74 114.996 2599.7 131.523 2572.51 117.495C2574.04 118.265 2559.57 92.7651 2559.28 93.3085C2561.86 88.7093 2598.49 88.5881 2586.85 96.8403L2586.85 96.8305ZM2522.76 76.855C2536.15 78.8015 2544.37 87.4951 2540.8 94.6809C2540.63 95.0599 2527.72 94.1445 2526.98 94.5165C2524.9 95.5566 2516.51 106.788 2508.2 108.721C2501.85 110.198 2495.87 107.46 2494.44 106.955C2467.86 97.3204 2505.64 74.3559 2522.76 76.855ZM3147.42 -21.4451C3162.25 -5.44629 3208.47 -7.07396 3210.96 20.9606C3211.33 25.5945 3222.72 25.2502 3215.35 29.0222C3196.66 38.5771 3173.77 -6.72521 3160.95 -10.072C3160.25 -10.2552 3161.46 -11.4136 3160.99 -11.673C3151.49 -16.6905 3142.25 -8.58414 3133.39 -15.2062C3126.87 -20.1072 3138.23 -31.3229 3147.39 -21.437L3147.42 -21.4451ZM3130.08 -68.1081C3130.59 -62.466 3144.46 -59.4288 3143.63 -56.7347C3141.51 -49.8637 3127.24 -56.1385 3125.06 -52.1384C3123.18 -48.7531 3133.91 -49.534 3134.2 -48.8268C3136.86 -42.2509 3159.89 -31.9547 3142.96 -27.8976C3133.26 -25.5989 3120.13 -33.6088 3113.08 -38.4884C3113.66 -36.9291 3114.47 -35.6102 3115.43 -34.6221C3105.32 -44.6772 3106.8 -42.8237 3113.08 -38.4884C3107.38 -53.3551 3118.32 -91.858 3126.34 -106.581C3127.87 -109.365 3119.68 -110.127 3121.89 -113.042C3123.8 -115.646 3132.74 -114.719 3135.8 -117.691C3136.78 -118.607 3128.72 -123.851 3131.37 -124.16C3164.94 -128.069 3128.96 -79.404 3130.05 -68.1L3130.08 -68.1081ZM3136.6 -135.097C3140.05 -133.485 3131.48 -149.272 3145.8 -149.62C3151.22 -149.741 3145.25 -130.081 3136.6 -135.097ZM3128.38 -193.079C3127.1 -192.461 3107.35 -198.839 3110.02 -196.503C3094.9 -209.665 3151.29 -204.081 3128.38 -193.079ZM3054.94 -206.768C3044.38 -203.252 3036.93 -209.377 3036.65 -211.792C3036.09 -216.537 3067.97 -211.098 3054.94 -206.768ZM3291.27 -249.174C3291.97 -251.725 3265.77 -248.08 3271.83 -247.482C3257.09 -248.35 3244.81 -254.29 3245.14 -257.372C3245.67 -262.366 3293.2 -253.9 3291.29 -249.185L3291.27 -249.174ZM3240.79 -268.627C3238.92 -268.21 3210.49 -272.22 3201.92 -273.525C3201.44 -273.402 3200.65 -273.51 3199.42 -273.925C3199.54 -273.883 3200.46 -273.727 3201.92 -273.525C3205.17 -274.296 3192.84 -285.627 3190.36 -280.441C3190.12 -279.926 3183.11 -283.105 3185.85 -283.697C3205.32 -288.019 3268.56 -274.871 3240.79 -268.616L3240.79 -268.627ZM2891.44 -309.625C2889.36 -309.933 2882.76 -314.436 2886.98 -316.077C2894.78 -319.1 2916.08 -305.894 2891.44 -309.625ZM2122.04 -326.784C2115.8 -329.24 2101.71 -331.148 2117.66 -336.436C2139.27 -343.653 2147.38 -316.772 2122.04 -326.784ZM3016.74 -344.981C3017.38 -344.864 3009.68 -349.792 3016.89 -351.387C3030.45 -354.409 3035.74 -341.433 3016.74 -344.981Z" fill="#171717"/>
<path fill-rule="evenodd" clip-rule="evenodd" d="M3086.39 59.5185C3083.6 59.2215 3086.05 62.5816 3086.31 62.7311C3093.94 66.5727 3103.76 73.9862 3121.35 71.1379C3125.21 70.5294 3082.98 59.1556 3086.39 59.5185Z" fill="#171717"/>
<path fill-rule="evenodd" clip-rule="evenodd" d="M2937.55 62.5621C2937.4 63.6251 2943.55 71.3075 2949.11 69.0978C2958.27 65.524 2938.2 56.9924 2937.55 62.5621Z" fill="#171717"/>
<path fill-rule="evenodd" clip-rule="evenodd" d="M2961.04 62.8437C2964.4 65.1498 2993.3 69.7327 2992.25 66.4284C2991.72 64.703 2952.98 57.3363 2961.04 62.8437Z" fill="#171717"/>
<path fill-rule="evenodd" clip-rule="evenodd" d="M3022.81 98.8111C3044.51 106.971 3031.69 82.6336 3019.16 87.5542C3008.39 91.7924 3019.43 97.5403 3022.81 98.8111Z" fill="#171717"/>
<path fill-rule="evenodd" clip-rule="evenodd" d="M3191.08 104.015C3181.6 110.095 3169.47 95.9922 3175.35 107.041C3178.87 113.647 3219.95 130.106 3237.7 120.598C3239.08 119.843 3227.45 106.684 3226.25 106.035C3211.12 97.7376 3198.71 99.1238 3191.08 104.015Z" fill="#171717"/>
<path fill-rule="evenodd" clip-rule="evenodd" d="M3085.03 117.172C3082.45 118.196 3088.49 120.271 3088.87 120.432C3107.97 128.541 3099 111.663 3085.03 117.172Z" fill="#171717"/>
<path fill-rule="evenodd" clip-rule="evenodd" d="M2881.2 127.554C2896.78 148.233 2925.95 116.091 2893.18 116.493C2876.52 116.705 2873.33 117.156 2881.2 127.554Z" fill="#171717"/>
<path fill-rule="evenodd" clip-rule="evenodd" d="M3088.79 123.625C3086.4 124.016 3091.47 130.553 3088.53 134.835C3085.69 138.943 3074.96 136.969 3080.47 144.361C3095.87 164.91 3107.73 120.617 3088.79 123.635L3088.79 123.625Z" fill="#171717"/>
<path fill-rule="evenodd" clip-rule="evenodd" d="M3029.95 129.323C3031.83 128.554 3034.03 128.61 3036.43 129.244C3034.94 128.308 3032.84 128.146 3029.95 129.323Z" fill="#171717"/>
<path fill-rule="evenodd" clip-rule="evenodd" d="M3036.43 129.244C3041.95 132.728 3038.61 147.076 3034.15 142.823C3040.01 149.379 3056.46 153.491 3068.49 155.422C3070.11 155.666 3076.98 160.817 3072.37 157.06C3068.48 153.918 3049.5 132.73 3036.43 129.244Z" fill="#171717"/>
<path fill-rule="evenodd" clip-rule="evenodd" d="M2927.99 136.131C2915.29 137.7 2924.74 144.337 2927.72 147.342C2942.2 161.961 2946.42 133.83 2927.99 136.131Z" fill="#171717"/>
<path fill-rule="evenodd" clip-rule="evenodd" d="M3162.64 146.939C3164.58 149.902 3172.61 160.468 3185.96 155.216C3196.3 151.148 3152.06 130.637 3162.64 146.939Z" fill="#171717"/>
<path fill-rule="evenodd" clip-rule="evenodd" d="M3034.15 142.823C3033.96 142.606 3033.75 142.399 3033.57 142.182C3033.75 142.438 3033.96 142.645 3034.15 142.823Z" fill="#171717"/>
<path fill-rule="evenodd" clip-rule="evenodd" d="M3213.56 145.933C3202.76 141.341 3181.42 150.249 3193.84 152.106C3195.6 152.371 3217.13 147.46 3213.56 145.933Z" fill="#171717"/>
<path fill-rule="evenodd" clip-rule="evenodd" d="M3060.41 164.937C3061.6 166.318 3062.39 167.099 3064.25 168.186C3089.57 182.826 3042.6 143.587 3060.41 164.937Z" fill="#171717"/>
<path fill-rule="evenodd" clip-rule="evenodd" d="M3126.81 172.134C3127.67 174.059 3141.41 183.824 3146.15 181.976C3155.96 178.107 3122.9 163.414 3126.81 172.134Z" fill="#171717"/>
<path fill-rule="evenodd" clip-rule="evenodd" d="M3216.79 176.408C3218.98 178.788 3219.86 184.689 3228.39 181.352C3235.09 178.726 3210.08 169.207 3216.79 176.408Z" fill="#171717"/>
<path fill-rule="evenodd" clip-rule="evenodd" d="M2915.07 185.638C2913.43 192.74 2959.66 207.609 2969.51 200.703C2973.64 197.822 2917.36 175.878 2915.07 185.638Z" fill="#171717"/>
<path fill-rule="evenodd" clip-rule="evenodd" d="M3083.34 189.241C3083.8 190.555 3091.17 200.45 3098.8 197.434C3106.37 194.447 3079.96 179.608 3083.34 189.241Z" fill="#171717"/>
<path fill-rule="evenodd" clip-rule="evenodd" d="M3114.5 196.017C3121.47 198.982 3131.81 192.033 3130.29 191.389C3125.66 189.42 3104.67 191.817 3114.5 196.017Z" fill="#171717"/>
</g>
</g>
<defs>
<clipPath id="clip0_1727_71">
<rect width="3381" height="395" fill="white"/>
</clipPath>
<clipPath id="clip1_1727_71">
<rect width="3555.36" height="1377.13" fill="white" transform="translate(-88 -919)"/>
</clipPath>
</defs>
</svg>
