<svg width="2781" height="1165" viewBox="0 0 2781 1165" fill="none" xmlns="http://www.w3.org/2000/svg">
<path d="M107.242 909.144C105.574 911.637 103.922 914.247 102.402 917.071C92.738 934.956 86.8404 954.889 85.4527 975.169C83.3052 1006.53 92.7215 1033.47 107.077 1060.72C120.078 1085.36 134.186 1104.79 155.563 1123.49C187.545 1151.46 241.565 1177.01 282.865 1157.21C320.679 1139.08 340.883 1103.64 359.649 1067.82C361.681 1063.95 364.093 1059.72 368.273 1058.5C373.047 1057.1 384.479 1069.2 388.543 1071.9C412.827 1087.96 437.111 1092.18 460.123 1080.85C496.07 1063.14 512.425 1025.74 512.689 973.568C512.722 965.145 512.227 956.623 512.276 948.184C512.376 930.283 529.54 939.118 541.203 940.356C557.59 942.09 574.408 940.852 590.085 935.584C612.849 927.937 633.02 911.258 642.271 889.111C647.128 877.435 648.896 864.752 650.333 852.184C652.761 831.029 655.52 809.131 655.256 787.794C654.991 766.787 650.465 745.202 646.748 724.592C642.453 700.794 628.081 677.525 614.485 657.724C604.606 643.356 593.009 629.566 578.323 619.905C564.529 610.822 549.413 600.55 533.356 596.107C522.37 593.069 509.798 593.911 498.416 592.771C486.406 591.533 474.33 589.138 462.32 588.065C449.237 586.892 436.335 584.63 423.499 578.123C406.054 569.287 402.75 562.731 405.608 540.172C407.887 522.204 408.713 503.988 403.906 485.343C392.408 440.638 368.785 412.15 335.117 399.913C305.431 389.095 279.693 396.593 259.126 422.125C245.216 439.399 239.897 462.503 238.955 488.597C238.724 495.004 238.195 501.462 236.923 507.44C234.726 517.712 226.962 518.538 221.527 509.24C219.198 505.276 217.314 500.735 215.712 496.226C212.87 488.151 210.459 479.86 207.749 471.719C191.709 423.397 163.294 395.685 126.472 384.504C95.7777 375.19 68.4704 384.455 45.6234 406.271C15.4416 435.105 -1.29302 476.178 0.0781324 529.388C1.48232 583.556 20.4471 627.502 58.8227 657.228C66.6201 663.273 74.847 668.095 82.694 674.057C89.0376 678.879 91.053 684.445 89.9462 693.115C89.1367 699.341 87.8151 705.402 86.3283 711.297C75.0783 755.937 80.3481 799.849 102.815 843.085C107.061 851.276 111.571 859.253 115.882 867.394C125.596 885.726 116.262 895.552 107.209 909.16V909.193L107.242 909.144ZM274.572 906.072C276.092 906.27 277.645 907.344 280.8 908.714C277.612 911.026 275.844 912.892 273.746 913.768C238.179 928.367 201.72 925.642 164.418 903.264C160.883 901.151 157.512 897.93 154.489 894.528C149.798 889.227 149.632 883.711 154.489 880.359C159.247 877.072 164.467 874.397 169.869 873.043C184.721 869.327 199.787 872.266 214.572 881.614C234.032 893.917 253.84 903.231 274.572 906.072ZM219.363 875.619C226.731 868.418 269.302 884.372 274.308 896.196C265.618 904.057 227.54 889.788 219.363 875.619ZM238.41 871.358C231.587 868.732 224.666 866.882 217.777 864.603C198.482 858.278 185.646 841.78 178.509 817.536C166.532 776.811 170.15 741.156 188.933 710.901C197.424 697.21 209.137 692.438 223.328 696.5C246.224 703.04 268.807 706.211 290.993 701.521C294.759 700.711 298.79 701.042 302.722 701.339C315.194 702.231 322.81 712.932 328.311 726.97C331.087 734.055 332.986 741.602 335.002 747.993C345.079 800.609 336.522 843.547 312.403 878.773C303.845 891.242 291.604 892.596 278.339 887.394C265.007 882.159 251.742 876.494 238.394 871.358H238.41ZM269.914 661.918C269.748 661.423 269.583 660.911 269.418 660.432C254.93 663.719 240.558 667.55 225.921 670.044C218.586 671.299 210.756 671.117 203.157 669.713C197.457 668.673 192.733 663.025 189.577 655.742C184.787 644.661 186.455 634.273 193.906 628.707C201.538 623.026 210.376 622.828 219.297 623.885C237.039 625.966 254.104 633.728 270.31 645.899C273.713 648.442 276.406 653.001 279.412 656.601C276.241 658.368 273.069 660.135 269.914 661.902V661.918ZM293.702 675.163C300.128 679.754 300.673 686.938 295.057 691.265C292.017 693.594 288.564 695.46 285.013 696.319C268.146 700.414 250.883 700.332 233.289 693.164C229.721 691.711 224.484 688.144 223.608 684.577C222.122 678.697 227.441 676.864 230.745 675.18C236.114 672.405 241.912 670.82 247.513 668.706C258.432 666.526 269.451 665.816 280.8 669.053C285.161 670.291 289.671 672.29 293.702 675.18V675.163ZM191.362 603.985C189.891 605.653 188.058 607.024 186.191 607.849C180.376 610.393 176.262 607.123 175.536 598.568C175.023 592.606 175.304 586.38 176.345 580.815C179.054 566.183 185.183 554.573 193.955 545.738C196.384 543.326 199.341 541.807 200.861 540.717C206.362 539.561 209.038 541.774 209.269 547.389C209.533 553.169 209.401 559.181 208.311 564.515C205.189 579.774 200.381 593.762 191.378 603.985H191.362ZM330.376 718.845C328.295 712.85 327.072 706.459 325.42 700.266C326.064 699.919 326.709 699.555 327.353 699.209C328.724 700.827 330.36 702.198 331.417 704.097C344.369 727.845 354.561 753.03 357.948 780.94C359.798 796.167 356.048 809.213 348.945 819.799C347.755 821.583 345.558 822.144 343.807 823.284C343.196 820.641 342.089 817.933 342.056 815.406C342.056 809.593 342.551 803.879 342.882 798.132C344.468 771.13 339.413 744.839 330.376 718.861V718.845ZM347.309 837.437C344.748 849.757 339.132 858.939 331.566 866.783C330.244 858.807 339.693 840.806 347.309 837.437ZM326.031 951.256C334.457 955.963 350.365 1000.54 348.333 1014.47C339.578 1008.84 323.636 963.114 326.031 951.256ZM509.088 976.425C509.237 1006.83 502.232 1032.49 487.051 1052.87C475.966 1067.73 462.023 1076.27 445.767 1080.34C422.987 1084.58 400.668 1079.1 379.523 1059.63C369.71 1050.59 362.573 1038.57 358.493 1024.14C350.332 995.202 341.081 966.863 328.972 939.745C320.299 920.291 320.051 901.497 328.526 885.164C338.174 866.569 348.284 848.336 359.121 831.029C369.925 813.788 385.833 809.956 403.427 812.384C425.382 815.423 442.166 830.864 455.927 855.388C466.566 874.298 478.345 892.216 489.942 910.217C502.794 930.183 508.923 952.164 509.055 976.425H509.088ZM367.232 794.565C367.678 790.915 370.437 788.157 372.188 785.003C380.299 786.737 387.188 788.338 394.06 789.66C402.948 791.344 411.836 792.352 420.674 794.581C424.44 795.522 428.322 798.297 431.709 801.253C433.311 802.673 435.013 806.967 434.633 808.982C434.253 810.931 431.362 812.83 429.495 812.648C423.102 811.971 416.709 810.088 410.299 809.18C400.453 807.776 390.591 806.868 380.762 805.646C378.466 805.382 376.153 804.87 373.89 804.143C370.106 802.871 366.604 799.882 367.249 794.614L367.232 794.565ZM462.486 854.166C469.986 857.221 487.034 884.999 488.389 896.345C481.236 893.587 463.642 864.934 462.486 854.166ZM464.121 596.14C469.721 593.448 475.718 593.333 481.814 597.131C485.878 599.675 487.199 603.853 484.44 607.536C480.79 612.424 476.247 616.123 472.084 620.334C471.77 619.822 471.472 619.327 471.158 618.832C465.443 619.971 460.371 616.553 458.636 610.426C456.869 604.2 458.769 598.7 464.138 596.14H464.121ZM486.34 620.698C500.465 610.607 512.921 605.983 530.729 608.097C535.883 608.708 541.004 609.831 545.977 611.4C579.578 621.986 608.455 655.527 622.943 686.657C632.095 706.326 636.985 727.664 641.082 748.951C646.269 775.986 650.3 803.565 648.004 830.996C645.691 858.443 636.588 885.99 618.218 906.518C599.865 927.046 571.384 939.498 544.275 934.642C522.932 930.827 509.551 917.335 502.513 897.765C498.631 886.948 489.429 877.32 482.821 867.593C475.9 857.42 469.374 846.982 463.725 836.05C455.2 819.617 448.658 801.897 446.18 783.467C444.016 767.447 450.459 752.832 455.547 737.721C463.477 714.204 465.377 688.111 467.227 661.935C468.416 645.189 472.43 630.607 486.34 620.698ZM438.102 746.986C438.912 736.499 438.862 725.104 440.795 714.666C443.554 699.704 447.733 685.435 451.368 670.902C451.715 669.548 452.243 668.145 453.02 667.236C454.754 665.155 456.704 663.388 458.57 661.489C459.595 664.627 461.445 667.864 461.544 670.886C462.469 699.737 457.81 725.963 446.841 748.951C445.817 751.081 443.537 752.188 441.621 753.113C441.307 753.261 439.754 749.859 438.102 746.969V746.986ZM453.284 628.344C455.266 640.829 452.987 652.125 449.617 662.513C441.224 688.259 435.905 715.41 433.675 744.211C433.262 749.446 432.089 754.599 430.536 759.256C428.57 765.185 424.325 765.499 421.285 759.504C417.254 751.593 414.165 742.923 412.265 738.349C405.145 699.985 408.515 668.97 419.418 640.747C422.937 631.63 427.959 623.208 433.642 616.42C441.39 607.205 450.889 613.398 453.267 628.328L453.284 628.344ZM421.582 584.283C428.983 588.742 432.122 596.273 429.495 605.306C427.199 613.151 423.961 620.4 420.839 627.667C406.781 660.35 400.04 695.757 408.333 736.714C410.464 747.299 413.339 757.786 415.09 768.405C416.742 778.281 413.818 783.582 406.516 784.92C391.962 787.612 378.796 780.362 369.115 764.177C354.578 739.835 344.088 712.503 340.569 683.173C335.828 643.438 346.367 613.646 371.098 595.265C379.407 589.122 388.344 584.233 396.968 578.767C397.199 579.279 397.447 579.807 397.678 580.319C405.624 578.75 413.587 579.477 421.566 584.283H421.582ZM245.629 461.991C253.708 423.264 275.481 404.57 305.481 400.97C331.533 397.832 355.668 408.731 376.566 435.221C388.46 450.282 396.406 468.135 399.958 485.756C409.093 526.68 401.346 556.604 377.078 577.132C370.734 582.483 363.862 586.975 356.858 590.889C343.658 598.271 331.599 591.021 320.679 577.594C305.844 559.313 289.39 544.796 271.433 533.599C244.803 517.018 239.22 492.61 245.613 461.975L245.629 461.991ZM317.722 589.667C316.846 591.5 313.526 592.061 311.362 591.467C297.601 587.817 285.773 577.743 275.018 565.241C270.227 559.659 265.949 553.054 262.149 546.266C259.539 541.592 260.547 538.686 264.693 537.645C266.296 538.108 268.955 538.471 271.45 539.677C288.779 548.149 304.357 560.485 315.971 580.93C317.326 583.325 318.498 587.982 317.722 589.65V589.667ZM241.169 535.317C246.753 539.198 252.369 544.003 256.945 549.85C273.201 570.691 291.439 586.859 311.494 599.394C322.728 606.413 329.319 615.842 332.507 629.038C334.523 640.862 333.284 653.612 325.932 663.157C320.943 669.647 313.939 670.935 306.902 666.84C297.502 661.39 288.234 655.065 279.33 647.964C260.712 633.1 241.252 623.406 220.767 618.468C217.166 617.593 213.482 616.371 210.046 614.439C203.95 611.02 201.967 606.974 203.636 599.245C206.378 586.463 209.682 573.945 213.234 561.608C215.332 554.325 217.793 547.092 220.998 540.717C225.326 532.096 233.372 529.867 241.185 535.3L241.169 535.317ZM62.8701 655.61C30.1608 632.473 11.4273 596.124 5.64532 550.675C-2.54853 486.037 15.3425 438.64 52.9747 405.858C63.8283 396.395 76.2347 391.226 89.5001 388.286C122.325 382.242 152.936 392.498 180.029 426.105C194.831 444.469 204.511 466.55 208.608 491.867C211.665 510.644 205.949 524.153 196.433 534.673C182.358 550.263 173.553 570.377 168.862 594.472C165.69 610.772 158.355 622.432 147.32 630.326C136.284 638.203 125.53 646.675 115.023 655.593C98.9165 669.3 81.488 668.805 62.8701 655.626V655.61ZM161.692 644.512C155.695 654.256 147.055 658.979 138.118 663.008C136.185 663.884 134.137 664.346 132.138 665.007C132.154 665.106 132.171 665.221 132.204 665.32C129.33 665.7 126.488 666.311 123.564 666.344C122.424 666.344 120.64 665.42 120.078 664.264C119.599 663.207 119.979 660.729 120.69 659.788C130.734 646.51 142.612 637.13 157.793 635.346C159.346 635.148 161.857 636.7 162.865 638.451C163.509 639.591 162.65 642.993 161.692 644.529V644.512ZM105.871 841.086C89.9297 810.782 82.5948 778.364 84.6598 744.327C86.1136 720.364 90.8878 698.416 106.053 684.775C109.836 681.356 114.197 678.83 118.608 676.732C132.485 670.11 146.444 663.801 160.436 657.575C172.694 652.158 182.21 657.047 188.999 671.679C192.749 679.771 192.815 687.698 190.222 694.816C186.852 704.031 182.639 712.602 178.873 721.504C165.475 753.146 163.955 787.315 176.758 824.555C178.625 829.972 180.492 835.356 182.193 840.822C186.835 855.801 185.547 860.392 174.908 865.148C170.15 867.279 165.095 868.534 161.395 869.773C151.185 872.283 142.232 874.975 132.6 870.912C120.805 865.908 112.727 854.183 105.838 841.086H105.871ZM132.766 903.198C145.684 904.833 154.192 916.906 164.583 924.767C176.362 933.668 191.411 937.4 206.18 937.846C220.949 938.292 235.602 935.699 250.156 933.139C266.709 930.2 283.46 926.137 300.161 924.288C309.033 923.297 312.304 927.227 314.121 935.072C316.846 946.896 318.069 959.514 320.134 971.52C322.249 983.823 323.785 998.736 329.98 1009.82C334.258 1017.48 341.312 1022.88 346.714 1029.67C352.05 1036.36 355.222 1044.22 357.684 1052.38C362.706 1068.89 349.77 1081.8 340.073 1094.19C326.808 1111.1 315.69 1130.84 297.469 1143.02C278.256 1155.86 253.708 1159.41 230.976 1155.39C208.228 1151.36 187.166 1140.2 169.027 1125.92C115.717 1083.89 87.2204 1012.51 96.9341 945.36C98.4043 935.204 100.783 924.899 106.681 916.476C112.562 908.07 122.606 901.943 132.799 903.231L132.766 903.198Z" fill="#CDCDCA"/>
<path d="M546.242 701.144C544.574 703.637 542.922 706.247 541.402 709.071C531.738 726.956 525.84 746.889 524.453 767.17C522.305 798.531 531.721 825.466 546.077 852.716C559.078 877.356 573.186 896.793 594.563 915.488C626.546 943.464 680.565 969.012 721.865 949.211C759.679 931.078 779.883 895.637 798.649 859.817C800.681 855.953 803.093 851.725 807.273 850.503C812.047 849.099 823.479 861.204 827.543 863.896C851.827 879.965 876.111 884.176 899.123 872.847C935.07 855.143 951.425 817.737 951.689 765.568C951.722 757.145 951.227 748.623 951.276 740.184C951.375 722.282 968.54 731.118 980.203 732.356C996.59 734.091 1013.41 732.852 1029.09 727.584C1051.85 719.937 1072.02 703.258 1081.27 681.111C1086.13 669.435 1087.9 656.752 1089.33 644.184C1091.76 623.029 1094.52 601.131 1094.26 579.794C1093.99 558.787 1089.46 537.202 1085.75 516.592C1081.45 492.794 1067.08 469.525 1053.48 449.724C1043.61 435.356 1032.01 421.566 1017.32 411.905C1003.53 402.822 988.413 392.55 972.356 388.107C961.37 385.069 948.799 385.911 937.416 384.771C925.406 383.533 913.33 381.138 901.32 380.065C888.237 378.892 875.335 376.63 862.499 370.123C845.054 361.287 841.75 354.731 844.608 332.172C846.887 314.204 847.713 295.988 842.906 277.343C831.408 232.638 807.785 204.15 774.117 191.913C744.431 181.096 718.693 188.593 698.126 214.125C684.216 231.399 678.897 254.503 677.955 280.597C677.724 287.004 677.195 293.462 675.923 299.44C673.726 309.712 665.962 310.538 660.527 301.24C658.197 297.277 656.314 292.735 654.712 288.226C651.871 280.151 649.458 271.86 646.749 263.719C630.708 215.397 602.294 187.685 565.472 176.504C534.778 167.19 507.47 176.455 484.623 198.271C454.442 227.105 437.707 268.178 439.078 321.388C440.482 375.556 459.447 419.502 497.823 449.228C505.62 455.273 513.847 460.095 521.694 466.057C528.038 470.879 530.053 476.445 528.946 485.115C528.137 491.341 526.815 497.402 525.328 503.297C514.078 547.937 519.348 591.849 541.815 635.085C546.061 643.276 550.571 651.253 554.882 659.395C564.596 677.726 555.262 687.552 546.209 701.16V701.193L546.242 701.144ZM713.556 698.088C715.076 698.287 716.628 699.36 719.783 700.731C716.595 703.043 714.828 704.909 712.73 705.784C677.162 720.383 640.703 717.658 603.401 695.281C599.866 693.167 596.496 689.947 593.473 686.545C588.781 681.243 588.616 675.728 593.473 672.375C598.23 669.089 603.451 666.413 608.853 665.059C623.704 661.343 638.77 664.283 653.555 673.63C673.016 685.934 692.823 695.248 713.556 698.088ZM658.346 667.635C665.714 660.435 708.286 676.388 713.291 688.213C704.602 696.074 666.524 681.805 658.346 667.635ZM677.41 663.375C670.588 660.749 663.666 658.899 656.777 656.62C637.482 650.295 624.646 633.797 617.509 609.553C605.532 568.828 609.15 533.173 627.933 502.918C636.424 489.227 648.137 484.454 662.328 488.517C685.224 495.057 707.807 498.227 729.993 493.537C733.759 492.728 737.79 493.058 741.722 493.356C754.194 494.247 761.81 504.949 767.311 518.986C770.087 526.071 771.986 533.618 774.002 540.01C784.079 592.625 775.522 635.564 751.403 670.79C742.845 683.258 730.604 684.612 717.339 679.41C704.007 674.175 690.742 668.511 677.394 663.375H677.41ZM708.897 453.919C708.732 453.423 708.567 452.911 708.401 452.432C693.914 455.719 679.541 459.55 664.905 462.044C657.57 463.299 649.739 463.117 642.14 461.713C636.441 460.673 631.716 455.025 628.561 447.742C623.77 436.661 625.439 426.273 632.889 420.707C640.521 415.026 649.359 414.828 658.28 415.885C676.022 417.966 693.087 425.728 709.293 437.899C712.697 440.443 715.389 445.001 718.396 448.601C715.224 450.368 712.052 452.135 708.897 453.902V453.919ZM732.702 467.163C739.128 471.754 739.673 478.938 734.057 483.265C731.017 485.594 727.564 487.46 724.013 488.319C707.146 492.414 689.883 492.332 672.289 485.164C668.721 483.711 663.484 480.144 662.608 476.577C661.121 470.697 666.441 468.864 669.745 467.18C675.114 464.405 680.912 462.82 686.513 460.706C697.432 458.526 708.451 457.816 719.8 461.053C724.161 462.291 728.671 464.29 732.702 467.18V467.163ZM630.362 396.001C628.891 397.669 627.058 399.04 625.191 399.866C619.376 402.409 615.262 399.139 614.536 390.585C614.023 384.623 614.304 378.397 615.345 372.831C618.054 358.199 624.183 346.589 632.955 337.754C635.384 335.343 638.341 333.824 639.861 332.734C645.362 331.578 648.038 333.791 648.269 339.406C648.533 345.186 648.401 351.197 647.311 356.531C644.189 371.791 639.381 385.779 630.378 396.001H630.362ZM769.36 510.861C767.278 504.866 766.056 498.475 764.404 492.282C765.048 491.935 765.692 491.572 766.337 491.225C767.708 492.844 769.343 494.214 770.4 496.114C783.352 519.862 793.545 545.047 796.931 572.956C798.782 588.183 795.031 601.23 787.928 611.816C786.738 613.599 784.541 614.161 782.79 615.3C782.179 612.658 781.072 609.949 781.039 607.423C781.039 601.61 781.535 595.895 781.865 590.148C783.451 563.147 778.396 536.855 769.36 510.878V510.861ZM786.309 629.437C783.748 641.757 778.132 650.939 770.566 658.783C769.244 650.807 778.693 632.806 786.309 629.437ZM765.015 743.273C773.44 747.979 789.349 792.553 787.317 806.491C778.561 800.86 762.62 755.13 765.015 743.273ZM948.088 768.425C948.237 798.828 941.232 824.492 926.051 844.871C914.966 859.734 901.023 868.273 884.768 872.335C861.987 876.579 839.668 871.096 818.523 851.626C808.71 842.592 801.573 830.569 797.493 816.136C789.332 787.202 780.081 758.863 767.972 731.745C759.299 712.291 759.051 693.497 767.526 677.164C777.174 658.569 787.284 640.337 798.121 623.029C808.925 605.788 824.833 601.956 842.427 604.384C864.382 607.423 881.166 622.864 894.927 647.388C905.566 666.298 917.345 684.216 928.942 702.217C941.794 722.183 947.923 744.164 948.055 768.425H948.088ZM806.216 586.581C806.662 582.931 809.42 580.173 811.171 577.019C819.283 578.753 826.171 580.355 833.044 581.676C841.931 583.361 850.819 584.368 859.657 586.598C863.424 587.539 867.306 590.313 870.693 593.27C872.295 594.69 873.997 598.984 873.617 600.999C873.237 602.947 870.346 604.846 868.479 604.665C862.086 603.988 855.692 602.105 849.283 601.197C839.437 599.793 829.575 598.885 819.745 597.663C817.449 597.398 815.136 596.886 812.873 596.16C809.09 594.888 805.588 591.899 806.232 586.631L806.216 586.581ZM901.469 646.183C908.969 649.238 926.017 677.016 927.372 688.361C920.219 685.603 902.625 656.95 901.469 646.183ZM903.121 388.157C908.721 385.465 914.718 385.349 920.814 389.148C924.878 391.691 926.199 395.869 923.44 399.552C919.79 404.44 915.247 408.14 911.084 412.351C910.77 411.839 910.472 411.344 910.159 410.848C904.443 411.988 899.371 408.569 897.636 402.442C895.869 396.216 897.769 390.717 903.138 388.157H903.121ZM925.34 412.714C939.465 402.624 951.921 398 969.729 400.114C974.883 400.725 980.004 401.848 984.977 403.417C1018.58 414.002 1047.46 447.544 1061.94 478.674C1071.1 498.343 1075.98 519.68 1080.08 540.968C1085.27 568.002 1089.3 595.582 1087 623.013C1084.69 650.46 1075.59 678.007 1057.22 698.534C1038.86 719.062 1010.38 731.514 983.275 726.659C961.932 722.844 948.551 709.351 941.513 689.782C937.631 678.964 928.429 669.336 921.821 659.609C914.9 649.436 908.374 638.999 902.725 628.066C894.2 611.634 887.659 593.914 885.181 575.483C883.016 559.464 889.459 544.848 894.547 529.738C902.477 506.221 904.377 480.127 906.227 453.952C907.416 437.206 911.43 422.623 925.34 412.714ZM877.086 538.986C877.895 528.499 877.846 517.104 879.779 506.666C882.537 491.704 886.717 477.435 890.351 462.902C890.698 461.548 891.227 460.145 892.003 459.236C893.738 457.155 895.687 455.388 897.554 453.489C898.578 456.627 900.428 459.864 900.527 462.886C901.452 491.737 896.794 517.963 885.825 540.951C884.8 543.081 882.521 544.188 880.605 545.113C880.291 545.261 878.738 541.859 877.086 538.969V538.986ZM892.284 420.361C894.266 432.846 891.987 444.142 888.617 454.53C880.225 480.276 874.905 507.426 872.675 536.228C872.262 541.463 871.089 546.616 869.536 551.273C867.57 557.201 863.325 557.515 860.285 551.52C856.254 543.61 853.165 534.94 851.265 530.365C844.145 492.001 847.515 460.987 858.418 432.763C861.937 423.647 866.959 415.225 872.642 408.437C880.39 399.222 889.889 405.415 892.267 420.344L892.284 420.361ZM860.582 376.283C867.983 380.742 871.122 388.273 868.495 397.306C866.199 405.151 862.961 412.4 859.839 419.667C845.781 452.35 839.041 487.757 847.333 528.714C849.465 539.3 852.339 549.786 854.09 560.405C855.742 570.281 852.818 575.582 845.516 576.92C830.962 579.612 817.796 572.362 808.115 556.178C793.578 531.835 783.088 504.503 779.569 475.173C774.828 435.439 785.367 405.646 810.098 387.265C818.407 381.122 827.344 376.233 835.968 370.767C836.199 371.279 836.447 371.807 836.678 372.319C844.624 370.75 852.587 371.477 860.566 376.283H860.582ZM684.613 253.991C692.691 215.264 714.464 196.57 744.464 192.97C770.516 189.832 794.652 200.732 815.549 227.221C827.444 242.283 835.389 260.135 838.941 277.756C848.077 318.68 840.329 348.604 816.061 369.132C809.718 374.483 802.845 378.975 795.841 382.889C782.642 390.271 770.582 383.021 759.662 369.594C744.828 351.313 728.374 336.796 710.417 325.599C683.787 309.018 678.203 284.61 684.596 253.975L684.613 253.991ZM756.722 381.683C755.847 383.516 752.526 384.078 750.362 383.483C736.601 379.834 724.773 369.76 714.018 357.258C709.227 351.676 704.949 345.07 701.149 338.283C698.539 333.609 699.547 330.702 703.693 329.662C705.296 330.124 707.955 330.488 710.45 331.693C727.779 340.165 743.357 352.502 754.971 372.947C756.326 375.342 757.499 379.999 756.722 381.667V381.683ZM680.169 327.333C685.753 331.214 691.369 336.02 695.945 341.866C712.201 362.708 730.439 378.876 750.494 391.41C761.728 398.429 768.319 407.859 771.507 421.054C773.523 432.879 772.284 445.628 764.932 455.174C759.943 461.664 752.939 462.952 745.901 458.856C736.502 453.407 727.234 447.081 718.33 439.98C699.712 425.117 680.252 415.423 659.767 410.485C656.166 409.61 652.482 408.387 649.046 406.455C642.95 403.037 640.967 398.991 642.636 391.262C645.378 378.479 648.682 365.961 652.234 353.625C654.332 346.342 656.793 339.108 659.998 332.734C664.326 324.113 672.372 321.883 680.185 327.317L680.169 327.333ZM501.87 447.626C469.161 424.489 450.427 388.14 444.645 342.692C436.451 278.053 454.342 230.656 491.975 197.874C502.828 188.412 515.235 183.242 528.5 180.303C561.325 174.258 591.936 184.514 619.029 218.122C633.831 236.486 643.511 258.566 647.608 283.883C650.664 302.66 644.949 316.169 635.433 326.689C621.358 342.279 612.553 362.394 607.861 386.489C604.69 402.789 597.355 414.448 586.32 422.342C575.284 430.22 564.53 438.692 554.023 447.61C537.916 461.317 520.488 460.822 501.87 447.643V447.626ZM600.692 436.529C594.695 446.272 586.055 450.995 577.118 455.025C575.185 455.9 573.137 456.363 571.138 457.023C571.154 457.122 571.171 457.238 571.204 457.337C568.329 457.717 565.488 458.328 562.564 458.361C561.424 458.361 559.64 457.436 559.078 456.28C558.599 455.223 558.979 452.746 559.69 451.805C569.734 438.527 581.611 429.146 596.793 427.363C598.346 427.165 600.857 428.717 601.865 430.468C602.509 431.607 601.65 435.009 600.692 436.545V436.529ZM544.871 633.103C528.93 602.799 521.595 570.38 523.66 536.343C525.113 512.381 529.888 490.433 545.053 476.791C548.836 473.373 553.197 470.846 557.608 468.749C571.485 462.126 585.444 455.818 599.436 449.592C611.694 444.175 621.21 449.063 627.999 463.695C631.749 471.787 631.815 479.715 629.222 486.832C625.852 496.048 621.639 504.619 617.873 513.52C604.475 545.162 602.955 579.331 615.758 616.572C617.625 621.989 619.492 627.372 621.193 632.839C625.835 647.818 624.547 652.409 613.908 657.165C609.15 659.295 604.095 660.551 600.395 661.789C590.185 664.299 581.231 666.991 571.6 662.929C559.805 657.925 551.727 646.199 544.838 633.103H544.871ZM571.749 695.198C584.668 696.833 593.175 708.906 603.566 716.767C615.345 725.668 630.395 729.4 645.163 729.846C659.932 730.292 674.585 727.699 689.139 725.14C705.692 722.2 722.443 718.137 739.145 716.288C748.016 715.297 751.287 719.227 753.104 727.072C755.83 738.896 757.052 751.514 759.117 763.52C761.232 775.823 762.768 790.736 768.963 801.817C773.242 809.48 780.296 814.881 785.698 821.668C791.034 828.357 794.206 836.218 796.667 844.376C801.689 860.89 788.754 873.805 779.057 886.191C765.791 903.102 754.674 922.837 736.452 935.025C717.24 947.857 692.691 951.408 669.96 947.395C647.212 943.365 626.149 932.201 608.01 917.916C554.701 875.886 526.204 804.509 535.918 737.36C537.388 727.204 539.767 716.899 545.664 708.476C551.545 700.07 561.589 693.943 571.782 695.231L571.749 695.198Z" fill="#CDCDCA"/>
<path d="M1630.7 718.486C1633.26 720.039 1635.94 721.58 1638.83 722.987C1657.11 731.867 1677.28 736.903 1697.6 737.413C1729.02 738.198 1755.53 727.627 1782.12 712.106C1806.17 698.065 1824.97 683.12 1842.73 660.956C1869.29 627.8 1892.48 572.725 1870.91 532.329C1851.17 495.33 1814.87 476.684 1778.28 459.491C1774.34 457.635 1770.01 455.402 1768.59 451.27C1766.99 446.574 1778.58 434.609 1781.1 430.442C1796.1 405.499 1799.26 381.046 1786.94 358.536C1767.69 323.383 1729.63 308.667 1677.48 310.646C1669.07 310.983 1660.57 311.842 1652.14 312.147C1634.24 312.822 1642.34 295.292 1643.08 283.593C1644.11 267.137 1642.14 250.398 1636.18 234.959C1627.56 212.552 1610.02 193.117 1587.5 184.832C1575.64 180.48 1562.87 179.266 1550.26 178.368C1529.02 176.866 1507.03 175.052 1485.72 176.227C1464.75 177.404 1443.38 182.849 1422.94 187.444C1399.34 192.766 1376.72 208.133 1357.54 222.566C1343.6 233.057 1330.34 245.229 1321.32 260.323C1312.84 274.487 1303.23 290.051 1299.48 306.278C1296.92 317.385 1298.32 329.897 1297.66 341.324C1296.95 353.386 1295.06 365.558 1294.51 377.589C1293.91 390.702 1292.2 403.703 1286.26 416.801C1278.19 434.611 1271.79 438.194 1249.12 436.311C1231.07 434.81 1212.85 434.767 1194.41 440.37C1150.25 453.798 1122.81 478.625 1112.03 512.78C1102.52 542.919 1111.13 568.281 1137.51 587.737C1155.37 600.887 1178.68 605.216 1204.78 605.02C1211.2 604.985 1217.67 605.227 1223.71 606.224C1234.07 607.978 1235.22 615.702 1226.16 621.525C1222.3 624.026 1217.85 626.1 1213.4 627.892C1205.46 631.089 1197.29 633.842 1189.26 636.897C1141.69 655.007 1115.23 684.604 1105.65 721.866C1097.67 752.94 1108.11 779.807 1130.9 801.705C1161.01 830.618 1202.78 845.553 1255.86 841.878C1309.92 838.144 1353 817.284 1381.05 777.667C1386.75 769.603 1391.21 761.173 1396.82 753.1C1401.37 746.554 1406.83 744.302 1415.54 745.032C1421.79 745.561 1427.92 746.632 1433.87 747.868C1478.94 757.185 1522.61 750.024 1564.83 725.711C1572.82 721.115 1580.6 716.275 1588.55 711.601C1606.45 701.104 1616.67 710.006 1630.66 718.473L1630.69 718.47L1630.7 718.486ZM1620.39 551.458C1620.52 549.919 1621.52 548.332 1622.76 545.114C1625.21 548.188 1627.15 549.881 1628.11 551.948C1644.24 586.846 1643.09 623.388 1622.34 661.627C1620.39 665.243 1617.31 668.749 1614.04 671.924C1608.96 676.845 1603.44 677.244 1599.89 672.532C1596.4 667.929 1593.49 662.809 1591.91 657.48C1587.58 642.803 1589.84 627.626 1598.56 612.445C1610.01 592.478 1618.46 572.294 1620.4 551.44L1620.39 551.458ZM1592.35 607.914C1584.84 600.866 1598.94 557.641 1610.53 552.129C1618.75 560.47 1606.16 599.126 1592.35 607.914ZM1587.27 589.058C1584.93 595.996 1583.4 602.992 1581.43 609.962C1575.93 629.505 1560 643.037 1536.1 651.224C1495.93 664.96 1460.14 662.874 1429.12 645.41C1415.08 637.528 1409.8 626.026 1413.25 611.684C1418.8 588.518 1420.98 565.833 1415.35 543.86C1414.39 540.134 1414.54 536.088 1414.65 532.145C1415 519.653 1425.36 511.568 1439.15 505.47C1446.1 502.399 1453.57 500.159 1459.87 497.879C1512 485.532 1555.26 492.23 1591.5 514.798C1604.34 522.792 1606.21 534.995 1601.58 548.468C1596.92 562.026 1591.85 575.508 1587.29 589.057L1587.27 589.058ZM1376.66 566.651C1376.16 566.83 1375.68 567.024 1375.2 567.218C1379.11 581.553 1383.55 595.739 1386.68 610.264C1388.25 617.533 1388.4 625.367 1387.34 633.015C1386.55 638.747 1381.11 643.718 1373.97 647.188C1363.12 652.465 1352.65 651.234 1346.77 644.035C1340.76 636.665 1340.18 627.826 1340.86 618.87C1342.18 601.043 1349.19 583.682 1360.64 566.95C1363.04 563.442 1367.46 560.556 1370.95 557.394C1372.85 560.485 1374.76 563.576 1376.66 566.651ZM1388.86 542.3C1393.17 535.676 1400.32 534.826 1404.89 540.257C1407.36 543.179 1409.36 546.559 1410.37 550.082C1415.2 566.755 1415.86 584.014 1409.45 601.884C1408.16 605.505 1404.82 610.894 1401.3 611.936C1395.49 613.673 1393.43 608.44 1391.6 605.225C1388.59 599.981 1386.76 594.262 1384.41 588.741C1381.77 577.92 1380.56 566.95 1383.31 555.478C1384.37 551.064 1386.17 546.484 1388.88 542.315L1388.86 542.3ZM1322.18 647.624C1323.9 649.023 1325.36 650.795 1326.26 652.619C1329.05 658.315 1325.96 662.568 1317.45 663.661C1311.52 664.43 1305.29 664.431 1299.69 663.626C1284.96 661.549 1273.08 655.938 1263.89 647.554C1261.38 645.233 1259.72 642.352 1258.57 640.866C1257.18 635.421 1259.28 632.654 1264.87 632.181C1270.65 631.659 1276.64 631.548 1282.03 632.406C1297.4 634.854 1311.59 639.055 1322.19 647.622L1322.18 647.624ZM1430.93 503.781C1425.03 506.124 1418.7 507.627 1412.58 509.525C1412.2 508.897 1411.81 508.27 1411.44 507.641C1413 506.201 1414.3 504.504 1416.15 503.369C1439.31 489.411 1464.03 478.128 1491.77 473.549C1506.91 471.041 1520.1 474.241 1530.98 480.874C1532.81 481.997 1533.48 484.158 1534.68 485.854C1532.08 486.578 1529.42 487.805 1526.88 487.943C1521.07 488.203 1515.34 487.941 1509.59 487.864C1482.55 487.45 1456.49 493.648 1430.95 503.78L1430.93 503.781ZM1548.66 481.729C1561.07 483.74 1570.48 488.968 1578.67 496.185C1570.75 497.853 1552.38 489.181 1548.66 481.729ZM1663.31 498.077C1667.64 489.459 1711.48 471.648 1725.49 473.061C1720.24 482.046 1675.24 499.95 1663.31 498.077ZM1680.52 314.111C1710.89 312.639 1736.83 318.53 1757.85 332.812C1773.19 343.244 1782.3 356.812 1787.09 372.875C1792.31 395.466 1787.79 417.971 1769.26 439.958C1760.66 450.152 1748.95 457.798 1734.71 462.495C1706.16 471.895 1678.24 482.364 1651.68 495.627C1632.63 505.136 1613.86 506.191 1597.18 498.423C1578.17 489.578 1559.54 480.267 1541.76 470.195C1524.07 460.148 1519.55 444.426 1521.22 426.734C1523.31 404.654 1538.02 387.221 1561.91 372.415C1580.35 360.972 1597.72 348.417 1615.23 336.065C1634.62 322.36 1656.32 315.292 1680.54 314.11L1680.52 314.111ZM1504.98 463.689C1501.31 463.401 1498.44 460.765 1495.2 459.159C1496.58 450.983 1497.89 444.026 1498.9 437.112C1500.21 428.163 1500.82 419.246 1502.67 410.313C1503.44 406.508 1506.06 402.514 1508.85 399.002C1510.18 397.334 1514.42 395.462 1516.44 395.755C1518.41 396.036 1520.43 398.851 1520.32 400.736C1519.92 407.144 1518.31 413.633 1517.68 420.062C1516.71 429.958 1516.21 439.844 1515.42 449.723C1515.25 452.028 1514.86 454.355 1514.21 456.655C1513.11 460.491 1510.26 464.125 1504.97 463.706L1504.98 463.689ZM1560.42 365.951C1563.14 358.331 1590.15 340.098 1601.44 338.248C1599 345.511 1571.13 364.338 1560.42 365.951ZM1302.55 375.461C1299.62 369.977 1299.25 364.006 1302.78 357.737C1305.16 353.566 1309.26 352.055 1313.05 354.671C1318.09 358.117 1322 362.497 1326.38 366.468C1325.9 366.796 1325.4 367.124 1324.91 367.452C1326.29 373.114 1323.11 378.321 1317.06 380.329C1310.91 382.363 1305.33 380.71 1302.54 375.446L1302.55 375.461ZM1326.13 352.19C1315.43 338.505 1310.29 326.275 1311.61 308.383C1312 303.202 1312.9 298.042 1314.25 293.004C1323.37 258.971 1355.64 228.683 1386.11 212.865C1405.36 202.872 1426.46 197.07 1447.56 192.066C1474.35 185.7 1501.73 180.491 1529.23 181.608C1556.75 182.723 1584.68 190.637 1605.98 208.095C1627.28 225.553 1640.94 253.446 1637.27 280.75C1634.38 302.24 1621.49 316.185 1602.24 324.054C1591.59 328.399 1582.37 338.003 1572.94 345.022C1563.08 352.363 1552.93 359.349 1542.26 365.472C1526.2 374.686 1508.79 382.001 1490.48 385.269C1474.58 388.13 1459.7 382.317 1444.38 377.89C1420.53 370.99 1394.39 370.211 1368.16 369.489C1351.37 369.032 1336.64 365.644 1326.12 352.174L1326.13 352.19ZM1454.38 394.942C1443.87 394.596 1432.47 395.128 1421.96 393.636C1406.91 391.524 1392.46 387.961 1377.8 384.965C1376.43 384.678 1375.01 384.214 1374.06 383.473C1371.9 381.832 1370.05 379.948 1368.08 378.174C1371.17 377.023 1374.33 375.018 1377.33 374.789C1406.1 372.618 1432.52 376.143 1455.96 386.101C1458.12 387.027 1459.34 389.27 1460.35 391.15C1460.51 391.451 1457.18 393.171 1454.36 394.927L1454.38 394.942ZM1335.2 384.892C1347.59 382.375 1358.97 384.167 1369.49 387.085C1395.58 394.356 1422.92 398.508 1451.8 399.48C1457.04 399.655 1462.24 400.63 1466.98 401.963C1472.99 403.659 1473.47 407.894 1467.62 411.194C1459.89 415.566 1451.37 419.032 1446.89 421.126C1408.88 429.899 1377.74 427.877 1349.07 418.191C1339.81 415.073 1331.18 410.42 1324.16 405.036C1314.61 397.68 1320.39 387.933 1335.2 384.925L1335.2 384.892ZM1292.54 418.472C1296.67 410.885 1304.04 407.427 1313.19 409.659C1321.14 411.606 1328.53 414.533 1335.9 417.329C1369.18 429.953 1404.83 435.172 1445.39 425.115C1455.88 422.527 1466.21 419.207 1476.76 416.995C1486.56 414.919 1491.97 417.599 1493.63 424.845C1496.95 439.269 1490.28 452.733 1474.52 463.112C1450.83 478.696 1423.99 490.359 1394.83 495.137C1355.34 501.593 1325.11 492.352 1305.67 468.431C1299.17 460.411 1293.91 451.676 1288.07 443.295C1288.57 443.032 1289.08 442.769 1289.59 442.523C1287.68 434.654 1288.06 426.655 1292.52 418.473L1292.54 418.472ZM1177.97 599.558C1138.92 593.163 1119.32 572.212 1114.42 542.406C1110.14 516.524 1120.01 491.927 1145.57 469.898C1160.11 457.359 1177.59 448.643 1195.05 444.342C1235.53 433.464 1265.77 439.9 1287.33 463.258C1292.94 469.354 1297.72 476.025 1301.94 482.866C1309.88 495.747 1303.17 508.087 1290.23 519.581C1272.61 535.195 1258.81 552.261 1248.4 570.687C1232.99 598.008 1208.85 604.641 1177.97 599.574L1177.97 599.558ZM1302.41 522.011C1304.28 522.8 1304.98 526.102 1304.49 528.288C1301.43 542.196 1291.89 554.434 1279.85 565.728C1274.48 570.758 1268.06 575.323 1261.46 579.407C1256.89 582.222 1253.96 581.334 1252.75 577.233C1253.14 575.604 1253.39 572.942 1254.5 570.384C1262.22 552.706 1273.85 536.605 1293.79 524.127C1296.12 522.665 1300.72 521.29 1302.41 522.011ZM1251.42 600.835C1255.04 595.087 1259.61 589.269 1265.26 584.444C1285.39 567.302 1300.74 548.398 1312.39 527.816C1318.93 516.289 1328.05 509.299 1341.1 505.543C1352.84 503.021 1365.62 503.703 1375.48 510.631C1382.17 515.333 1383.76 522.269 1379.99 529.473C1374.95 539.102 1369.04 548.646 1362.33 557.833C1348.29 577.079 1339.44 596.935 1335.4 617.62C1334.68 621.255 1333.62 624.987 1331.84 628.505C1328.69 634.739 1324.73 636.9 1316.94 635.569C1304.05 633.371 1291.42 630.617 1278.93 627.602C1271.56 625.817 1264.23 623.664 1257.72 620.737C1248.92 616.779 1246.36 608.839 1251.43 600.8L1251.42 600.835ZM1379.31 773.765C1357.61 807.447 1322.11 827.732 1276.94 835.464C1212.71 846.435 1164.58 830.618 1130.2 794.437C1120.27 783.998 1114.58 771.837 1111.06 758.709C1103.6 726.189 1112.53 695.142 1144.93 666.618C1162.65 651.027 1184.29 640.414 1209.41 635.216C1228.04 631.354 1241.77 636.494 1252.7 645.529C1268.88 658.919 1289.37 666.845 1313.63 670.488C1330.05 672.955 1342.01 679.786 1350.39 690.469C1358.74 701.155 1367.67 711.538 1377.04 721.647C1391.42 737.146 1391.69 754.591 1379.33 773.763L1379.31 773.765ZM1363.96 675.515C1373.96 681.085 1379.05 689.521 1383.45 698.269C1384.4 700.154 1384.96 702.193 1385.7 704.164C1385.8 704.138 1385.92 704.111 1386.01 704.085C1386.51 706.942 1387.24 709.761 1387.41 712.665C1387.48 713.803 1386.62 715.626 1385.49 716.23C1384.46 716.757 1381.96 716.476 1380.99 715.82C1367.28 706.364 1357.41 694.891 1354.95 679.806C1354.69 678.254 1356.14 675.68 1357.84 674.61C1358.93 673.926 1362.38 674.633 1363.96 675.515ZM1562.76 722.801C1533.17 740.03 1501.11 748.762 1467.02 748.16C1443.01 747.745 1420.88 743.92 1406.6 729.358C1403.03 725.726 1400.31 721.483 1398.03 717.166C1390.83 703.586 1383.89 689.915 1377.07 676.199C1371.13 664.194 1375.61 654.468 1389.93 647.043C1397.84 642.937 1405.76 642.529 1412.99 644.824C1422.34 647.785 1431.09 651.631 1440.15 655C1472.34 667.012 1506.54 667.056 1543.2 652.668C1548.52 650.562 1553.84 648.473 1559.21 646.528C1573.98 641.252 1578.63 642.344 1583.84 652.742C1586.18 657.401 1587.64 662.392 1589.05 666.044C1591.99 676.122 1595.07 684.96 1591.43 694.757C1586.94 706.757 1575.58 715.333 1562.78 722.783L1562.76 722.801ZM1623.65 693.244C1624.72 680.269 1636.41 671.248 1643.82 660.535C1652.2 648.387 1655.28 633.184 1655.08 618.42C1654.89 603.637 1651.67 589.122 1648.48 574.687C1644.82 558.27 1640.04 541.71 1637.47 525.11C1636.1 516.295 1639.89 512.855 1647.63 510.705C1659.34 507.456 1671.88 505.705 1683.8 503.117C1695.99 500.469 1710.83 498.288 1721.64 491.622C1729.1 487.01 1734.21 479.73 1740.75 474.044C1747.2 468.43 1754.92 464.923 1762.95 462.1C1779.23 456.366 1792.7 468.732 1805.48 477.892C1822.95 490.415 1843.13 500.66 1856.11 518.347C1869.76 536.983 1874.37 561.358 1871.33 584.256C1868.29 607.153 1858.04 628.683 1844.55 647.43C1804.87 702.5 1734.79 734.059 1667.27 727.251C1657.06 726.23 1646.66 724.28 1638 718.75C1629.34 713.237 1622.79 703.462 1623.65 693.228L1623.65 693.244Z" fill="#CDCDCA"/>
<path d="M2233.1 759.26C2233.94 762.139 2234.88 765.08 2236.08 768.058C2243.6 786.943 2255.11 804.251 2269.78 818.321C2292.47 840.081 2319.18 850.129 2349.29 856.588C2376.54 862.414 2400.5 864.054 2428.55 859.641C2470.53 853.041 2524.77 827.976 2536.06 783.588C2546.4 742.945 2532.16 704.715 2516.71 667.344C2515.05 663.307 2513.35 658.745 2515.1 654.754C2517.08 650.191 2533.7 649.182 2538.37 647.79C2566.27 639.462 2585.08 623.529 2591.14 598.607C2600.61 559.671 2582.4 523.134 2542.54 489.476C2536.1 484.049 2529.24 478.964 2522.8 473.515C2509.12 461.958 2526.91 454.454 2535.34 446.299C2547.18 434.837 2557.01 421.139 2563.03 405.731C2571.76 383.361 2571.89 357.187 2560.83 335.886C2554.99 324.672 2546.39 315.182 2537.67 306.02C2523 290.59 2507.96 274.43 2491.42 260.95C2475.13 247.681 2455.67 237.312 2437.47 226.947C2416.46 214.981 2389.38 211.087 2365.47 208.821C2348.11 207.187 2330.09 207.242 2313.26 212.315C2297.45 217.074 2279.87 222.085 2266.17 231.557C2256.79 238.038 2249.37 248.224 2241.2 256.227C2232.55 264.647 2222.97 272.378 2214.44 280.905C2205.15 290.192 2195.14 298.641 2181.92 304.317C2163.95 312.036 2156.8 310.367 2141.32 293.707C2129 280.435 2115.55 268.12 2098.16 259.851C2056.49 240.005 2019.48 239.862 1988.5 257.847C1961.16 273.689 1950.41 298.245 1956.81 330.4C1961.14 352.15 1975.46 371.049 1994.88 388.504C1999.65 392.791 2004.26 397.338 2008.03 402.147C2014.51 410.421 2010.16 416.908 1999.54 415.116C1995.01 414.361 1990.31 412.894 1985.83 411.232C1977.81 408.233 1969.9 404.767 1961.92 401.625C1914.55 382.945 1875.07 386.976 1842.87 408.06C1816.04 425.638 1805.64 452.532 1807.73 484.053C1810.5 525.703 1831.28 564.882 1872.99 597.954C1915.45 631.614 1961.33 645.244 2008.75 634.862C2018.39 632.755 2027.37 629.535 2036.97 627.337C2044.74 625.562 2050.3 627.585 2056.25 633.994C2060.5 638.608 2064.31 643.509 2067.88 648.431C2094.91 685.689 2131.99 709.807 2179.57 720.294C2188.58 722.29 2197.59 723.945 2206.6 725.857C2226.9 730.16 2228.45 743.623 2233.09 759.296L2233.11 759.317L2233.1 759.26ZM2338.05 628.922C2339.18 627.883 2341 627.379 2344.07 625.837C2343.8 629.766 2344.1 632.319 2343.42 634.491C2331.82 671.144 2306.35 697.371 2265.25 711.643C2261.36 713 2256.73 713.52 2252.18 713.658C2245.11 713.858 2240.77 710.448 2241.31 704.571C2241.84 698.813 2243.14 693.092 2245.56 688.079C2252.23 674.3 2264.15 664.625 2280.8 659.275C2302.72 652.233 2322.57 643.008 2338.05 628.922ZM2279.28 651.754C2278.48 641.484 2318.02 619.049 2330.3 622.791C2330.76 634.5 2295.39 654.567 2279.28 651.754ZM2288.23 634.394C2281.84 637.945 2275.99 642.07 2269.82 645.895C2252.59 656.644 2231.7 655.912 2208.52 645.841C2169.59 628.914 2144.55 603.273 2133.39 569.458C2128.33 554.163 2132.18 542.116 2144.39 533.833C2164.09 520.458 2181.01 505.164 2191.64 485.133C2193.43 481.724 2196.27 478.843 2199.02 476.016C2207.7 467.018 2220.8 468.037 2235.1 472.819C2242.31 475.232 2249.32 478.615 2255.52 481.167C2302.35 507.177 2329.81 541.279 2341.37 582.375C2345.45 596.937 2338.64 607.198 2326.14 614.041C2313.58 620.913 2300.72 627.459 2288.22 634.407L2288.23 634.394ZM2147.71 475.912C2147.22 475.721 2146.73 475.52 2146.25 475.339C2139.48 488.564 2133.21 502.048 2125.73 514.878C2121.99 521.311 2116.83 527.203 2110.88 532.134C2106.43 535.839 2099.06 535.843 2091.45 533.593C2079.88 530.163 2072.98 522.221 2073.48 512.935C2074.02 503.436 2079.54 496.527 2086.07 490.36C2099.04 478.081 2115.94 469.965 2135.67 465.335C2139.81 464.355 2145.03 465.212 2149.72 465.214C2149.04 468.781 2148.36 472.347 2147.7 475.902L2147.71 475.912ZM2173.14 466.141C2180.78 464.154 2186.64 468.342 2186.36 475.427C2186.2 479.253 2185.42 483.099 2183.8 486.375C2176.12 501.943 2164.99 515.136 2148.21 524.039C2144.81 525.845 2138.71 527.576 2135.41 525.96C2129.95 523.331 2131.95 518.073 2132.78 514.458C2134.09 508.559 2136.59 503.093 2138.56 497.441C2143.89 487.664 2150.41 478.754 2160.18 472.122C2163.92 469.57 2168.35 467.391 2173.15 466.151L2173.14 466.141ZM2052.91 499.031C2053.24 501.229 2053.12 503.515 2052.56 505.477C2050.78 511.569 2045.63 512.629 2038.6 507.7C2033.7 504.27 2029.1 500.062 2025.5 495.694C2016.01 484.232 2011.03 472.084 2009.88 459.687C2009.58 456.278 2010.31 453.034 2010.45 451.169C2013.09 446.207 2016.51 445.573 2020.96 448.996C2025.57 452.5 2030.1 456.456 2033.49 460.714C2043.2 472.895 2050.85 485.554 2052.92 499.018L2052.91 499.031ZM2230.18 466.036C2224.24 463.789 2218.55 460.628 2212.74 457.924C2212.89 457.208 2213.02 456.48 2213.17 455.764C2215.29 455.749 2217.39 455.374 2219.53 455.78C2246.06 461.072 2271.92 469.402 2295.5 484.702C2308.37 493.047 2315.98 504.291 2319.55 516.53C2320.15 518.586 2319.17 520.632 2318.93 522.707C2316.51 521.481 2313.72 520.593 2311.76 518.998C2307.3 515.27 2303.23 511.226 2299.03 507.287C2279.33 488.754 2255.92 475.772 2230.19 466.047L2230.18 466.036ZM2332.03 529.072C2339.84 538.938 2343.28 549.136 2344.45 559.972C2337.48 555.871 2329.73 537.076 2332.03 529.072ZM2405.72 618.413C2414.73 614.967 2459.14 631.345 2468.53 641.842C2458.59 644.949 2413.28 627.855 2405.72 618.413ZM2542.42 494.071C2565.85 513.454 2581.04 535.287 2586.95 560.005C2591.24 578.042 2588.85 594.216 2581.54 609.294C2570.19 629.495 2551.67 643.104 2523.17 646.842C2509.95 648.578 2496.15 646.344 2482.45 640.219C2455.02 627.926 2427.34 616.851 2398.77 608.752C2378.28 602.931 2363.7 591.069 2356.6 574.092C2348.52 554.764 2341.02 535.314 2334.69 515.9C2328.39 496.553 2335.65 481.89 2348.79 469.947C2365.2 455.05 2387.82 452.073 2415.46 457.242C2436.79 461.205 2458.09 463.658 2479.34 466.304C2502.9 469.247 2523.7 478.64 2542.4 494.096L2542.42 494.071ZM2311.91 486.315C2309.4 483.632 2309.05 479.747 2307.75 476.38C2314.28 471.269 2319.93 467.01 2325.35 462.584C2332.34 456.845 2338.82 450.672 2346.2 445.32C2349.33 443.034 2353.95 441.834 2358.39 441.131C2360.51 440.812 2364.89 442.261 2366.2 443.844C2367.45 445.386 2367.05 448.822 2365.72 450.137C2361.1 454.609 2355.55 458.307 2350.74 462.643C2343.35 469.297 2336.33 476.282 2329.09 483.04C2327.42 484.633 2325.54 486.079 2323.53 487.349C2320.13 489.437 2315.59 490.207 2311.96 486.334L2311.91 486.315ZM2418.73 451.449C2425.88 447.654 2458.13 452.386 2467.7 458.623C2461 462.342 2427.73 457.467 2418.73 451.449ZM2221.81 284.712C2223.33 278.689 2227.09 274.014 2233.91 271.772C2238.47 270.285 2242.52 271.95 2243.58 276.429C2244.99 282.365 2244.91 288.223 2245.48 294.118C2244.88 294.03 2244.31 293.941 2243.73 293.864C2240.94 298.981 2235.06 300.68 2229.25 298.082C2223.34 295.445 2220.34 290.461 2221.82 284.7L2221.81 284.712ZM2254.9 283.412C2256.21 266.103 2260.65 253.58 2273.69 241.272C2277.47 237.709 2281.61 234.499 2286.01 231.69C2315.68 212.696 2359.93 212.049 2393.11 220.896C2414.07 226.487 2433.58 236.418 2452.54 246.926C2476.61 260.283 2500.36 274.877 2519.93 294.23C2539.51 313.606 2554.81 338.256 2558.78 365.516C2562.76 392.762 2554.05 422.601 2532.94 440.288C2516.32 454.218 2497.39 455.833 2477.86 448.683C2467.07 444.725 2453.78 445.611 2442.08 444.443C2429.84 443.23 2417.64 441.544 2405.63 438.868C2387.56 434.871 2369.77 428.527 2354.04 418.609C2340.36 409.996 2333.27 395.68 2324.94 382.085C2311.98 360.92 2293.18 342.729 2274.28 324.523C2262.19 312.871 2253.58 300.439 2254.9 283.412ZM2320.84 401.414C2313.31 394.068 2304.54 386.798 2297.77 378.622C2288.06 366.91 2279.79 354.553 2270.97 342.444C2270.15 341.31 2269.41 340.004 2269.21 338.825C2268.73 336.16 2268.62 333.531 2268.36 330.881C2271.43 332.107 2275.1 332.763 2277.48 334.625C2300.21 352.418 2317.35 372.81 2327.95 395.969C2328.93 398.121 2328.32 400.58 2327.8 402.643C2327.71 402.979 2324.1 401.989 2320.83 401.404L2320.84 401.414ZM2239.57 313.68C2250.42 320.165 2257.62 329.158 2263.43 338.406C2277.8 361.356 2295.23 382.848 2315.9 403.03C2319.65 406.704 2322.85 410.908 2325.43 415.087C2328.71 420.397 2326.23 423.856 2319.68 422.344C2311.03 420.364 2302.4 417.174 2297.67 415.698C2263.66 396.559 2242.03 374.084 2227.36 347.618C2222.63 339.072 2219.38 329.817 2217.82 321.104C2215.72 309.25 2226.56 305.933 2239.54 313.682L2239.57 313.68ZM2185.43 309.748C2193.59 306.929 2201.39 309.35 2206.63 317.158C2211.18 323.951 2214.67 331.085 2218.24 338.14C2234.3 369.886 2257.15 397.764 2293.89 417.666C2303.38 422.82 2313.27 427.339 2322.54 432.805C2331.18 437.871 2333.37 443.514 2329.71 449.975C2322.45 462.869 2308.44 468.322 2289.81 465.371C2261.81 460.914 2234.11 451.436 2209.35 435.327C2175.82 413.483 2159.72 386.291 2161.48 355.528C2162.09 345.212 2164.07 335.22 2165.41 325.097C2165.95 325.248 2166.52 325.397 2167.06 325.548C2170.95 318.445 2176.61 312.801 2185.42 309.761L2185.43 309.748ZM1978.75 366.345C1954.21 335.311 1953.83 306.616 1970.31 281.288C1984.6 259.287 2008.45 247.757 2042.17 248.71C2061.36 249.242 2080.15 254.594 2095.95 263.169C2133.21 282.403 2151.2 307.538 2151.39 339.323C2151.43 347.622 2150.47 355.776 2148.98 363.66C2146.18 378.522 2132.88 383.126 2115.58 382.895C2092.04 382.553 2070.35 385.869 2050.24 392.467C2020.44 402.267 1998.13 390.898 1978.72 366.347L1978.75 366.345ZM2122.95 392.893C2123.8 394.74 2122.1 397.648 2120.26 398.927C2108.63 407.145 2093.32 409.761 2076.83 409.995C2069.47 410.092 2061.66 409.138 2054.01 407.701C2048.75 406.707 2047.17 404.069 2049.03 400.221C2050.41 399.288 2052.4 397.48 2054.92 396.339C2072.54 388.475 2091.99 384.433 2115.13 388.634C2117.83 389.13 2122.16 391.217 2122.94 392.882L2122.95 392.893ZM2032.16 416.777C2038.72 414.982 2046.01 413.754 2053.43 413.992C2079.84 414.885 2103.94 411.259 2126.42 403.909C2139.01 399.791 2150.48 400.78 2162.64 406.796C2173.01 412.832 2182 421.959 2184.61 433.721C2186.39 441.711 2182.89 447.912 2175.23 450.686C2165.02 454.403 2154.22 457.458 2143.06 459.736C2119.72 464.49 2099.8 473.205 2082.88 485.756C2079.9 487.958 2076.6 490.001 2072.91 491.399C2066.38 493.884 2062 492.81 2057.14 486.573C2049.09 476.272 2041.61 465.709 2034.42 455.072C2030.17 448.792 2026.2 442.265 2023.37 435.718C2019.53 426.868 2022.98 419.265 2032.16 416.754L2032.16 416.777ZM2010.12 630.729C1971.39 640.989 1931.48 632.053 1892.9 607.344C1838.05 572.179 1813.16 528.056 1812.14 478.158C1811.84 463.762 1815.83 450.927 1822.08 438.864C1838.49 409.801 1865.99 392.89 1909.15 393.654C1932.74 394.073 1955.89 400.805 1977.94 413.897C1994.31 423.594 2001.01 436.643 2002.98 450.69C2005.91 471.488 2015.7 491.143 2031.18 510.195C2041.65 523.082 2045.89 536.187 2044.87 549.716C2043.84 563.236 2043.45 576.92 2043.55 590.701C2043.74 611.85 2032.18 624.905 2010.13 630.739L2010.12 630.729ZM2064.98 547.786C2068.61 558.636 2066.69 568.294 2064.05 577.736C2063.48 579.78 2062.52 581.648 2061.75 583.606C2061.84 583.657 2061.93 583.718 2062.03 583.756C2060.48 586.206 2059.13 588.778 2057.28 591.042C2056.55 591.917 2054.69 592.693 2053.44 592.383C2052.33 592.072 2050.67 590.192 2050.4 589.043C2046.66 572.822 2047.08 557.692 2055.44 544.9C2056.29 543.581 2059.09 542.65 2061.08 542.999C2062.37 543.236 2064.42 546.076 2064.99 547.797L2064.98 547.786ZM2180.01 716.678C2146.53 709.476 2116.96 694.315 2092.16 670.903C2074.71 654.42 2060.93 636.682 2060.19 616.298C2059.99 611.203 2060.85 606.236 2062.07 601.507C2065.89 586.612 2070 571.856 2074.19 557.127C2077.9 544.247 2087.75 540.081 2103.33 544.255C2111.95 546.567 2118.07 551.6 2121.87 558.154C2126.78 566.65 2130.65 575.379 2135.07 583.977C2150.76 614.549 2176 637.627 2212.78 651.686C2218.14 653.727 2223.47 655.747 2228.75 657.947C2243.22 663.991 2245.92 667.924 2242.75 679.137C2241.33 684.154 2239.05 688.838 2237.63 692.472C2233.01 701.915 2229.33 710.511 2220.04 715.296C2208.63 721.138 2194.46 719.816 2179.99 716.704L2180.01 716.678ZM2244.91 735.887C2254.44 727.023 2269.16 728.237 2281.86 725.305C2296.24 721.975 2308.76 712.822 2318.57 701.775C2328.38 690.729 2335.79 677.823 2343.16 665.014C2351.52 650.428 2359.14 634.97 2368.44 620.969C2373.36 613.526 2378.48 613.537 2385.66 617.173C2396.48 622.665 2406.95 629.818 2417.49 635.933C2428.28 642.201 2440.71 650.585 2453.19 652.938C2461.81 654.569 2470.48 652.62 2479.15 652.828C2487.7 653.023 2495.77 655.63 2503.61 658.973C2519.5 665.711 2521.11 683.918 2524.4 699.301C2528.87 720.325 2536.88 741.511 2534.55 763.309C2532.07 786.279 2519.05 807.393 2501.4 822.261C2483.72 837.131 2461.64 846.133 2439.05 850.89C2372.61 864.841 2299.57 840.934 2254.28 790.418C2247.43 782.777 2241.05 774.343 2238.37 764.417C2235.69 754.513 2237.43 742.877 2244.95 735.882L2244.91 735.887Z" fill="#CDCDCA"/>
</svg>
