<svg width="3716" height="1710" viewBox="0 0 3716 1710" fill="none" xmlns="http://www.w3.org/2000/svg">
<path fill-rule="evenodd" clip-rule="evenodd" d="M2220.51 1174.97C2217.17 1177.12 2222.6 1180.78 2224.28 1181.42C2255.75 1193.47 2235.81 1165.06 2220.51 1174.97Z" fill="#171717"/>
<path fill-rule="evenodd" clip-rule="evenodd" d="M2355.13 944.297C2350.4 942.268 2334.69 945.314 2343.27 948.954C2347.85 950.913 2361.6 947.053 2355.13 944.297Z" fill="#171717"/>
<path fill-rule="evenodd" clip-rule="evenodd" d="M2394.93 917.535C2393.36 917.391 2371.38 923.077 2383.04 923.802C2395.41 924.565 2402.87 918.246 2394.93 917.535Z" fill="#171717"/>
<path fill-rule="evenodd" clip-rule="evenodd" d="M2432.77 1139.04C2437.59 1132.03 2405.27 1125.64 2405.41 1137.11C2405.43 1140.12 2408.25 1140.94 2413.12 1142.02C2403.41 1139.85 2434.23 1136.9 2432.77 1139.04Z" fill="#171717"/>
<path fill-rule="evenodd" clip-rule="evenodd" d="M2482.39 694.317C2489.05 702.348 2507.41 705.505 2513.62 699.485C2522.61 690.761 2536.55 701.075 2541.03 698.218C2577.73 674.86 2459.99 667.276 2482.39 694.317Z" fill="#171717"/>
<path fill-rule="evenodd" clip-rule="evenodd" d="M2578.06 788.356C2586.83 792.045 2594.92 791.107 2597.62 790.192C2618.29 783.13 2552.53 777.612 2578.06 788.356Z" fill="#171717"/>
<path fill-rule="evenodd" clip-rule="evenodd" d="M2696.08 1430.52C2691.86 1430.38 2681.34 1437.19 2680.27 1436.74C2699.49 1444.8 2712.78 1431.09 2696.08 1430.52Z" fill="#171717"/>
<path fill-rule="evenodd" clip-rule="evenodd" d="M2875.2 1472.7C2882.29 1475.71 2886.77 1464.2 2875.35 1466.3C2867.63 1467.72 2870.21 1470.58 2875.2 1472.7Z" fill="#171717"/>
<path fill-rule="evenodd" clip-rule="evenodd" d="M2889.97 1509.71C2905.66 1511.74 2904.76 1506.27 2901.85 1505.03C2897.41 1503.14 2874.67 1507.71 2889.97 1509.71Z" fill="#171717"/>
<path fill-rule="evenodd" clip-rule="evenodd" d="M2929.71 1486.15C2929.99 1487.18 2930.91 1493.62 2937.42 1491.05C2945.4 1487.9 2927.69 1478.48 2929.71 1486.15Z" fill="#171717"/>
<path fill-rule="evenodd" clip-rule="evenodd" d="M2962.43 760.887C2979.39 765.502 3020.98 753.437 3005.8 746.985C2996.28 742.925 2947.43 756.81 2962.43 760.887Z" fill="#171717"/>
<path fill-rule="evenodd" clip-rule="evenodd" d="M2979.2 1379.41C2994.78 1400.08 3023.95 1367.94 2991.18 1368.35C2974.52 1368.56 2971.33 1369.01 2979.2 1379.41Z" fill="#171717"/>
<path fill-rule="evenodd" clip-rule="evenodd" d="M3013.07 1437.49C3011.43 1444.59 3057.66 1459.46 3067.51 1452.56C3071.64 1449.67 3015.36 1427.73 3013.07 1437.49Z" fill="#171717"/>
<path fill-rule="evenodd" clip-rule="evenodd" d="M3025.99 1387.98C3013.29 1389.55 3022.74 1396.19 3025.72 1399.19C3040.2 1413.81 3044.42 1385.68 3025.99 1387.98Z" fill="#171717"/>
<path fill-rule="evenodd" clip-rule="evenodd" d="M3035.55 1314.42C3035.4 1315.48 3041.55 1323.16 3047.11 1320.95C3056.27 1317.38 3036.2 1308.85 3035.55 1314.42Z" fill="#171717"/>
<path fill-rule="evenodd" clip-rule="evenodd" d="M3059.04 1314.7C3062.4 1317 3091.3 1321.59 3090.25 1318.28C3089.72 1316.56 3050.98 1309.19 3059.04 1314.7Z" fill="#171717"/>
<path fill-rule="evenodd" clip-rule="evenodd" d="M3114.29 797.936C3108.26 795.402 3083.77 797.904 3098.45 804.165C3110.49 809.28 3120.97 800.79 3114.29 797.936Z" fill="#171717"/>
<path fill-rule="evenodd" clip-rule="evenodd" d="M3120.81 1350.66C3142.51 1358.82 3129.69 1334.49 3117.16 1339.41C3106.39 1343.64 3117.43 1349.39 3120.81 1350.66Z" fill="#171717"/>
<path fill-rule="evenodd" clip-rule="evenodd" d="M3149.23 809.566C3159.21 813.826 3168.04 809.487 3161.03 806.493C3154.03 803.527 3145.28 807.896 3149.23 809.566Z" fill="#171717"/>
<path fill-rule="evenodd" clip-rule="evenodd" d="M3146.03 779.09C3142.44 780.728 3147.96 785.248 3149.8 785.551C3164.26 787.96 3154.67 775.139 3146.03 779.09Z" fill="#171717"/>
<path fill-rule="evenodd" clip-rule="evenodd" d="M3158.41 1416.79C3159.6 1418.17 3160.39 1418.95 3162.25 1420.04C3187.57 1434.68 3140.6 1395.44 3158.41 1416.79Z" fill="#171717"/>
<path fill-rule="evenodd" clip-rule="evenodd" d="M3173.14 790.625C3183.16 794.896 3191.96 790.527 3184.99 787.571C3175.55 783.572 3168.82 788.787 3173.14 790.625Z" fill="#171717"/>
<path fill-rule="evenodd" clip-rule="evenodd" d="M3186.79 1375.48C3184.4 1375.87 3189.47 1382.4 3186.53 1386.69C3183.69 1390.8 3172.96 1388.82 3178.47 1396.21C3193.87 1416.76 3205.73 1372.47 3186.79 1375.49L3186.79 1375.48Z" fill="#171717"/>
<path fill-rule="evenodd" clip-rule="evenodd" d="M3181.34 1441.09C3181.81 1442.41 3189.17 1452.3 3196.81 1449.29C3204.37 1446.3 3177.96 1431.46 3181.34 1441.09Z" fill="#171717"/>
<path fill-rule="evenodd" clip-rule="evenodd" d="M3184.39 1311.37C3181.6 1311.07 3184.05 1314.43 3184.31 1314.58C3191.94 1318.43 3201.76 1325.84 3219.35 1322.99C3223.21 1322.38 3180.98 1311.01 3184.39 1311.37Z" fill="#171717"/>
<path fill-rule="evenodd" clip-rule="evenodd" d="M3183.03 1369.02C3180.45 1370.05 3186.49 1372.12 3186.87 1372.28C3205.97 1380.39 3197 1363.52 3183.03 1369.02Z" fill="#171717"/>
<path fill-rule="evenodd" clip-rule="evenodd" d="M3250 852.413C3240.21 847.424 3194.46 847.895 3206.83 856.706C3214.04 861.822 3216.77 852.225 3218.71 852.041C3223.76 851.574 3263.61 859.345 3250.03 852.413L3250 852.413Z" fill="#171717"/>
<path fill-rule="evenodd" clip-rule="evenodd" d="M3212.5 1447.87C3219.47 1450.83 3229.81 1443.89 3228.29 1443.24C3223.66 1441.27 3202.67 1443.67 3212.5 1447.87Z" fill="#171717"/>
<path fill-rule="evenodd" clip-rule="evenodd" d="M3224.72 866.315C3225.13 866.397 3225.58 866.48 3226.18 866.555C3225.65 866.492 3225.17 866.408 3224.72 866.315Z" fill="#171717"/>
<path fill-rule="evenodd" clip-rule="evenodd" d="M3224.06 866.155C3219.01 864.589 3241.89 862.049 3242.01 860.34C3242.62 849.446 3211.46 862.909 3224.06 866.155Z" fill="#171717"/>
<path fill-rule="evenodd" clip-rule="evenodd" d="M3224.81 1423.99C3225.67 1425.91 3239.41 1435.68 3244.15 1433.83C3253.96 1429.96 3220.9 1415.27 3224.81 1423.99Z" fill="#171717"/>
<path fill-rule="evenodd" clip-rule="evenodd" d="M3246.2 847.572C3252.87 859.373 3302.64 846.532 3277.67 841.538C3261.79 838.351 3246.64 848.319 3246.2 847.572Z" fill="#171717"/>
<path fill-rule="evenodd" clip-rule="evenodd" d="M3286.21 874.372C3285.43 874.9 3284.73 875.252 3284.73 875.252C3273.97 866.949 3280.22 869.797 3286.21 874.372C3288.24 872.959 3290.67 870.214 3280.94 868.791C3222.91 860.275 3286.31 888.029 3292.37 883.352C3294.51 881.698 3290.43 877.606 3286.21 874.372Z" fill="#171717"/>
<path fill-rule="evenodd" clip-rule="evenodd" d="M3260.64 1398.79C3262.58 1401.75 3270.61 1412.32 3283.97 1407.07C3294.3 1403 3250.07 1382.49 3260.64 1398.79Z" fill="#171717"/>
<path fill-rule="evenodd" clip-rule="evenodd" d="M3280.79 708.606C3286.79 709.283 3298.28 703.099 3292.7 700.739C3285.28 697.563 3268.19 707.215 3280.79 708.606Z" fill="#171717"/>
<path fill-rule="evenodd" clip-rule="evenodd" d="M3289.08 1355.87C3279.6 1361.95 3267.47 1347.84 3273.35 1358.89C3276.87 1365.5 3317.95 1381.96 3335.7 1372.45C3337.08 1371.7 3325.45 1358.54 3324.25 1357.89C3309.12 1349.59 3296.71 1350.98 3289.08 1355.87Z" fill="#171717"/>
<path fill-rule="evenodd" clip-rule="evenodd" d="M3297 852.972C3305.77 858.712 3329.17 853.188 3324.47 850.085C3320.15 847.27 3289.82 848.276 3297 852.972Z" fill="#171717"/>
<path fill-rule="evenodd" clip-rule="evenodd" d="M3311.56 1397.78C3300.76 1393.19 3279.42 1402.1 3291.84 1403.96C3293.6 1404.22 3315.13 1399.31 3311.56 1397.78Z" fill="#171717"/>
<path fill-rule="evenodd" clip-rule="evenodd" d="M3317.49 813.169C3318.91 813.45 3332.06 813.743 3333.15 813.355C3348.19 808.132 3296.31 809.224 3317.49 813.169Z" fill="#171717"/>
<path fill-rule="evenodd" clip-rule="evenodd" d="M3314.79 1428.26C3316.98 1430.64 3317.86 1436.54 3326.39 1433.2C3333.09 1430.58 3308.08 1421.06 3314.79 1428.26Z" fill="#171717"/>
<path fill-rule="evenodd" clip-rule="evenodd" d="M3330.86 1076.04C3338.43 1068.97 3321.04 1069.01 3315.39 1067.84C3314.31 1067.99 3313.4 1068.25 3312.58 1068.6C3310.22 1070.61 3332.52 1074.49 3330.86 1076.04Z" fill="#171717"/>
<path fill-rule="evenodd" clip-rule="evenodd" d="M3030.18 710.439C3029.1 710.778 3029.01 717.428 3033.91 718.493C3039.99 719.806 3044.24 715.686 3049.6 717.087C3051.43 717.558 3068.21 725.62 3065.2 718.865C3066.33 721.38 3040.11 707.382 3030.18 710.439Z" fill="#171717"/>
<path fill-rule="evenodd" clip-rule="evenodd" d="M3134.43 1381.1C3139.95 1384.58 3136.61 1398.93 3132.15 1394.68C3138.01 1401.23 3154.46 1405.34 3166.49 1407.27C3168.11 1407.52 3174.98 1412.67 3170.37 1408.91C3166.48 1405.77 3147.5 1384.58 3134.43 1381.1Z" fill="#171717"/>
<path fill-rule="evenodd" clip-rule="evenodd" d="M3132.15 1394.68C3131.96 1394.46 3131.75 1394.25 3131.57 1394.03C3131.75 1394.29 3131.96 1394.5 3132.15 1394.68Z" fill="#171717"/>
<path fill-rule="evenodd" clip-rule="evenodd" d="M3127.95 1381.18C3129.83 1380.41 3132.03 1380.46 3134.43 1381.1C3132.94 1380.16 3130.84 1380 3127.95 1381.18Z" fill="#171717"/>
<path fill-rule="evenodd" clip-rule="evenodd" d="M3304.42 869.07C3308.02 875.316 3340.32 870.65 3335.49 879.061C3334 881.711 3313.19 881.013 3315.83 883.633C3324.27 891.978 3396.57 898.181 3398.09 883.01C3398.11 882.383 3389.06 883.4 3383.22 883.995C3386.06 885.074 3385.88 885.541 3378.46 884.378C3378.81 884.431 3380.73 884.249 3383.22 883.995C3378.16 882.059 3363.52 878.144 3362.95 877.786C3339.96 863.379 3373.15 878.444 3363.18 868.178C3360.92 865.835 3337.69 857.471 3343.83 858.326C3320.96 855.122 3301.9 864.683 3304.42 869.061L3304.42 869.07Z" fill="#171717"/>
<path fill-rule="evenodd" clip-rule="evenodd" d="M3373.98 908.342C3372.23 901.387 3323.91 904.386 3323.17 904.544C3323.48 904.471 3322.87 902.949 3323.2 902.943C3343.91 901.86 3306.43 901.611 3311.39 906.005C3309.63 904.462 3375.16 913.171 3373.98 908.353L3373.98 908.342Z" fill="#171717"/>
<path fill-rule="evenodd" clip-rule="evenodd" d="M2321.64 1203.41C2314.16 1186.58 2209.46 1186.75 2235.29 1213.58C2256.91 1236.05 2328.08 1217.95 2321.64 1203.41Z" fill="#171717"/>
<path fill-rule="evenodd" clip-rule="evenodd" d="M2612.69 814.408C2609.77 817.891 2614.81 823.566 2616.32 825.665C2618.65 828.838 2625.97 840.609 2659.11 837.388C2674.95 835.858 2703.76 802.715 2699.2 797.816C2689.83 787.731 2615.15 811.449 2612.66 814.407L2612.69 814.408Z" fill="#171717"/>
<path fill-rule="evenodd" clip-rule="evenodd" d="M2799.51 784.581C2785.74 780.939 2745.76 772.757 2721.23 782.049C2688.78 794.351 2734.63 806.345 2734.23 817.445C2734.01 824.075 2717.43 832.727 2710.75 834.786C2710.04 834.993 2677.37 837.458 2673.73 840.754C2663.07 850.358 2705.28 862.581 2695.98 874.651C2692.93 878.59 2667.25 879.515 2695.83 881.066C2719.75 882.338 2692 884.752 2690.96 890.6C2689.28 900.084 2708.34 897.459 2704.55 901.986C2705.59 900.728 2686.04 900.29 2681.51 901.712C2684.51 900.771 2668.24 913.852 2667.41 914.35C2667.35 914.387 2667.27 914.427 2667.21 914.465C2630.83 936.254 2655.34 894.601 2640.33 889.998C2632.23 887.528 2616.96 908.133 2612.29 907.286C2601.96 905.445 2623.32 898.246 2612.7 889.669C2605.56 883.929 2601.79 893.476 2598.99 884.71C2592.12 863.56 2600.29 873.601 2566.88 877.921C2542.63 881.023 2486.6 862.53 2456.44 868.598C2435.57 872.794 2452.71 881.438 2442.2 886.051C2435.69 888.914 2397.81 893.464 2386.82 888.595C2360.09 876.763 2356.15 879.07 2313.42 873.316C2244.89 864.08 2116.5 813.489 2045.88 798.224C2017.69 792.125 1978.44 808.429 2029.81 825.645C2032.62 826.606 2033.04 828.155 2034.78 829.398C2056.88 837.493 2078.35 845.954 2097.2 854.716C2116.55 863.708 2144.47 880.089 2170.14 890.834C2189.18 898.778 2207.54 903.333 2206.55 910.482C2206.48 911.311 2197.45 912.728 2197.3 911.974C2198.63 917.694 2213.71 918.195 2206.25 923.303C2201.62 926.491 2169.15 927.961 2173.92 926.124C2156.36 932.937 2172.05 944.368 2187.25 947.097C2184.93 946.679 2227.8 946.31 2236.49 946.157C2233.13 945.836 2256.48 940.066 2261.14 941.578C2272.49 945.298 2242.14 949.811 2260.91 951.178C2256.7 950.882 2269.1 945.042 2270.28 944.89C2269.75 944.943 2301.93 944.993 2307.01 950.122C2319.94 963.2 2267.71 959.551 2260.66 960.775C2249.96 962.641 2253.53 968.593 2237.4 968.51C2239.79 968.508 2233.63 966.149 2228.78 964.635C2227.48 966.223 2225.78 966.446 2223.69 963.54C2223.33 963.086 2225.79 963.691 2228.78 964.635C2231.58 961.386 2232.81 952.336 2233.17 952.438C2214.32 947.009 2146.64 974.335 2191.35 966.358C2211.17 962.835 2195.48 965.363 2209.75 968.181C2218.17 969.852 2256.31 971.018 2270.24 972.992C2261.75 975.439 2252.95 971.878 2248.86 973.567C2245.14 975.116 2255.92 976.876 2253.96 979.089C2252.55 980.663 2239.63 981.194 2238.97 981.969C2237.84 983.214 2245.1 985.313 2245.49 986.744C2245.98 988.605 2236.6 995.43 2234.11 995.889C2234.14 995.879 2226.72 995.801 2220.79 995.788C2220.32 996.604 2212.41 998.414 2210.83 997.331C2214.87 1000.11 2229.59 998.091 2233.84 1001.73C2239.76 1006.84 2237.74 1013.79 2234.01 1014.69C2214.59 1019.37 2219.74 1011.78 2217.49 1011.83C2210.55 1011.99 2203.08 1021.1 2206.56 1024.82C2209.25 1027.7 2215.41 1027.62 2216.66 1029.38C2217.5 1030.57 2213.83 1033.56 2213.85 1034.09C2214.29 1041.61 2235.15 1042.47 2236.57 1044.36C2238.13 1046.43 2225.9 1050.96 2216.59 1051.43C2211.21 1051.68 2208.92 1049.91 2208.3 1050C2203.45 1050.67 2203.44 1052.55 2199.41 1053.79C2193.38 1055.65 2181.5 1055.57 2175.44 1057.22C2174.28 1057.54 2178.33 1059.94 2177.28 1060.35C2170.56 1062.97 2161.62 1061.56 2157.26 1064.18C2156.04 1064.92 2150.82 1073.83 2150.6 1074.96C2149.17 1081.77 2164.93 1093.19 2184.91 1095.52C2188.47 1095.94 2193.7 1094.76 2196.02 1095.48C2198.36 1096.21 2196.27 1099.04 2200.39 1099.75C2202.63 1100.14 2207.64 1098.42 2215.06 1099.49C2220.67 1100.29 2221.6 1103.66 2225.16 1104.04C2231.36 1104.7 2228.8 1100.02 2238.73 1101.9C2240.02 1102.14 2240.76 1106.27 2246.67 1105.95C2248.53 1105.85 2251.75 1100.64 2252.71 1100.38C2258.34 1098.76 2282.54 1099.88 2288.89 1098.79C2298.74 1097.09 2312.2 1087.72 2312.98 1079.78C2313.31 1076.4 2318.06 1072.83 2317.18 1071.09C2316.26 1069.28 2294.06 1055.85 2303.33 1053.79C2311.95 1051.88 2309.05 1057.89 2317.38 1058.77C2321.84 1059.23 2327.63 1057.03 2338.51 1056.8C2362.13 1056.3 2364.69 1062.21 2377.33 1061.51C2376.44 1075.34 2374.86 1089.87 2372.83 1103.39C2371.6 1111.56 2370.23 1119.38 2368.77 1126.45C2368.77 1126.59 2368.71 1126.74 2368.68 1126.87C2368.46 1127.91 2368.24 1128.93 2368.02 1129.93C2367.98 1130.09 2367.95 1130.26 2367.92 1130.41C2367.7 1131.43 2367.45 1132.45 2367.23 1133.43C2362.48 1153.68 2365.83 1171.4 2343.17 1176.39C2341.36 1176.79 2325.2 1175.62 2324.77 1176.17C2323.26 1177.95 2349 1185.51 2347.63 1182.85C2352.2 1191.83 2323.86 1189.71 2310.39 1198.42C2287.75 1213.09 2312.39 1220.72 2272.91 1223.61C2218.4 1227.6 2300.69 1238.94 2295.68 1236.7C2321.36 1248.18 2284.58 1261.78 2294.85 1271.93C2295.51 1272.6 2311.28 1271.64 2313.29 1272.15C2314.91 1272.58 2335.86 1284.01 2336.03 1285.23C2336.48 1288.83 2318.59 1292.89 2321.9 1297.87C2322.34 1298.53 2337.15 1293.64 2344.88 1299.76C2350.26 1304.01 2328.75 1304.5 2344.69 1307.75C2352.97 1309.46 2354.91 1304.68 2367.84 1304.84C2385.79 1305.03 2380.37 1309.98 2390.74 1309.92C2389.81 1309.91 2399.29 1298.74 2413.96 1303.78C2432.73 1310.21 2403 1313.15 2404.44 1316.48C2406.15 1320.44 2418.96 1316.98 2422.72 1323.1C2430.93 1336.45 2391.49 1342.46 2412.87 1350.22C2419.75 1352.7 2432.19 1346.16 2440.73 1342.53C2484.55 1323.83 2477.75 1352.14 2495.66 1359.21C2521.03 1369.25 2523.32 1349.74 2523.59 1346.72C2524.06 1341.72 2557.13 1322.28 2565.6 1323.2C2595.79 1326.46 2569.8 1357.44 2583.08 1365.06C2590.32 1369.2 2606.13 1362.67 2606.02 1368.52C2605.93 1374.91 2564.08 1381.61 2564.09 1387.24C2564.06 1388.39 2589.28 1391.81 2591.47 1400.4C2593.45 1408.16 2605.77 1404.28 2609.58 1411.82C2612.81 1418.14 2600.08 1411.96 2595.63 1418.06C2588.05 1428.49 2631.64 1431.16 2655.24 1431.58C2652.72 1431.54 2660.31 1426.6 2669.15 1426.95C2683.45 1427.5 2685 1437.81 2705.71 1441.79C2732.29 1446.92 2759.72 1447.17 2769.97 1453.76C2791.76 1467.78 2767.13 1453.76 2783.91 1447.52C2796.59 1442.83 2830.51 1448.75 2825.38 1449.62C2856.59 1444.3 2836.97 1434.72 2835.12 1427.3C2829.09 1403.33 2879.92 1424.12 2867.28 1430.89C2865.2 1432.02 2846.4 1429.43 2848.81 1432.27C2851.82 1435.78 2874.28 1448.74 2899.3 1442.48C2913.67 1438.88 2880.95 1420.94 2881.56 1411.84C2882.03 1404.97 2895.43 1411.12 2886.35 1403.88C2893.33 1409.5 2855 1390.06 2840.5 1393.74C2822.65 1398.23 2852.8 1409.6 2840.05 1412.95C2837.87 1413.51 2797.69 1410.3 2789.66 1397.93C2790.67 1399.44 2803.29 1395.58 2803.56 1394.89C2807.73 1386.23 2760.49 1367.78 2785.73 1369.05C2815.24 1370.51 2805.8 1400.27 2835.89 1393.68C2838.77 1393.04 2841.11 1385.24 2840.76 1382.52C2838.87 1368.57 2803.54 1360.08 2790.72 1353.1C2780.64 1347.58 2772.43 1324.96 2800.34 1337.19C2796.61 1335.56 2791.78 1343.66 2790.29 1345.99C2789.77 1352.56 2806.42 1340.22 2809.48 1340.49C2810.49 1340.58 2819.13 1344.81 2813.95 1345.35C2828.74 1343.8 2813.56 1339.12 2832.56 1339.17C2864.49 1339.26 2839.27 1372.72 2873.63 1355.68C2876.13 1354.44 2860.47 1353.49 2859.91 1352.31C2851.46 1335.1 2933.2 1350.66 2938.33 1350.04C2961.36 1347.19 2943.81 1333.5 2975.2 1350.47C3008.17 1368.29 2976.82 1352.91 2984.68 1337.77C2988.93 1329.68 2987.21 1324.97 2966.4 1331.16C2935.49 1340.34 2938.85 1322.94 2916.05 1316.15C2899.95 1311.31 2884.2 1316.16 2879.33 1309.3C2877.7 1307 2912.96 1287.42 2916.73 1287.31C2925.28 1287.04 2935.77 1294.92 2939.65 1293.98C2951.8 1291.09 2957.59 1280.34 2940.03 1277.98C2940.67 1278.06 2919.76 1282.78 2917.85 1283.68C2920.11 1283.53 2922.81 1283.2 2926.09 1282.62C2919.12 1283.83 2917.14 1284.04 2917.85 1283.68C2911.91 1284.09 2909.1 1283.11 2907.66 1280.81C2907.23 1280.12 2922.27 1278.83 2928.85 1278.76C2931.99 1276.77 2940.28 1272.99 2940.14 1273.16C2940.42 1272.85 2940.69 1272.54 2940.95 1272.24C2943.55 1269.22 2944.92 1267.11 2945.54 1265.72C2947.89 1260.45 2939.66 1264.86 2945.54 1265.72C2947.16 1265.94 2949.86 1265.91 2954.15 1265.34C2968.79 1263.35 2945.53 1256.43 2968.13 1259.09C2989.76 1261.65 2960.46 1271.96 2963.07 1276.66C2965.77 1281.36 3016.13 1300.04 3031.72 1298.3C3032.08 1298.26 3036.8 1288.76 3033.9 1285.63C3029.36 1285.8 3026.47 1285.77 3027.43 1285.42C3030.92 1284.22 3032.91 1284.53 3033.9 1285.63C3045.63 1285.25 3068.37 1283.67 3065.14 1282.8C3073.62 1284.32 3073.46 1292.03 3096.34 1295.86C3134.75 1302.32 3155.17 1293.57 3169.81 1307.94C3184.89 1322.79 3175.68 1303.39 3188.43 1300.17C3201.36 1296.86 3245.57 1312.32 3225.33 1300.6C3218.31 1296.55 3235.66 1292.59 3253.13 1294.53C3262.26 1295.53 3267.35 1301.59 3280.59 1302.85C3276.02 1302.43 3285.76 1297.98 3285.28 1298.1C3303.48 1293.19 3302.77 1302.64 3308.2 1304.78C3306.42 1304.09 3312.2 1303.23 3315.89 1303.22C3316.14 1303.21 3316.67 1303.21 3317.43 1303.29C3316.98 1303.25 3316.48 1303.23 3315.89 1303.22C3312.79 1303.6 3332.68 1309.96 3332.93 1312.3C3348.37 1309.48 3381.83 1299.54 3382.09 1299.25C3388.65 1291.62 3361.47 1278.71 3359.57 1278.16C3363.03 1279.13 3356.95 1282.93 3354.81 1282.92C3313.08 1282.84 3343.9 1275 3332.19 1265.03C3331.61 1264.51 3314.47 1261.96 3313.83 1261.61C3300.59 1254.34 3332.49 1227.02 3310.38 1213.52C3302.34 1208.62 3249.86 1206.66 3246.05 1204.74C3234.16 1198.75 3257.26 1189.27 3255.83 1193.1C3258.18 1188.45 3244.68 1188.83 3246.46 1187.13C3247.21 1186.4 3286.29 1188.31 3269.63 1181C3248.23 1171.56 3241.1 1165.32 3251.67 1161.55C3253.23 1161 3273.9 1166.59 3274.68 1163.42C3274.96 1162.1 3252.91 1156.75 3251.82 1155.13C3247.37 1148.58 3270.46 1140.86 3270.68 1136.15C3270.66 1137.24 3257.56 1133.47 3256.96 1132.79C3252.6 1128.04 3253.46 1115.49 3266.63 1113.67C3264.2 1114.01 3278.98 1116.85 3280.27 1117.02C3278.37 1116.43 3255.41 1102.08 3262.36 1099.2C3266.53 1097.46 3297.64 1113.54 3303.68 1107.69C3311.64 1099.95 3290.03 1103.74 3280.82 1099.42C3270.76 1094.73 3256.49 1072.66 3269.02 1068.03C3269.43 1067.74 3270.47 1067.48 3272.33 1067.28C3252.51 1063.77 3300.32 1062.5 3300.08 1064.4C3301.44 1053.3 3279.59 1060.73 3272.74 1049.66C3275.1 1053.48 3293.14 1051.56 3291.1 1053.09C3306.1 1041.86 3259.5 1044 3273.01 1038.45C3284.82 1033.62 3314.1 1046.83 3314.33 1046.94C3335.16 1058.74 3307.54 1035.2 3305.39 1028.9C3304.83 1028.6 3304.79 1028.18 3305.59 1027.63C3305.22 1027.89 3305.21 1028.32 3305.39 1028.9C3308.91 1030.72 3332.64 1028.43 3335.93 1027.1C3333.75 1026.61 3332.66 1026.33 3333.22 1026.35C3336.25 1026.47 3336.84 1026.74 3335.93 1027.1C3346.11 1029.31 3380.12 1035.48 3383.76 1033.35C3393.39 1027.75 3359.69 1021.76 3342.46 1019.39C3350.51 1021.36 3343.79 1025.26 3342.25 1026.3C3342.47 1026.38 3342.55 1026.43 3342.47 1026.46C3341.81 1026.67 3341.87 1026.58 3342.25 1026.3C3338.65 1024.96 3291.58 1016.1 3305.93 1013.2C3316.69 1011.03 3341.11 1018.71 3356.48 1018.62C3359.66 1018.6 3393.64 1013.9 3401.22 1012.93C3397.88 1012.87 3405.53 1007.64 3407.37 1009.6C3392.63 993.662 3525.95 1030.47 3494.9 1010.65C3487.81 1006.11 3500.37 1006.76 3503.66 1007.43C3497.12 1006.05 3446.65 1000.86 3430.73 995.473C3429 994.896 3428.28 994.38 3428.03 993.966C3427.66 994.324 3427.12 994.786 3426.14 995.419C3413.27 1003.74 3384.93 990.679 3389.4 988.574C3392.55 987.089 3432.14 988.984 3430.85 989.067C3437.44 988.608 3448.5 984.208 3463.26 983.044C3510.76 979.34 3561.66 985.562 3532.68 971.054C3512.74 961.078 3567.82 965.222 3560.7 956.981C3560.76 957.049 3546.47 951.713 3528.49 953.393C3518.74 954.302 3515.66 963.674 3509.85 964.385C3492.85 966.469 3510.2 958.92 3486.78 964.111C3488.02 963.842 3510.53 967.822 3505.1 969.135C3502.16 969.832 3440.9 957.168 3428.51 956.942C3429.34 957.547 3413.87 962.717 3422.25 964.945C3419.01 964.096 3510.41 963.279 3486.63 970.517C3474.48 974.211 3467.85 965.566 3459.05 966.984C3454.62 967.703 3465.61 971.342 3467.77 971.826C3468.16 971.822 3468.33 971.824 3468.16 971.899C3468.1 971.917 3467.99 971.878 3467.77 971.826C3464.48 971.972 3441.75 974.886 3426.63 974.6C3421.69 974.511 3412.04 969.922 3403.64 971.132C3400.06 971.646 3408.72 978.615 3389.66 977.374C3376.69 976.535 3371.27 969.41 3357.63 967.39C3333.96 963.876 3282.49 955.762 3284.3 950.5C3287.27 941.509 3301.15 952.498 3315.33 951.894C3312.67 951.012 3321.57 944.516 3321.29 944.532C3324.1 944.429 3348.2 954.776 3348.87 948.062C3349.49 941.869 3272.53 938.15 3293.91 931.401C3299.63 929.584 3324.92 936.066 3326.13 933.375C3331.81 921.292 3257.03 910.048 3257.43 901.478C3257.26 901.367 3257.35 901.066 3257.76 900.533C3257.5 900.843 3257.44 901.145 3257.43 901.478C3258.56 902.321 3273.76 892.782 3280.16 897.029C3262.34 882.528 3170.99 888.338 3152.26 876.841C3151.99 876.674 3160.74 875.106 3152.34 873.65C3157.66 874.573 3139.37 873.993 3128.39 874.615C3142.58 874.012 3131.62 881.823 3129.11 881.383C3116.23 879.138 3132 869.382 3111.05 865.158C3107.27 864.371 3090.22 868.837 3092.54 868.133C3064.94 876.547 3089.66 870.052 3097.04 873.001C3114.05 879.758 3086.47 876.705 3101.46 881.055C3103.61 881.667 3105.84 882.152 3108.25 882.551C3111.3 882.265 3114.05 882.238 3115.27 882.82C3115.69 883.021 3115.85 883.247 3115.99 883.492C3145.3 885.922 3185.59 878.538 3184.31 888.448C3184.48 887.238 3162.25 894.446 3161.09 894.579C3143.56 896.783 3167.26 891.535 3147.41 889.61C3135.41 888.442 3103.91 896.254 3105.74 897.124C3094.26 891.684 3117.23 886.507 3116.02 883.492C3113.35 883.256 3110.77 882.952 3108.31 882.552C3103.1 883.027 3097.05 884.235 3096.83 884.213C3092.7 883.831 3081.4 880.62 3073.4 877.898C3073.17 877.816 3072.95 877.745 3072.73 877.674C3072.28 877.513 3071.83 877.361 3071.39 877.208C3071.08 877.098 3070.77 876.996 3070.49 876.886C3070.16 876.765 3069.82 876.644 3069.52 876.523C3069.24 876.422 3068.99 876.321 3068.74 876.222C3068.24 876.028 3067.76 875.837 3067.35 875.657C3067.21 875.598 3067.1 875.547 3066.96 875.486C3066.65 875.357 3066.37 875.236 3066.12 875.116C3066.01 875.055 3065.9 875.004 3065.79 874.945C3065.6 874.834 3065.4 874.745 3065.26 874.645C3065.21 874.606 3065.12 874.556 3065.07 874.525C3064.9 874.406 3064.79 874.298 3064.8 874.219C3064.41 870.425 3085.82 870.552 3088.04 864.885C3086.54 868.725 3059.35 853.515 3083.74 850.406C3087.52 849.924 3126.53 865.626 3129.74 855.759C3129.53 856.46 3094.69 844.842 3093.13 845.536C3093.64 843.862 3102.37 831.57 3098.01 832.955C3103.81 831.109 3134.78 833.606 3134.87 833.394C3140.58 817.743 3095.81 830.701 3088.87 829.642C3082.9 828.722 3055.15 813.252 3034.03 811.369C3027.92 810.828 3007.39 816.209 2997 815.725C2995.7 815.669 2983.58 809.998 2978.71 809.1C2953.69 804.475 2894.94 797.623 2891.42 796.847C2890.02 796.547 2892.96 792.206 2891.53 792.053C2887.72 791.636 2876.03 794.975 2873.05 795.027C2855.7 795.339 2813.09 788.13 2799.51 784.551L2799.51 784.581ZM2687.94 1414.41C2684.53 1419.69 2668.86 1419.11 2660.26 1415.68C2644.58 1409.45 2692.26 1407.59 2687.94 1414.41ZM2656.26 1388.38C2651.7 1389.9 2641.98 1386.97 2637.9 1384.97C2618.42 1375.47 2674.13 1382.42 2656.26 1388.38ZM2684.85 1348.68C2672.64 1357.34 2692.96 1350.66 2707.75 1355.37C2743.74 1366.85 2697.7 1383.38 2670.51 1369.35C2672.04 1370.12 2657.57 1344.62 2657.28 1345.16C2659.86 1340.56 2696.49 1340.44 2684.85 1348.69L2684.85 1348.68ZM2620.76 1328.71C2634.15 1330.65 2642.37 1339.35 2638.8 1346.53C2638.63 1346.91 2625.72 1346 2624.98 1346.37C2622.9 1347.41 2614.51 1358.64 2606.2 1360.57C2599.85 1362.05 2593.87 1359.31 2592.44 1358.81C2565.86 1349.17 2603.64 1326.21 2620.76 1328.71ZM3245.42 1230.41C3260.25 1246.41 3306.47 1244.78 3308.96 1272.81C3309.33 1277.45 3320.72 1277.1 3313.35 1280.87C3294.66 1290.43 3271.77 1245.13 3258.95 1241.78C3258.25 1241.6 3259.46 1240.44 3258.99 1240.18C3249.49 1235.16 3240.25 1243.27 3231.39 1236.65C3224.87 1231.75 3236.23 1220.53 3245.39 1230.42L3245.42 1230.41ZM3228.08 1183.74C3228.59 1189.39 3242.46 1192.42 3241.63 1195.12C3239.51 1201.99 3225.24 1195.71 3223.06 1199.71C3221.18 1203.1 3231.91 1202.32 3232.2 1203.03C3234.86 1209.6 3257.89 1219.9 3240.96 1223.95C3231.26 1226.25 3218.13 1218.24 3211.08 1213.36C3211.66 1214.92 3212.47 1216.24 3213.43 1217.23C3203.32 1207.18 3204.8 1209.03 3211.08 1213.36C3205.38 1198.5 3216.32 1159.99 3224.34 1145.27C3225.87 1142.49 3217.68 1141.73 3219.89 1138.81C3221.8 1136.21 3230.74 1137.13 3233.8 1134.16C3234.78 1133.25 3226.72 1128 3229.36 1127.69C3262.94 1123.78 3226.96 1172.45 3228.05 1183.75L3228.08 1183.74ZM3234.6 1116.76C3238.05 1118.37 3229.48 1102.58 3243.8 1102.23C3249.22 1102.11 3243.25 1121.77 3234.6 1116.76ZM3226.38 1058.77C3225.1 1059.39 3205.35 1053.01 3208.02 1055.35C3192.9 1042.19 3249.29 1047.77 3226.38 1058.77ZM3152.94 1045.08C3142.38 1048.6 3134.93 1042.48 3134.65 1040.06C3134.09 1035.32 3165.97 1040.75 3152.94 1045.08ZM3389.27 1002.68C3389.97 1000.13 3363.77 1003.77 3369.83 1004.37C3355.09 1003.5 3342.81 997.563 3343.14 994.481C3343.67 989.487 3391.2 997.952 3389.29 1002.67L3389.27 1002.68ZM3338.79 983.226C3336.92 983.643 3308.49 979.633 3299.92 978.328C3299.44 978.45 3298.65 978.343 3297.42 977.927C3297.54 977.969 3298.46 978.125 3299.92 978.328C3303.17 977.556 3290.84 966.225 3288.36 971.412C3288.12 971.927 3281.11 968.747 3283.85 968.155C3303.32 963.834 3366.56 976.982 3338.79 983.236L3338.79 983.226ZM2989.44 942.228C2987.36 941.92 2980.76 937.416 2984.98 935.776C2992.78 932.753 3014.08 945.958 2989.44 942.228ZM2220.04 925.068C2213.8 922.612 2199.71 920.705 2215.66 915.416C2237.27 908.199 2245.38 935.081 2220.04 925.068ZM3114.74 906.872C3115.38 906.988 3107.68 902.06 3114.89 900.466C3128.45 897.443 3133.74 910.42 3114.74 906.872Z" fill="#171717"/>
<path fill-rule="evenodd" clip-rule="evenodd" d="M2149.21 1149.98C2148.67 1148.48 2144.62 1147.35 2141.01 1149.3C2135.19 1152.46 2150.18 1152.62 2149.21 1149.98Z" fill="#171717"/>
<path fill-rule="evenodd" clip-rule="evenodd" d="M2268.66 1164.97C2262.55 1164.15 2262.82 1166.65 2262.29 1168.05C2259.52 1175.23 2279.71 1166.45 2268.66 1164.97Z" fill="#171717"/>
<path fill-rule="evenodd" clip-rule="evenodd" d="M2263.4 1154.34C2261.71 1155.38 2259.29 1156.43 2263.44 1157.59C2270.06 1159.43 2268.83 1151.05 2263.4 1154.34Z" fill="#171717"/>
<path fill-rule="evenodd" clip-rule="evenodd" d="M2247.6 1081C2246.01 1080.56 2242.09 1081.94 2241.82 1082.09C2236.28 1085.38 2256.02 1083.36 2247.6 1081Z" fill="#171717"/>
<path fill-rule="evenodd" clip-rule="evenodd" d="M2297.81 1156.95C2309.85 1156.63 2323.37 1151.47 2324.2 1146.53C2324.34 1145.78 2321.54 1143.69 2322.35 1142.79C2324.46 1140.42 2331.96 1139.47 2333.89 1137.38C2334.87 1136.31 2336.24 1129.78 2332.6 1128.4C2321.83 1124.31 2312.9 1135.51 2304.04 1137.67C2295.54 1139.77 2286.98 1138.39 2281.86 1140.65C2269.83 1145.94 2279.15 1157.44 2297.81 1156.95Z" fill="#171717"/>
<path fill-rule="evenodd" clip-rule="evenodd" d="M2310.15 1178.69C2306.24 1178.22 2305.69 1179.29 2304.69 1180.41C2300.15 1185.45 2319.86 1179.88 2310.15 1178.69Z" fill="#171717"/>
<path fill-rule="evenodd" clip-rule="evenodd" d="M2278.36 1082.57C2278.12 1082.71 2276.17 1084.63 2278.09 1085.18C2286.41 1087.52 2285.19 1078.39 2278.36 1082.57Z" fill="#171717"/>
<path fill-rule="evenodd" clip-rule="evenodd" d="M2339.89 1127.21C2343.34 1128.55 2338.5 1133.53 2340.86 1135.56C2352.4 1145.43 2380.92 1133.68 2386.16 1128.25C2390.56 1123.69 2394.25 1117.09 2391.24 1116.21C2386.23 1114.76 2386.46 1118.51 2380.32 1119.63C2375.93 1120.42 2359.94 1120.95 2354.76 1122.2C2350.58 1123.2 2351.25 1125.39 2345.05 1124.87C2341.02 1124.53 2342.61 1117.82 2331.31 1119.43C2322.2 1120.73 2332.29 1128.22 2332.6 1128.41C2334.18 1129.4 2338.58 1126.7 2339.89 1127.22L2339.89 1127.21Z" fill="#171717"/>
<path fill-rule="evenodd" clip-rule="evenodd" d="M2354.54 1093.04C2354.46 1093.16 2353.32 1094.15 2355.15 1094.29C2360.85 1094.74 2357.56 1089.33 2354.54 1093.04Z" fill="#171717"/>
<path fill-rule="evenodd" clip-rule="evenodd" d="M2397.28 1109.27C2392.38 1112.52 2405.25 1110.43 2405.5 1109.94C2406.68 1107.48 2400.43 1107.17 2397.28 1109.27Z" fill="#171717"/>
<path fill-rule="evenodd" clip-rule="evenodd" d="M2395.57 1006.98C2389.27 1001.09 2341.74 1009.87 2353.04 1016.66C2360.29 1021.03 2403.61 1014.46 2395.57 1006.98Z" fill="#171717"/>
<path fill-rule="evenodd" clip-rule="evenodd" d="M2416.53 998.282C2416.98 998.219 2419.54 998.203 2422.55 998.198C2422.75 997.78 2421.29 997.627 2416.53 998.282Z" fill="#171717"/>
<path fill-rule="evenodd" clip-rule="evenodd" d="M2355.89 1108.5C2349.25 1106.8 2346.83 1110.13 2346.16 1111.17C2342.79 1116.55 2364.63 1110.74 2355.89 1108.5Z" fill="#171717"/>
<path fill-rule="evenodd" clip-rule="evenodd" d="M2369.16 1093.88C2363.98 1092.59 2361.86 1098.52 2361.87 1098.32C2360.81 1104.62 2373.9 1095.06 2369.16 1093.88Z" fill="#171717"/>
<path fill-rule="evenodd" clip-rule="evenodd" d="M115.088 1159.27C98.9559 1150.68 62.2732 1124.86 100.535 1103.8C151.195 1075.93 204.35 1104.58 251.466 1100.24C279.605 1097.67 315.539 1082.56 323.959 1077C324.803 1076.41 333.682 1051.98 347.501 1048.15C387.761 1036.97 441.715 1062.92 492.513 1051.81C509.09 1048.18 511.77 1029.34 519.744 1049.36C526.305 1066.13 535.21 1045.26 559.989 1042.37C600.179 1037.7 589.961 1052.39 608.998 1048.01C603.705 1049.22 600.899 1035.29 606.716 1031.51C602.867 1034.02 657.62 1017.52 659.693 1016.74C659.85 1016.68 660.013 1016.61 660.171 1016.55C750.925 982.391 575.249 1015.25 554.974 1006.11C544.094 1001.18 630.846 982.663 627.024 979.604C618.703 972.836 589.173 990.851 552.238 986.332C527.517 983.277 567.872 977.08 530.516 978.261C440.377 981.034 483.408 983.256 500.127 957.605C512.122 939.006 430.876 905.386 455.179 881.441C471.981 864.872 509.517 874.066 528.595 864.812C540.437 859.081 557.918 830.126 536.71 823.986C485.168 809.044 494.774 805.369 468.268 776.684C425.723 730.678 204.67 656.644 136.422 611.34C109.155 593.257 176.481 559.023 252.077 589.75C256.295 591.428 262.891 591.161 268.252 591.962C303.698 604.929 340.667 617.311 378.789 627.695C417.911 638.355 488.821 652.492 535.694 667.059C570.348 677.877 590.583 689.442 620.891 686.124C624.406 685.767 629.986 678.746 626.775 678.912C651.127 677.781 653.988 688.464 675.315 681.227C688.629 676.729 693.29 652.799 685.722 656.902C713.799 641.765 763.099 648.902 775.424 658.856C773.537 657.335 774.053 688.358 773.827 694.674C772.299 692.366 748.933 711.297 755.579 714.101C771.924 720.923 789.617 697.409 796.329 710.435C794.871 707.51 770.673 718.57 770.084 719.479C770.285 719.074 772.06 742.242 794.086 744.029C850.246 748.573 832.216 712.279 837.068 706.75C844.474 698.362 869.918 698.762 868.782 687.17C868.892 688.892 858.576 685.317 851.91 682.372C858.591 680.854 859.455 679.554 847.015 679.104C845.069 679.015 847.758 680.566 851.91 682.372C838.253 685.577 799.884 689.762 800.336 689.987C776.367 678.391 889.111 619.657 857.412 654.78C843.412 670.342 853.384 658.117 866.043 667.369C873.551 672.826 880.353 699.881 889.41 709.192C899.39 702.182 883.841 697.143 890.815 693.582C897.211 690.337 905.205 697.462 914.509 695.239C921.124 693.646 922.751 684.148 926.008 683.386C931.239 682.121 940.505 686.585 946.601 686.342C954.527 686.016 983.053 676.767 984.88 674.809C984.838 674.834 984.148 669.517 983.805 665.249C987.245 664.614 994.547 658.252 989.872 657.511C1001.88 659.406 994.012 670.749 1009.69 672.476C1031.64 674.882 1061.05 670.89 1064.7 667.872C1083.64 652.172 1051.64 658.657 1051.75 657.018C1052.09 651.954 1090.42 643.249 1106.37 644.402C1118.74 645.286 1118.69 649.752 1126.24 650.01C1131.34 650.183 1143.83 646.451 1146.12 646.266C1178.06 643.84 1182.73 658.557 1190.8 658.891C1199.66 659.255 1218.32 648.796 1219.85 641.914C1220.68 637.948 1213.03 636.945 1213.39 636.465C1216.01 632.725 1223.98 632.028 1229.05 628.679C1236.66 623.654 1235.74 615.119 1242.44 610.157C1243.77 609.201 1254.13 611.244 1255.81 610.339C1266.63 604.537 1260.19 598.617 1271.13 594.517C1274.19 593.365 1311.79 586.355 1316.58 585.782C1345.43 582.27 1394.69 589.451 1405.54 603C1407.48 605.414 1402.73 609.61 1405.9 611.016C1409.12 612.438 1421.02 609.9 1424.25 612.604C1426.01 614.077 1418.96 618.317 1423.84 623.276C1427.55 627.018 1441.87 626.463 1443.67 628.888C1446.77 633.112 1426.78 632.975 1435.22 639.447C1436.31 640.287 1453.89 639.317 1452.81 643.692C1452.5 645.064 1430.54 649.281 1429.47 650.07C1422.86 654.719 1428.78 671.749 1424.47 676.72C1417.73 684.437 1378.58 697.555 1344.94 701.01C1330.59 702.485 1315.66 707.209 1308.24 707.205C1300.52 707.207 1242.41 696.116 1234.12 703.544C1226.42 710.45 1251.77 706.173 1255.92 711.851C1258.1 714.894 1249.05 719.865 1248.59 727.79C1247.62 744.991 1272.84 744.679 1270.48 754.038C1329.16 748.352 1390.77 741.912 1448.1 735.512C1482.73 731.642 1515.86 727.806 1545.82 724.173C1546.41 724.12 1547.02 724.025 1547.59 723.953C1551.97 723.416 1556.31 722.883 1560.56 722.358C1561.22 722.279 1561.92 722.195 1562.58 722.115C1566.91 721.583 1571.2 721.034 1575.37 720.517C1661.12 709.705 1736.53 705.65 1756.6 687.505C1758.21 686.057 1752.46 674.839 1754.78 674.324C1762.26 672.592 1795.62 688.375 1784.25 688.359C1822.62 688.371 1812.21 668.729 1848.54 655.845C1909.76 634.181 1943.34 649.149 1953.7 619.653C1968.01 578.923 2020.16 634.068 2010.38 631.281C2060.37 645.588 2116.33 614.129 2159.94 617.825C2162.82 618.055 2159.49 629.764 2161.77 631.026C2163.67 632.037 2213.23 642.96 2218.44 642.634C2233.74 641.644 2250.1 627.276 2271.41 627.844C2274.23 627.916 2254.17 640.376 2280.53 643.709C2298.86 646.034 2299.88 630.356 2314.48 640.655C2322.1 646 2301.93 649.139 2303.21 658.396C2304.91 671.262 2325.65 665.545 2325.93 673.038C2325.83 672.374 2278.87 683.282 2300.98 692.009C2329.17 703.184 2340.21 680.697 2354.45 680.516C2371.33 680.301 2357.26 690.797 2383.43 691.274C2440.52 692.31 2464.12 661.705 2498.09 674.276C2508.97 678.328 2481.79 689.677 2466.8 697.159C2389.51 735.548 2509.41 720.32 2540.3 730.641C2584.16 745.255 2501.44 754.023 2488.61 755.32C2467.42 757.488 2386.45 788.407 2390.78 794.17C2406.09 814.737 2536.4 784.698 2569.36 791.49C2587.33 795.189 2560.37 808.965 2585.2 806.749C2612.31 804.354 2638.74 771.759 2662.63 769.712C2667.52 769.272 2683.25 786.195 2719.84 784.633C2752.89 783.23 2737.02 793.522 2769.21 793.517C2796.2 793.535 2769.34 786.619 2795.03 781.19C2838.95 771.919 2852.4 802.351 2855.36 819.199C2855.06 817.393 2834.46 824.664 2836.37 830.91C2839.4 841.01 2883.23 838.37 2901.17 851.834C2924.21 869.113 2926.63 888.78 2955.1 893.757C3015.7 904.339 2954.95 891.712 2929.28 906.084C2909.96 916.931 2936.75 939.209 2940.19 935.195C2919.14 959.621 2877.5 948.983 2845.92 950.357C2743.83 954.756 2834.56 983.794 2862.71 972.214C2867.4 970.307 2855.5 957.705 2867.68 958.402C2882.71 959.292 2938.85 970.742 2913.46 991.057C2898.87 1002.72 2821.14 985.695 2782.5 989.456C2753.35 992.301 2780.14 999.711 2748.96 995.813C2773.13 998.794 2688.75 978.272 2703.65 966.479C2721.88 951.981 2771.61 969.554 2785.19 959.143C2787.46 957.369 2771.91 929.595 2718.98 928.326C2725.43 928.498 2709.67 939.002 2706.75 939.447C2670.17 945.611 2589.55 918.311 2596.15 936.032C2603.81 956.759 2729.7 939.094 2703.2 963.18C2700.62 965.489 2667.59 970.026 2656.02 970.764C2596.69 974.492 2558.93 952.137 2528.67 945.448C2504.73 940.205 2408.32 942.541 2461.6 958.185C2454.47 956.095 2488.67 949.656 2498.47 947.733C2526.34 944.964 2474.77 961.461 2476.07 963.564C2476.5 964.259 2494.86 968.945 2496.92 965.01C2491.04 976.236 2470.42 967.008 2471.55 980.675C2473.51 1003.64 2614.36 973.267 2543.68 1004.24C2538.54 1006.49 2533.71 995.56 2528.68 995.586C2455.22 995.777 2525.24 1048.99 2522.84 1052.91C2511.89 1070.54 2452.87 1062.89 2526.49 1079.31C2603.75 1096.56 2536.9 1079.6 2473.02 1090.78C2438.85 1096.79 2418.77 1097.28 2444.04 1080.03C2481.54 1054.4 2407.8 1063.18 2377.87 1049.23C2356.54 1039.39 2376.38 1026.28 2346.99 1025.28C2337.16 1024.94 2255.71 1057.49 2255.46 1060.24C2254.73 1066.5 2288.7 1071.18 2284.9 1074.32C2273.21 1084.13 2227.82 1092.23 2216.96 1080.43C2217.35 1080.86 2236.35 1064.08 2240.1 1062.37C2239.58 1064.05 2238.27 1066.13 2235.98 1068.7C2240.8 1063.23 2241.57 1061.74 2240.1 1062.37C2241.55 1057.95 2237.24 1056.28 2227.4 1056.08C2224.45 1056.02 2219.72 1067.33 2219.75 1072.09C2211.43 1075.08 2195.79 1082.44 2196.52 1082.27C2195.18 1082.59 2193.88 1082.9 2192.62 1083.19C2179.93 1086.17 2171.03 1087.92 2165.16 1088.88C2142.91 1092.49 2161.22 1084.96 2165.16 1088.88C2166.19 1089.97 2166.21 1091.92 2163.98 1095.22C2156.22 1106.49 2125.71 1092.27 2138.12 1107.57C2150.05 1122.23 2192.39 1097.35 2212.48 1097.52C2232.57 1097.75 2314.33 1127.21 2307.71 1139.07C2307.53 1139.35 2267.44 1146.22 2254 1145.27C2254.5 1141.94 2254.22 1139.87 2252.82 1140.69C2247.86 1143.64 2249.3 1144.96 2254 1145.27C2252.96 1153.86 2247.38 1170.82 2243.5 1168.81C2250.38 1174.36 2283.09 1171.44 2300.46 1186.52C2329.77 1211.84 2293.59 1229.74 2355.35 1235.04C2419.14 1240.49 2336.31 1240.93 2323.23 1251.3C2309.82 1261.82 2377.62 1288.03 2326.88 1277.72C2309.35 1274.14 2293.35 1288.09 2302.43 1299.97C2307.14 1306.18 2333.12 1307.64 2339.12 1316.72C2337.09 1313.58 2318.68 1322.22 2319.18 1321.83C2299.2 1336.73 2339.28 1332.78 2348.65 1335.9C2345.61 1334.87 2342.25 1339.35 2342.4 1342.01C2342.35 1342.2 2342.4 1342.58 2342.77 1343.1C2342.55 1342.79 2342.46 1342.43 2342.4 1342.01C2343.84 1339.64 2371.81 1351.65 2381.75 1350.98C2370.55 1363.13 2329.98 1390.86 2328.76 1391.15C2296.65 1398.67 2240.53 1383.79 2238.11 1382.62C2242.39 1384.76 2258.21 1379 2258.08 1377.46C2255.73 1347.42 2223.94 1372.49 2181.02 1367.69C2178.8 1367.46 2167.11 1356.05 2165.59 1355.71C2134.09 1348.83 2019.62 1381.79 1961.24 1370.78C1940.03 1366.78 1929.19 1329.68 1920.85 1327.63C1894.83 1321.26 1855.69 1341.36 1871.88 1338.93C1852.25 1342.32 1853.19 1332.46 1846.07 1334.36C1843.03 1335.16 1853.04 1362.63 1821.15 1353.29C1780.05 1341.32 1753.21 1338.46 1737.71 1347.45C1735.46 1348.77 1760.2 1361.63 1746.79 1363.34C1741.18 1364.03 1717.38 1350.1 1710.47 1349.9C1682.45 1349.08 1650.77 1368.54 1630.8 1370.42C1635.4 1370 1618.76 1361.94 1615.84 1361.76C1595.46 1360.35 1542.24 1365.55 1535.13 1375.7C1536.47 1373.83 1549.25 1383.44 1550.04 1384.31C1547.4 1383.16 1485.36 1371.85 1473.48 1377.91C1466.31 1381.55 1536.08 1398.09 1511.55 1404.58C1479.07 1413.14 1494.1 1396.18 1475.31 1391.13C1454.91 1385.59 1360.51 1383.37 1341.46 1394.08C1340.26 1394.48 1339.2 1395.33 1338.43 1396.74C1322.57 1383.74 1319.48 1418.65 1327.57 1417.78C1280.47 1422.82 1310.99 1404.36 1263.65 1403.47C1279.98 1403.77 1272.68 1417.47 1279.11 1415.44C1232.15 1430.34 1238.95 1395.99 1216.06 1407.75C1196.12 1418.02 1253.65 1434.3 1254.12 1434.42C1305.21 1445.12 1203.93 1433.82 1177.09 1434.56C1175.79 1434.27 1174 1434.39 1171.67 1435.17C1172.76 1434.81 1174.58 1434.65 1177.09 1434.56C1184.99 1436.44 1176.38 1454.37 1170.9 1457.23C1168.74 1455.83 1167.47 1455.15 1167.61 1455.54C1168.24 1457.69 1169.42 1458.01 1170.9 1457.23C1180.78 1463.75 1208.63 1486 1199.78 1489.4C1176.47 1498.39 1149.37 1476.3 1138.49 1464.75C1147.26 1469.82 1163.47 1463.56 1167.83 1462.07C1168.19 1462.19 1168.41 1462.24 1168.53 1462.17C1169.38 1461.62 1169 1461.69 1167.83 1462.07C1161.96 1459.97 1122.05 1429.29 1110.44 1440.68C1101.72 1449.23 1135.54 1464.01 1135.91 1475.12C1135.97 1477.42 1117.68 1503.62 1113.92 1509.44C1113.5 1507.05 1091.65 1514.47 1100.09 1515.08C1031.68 1510.27 1194.45 1592.89 1108.76 1577.76C1089.14 1574.31 1092.54 1583.11 1095.52 1585.25C1089.36 1581.04 1064.87 1546.57 1041.22 1537.06C1038.69 1536.03 1036.46 1535.7 1034.69 1535.67C1036.19 1535.27 1038.13 1534.71 1040.77 1533.78C1075.46 1521.47 1018.64 1505.82 1009.92 1509.81C1003.77 1512.62 1013.74 1540.45 1014.03 1539.49C1012.4 1544.4 994.252 1553.98 990.027 1565.04C976.605 1600.61 1005.5 1635.01 942.486 1619.43C899.158 1608.7 919.427 1646.87 884.088 1644.75C884.383 1644.77 861.029 1636.42 867.289 1622.86C870.679 1615.5 910.322 1609.86 913.06 1605.41C921.083 1592.41 889.871 1607.66 910.776 1588.9C909.694 1589.89 927.687 1604.65 932.999 1600.26C935.814 1597.89 879.067 1558.37 877.505 1549.53C880.114 1549.91 901.318 1536.88 911.184 1542.1C907.423 1540.08 908.389 1606.22 937.97 1586.45C953.064 1576.35 916.036 1574.73 921.629 1567.87C924.468 1564.42 940.452 1571.01 942.612 1572.38C942.614 1572.67 942.631 1572.78 942.94 1572.64C943.015 1572.58 942.842 1572.52 942.612 1572.38C943.073 1569.96 954.341 1552.52 952.391 1541.73C951.774 1538.2 931.822 1532.93 936.549 1526.43C938.558 1523.67 968.572 1527.36 962.374 1514.09C958.183 1505.05 927.666 1503.74 918.429 1494.65C902.357 1478.88 865.406 1444.76 843.148 1447.98C805.114 1453.4 852.449 1459.39 850.576 1469.83C846.7 1468.24 819.549 1477.02 819.602 1476.81C819.301 1478.87 864.408 1492.46 835.934 1495.39C809.665 1498.1 790.136 1444.01 762.518 1461.88C755.08 1466.66 783.834 1482.51 772.464 1484.37C721.434 1492.87 670.058 1443.1 633.689 1446.52C633.21 1446.43 631.934 1446.61 629.692 1447.1C630.998 1446.8 632.277 1446.64 633.689 1446.52C637.323 1447.02 597.559 1461.46 615.903 1464.51C553.463 1456.97 573.698 1389.04 523.971 1379.74C523.247 1379.6 517.015 1386.48 510.424 1380.96C514.6 1384.46 511.25 1371.49 513.358 1363.36C511.485 1373.8 544.12 1363.05 542.132 1361.4C531.974 1352.94 491.315 1367.87 472.362 1354.31C468.837 1351.88 486.968 1337.96 484.092 1339.89C518.482 1316.93 492.101 1337.12 504.983 1341.36C534.502 1351.14 520.198 1332.39 539.394 1341.6C542.097 1342.93 544.265 1344.36 546.079 1345.95C545.013 1348.25 545.032 1350.24 547.562 1350.91C548.436 1351.14 549.403 1351.17 550.448 1351.18C562.189 1371.41 532.795 1403.13 574.809 1398.6C569.683 1399.16 599.208 1380.51 599.718 1379.63C608.222 1366.19 587.091 1385.18 577.954 1371.58C572.41 1363.36 604.051 1337.82 607.836 1338.82C584.18 1332.54 563.312 1350.98 550.451 1351.2C549.318 1349.37 547.904 1347.62 546.084 1345.99C547.85 1342.06 552.684 1337.26 552.58 1337.11C550.759 1334.28 536.573 1327.31 524.626 1322.54C524.269 1322.4 523.957 1322.27 523.645 1322.14C522.94 1321.87 522.271 1321.61 521.602 1321.34C521.119 1321.16 520.672 1320.97 520.191 1320.81C519.66 1320.62 519.129 1320.42 518.601 1320.25C518.157 1320.08 517.716 1319.94 517.283 1319.79C516.437 1319.5 515.602 1319.23 514.819 1319C514.56 1318.92 514.34 1318.85 514.073 1318.78C513.509 1318.6 512.983 1318.45 512.461 1318.31C512.196 1318.25 511.977 1318.19 511.721 1318.13C511.24 1318.03 510.85 1317.93 510.42 1317.86C510.251 1317.84 510.035 1317.8 509.902 1317.77C509.388 1317.69 508.924 1317.65 508.59 1317.68C492.461 1318.79 494.039 1334.17 470.083 1337.83C486.314 1335.35 420.411 1321.32 408.394 1340.02C406.531 1342.92 475.099 1365.29 433.359 1371.21C436.326 1370.8 385.302 1349.94 388.172 1348.56C381.088 1349.54 329.318 1360.32 334.989 1356.67C327.433 1361.52 339.537 1382.93 338.641 1383.07C272.465 1392.89 325.31 1355.91 320.475 1351.29C316.28 1347.33 249.244 1332.99 240.226 1318.46C237.628 1314.25 259.48 1297.49 256.921 1290.18C256.621 1289.27 231.951 1282.61 227.901 1279.43C207.051 1263.09 175.101 1223.26 171.637 1221.01C170.294 1220.11 152.005 1223.81 151.284 1222.84C149.331 1220.25 162.941 1210.61 163.017 1208.44C163.499 1195.83 130.82 1167.76 114.961 1159.28L115.088 1159.27ZM2784.02 849.025C2806.29 844.638 2803.03 833.563 2788.08 828.614C2760.85 819.593 2755.29 854.626 2784.02 849.025ZM2671.96 835.699C2678.19 831.86 2665.28 825.928 2656.58 823.717C2615.29 813.15 2647.52 850.751 2671.96 835.699ZM2504.79 870.785C2540.95 858.832 2513.59 875.904 2534.3 884.839C2584.78 906.58 2652.72 867.381 2591.83 852.911C2595.18 853.73 2486.2 852.616 2488.49 852.205C2469.09 855.743 2470.35 882.178 2504.83 870.781L2504.79 870.785ZM2416.86 831.902C2425.77 840.836 2463.08 843.59 2493.42 838.396C2495.02 838.132 2490.51 829.163 2492.05 828.494C2496.37 826.621 2543.65 816.478 2551.45 809.785C2557.42 804.667 2545.5 801.358 2543.29 800.517C2501.09 784.877 2405.41 820.482 2416.86 831.902ZM2029.79 1317.82C2098.44 1322.66 2093.78 1356.55 2212.94 1348.11C2232.63 1346.69 2231.72 1355.02 2247.38 1348.34C2287.05 1331.38 2093.57 1331.43 2078.74 1323.41C2077.93 1322.98 2073.07 1324.27 2071.94 1324.03C2050.18 1319.01 2084.15 1309.4 2055.6 1305.43C2034.47 1302.52 1987.4 1314.8 2029.82 1317.79L2029.79 1317.82ZM1830.81 1322.35C1854.79 1320.66 1868.36 1329.55 1879.76 1327.97C1908.83 1323.93 1881.5 1315.94 1898.38 1312.91C1912.66 1310.32 1909.87 1318.33 1912.88 1318.29C1940.93 1317.8 1985.77 1330.64 2002.18 1316.95C2011.47 1309.13 1976.82 1302.59 1955.75 1299.29C1962.4 1299.14 1968.04 1299.25 1972.29 1299.58C1929.1 1295.97 1937.04 1296.35 1955.75 1299.29C1892.35 1300.62 1729.39 1322.55 1667.27 1333.7C1655.52 1335.82 1651.89 1330.2 1639.62 1332.85C1628.65 1335.18 1633.02 1341.28 1620.55 1344.57C1616.71 1345.61 1594.05 1341.72 1592.87 1343.74C1577.9 1369.35 1782.79 1325.67 1830.84 1322.33L1830.81 1322.35ZM1546.68 1351.5C1553.7 1353.39 1486.24 1352.98 1485.46 1363.43C1485.21 1367.38 1568.4 1355.9 1546.68 1351.5ZM1300.08 1366.74C1302.64 1365.59 1274.6 1353.69 1284.65 1354.76C1228.03 1348.67 1254.48 1387.26 1300.08 1366.74ZM1238.39 1318.83C1252.81 1309.93 1226.44 1306.8 1216.17 1307.48C1195.99 1308.81 1220.64 1329.8 1238.39 1318.83ZM1069.8 1504.56C1059.01 1506 1073.21 1485.8 1076.05 1489.94C1071.64 1479.64 1045.83 1472.96 1032.76 1474.32C1011.58 1476.53 1049.83 1507.68 1069.76 1504.59L1069.8 1504.56ZM984.753 1475.3C986.433 1473.8 968.025 1454.78 962.069 1449.08C962.565 1448.69 962.071 1448.16 960.246 1447.43C960.43 1447.5 961.137 1448.1 962.069 1449.08C958.95 1451.7 910.238 1446.96 932.14 1443.28C934.316 1442.92 920.475 1439.03 918.093 1441.22C900.69 1456.82 959.589 1497.59 984.798 1475.3L984.753 1475.3ZM793.706 1238.57C792.296 1237.19 772.853 1234.07 766.091 1237.71C753.636 1244.44 810.743 1254.96 793.706 1238.57ZM683.481 690.516C672.749 686.919 663.965 677.461 642.283 690.882C612.688 709.09 727.226 705.121 683.481 690.516ZM649.662 1341.74C650.188 1342.16 628.89 1338.42 622.468 1344.19C610.293 1355.06 665.651 1354.14 649.662 1341.74Z" fill="#171717"/>
<path fill-rule="evenodd" clip-rule="evenodd" d="M2370.51 454.029C2367.17 451.881 2372.6 448.221 2374.28 447.576C2405.75 435.529 2385.81 463.938 2370.51 454.029Z" fill="#171717"/>
<path fill-rule="evenodd" clip-rule="evenodd" d="M2505.13 684.702C2500.4 686.731 2484.69 683.685 2493.27 680.045C2497.85 678.086 2511.6 681.947 2505.13 684.702Z" fill="#171717"/>
<path fill-rule="evenodd" clip-rule="evenodd" d="M2544.93 711.464C2543.36 711.608 2521.38 705.922 2533.04 705.197C2545.41 704.434 2552.87 710.753 2544.93 711.464Z" fill="#171717"/>
<path fill-rule="evenodd" clip-rule="evenodd" d="M2582.77 489.963C2587.59 496.969 2555.27 503.36 2555.41 491.89C2555.43 488.881 2558.25 488.056 2563.12 486.984C2553.41 489.15 2584.23 492.096 2582.77 489.963Z" fill="#171717"/>
<path fill-rule="evenodd" clip-rule="evenodd" d="M2632.39 934.682C2639.05 926.651 2657.41 923.494 2663.62 929.514C2672.61 938.238 2686.55 927.924 2691.03 930.781C2727.73 954.139 2609.99 961.723 2632.39 934.682Z" fill="#171717"/>
<path fill-rule="evenodd" clip-rule="evenodd" d="M2728.06 840.643C2736.83 836.954 2744.92 837.892 2747.62 838.807C2768.29 845.869 2702.53 851.387 2728.06 840.643Z" fill="#171717"/>
<path fill-rule="evenodd" clip-rule="evenodd" d="M2846.08 198.48C2841.86 198.619 2831.34 191.808 2830.27 192.261C2849.49 184.198 2862.78 197.911 2846.08 198.48Z" fill="#171717"/>
<path fill-rule="evenodd" clip-rule="evenodd" d="M3025.2 156.296C3032.29 153.29 3036.77 164.803 3025.35 162.701C3017.63 161.279 3020.21 158.416 3025.2 156.296Z" fill="#171717"/>
<path fill-rule="evenodd" clip-rule="evenodd" d="M3039.97 119.294C3055.66 117.261 3054.76 122.732 3051.85 123.968C3047.41 125.857 3024.67 121.293 3039.97 119.294Z" fill="#171717"/>
<path fill-rule="evenodd" clip-rule="evenodd" d="M3079.71 142.85C3079.99 141.821 3080.91 135.382 3087.42 137.952C3095.4 141.1 3077.69 150.522 3079.71 142.85Z" fill="#171717"/>
<path fill-rule="evenodd" clip-rule="evenodd" d="M3112.43 868.112C3129.39 863.497 3170.98 875.562 3155.8 882.014C3146.28 886.074 3097.43 872.189 3112.43 868.112Z" fill="#171717"/>
<path fill-rule="evenodd" clip-rule="evenodd" d="M3129.2 249.593C3144.78 228.914 3173.95 261.056 3141.18 260.654C3124.52 260.442 3121.33 259.991 3129.2 249.593Z" fill="#171717"/>
<path fill-rule="evenodd" clip-rule="evenodd" d="M3163.07 191.508C3161.43 184.407 3207.66 169.537 3217.51 176.444C3221.64 179.325 3165.36 201.268 3163.07 191.508Z" fill="#171717"/>
<path fill-rule="evenodd" clip-rule="evenodd" d="M3175.99 241.015C3163.29 239.447 3172.74 232.81 3175.72 229.805C3190.2 215.186 3194.42 243.316 3175.99 241.015Z" fill="#171717"/>
<path fill-rule="evenodd" clip-rule="evenodd" d="M3185.55 314.584C3185.4 313.521 3191.55 305.838 3197.11 308.048C3206.27 311.622 3186.2 320.154 3185.55 314.584Z" fill="#171717"/>
<path fill-rule="evenodd" clip-rule="evenodd" d="M3209.04 314.302C3212.4 311.996 3241.3 307.413 3240.25 310.718C3239.72 312.443 3200.98 319.81 3209.04 314.302Z" fill="#171717"/>
<path fill-rule="evenodd" clip-rule="evenodd" d="M3264.29 831.063C3258.26 833.597 3233.77 831.095 3248.45 824.835C3260.49 819.719 3270.97 828.209 3264.29 831.063Z" fill="#171717"/>
<path fill-rule="evenodd" clip-rule="evenodd" d="M3270.81 278.335C3292.51 270.175 3279.69 294.513 3267.16 289.592C3256.39 285.354 3267.43 279.606 3270.81 278.335Z" fill="#171717"/>
<path fill-rule="evenodd" clip-rule="evenodd" d="M3299.23 819.433C3309.21 815.173 3318.04 819.512 3311.03 822.506C3304.03 825.472 3295.28 821.103 3299.23 819.433Z" fill="#171717"/>
<path fill-rule="evenodd" clip-rule="evenodd" d="M3296.03 849.909C3292.44 848.271 3297.96 843.751 3299.8 843.448C3314.26 841.039 3304.67 853.86 3296.03 849.909Z" fill="#171717"/>
<path fill-rule="evenodd" clip-rule="evenodd" d="M3308.41 212.209C3309.6 210.828 3310.39 210.047 3312.25 208.96C3337.57 194.32 3290.6 233.559 3308.41 212.209Z" fill="#171717"/>
<path fill-rule="evenodd" clip-rule="evenodd" d="M3180.18 918.56C3179.1 918.221 3179.01 911.571 3183.91 910.506C3189.99 909.193 3194.24 913.313 3199.6 911.912C3201.43 911.441 3218.21 903.379 3215.2 910.134C3216.33 907.619 3190.11 921.617 3180.18 918.56Z" fill="#171717"/>
<path fill-rule="evenodd" clip-rule="evenodd" d="M3284.43 247.903C3289.95 244.419 3286.61 230.071 3282.15 234.324C3288.01 227.768 3304.46 223.656 3316.49 221.725C3318.11 221.481 3324.98 216.33 3320.37 220.087C3316.48 223.229 3297.5 244.417 3284.43 247.903Z" fill="#171717"/>
<path fill-rule="evenodd" clip-rule="evenodd" d="M3282.15 234.323C3281.96 234.54 3281.75 234.747 3281.57 234.964C3281.75 234.708 3281.96 234.501 3282.15 234.323Z" fill="#171717"/>
<path fill-rule="evenodd" clip-rule="evenodd" d="M3277.95 247.823C3279.83 248.592 3282.03 248.537 3284.43 247.903C3282.94 248.838 3280.84 249 3277.95 247.823Z" fill="#171717"/>
<path fill-rule="evenodd" clip-rule="evenodd" d="M2471.64 425.594C2464.16 442.416 2359.46 442.245 2385.29 415.417C2406.91 392.949 2478.08 411.051 2471.64 425.594Z" fill="#171717"/>
<path fill-rule="evenodd" clip-rule="evenodd" d="M2762.69 814.591C2759.77 811.108 2764.81 805.433 2766.32 803.334C2768.65 800.161 2775.97 788.39 2809.11 791.611C2824.95 793.141 2853.76 826.284 2849.2 831.183C2839.83 841.268 2765.15 817.55 2762.66 814.592L2762.69 814.591Z" fill="#171717"/>
<path fill-rule="evenodd" clip-rule="evenodd" d="M2813.56 147.617C2820.29 141.315 2838.75 137.218 2848.74 143.985C2868.25 157.243 2796.49 163.664 2813.56 147.617Z" fill="#171717"/>
<path fill-rule="evenodd" clip-rule="evenodd" d="M2949.51 844.418C2935.74 848.06 2895.76 856.242 2871.23 846.95C2838.78 834.648 2884.63 822.654 2884.23 811.554C2884.01 804.924 2867.43 796.272 2860.75 794.213C2860.04 794.006 2827.37 791.541 2823.73 788.245C2813.07 778.641 2855.28 766.418 2845.98 754.348C2842.93 750.409 2817.25 749.484 2845.83 747.933C2869.75 746.662 2842 744.247 2840.96 738.399C2839.28 728.915 2858.34 731.54 2854.55 727.013C2855.59 728.271 2836.04 728.709 2831.51 727.287C2834.51 728.228 2818.24 715.147 2817.41 714.649C2817.35 714.612 2817.27 714.572 2817.21 714.534C2780.83 692.745 2805.34 734.398 2790.33 739.001C2782.23 741.471 2766.96 720.866 2762.29 721.713C2751.96 723.554 2773.32 730.753 2762.7 739.33C2755.56 745.07 2751.79 735.523 2748.99 744.289C2742.12 765.439 2750.29 755.398 2716.88 751.079C2692.63 747.976 2636.6 766.469 2606.44 760.401C2585.57 756.205 2602.71 747.561 2592.2 742.948C2585.69 740.085 2547.81 735.535 2536.82 740.404C2510.09 752.236 2506.15 749.929 2463.42 755.683C2394.89 764.919 2266.5 815.51 2195.88 830.775C2167.69 836.874 2128.44 820.57 2179.81 803.354C2182.62 802.393 2183.04 800.844 2184.78 799.601C2206.88 791.506 2228.35 783.045 2247.2 774.283C2266.55 765.291 2294.47 748.91 2320.14 738.165C2339.18 730.221 2357.54 725.666 2356.55 718.517C2356.48 717.688 2347.45 716.271 2347.3 717.025C2348.63 711.305 2363.71 710.804 2356.25 705.696C2351.62 702.508 2319.15 701.038 2323.92 702.875C2306.36 696.062 2322.05 684.631 2337.25 681.902C2334.93 682.32 2377.8 682.689 2386.49 682.842C2383.13 683.163 2406.48 688.933 2411.14 687.421C2422.49 683.702 2392.14 679.188 2410.91 677.822C2406.7 678.117 2419.1 683.957 2420.28 684.11C2419.75 684.056 2451.93 684.006 2457.01 678.877C2469.94 665.799 2417.71 669.448 2410.66 668.224C2399.96 666.358 2403.53 660.406 2387.4 660.489C2389.79 660.491 2383.63 662.85 2378.78 664.364C2377.48 662.776 2375.78 662.553 2373.69 665.459C2373.33 665.913 2375.79 665.308 2378.78 664.364C2381.58 667.613 2382.81 676.663 2383.17 676.561C2364.32 681.99 2296.64 654.664 2341.35 662.641C2361.17 666.164 2345.48 663.636 2359.75 660.818C2368.17 659.147 2406.31 657.981 2420.24 656.007C2411.75 653.56 2402.95 657.121 2398.86 655.432C2395.14 653.883 2405.92 652.123 2403.96 649.91C2402.55 648.336 2389.63 647.805 2388.97 647.03C2387.84 645.785 2395.1 643.686 2395.49 642.255C2395.98 640.394 2386.6 633.569 2384.11 633.11C2384.14 633.12 2376.72 633.198 2370.79 633.211C2370.32 632.395 2362.41 630.585 2360.83 631.668C2364.87 628.886 2379.59 630.908 2383.84 627.264C2389.76 622.163 2387.74 615.212 2384.01 614.31C2364.59 609.628 2369.74 617.224 2367.49 617.172C2360.55 617.011 2353.08 607.898 2356.56 604.183C2359.25 601.3 2365.41 601.382 2366.66 599.619C2367.5 598.428 2363.83 595.443 2363.85 594.906C2364.29 587.388 2385.15 586.526 2386.57 584.643C2388.13 582.573 2375.9 578.04 2366.59 577.573C2361.21 577.315 2358.92 579.09 2358.3 579C2353.45 578.326 2353.44 576.45 2349.41 575.209C2343.38 573.347 2331.5 573.429 2325.44 571.782C2324.28 571.455 2328.33 569.061 2327.28 568.653C2320.56 566.029 2311.62 567.443 2307.26 564.818C2306.04 564.082 2300.82 555.167 2300.6 554.037C2299.17 547.226 2314.93 535.805 2334.91 533.478C2338.47 533.062 2343.7 534.241 2346.02 533.521C2348.36 532.789 2346.27 529.963 2350.39 529.249C2352.63 528.862 2357.64 530.578 2365.06 529.513C2370.67 528.705 2371.6 525.344 2375.16 524.96C2381.36 524.3 2378.8 528.979 2388.73 527.104C2390.02 526.863 2390.76 522.732 2396.67 523.054C2398.53 523.147 2401.75 528.354 2402.71 528.618C2408.34 530.24 2432.54 529.123 2438.89 530.209C2448.74 531.909 2462.2 541.283 2462.98 549.215C2463.31 552.599 2468.06 556.168 2467.18 557.906C2466.26 559.714 2444.06 573.146 2453.33 575.204C2461.95 577.115 2459.05 571.112 2467.38 570.231C2471.84 569.768 2477.63 571.966 2488.51 572.197C2512.13 572.697 2514.69 566.787 2527.33 567.486C2526.44 553.657 2524.86 539.131 2522.83 525.605C2521.6 517.436 2520.23 509.618 2518.77 502.545C2518.77 502.406 2518.71 502.262 2518.68 502.126C2518.46 501.092 2518.24 500.069 2518.02 499.065C2517.98 498.91 2517.95 498.744 2517.92 498.589C2517.7 497.565 2517.45 496.551 2517.23 495.569C2512.48 475.318 2515.83 457.596 2493.17 452.611C2491.36 452.213 2475.2 453.382 2474.77 452.83C2473.26 451.051 2499 443.488 2497.63 446.151C2502.2 437.168 2473.86 439.294 2460.39 430.583C2437.75 415.908 2462.39 408.28 2422.91 405.389C2368.4 401.397 2450.69 390.055 2445.68 392.302C2471.36 380.823 2434.58 367.223 2444.85 357.07C2445.51 356.399 2461.28 357.363 2463.29 356.85C2464.91 356.422 2485.86 344.988 2486.03 343.764C2486.48 340.166 2468.59 336.109 2471.9 331.127C2472.34 330.467 2487.15 335.361 2494.88 329.242C2500.26 324.988 2478.75 324.501 2494.69 321.244C2502.97 319.544 2504.91 324.317 2517.84 324.163C2535.79 323.969 2530.37 319.023 2540.74 319.075C2539.81 319.086 2549.29 330.255 2563.96 325.217C2582.73 318.791 2553 315.853 2554.44 312.514C2556.15 308.557 2568.96 312.019 2572.72 305.899C2580.93 292.546 2541.49 286.539 2562.87 278.783C2569.75 276.298 2582.19 282.842 2590.73 286.471C2634.55 305.174 2627.75 276.859 2645.66 269.789C2671.03 259.749 2673.32 279.257 2673.59 282.282C2674.06 287.278 2707.13 306.723 2715.6 305.802C2745.79 302.542 2719.8 271.555 2733.08 263.944C2740.32 259.794 2756.13 266.327 2756.02 260.477C2755.93 254.09 2714.08 247.388 2714.09 241.762C2714.06 240.61 2739.28 237.194 2741.47 228.601C2743.45 220.841 2755.77 224.72 2759.58 217.182C2762.81 210.863 2750.08 217.041 2745.63 210.94C2738.05 200.51 2781.64 197.843 2805.24 197.416C2802.72 197.456 2810.31 202.396 2819.15 202.047C2833.45 201.496 2835 191.192 2855.71 187.204C2882.29 182.082 2909.72 181.825 2919.97 175.236C2941.76 161.214 2917.13 175.241 2933.91 181.478C2946.59 186.173 2980.51 180.25 2975.38 179.383C3006.59 184.697 2986.97 194.278 2985.12 201.695C2979.09 225.669 3029.92 204.884 3017.28 198.108C3015.2 196.981 2996.4 199.568 2998.81 196.726C3001.82 193.223 3024.28 180.257 3049.3 186.524C3063.67 190.124 3030.95 208.056 3031.56 217.162C3032.03 224.033 3045.43 217.876 3036.35 225.115C3043.33 219.503 3005 238.938 2990.5 235.262C2972.65 230.766 3002.8 219.399 2990.05 216.054C2987.87 215.494 2947.69 218.696 2939.66 231.07C2940.67 229.564 2953.29 233.418 2953.56 234.109C2957.73 242.772 2910.49 261.219 2935.73 259.952C2965.24 258.487 2955.8 228.729 2985.89 235.317C2988.77 235.956 2991.11 243.762 2990.76 246.482C2988.87 260.434 2953.54 268.922 2940.72 275.902C2930.64 281.424 2922.43 304.036 2950.34 291.807C2946.61 293.444 2941.78 285.335 2940.29 283.009C2939.77 276.441 2956.42 288.775 2959.48 288.504C2960.49 288.414 2969.13 284.189 2963.95 283.645C2978.74 285.199 2963.56 289.882 2982.56 289.832C3014.49 289.736 2989.27 256.277 3023.63 273.314C3026.13 274.554 3010.47 275.512 3009.91 276.691C3001.46 293.895 3083.2 278.34 3088.33 278.963C3111.36 281.805 3093.81 295.503 3125.2 278.524C3158.17 260.706 3126.82 276.092 3134.68 291.227C3138.93 299.323 3137.21 304.032 3116.4 297.843C3085.49 288.657 3088.85 306.063 3066.05 312.849C3049.95 317.69 3034.2 312.837 3029.33 319.703C3027.7 321.998 3062.96 341.583 3066.73 341.685C3075.28 341.955 3085.77 334.074 3089.65 335.016C3101.8 337.908 3107.59 348.663 3090.03 351.019C3090.67 350.935 3069.76 346.221 3067.85 345.316C3070.11 345.464 3072.81 345.803 3076.09 346.381C3069.12 345.165 3067.14 344.962 3067.85 345.316C3061.91 344.907 3059.1 345.89 3057.66 348.19C3057.23 348.88 3072.27 350.166 3078.85 350.235C3081.99 352.23 3090.28 356.008 3090.14 355.835C3090.42 356.154 3090.69 356.462 3090.95 356.761C3093.55 359.78 3094.92 361.892 3095.54 363.281C3097.89 368.548 3089.66 364.142 3095.54 363.281C3097.16 363.057 3099.86 363.085 3104.15 363.659C3118.79 365.653 3095.53 372.572 3118.13 369.909C3139.76 367.346 3110.46 357.039 3113.07 352.338C3115.77 347.638 3166.13 328.958 3181.72 330.697C3182.08 330.741 3186.8 340.239 3183.9 343.369C3179.36 343.199 3176.47 343.234 3177.43 343.574C3180.92 344.782 3182.91 344.464 3183.9 343.369C3195.63 343.748 3218.37 345.324 3215.14 346.201C3223.62 344.675 3223.46 336.971 3246.34 333.142C3284.75 326.678 3305.17 335.432 3319.81 321.055C3334.89 306.204 3325.68 325.606 3338.43 328.833C3351.36 332.139 3395.57 316.677 3375.33 328.395C3368.31 332.444 3385.66 336.409 3403.13 334.472C3412.26 333.466 3417.35 327.407 3430.59 326.146C3426.02 326.571 3435.76 331.018 3435.28 330.895C3453.48 335.808 3452.77 326.361 3458.2 324.215C3456.42 324.911 3462.2 325.77 3465.89 325.775C3466.14 325.791 3466.67 325.785 3467.43 325.708C3466.98 325.752 3466.48 325.768 3465.89 325.775C3462.79 325.401 3482.68 319.041 3482.93 316.703C3498.37 319.518 3531.83 329.455 3532.09 329.744C3538.65 337.384 3511.47 350.288 3509.57 350.837C3513.03 349.869 3506.95 346.073 3504.81 346.079C3463.08 346.155 3493.9 353.994 3482.19 363.968C3481.61 364.485 3464.47 367.043 3463.83 367.391C3450.59 374.66 3482.49 401.983 3460.38 415.48C3452.34 420.382 3399.86 422.334 3396.05 424.256C3384.16 430.247 3407.26 439.73 3405.83 435.9C3408.18 440.551 3394.68 440.174 3396.46 441.871C3397.21 442.596 3436.29 440.686 3419.63 448.004C3398.23 457.441 3391.1 463.679 3401.67 467.45C3403.23 467.998 3423.9 462.409 3424.68 465.575C3424.96 466.9 3402.91 472.252 3401.82 473.866C3397.37 480.415 3420.46 488.141 3420.68 492.847C3420.66 491.762 3407.56 495.532 3406.96 496.213C3402.6 500.962 3403.46 513.506 3416.63 515.33C3414.2 514.988 3428.98 512.147 3430.27 511.976C3428.37 512.574 3405.41 526.923 3412.36 529.8C3416.53 531.538 3447.64 515.46 3453.68 521.308C3461.64 529.048 3440.03 525.26 3430.82 529.581C3420.76 534.27 3406.49 556.34 3419.02 560.967C3419.43 561.257 3420.47 561.517 3422.33 561.719C3402.51 565.228 3450.32 566.504 3450.08 564.594C3451.44 575.703 3429.59 568.265 3422.74 579.336C3425.1 575.517 3443.14 577.443 3441.1 575.905C3456.1 587.135 3409.5 585.002 3423.01 590.546C3434.82 595.378 3464.1 582.165 3464.33 582.056C3485.16 570.261 3457.54 593.798 3455.39 600.095C3454.83 600.394 3454.79 600.815 3455.59 601.373C3455.22 601.113 3455.21 600.684 3455.39 600.095C3458.91 598.275 3482.64 600.573 3485.93 601.901C3483.75 602.385 3482.66 602.671 3483.22 602.645C3486.25 602.533 3486.84 602.261 3485.93 601.901C3496.11 599.69 3530.12 593.522 3533.76 595.647C3543.39 601.248 3509.69 607.244 3492.46 609.609C3500.51 607.637 3493.79 603.742 3492.25 602.696C3492.47 602.614 3492.55 602.564 3492.47 602.535C3491.81 602.328 3491.87 602.417 3492.25 602.696C3488.65 604.037 3441.58 612.899 3455.93 615.796C3466.69 617.974 3491.11 610.288 3506.48 610.378C3509.66 610.4 3543.64 615.095 3551.22 616.069C3547.88 616.128 3555.53 621.361 3557.37 619.395C3542.63 635.337 3675.95 598.529 3644.9 618.354C3637.81 622.893 3650.37 622.236 3653.66 621.572C3647.12 622.948 3596.65 628.14 3580.73 633.526C3579 634.103 3578.28 634.619 3578.03 635.033C3577.66 634.675 3577.12 634.213 3576.14 633.58C3563.27 625.263 3534.93 638.32 3539.4 640.425C3542.55 641.91 3582.14 640.015 3580.85 639.932C3587.44 640.391 3598.5 644.791 3613.26 645.955C3660.76 649.659 3711.66 643.437 3682.68 657.945C3662.74 667.921 3717.82 663.777 3710.7 672.018C3710.76 671.95 3696.47 677.286 3678.49 675.606C3668.74 674.697 3665.66 665.325 3659.85 664.614C3642.85 662.53 3660.2 670.079 3636.78 664.888C3638.02 665.157 3660.53 661.177 3655.1 659.864C3652.16 659.167 3590.9 671.831 3578.51 672.057C3579.34 671.452 3563.87 666.282 3572.25 664.054C3569.01 664.903 3660.41 665.72 3636.63 658.482C3624.48 654.788 3617.85 663.433 3609.05 662.015C3604.62 661.296 3615.61 657.657 3617.77 657.173C3618.16 657.177 3618.33 657.175 3618.16 657.1C3618.1 657.082 3617.99 657.121 3617.77 657.173C3614.48 657.027 3591.75 654.113 3576.63 654.4C3571.69 654.488 3562.04 659.077 3553.64 657.867C3550.06 657.353 3558.72 650.384 3539.66 651.626C3526.69 652.464 3521.27 659.589 3507.63 661.609C3483.96 665.123 3432.49 673.237 3434.3 678.499C3437.27 687.49 3451.15 676.501 3465.33 677.105C3462.67 677.987 3471.57 684.483 3471.29 684.467C3474.1 684.57 3498.2 674.223 3498.87 680.937C3499.49 687.13 3422.53 690.849 3443.91 697.598C3449.63 699.415 3474.92 692.933 3476.13 695.624C3481.81 707.707 3407.03 718.951 3407.43 727.521C3407.26 727.632 3407.35 727.933 3407.76 728.466C3407.5 728.156 3407.44 727.854 3407.43 727.521C3408.56 726.678 3423.76 736.217 3430.16 731.97C3412.34 746.471 3320.99 740.661 3302.26 752.158C3301.99 752.325 3310.74 753.893 3302.34 755.349C3307.66 754.426 3289.37 755.006 3278.39 754.384C3292.58 754.987 3281.62 747.176 3279.11 747.616C3266.23 749.861 3282 759.617 3261.05 763.841C3257.27 764.628 3240.22 760.162 3242.54 760.866C3214.94 752.452 3239.66 758.947 3247.04 755.998C3264.05 749.241 3236.47 752.294 3251.46 747.944C3253.61 747.332 3255.84 746.847 3258.25 746.448C3261.3 746.734 3264.05 746.761 3265.27 746.179C3265.69 745.978 3265.85 745.752 3265.99 745.507C3295.3 743.077 3335.59 750.461 3334.31 740.551C3334.48 741.761 3312.25 734.553 3311.09 734.42C3293.56 732.216 3317.26 737.464 3297.41 739.389C3285.41 740.557 3253.91 732.745 3255.74 731.875C3244.26 737.315 3267.23 742.492 3266.02 745.507C3263.35 745.743 3260.77 746.047 3258.31 746.447C3253.1 745.972 3247.05 744.764 3246.83 744.786C3242.7 745.168 3231.4 748.379 3223.4 751.101C3223.17 751.183 3222.95 751.254 3222.73 751.325C3222.28 751.486 3221.83 751.638 3221.39 751.791C3221.08 751.901 3220.77 752.003 3220.49 752.113C3220.16 752.234 3219.82 752.355 3219.52 752.476C3219.24 752.577 3218.99 752.678 3218.74 752.777C3218.24 752.971 3217.76 753.162 3217.35 753.342C3217.21 753.401 3217.1 753.452 3216.96 753.513C3216.65 753.642 3216.37 753.763 3216.12 753.883C3216.01 753.944 3215.9 753.995 3215.79 754.054C3215.6 754.165 3215.4 754.254 3215.26 754.354C3215.21 754.393 3215.12 754.443 3215.07 754.474C3214.9 754.593 3214.79 754.701 3214.8 754.78C3214.41 758.574 3235.82 758.447 3238.04 764.114C3236.54 760.274 3209.35 775.484 3233.74 778.593C3237.52 779.075 3276.53 763.373 3279.74 773.24C3279.53 772.539 3244.69 784.157 3243.13 783.463C3243.64 785.137 3252.37 797.429 3248.01 796.044C3253.81 797.89 3284.78 795.393 3284.87 795.605C3290.58 811.256 3245.81 798.298 3238.87 799.357C3232.9 800.277 3205.15 815.747 3184.03 817.63C3177.92 818.171 3157.39 812.79 3147 813.274C3145.7 813.33 3133.58 819.001 3128.71 819.899C3103.69 824.524 3044.94 831.376 3041.42 832.152C3040.02 832.452 3042.96 836.793 3041.53 836.946C3037.72 837.363 3026.03 834.024 3023.05 833.972C3005.7 833.66 2963.09 840.869 2949.51 844.448L2949.51 844.418ZM2837.94 214.59C2834.53 209.307 2818.86 209.894 2810.26 213.317C2794.58 219.55 2842.26 221.405 2837.94 214.59ZM2806.26 240.617C2801.7 239.099 2791.98 242.027 2787.9 244.029C2768.42 253.531 2824.13 246.578 2806.26 240.617ZM2834.85 280.316C2822.64 271.66 2842.96 278.334 2857.75 273.626C2893.74 262.151 2847.7 245.624 2820.51 259.652C2822.04 258.881 2807.57 284.381 2807.28 283.838C2809.86 288.437 2846.49 288.558 2834.85 280.306L2834.85 280.316ZM2770.76 300.291C2784.15 298.345 2792.37 289.651 2788.8 282.466C2788.63 282.087 2775.72 283.002 2774.98 282.63C2772.9 281.59 2764.51 270.359 2756.2 268.426C2749.85 266.948 2743.87 269.686 2742.44 270.191C2715.86 279.826 2753.64 302.791 2770.76 300.291ZM3395.42 398.592C3410.25 382.593 3456.47 384.22 3458.96 356.186C3459.33 351.552 3470.72 351.896 3463.35 348.124C3444.66 338.569 3421.77 383.872 3408.95 387.218C3408.25 387.402 3409.46 388.56 3408.99 388.819C3399.49 393.837 3390.25 385.731 3381.39 392.353C3374.87 397.254 3386.23 408.469 3395.39 398.583L3395.42 398.592ZM3378.08 445.255C3378.59 439.613 3392.46 436.575 3391.63 433.881C3389.51 427.01 3375.24 433.285 3373.06 429.285C3371.18 425.9 3381.91 426.68 3382.2 425.973C3384.86 419.397 3407.89 409.101 3390.96 405.044C3381.26 402.745 3368.13 410.755 3361.08 415.635C3361.66 414.076 3362.47 412.757 3363.43 411.769C3353.32 421.824 3354.8 419.97 3361.08 415.635C3355.38 430.502 3366.32 469.004 3374.34 483.727C3375.87 486.511 3367.68 487.274 3369.89 490.188C3371.8 492.792 3380.74 491.865 3383.8 494.838C3384.78 495.754 3376.72 500.997 3379.36 501.307C3412.94 505.215 3376.96 456.55 3378.05 445.246L3378.08 445.255ZM3384.6 512.244C3388.05 510.631 3379.48 526.419 3393.8 526.767C3399.22 526.888 3393.25 507.228 3384.6 512.244ZM3376.38 570.226C3375.1 569.608 3355.35 575.986 3358.02 573.649C3342.9 586.811 3399.29 581.227 3376.38 570.226ZM3302.94 583.915C3292.38 580.398 3284.93 586.524 3284.65 588.939C3284.09 593.684 3315.97 588.244 3302.94 583.915ZM3539.27 626.321C3539.97 628.871 3513.77 625.227 3519.83 624.628C3505.09 625.497 3492.81 631.436 3493.14 634.518C3493.67 639.512 3541.2 631.047 3539.29 626.331L3539.27 626.321ZM3488.79 645.773C3486.92 645.356 3458.49 649.366 3449.92 650.671C3449.44 650.549 3448.65 650.656 3447.42 651.072C3447.54 651.03 3448.46 650.874 3449.92 650.671C3453.17 651.443 3440.84 662.774 3438.36 657.587C3438.12 657.072 3431.11 660.252 3433.85 660.844C3453.32 665.165 3516.56 652.017 3488.79 645.763L3488.79 645.773ZM3139.44 686.771C3137.36 687.079 3130.76 691.583 3134.98 693.223C3142.78 696.246 3164.08 683.041 3139.44 686.771ZM2370.04 703.931C2363.8 706.387 2349.71 708.294 2365.66 713.583C2387.27 720.8 2395.38 693.918 2370.04 703.931ZM3264.74 722.127C3265.38 722.011 3257.68 726.939 3264.89 728.533C3278.45 731.556 3283.74 718.579 3264.74 722.127Z" fill="#171717"/>
<path fill-rule="evenodd" clip-rule="evenodd" d="M2299.21 479.022C2298.67 480.524 2294.62 481.646 2291.01 479.696C2285.19 476.543 2300.18 476.384 2299.21 479.022Z" fill="#171717"/>
<path fill-rule="evenodd" clip-rule="evenodd" d="M2418.66 464.025C2412.55 464.85 2412.82 462.346 2412.29 460.945C2409.52 453.77 2429.71 462.546 2418.66 464.025Z" fill="#171717"/>
<path fill-rule="evenodd" clip-rule="evenodd" d="M2413.4 474.658C2411.71 473.622 2409.29 472.568 2413.44 471.414C2420.06 469.567 2418.83 477.954 2413.4 474.658Z" fill="#171717"/>
<path fill-rule="evenodd" clip-rule="evenodd" d="M2397.6 547.996C2396.01 548.444 2392.09 547.055 2391.82 546.911C2386.28 543.619 2406.02 545.64 2397.6 547.996Z" fill="#171717"/>
<path fill-rule="evenodd" clip-rule="evenodd" d="M2447.81 472.048C2459.85 472.374 2473.37 477.527 2474.2 482.469C2474.34 483.22 2471.54 485.304 2472.35 486.214C2474.46 488.581 2481.96 489.526 2483.89 491.623C2484.87 492.686 2486.24 499.214 2482.6 500.597C2471.83 504.691 2462.9 493.485 2454.04 491.325C2445.54 489.228 2436.98 490.609 2431.86 488.346C2419.83 483.058 2429.15 471.557 2447.81 472.048Z" fill="#171717"/>
<path fill-rule="evenodd" clip-rule="evenodd" d="M2460.15 450.306C2456.24 450.781 2455.69 449.705 2454.69 448.593C2450.15 443.548 2469.86 449.116 2460.15 450.306Z" fill="#171717"/>
<path fill-rule="evenodd" clip-rule="evenodd" d="M2428.36 546.43C2428.12 546.288 2426.17 544.366 2428.09 543.817C2436.41 541.481 2435.19 550.609 2428.36 546.43Z" fill="#171717"/>
<path fill-rule="evenodd" clip-rule="evenodd" d="M2489.89 501.792C2493.34 500.452 2488.5 495.471 2490.86 493.438C2502.4 483.573 2530.92 495.316 2536.16 500.745C2540.56 505.311 2544.25 511.91 2541.24 512.786C2536.23 514.242 2536.46 510.488 2530.32 509.369C2525.93 508.583 2509.94 508.051 2504.76 506.803C2500.58 505.797 2501.25 503.612 2495.05 504.125C2491.02 504.465 2492.61 511.176 2481.31 509.572C2472.2 508.273 2482.29 500.779 2482.6 500.59C2484.18 499.595 2488.58 502.295 2489.89 501.783L2489.89 501.792Z" fill="#171717"/>
<path fill-rule="evenodd" clip-rule="evenodd" d="M2504.54 535.962C2504.46 535.837 2503.32 534.853 2505.15 534.705C2510.85 534.256 2507.56 539.669 2504.54 535.962Z" fill="#171717"/>
<path fill-rule="evenodd" clip-rule="evenodd" d="M2547.28 519.728C2542.38 516.474 2555.25 518.569 2555.5 519.054C2556.68 521.52 2550.43 521.829 2547.28 519.728Z" fill="#171717"/>
<path fill-rule="evenodd" clip-rule="evenodd" d="M2545.57 622.02C2539.27 627.906 2491.74 619.125 2503.04 612.337C2510.29 607.974 2553.61 614.54 2545.57 622.02Z" fill="#171717"/>
<path fill-rule="evenodd" clip-rule="evenodd" d="M2566.53 630.717C2566.98 630.78 2569.54 630.796 2572.55 630.801C2572.75 631.219 2571.29 631.372 2566.53 630.717Z" fill="#171717"/>
<path fill-rule="evenodd" clip-rule="evenodd" d="M2505.89 520.503C2499.25 522.194 2496.83 518.873 2496.16 517.825C2492.79 512.453 2514.63 518.261 2505.89 520.503Z" fill="#171717"/>
<path fill-rule="evenodd" clip-rule="evenodd" d="M2519.16 535.117C2513.98 536.409 2511.86 530.476 2511.87 530.681C2510.81 524.375 2523.9 533.937 2519.16 535.117Z" fill="#171717"/>
<path fill-rule="evenodd" clip-rule="evenodd" d="M105.088 826.419C88.9559 817.827 52.2732 792.013 90.5348 770.949C141.195 743.08 194.35 771.732 241.466 767.39C269.605 764.819 305.539 749.71 313.959 744.145C314.803 743.558 323.682 719.124 337.501 715.296C377.761 704.113 431.715 730.064 482.513 718.955C499.09 715.325 501.77 696.483 509.744 716.505C516.305 733.274 525.21 712.405 549.989 709.522C590.179 704.848 579.961 719.537 598.998 715.156C593.705 716.366 590.899 702.439 596.716 698.656C592.867 701.163 647.62 684.665 649.693 683.887C649.85 683.832 650.013 683.755 650.171 683.701C740.925 649.539 565.249 682.397 544.974 673.262C534.094 668.33 620.846 649.811 617.024 646.752C608.703 639.984 579.173 657.999 542.238 653.48C517.517 650.425 557.872 644.228 520.516 645.409C430.377 648.182 473.408 650.404 490.127 624.753C502.122 606.154 420.876 572.534 445.179 548.588C461.981 532.02 499.517 541.214 518.595 531.96C530.437 526.228 547.918 497.274 526.71 491.134C475.168 476.192 484.774 472.517 458.268 443.832C415.723 397.826 194.67 323.791 126.422 278.488C99.1553 260.405 166.481 226.171 242.077 256.898C246.295 258.576 252.891 258.309 258.252 259.11C293.698 272.077 330.667 284.459 368.789 294.843C407.911 305.503 478.821 319.64 525.694 334.207C560.348 345.025 580.583 356.589 610.891 353.272C614.406 352.915 619.986 345.894 616.775 346.06C641.127 344.929 643.988 355.612 665.315 348.375C678.629 343.877 683.29 319.947 675.722 324.05C703.799 308.913 753.099 316.05 765.424 326.004C763.537 324.482 764.053 355.506 763.827 361.822C762.299 359.514 738.933 378.445 745.579 381.249C761.924 388.071 779.617 364.557 786.329 377.583C784.871 374.658 760.673 385.718 760.084 386.627C760.285 386.222 762.06 409.39 784.086 411.177C840.246 415.72 822.216 379.427 827.068 373.898C834.474 365.51 859.918 365.91 858.782 354.318C858.892 356.04 848.576 352.465 841.91 349.52C848.591 348.002 849.455 346.702 837.015 346.252C835.069 346.163 837.758 347.714 841.91 349.52C828.253 352.725 789.884 356.91 790.336 357.134C766.367 345.539 879.111 286.805 847.412 321.928C833.412 337.49 843.384 325.265 856.043 334.516C863.551 339.974 870.353 367.029 879.41 376.34C889.39 369.33 873.841 364.291 880.815 360.729C887.211 357.485 895.205 364.61 904.509 362.387C911.124 360.794 912.751 351.296 916.008 350.534C921.239 349.269 930.505 353.733 936.601 353.49C944.527 353.164 973.053 343.915 974.88 341.957C974.838 341.982 974.148 336.665 973.805 332.397C977.245 331.762 984.547 325.4 979.872 324.659C991.88 326.554 984.012 337.896 999.689 339.623C1021.64 342.03 1051.05 338.038 1054.7 335.02C1073.64 319.32 1041.64 325.805 1041.75 324.165C1042.09 319.102 1080.42 310.397 1096.37 311.55C1108.74 312.434 1108.69 316.9 1116.24 317.158C1121.34 317.331 1133.83 313.599 1136.12 313.414C1168.06 310.988 1172.73 325.705 1180.8 326.039C1189.66 326.403 1208.32 315.944 1209.85 309.062C1210.68 305.096 1203.03 304.093 1203.39 303.613C1206.01 299.873 1213.98 299.176 1219.05 295.827C1226.66 290.802 1225.74 282.267 1232.44 277.305C1233.77 276.349 1244.13 278.392 1245.81 277.487C1256.63 271.685 1250.19 265.765 1261.13 261.665C1264.19 260.513 1301.79 253.503 1306.58 252.93C1335.43 249.418 1384.69 256.599 1395.54 270.148C1397.48 272.562 1392.73 276.758 1395.9 278.164C1399.12 279.586 1411.02 277.048 1414.25 279.752C1416.01 281.225 1408.96 285.465 1413.84 290.424C1417.55 294.166 1431.87 293.611 1433.67 296.036C1436.77 300.26 1416.78 300.123 1425.22 306.595C1426.31 307.435 1443.89 306.465 1442.81 310.84C1442.5 312.212 1420.54 316.429 1419.47 317.218C1412.86 321.867 1418.78 338.897 1414.47 343.868C1407.73 351.585 1368.58 364.703 1334.94 368.158C1320.59 369.632 1305.66 374.357 1298.24 374.353C1290.52 374.355 1232.41 363.264 1224.12 370.692C1216.42 377.598 1241.77 373.321 1245.92 378.999C1248.1 382.042 1239.05 387.013 1238.59 394.938C1237.62 412.139 1262.84 411.827 1260.48 421.186C1319.16 415.5 1380.77 409.06 1438.1 402.66C1472.73 398.79 1505.86 394.954 1535.82 391.321C1536.41 391.268 1537.02 391.173 1537.59 391.101C1541.97 390.564 1546.31 390.031 1550.56 389.506C1551.22 389.427 1551.92 389.343 1552.58 389.263C1556.91 388.731 1561.2 388.182 1565.37 387.665C1651.12 376.853 1726.53 372.798 1746.6 354.653C1748.21 353.205 1742.46 341.987 1744.78 341.472C1752.26 339.74 1785.62 355.523 1774.25 355.507C1812.62 355.519 1802.21 335.877 1838.54 322.992C1899.76 301.329 1933.34 316.297 1943.7 286.801C1958.01 246.071 2010.16 301.216 2000.38 298.429C2050.37 312.736 2106.33 281.277 2149.94 284.973C2152.82 285.203 2149.49 296.912 2151.77 298.174C2153.67 299.185 2203.23 310.107 2208.44 309.782C2223.74 308.792 2240.1 294.424 2261.41 294.992C2264.23 295.064 2244.17 307.524 2270.53 310.857C2288.86 313.182 2289.88 297.504 2304.48 307.803C2312.1 313.148 2291.93 316.287 2293.21 325.544C2294.91 338.41 2315.65 332.693 2315.93 340.186C2315.83 339.522 2268.87 350.43 2290.98 359.157C2319.17 370.332 2330.21 347.845 2344.45 347.664C2361.33 347.449 2347.26 357.944 2373.43 358.422C2430.52 359.458 2454.12 328.853 2488.09 341.423C2498.97 345.476 2471.79 356.825 2456.8 364.307C2379.51 402.696 2499.41 387.468 2530.3 397.789C2574.16 412.403 2491.44 421.171 2478.61 422.468C2457.42 424.636 2376.45 455.555 2380.78 461.318C2396.09 481.885 2526.4 451.845 2559.36 458.638C2577.33 462.336 2550.37 476.113 2575.2 473.897C2602.31 471.502 2628.74 438.907 2652.63 436.86C2657.52 436.42 2673.25 453.342 2709.84 451.781C2742.89 450.378 2727.02 460.67 2759.21 460.664C2786.2 460.683 2759.34 453.767 2785.03 448.338C2828.95 439.067 2842.4 469.499 2845.36 486.347C2845.06 484.541 2824.46 491.812 2826.37 498.058C2829.4 508.158 2873.23 505.518 2891.17 518.982C2914.21 536.261 2916.63 555.928 2945.1 560.905C3005.7 571.487 2944.95 558.86 2919.28 573.232C2899.96 584.079 2926.75 606.357 2930.19 602.343C2909.14 626.769 2867.5 616.131 2835.92 617.505C2733.83 621.904 2824.56 650.942 2852.71 639.362C2857.4 637.455 2845.5 624.853 2857.68 625.55C2872.71 626.44 2928.85 637.89 2903.46 658.205C2888.87 669.867 2811.14 652.843 2772.5 656.604C2743.35 659.449 2770.14 666.859 2738.96 662.961C2763.13 665.942 2678.75 645.42 2693.65 633.627C2711.88 619.129 2761.61 636.702 2775.19 626.291C2777.46 624.516 2761.91 596.743 2708.98 595.474C2715.43 595.646 2699.67 606.15 2696.75 606.595C2660.17 612.759 2579.55 585.459 2586.15 603.18C2593.81 623.907 2719.7 606.242 2693.2 630.328C2690.62 632.637 2657.59 637.174 2646.02 637.912C2586.69 641.64 2548.93 619.285 2518.67 612.596C2494.73 607.353 2398.32 609.689 2451.6 625.333C2444.47 623.243 2478.67 616.804 2488.47 614.881C2516.34 612.112 2464.77 628.609 2466.07 630.712C2466.5 631.407 2484.86 636.093 2486.92 632.158C2481.04 643.384 2460.42 634.155 2461.55 647.823C2463.51 670.793 2604.36 640.415 2533.68 671.387C2528.54 673.642 2523.71 662.708 2518.68 662.734C2445.22 662.925 2515.24 716.136 2512.84 720.061C2501.89 737.689 2442.87 730.043 2516.49 746.463C2593.75 763.712 2526.9 746.745 2463.02 757.932C2428.85 763.942 2408.77 764.423 2434.04 747.174C2471.54 721.553 2397.8 730.327 2367.87 716.375C2346.54 706.54 2366.38 693.426 2336.99 692.424C2327.16 692.084 2245.71 724.635 2245.46 727.389C2244.73 733.645 2278.7 738.332 2274.9 741.468C2263.21 751.277 2217.82 759.377 2206.96 747.58C2207.35 748.012 2226.35 731.225 2230.1 729.522C2229.58 731.201 2228.27 733.276 2225.98 735.844C2230.8 730.38 2231.57 728.883 2230.1 729.522C2231.55 725.096 2227.24 723.424 2217.4 723.228C2214.45 723.169 2209.72 734.474 2209.75 739.239C2201.43 742.229 2185.79 749.587 2186.52 749.419C2185.18 749.74 2183.88 750.043 2182.62 750.339C2169.93 753.313 2161.03 755.07 2155.16 756.03C2132.91 759.642 2151.22 752.106 2155.16 756.03C2156.19 757.116 2156.21 759.072 2153.98 762.368C2146.22 773.642 2115.71 759.415 2128.12 774.719C2140.05 789.373 2182.39 764.499 2202.48 764.667C2222.57 764.896 2304.33 794.358 2297.71 806.221C2297.53 806.498 2257.44 813.366 2244 812.418C2244.5 809.09 2244.22 807.017 2242.82 807.836C2237.86 810.791 2239.3 812.106 2244 812.418C2242.96 821.006 2237.38 837.97 2233.5 835.957C2240.38 841.511 2273.09 838.586 2290.46 853.671C2319.77 878.983 2283.59 896.889 2345.35 902.19C2409.14 907.636 2326.31 908.079 2313.23 918.445C2299.82 928.965 2367.62 955.177 2316.88 944.869C2299.35 941.292 2283.35 955.238 2292.43 967.115C2297.14 973.331 2323.12 974.784 2329.12 983.864C2327.09 980.725 2308.68 989.368 2309.18 988.976C2289.2 1003.88 2329.28 999.924 2338.65 1003.05C2335.61 1002.02 2332.25 1006.5 2332.4 1009.16C2332.35 1009.34 2332.4 1009.73 2332.77 1010.24C2332.55 1009.94 2332.46 1009.58 2332.4 1009.16C2333.84 1006.79 2361.81 1018.79 2371.75 1018.12C2360.55 1030.28 2319.98 1058.01 2318.76 1058.3C2286.65 1065.81 2230.53 1050.94 2228.11 1049.77C2232.39 1051.91 2248.21 1046.15 2248.08 1044.61C2245.73 1014.57 2213.94 1039.64 2171.02 1034.84C2168.8 1034.61 2157.11 1023.2 2155.59 1022.86C2124.09 1015.98 2009.62 1048.93 1951.24 1037.93C1930.03 1033.93 1919.19 996.825 1910.85 994.783C1884.83 988.405 1845.69 1008.51 1861.88 1006.08C1842.25 1009.47 1843.19 999.606 1836.07 1001.51C1833.03 1002.31 1843.04 1029.78 1811.15 1020.44C1770.05 1008.47 1743.21 1005.61 1727.71 1014.6C1725.46 1015.92 1750.2 1028.77 1736.79 1030.49C1731.18 1031.18 1707.38 1017.25 1700.47 1017.05C1672.45 1016.23 1640.77 1035.69 1620.8 1037.57C1625.4 1037.15 1608.76 1029.09 1605.84 1028.91C1585.46 1027.5 1532.24 1032.7 1525.13 1042.85C1526.47 1040.98 1539.25 1050.59 1540.04 1051.45C1537.4 1050.3 1475.36 1039 1463.48 1045.06C1456.31 1048.69 1526.08 1065.24 1501.55 1071.72C1469.07 1080.29 1484.1 1063.33 1465.31 1058.27C1444.91 1052.74 1350.51 1050.51 1331.46 1061.23C1330.26 1061.63 1329.2 1062.47 1328.43 1063.89C1312.57 1050.89 1309.48 1085.8 1317.57 1084.93C1270.47 1089.97 1300.99 1071.51 1253.65 1070.61C1269.98 1070.92 1262.68 1084.62 1269.11 1082.59C1222.15 1097.49 1228.95 1063.14 1206.06 1074.9C1186.12 1085.17 1243.65 1101.44 1244.12 1101.57C1295.21 1112.27 1193.93 1100.97 1167.09 1101.71C1165.79 1101.42 1164 1101.54 1161.67 1102.32C1162.76 1101.96 1164.58 1101.8 1167.09 1101.71C1174.99 1103.59 1166.38 1121.52 1160.9 1124.37C1158.74 1122.98 1157.47 1122.3 1157.61 1122.69C1158.24 1124.84 1159.42 1125.16 1160.9 1124.37C1170.78 1130.9 1198.63 1153.15 1189.78 1156.55C1166.47 1165.54 1139.37 1143.44 1128.49 1131.89C1137.26 1136.97 1153.47 1130.71 1157.83 1129.21C1158.19 1129.34 1158.41 1129.38 1158.53 1129.32C1159.38 1128.77 1159 1128.84 1157.83 1129.21C1151.96 1127.11 1112.05 1096.43 1100.44 1107.83C1091.72 1116.37 1125.54 1131.16 1125.91 1142.27C1125.97 1144.57 1107.68 1170.77 1103.92 1176.58C1103.5 1174.2 1081.65 1181.62 1090.09 1182.23C1021.68 1177.42 1184.45 1260.04 1098.76 1244.91C1079.14 1241.46 1082.54 1250.26 1085.52 1252.4C1079.36 1248.19 1054.87 1213.71 1031.22 1204.21C1028.69 1203.18 1026.46 1202.85 1024.69 1202.82C1026.19 1202.42 1028.13 1201.86 1030.77 1200.93C1065.46 1188.62 1008.64 1172.97 999.921 1176.96C993.768 1179.77 1003.74 1207.6 1004.03 1206.64C1002.4 1211.55 984.252 1221.13 980.027 1232.19C966.605 1267.76 995.496 1302.16 932.486 1286.58C889.158 1275.85 909.427 1314.02 874.088 1311.9C874.383 1311.91 851.029 1303.57 857.289 1290C860.679 1282.65 900.322 1277.01 903.06 1272.56C911.083 1259.55 879.871 1274.81 900.776 1256.04C899.694 1257.03 917.687 1271.8 922.999 1267.4C925.814 1265.03 869.067 1225.52 867.505 1216.68C870.114 1217.06 891.318 1204.02 901.184 1209.25C897.423 1207.22 898.389 1273.37 927.97 1253.6C943.064 1243.49 906.036 1241.88 911.629 1235.02C914.468 1231.56 930.452 1238.15 932.612 1239.53C932.614 1239.81 932.631 1239.93 932.94 1239.78C933.015 1239.73 932.842 1239.67 932.612 1239.53C933.073 1237.1 944.341 1219.67 942.391 1208.88C941.774 1205.35 921.822 1200.07 926.549 1193.58C928.558 1190.81 958.572 1194.51 952.374 1181.23C948.183 1172.2 917.666 1170.89 908.429 1161.8C892.357 1146.03 855.406 1111.91 833.148 1115.13C795.114 1120.55 842.449 1126.54 840.576 1136.98C836.7 1135.39 809.549 1144.17 809.602 1143.96C809.301 1146.02 854.408 1159.61 825.934 1162.54C799.665 1165.24 780.136 1111.16 752.518 1129.03C745.08 1133.81 773.834 1149.66 762.464 1151.52C711.434 1160.02 660.058 1110.25 623.689 1113.66C623.21 1113.58 621.934 1113.76 619.692 1114.25C620.998 1113.95 622.277 1113.79 623.689 1113.66C627.323 1114.17 587.559 1128.61 605.903 1131.66C543.463 1124.12 563.698 1056.19 513.971 1046.89C513.247 1046.75 507.015 1053.63 500.424 1048.11C504.6 1051.6 501.25 1038.64 503.358 1030.5C501.485 1040.94 534.12 1030.2 532.132 1028.55C521.974 1020.09 481.315 1035.01 462.362 1021.46C458.837 1019.03 476.968 1005.11 474.092 1007.04C508.482 984.081 482.101 1004.26 494.983 1008.5C524.502 1018.29 510.198 999.534 529.394 1008.75C532.097 1010.08 534.265 1011.51 536.079 1013.1C535.013 1015.39 535.032 1017.39 537.562 1018.06C538.436 1018.28 539.403 1018.32 540.448 1018.33C552.189 1038.56 522.795 1070.28 564.809 1065.74C559.683 1066.31 589.208 1047.66 589.718 1046.77C598.222 1033.34 577.091 1052.33 567.954 1038.73C562.41 1030.51 594.051 1004.97 597.836 1005.97C574.18 999.684 553.312 1018.12 540.451 1018.35C539.318 1016.51 537.904 1014.77 536.084 1013.14C537.85 1009.21 542.684 1004.41 542.58 1004.26C540.759 1001.43 526.573 994.453 514.626 989.684C514.269 989.552 513.957 989.415 513.645 989.283C512.94 989.017 512.271 988.753 511.602 988.488C511.119 988.305 510.672 988.123 510.191 987.962C509.66 987.765 509.129 987.568 508.601 987.393C508.157 987.228 507.716 987.086 507.283 986.942C506.437 986.649 505.602 986.377 504.819 986.145C504.56 986.066 504.34 986.002 504.073 985.923C503.509 985.752 502.983 985.595 502.461 985.459C502.196 985.403 501.977 985.338 501.721 985.281C501.24 985.182 500.85 985.075 500.42 985.011C500.251 984.986 500.035 984.944 499.902 984.915C499.388 984.837 498.924 984.799 498.59 984.829C482.461 985.933 484.039 1001.32 460.083 1004.98C476.314 1002.5 410.411 988.466 398.394 1007.17C396.531 1010.07 465.099 1032.44 423.359 1038.36C426.326 1037.95 375.302 1017.09 378.172 1015.71C371.088 1016.69 319.318 1027.47 324.989 1023.82C317.433 1028.67 329.537 1050.07 328.641 1050.22C262.465 1060.04 315.31 1023.06 310.475 1018.44C306.28 1014.48 239.244 1000.13 230.226 985.605C227.628 981.395 249.48 964.641 246.921 957.332C246.621 956.421 221.951 949.758 217.901 946.578C197.051 930.24 165.101 890.412 161.637 888.158C160.294 887.26 142.005 890.96 141.284 889.989C139.331 887.394 152.941 877.754 153.017 875.586C153.499 862.973 120.82 834.904 104.961 826.43L105.088 826.419ZM2774.02 516.173C2796.29 511.786 2793.03 500.711 2778.08 495.762C2750.85 486.741 2745.29 521.774 2774.02 516.173ZM2661.96 502.847C2668.19 499.008 2655.28 493.076 2646.58 490.865C2605.29 480.298 2637.52 517.899 2661.96 502.847ZM2494.79 537.933C2530.95 525.98 2503.59 543.052 2524.3 551.987C2574.78 573.728 2642.72 534.529 2581.83 520.059C2585.18 520.878 2476.2 519.764 2478.49 519.353C2459.09 522.891 2460.35 549.326 2494.83 537.929L2494.79 537.933ZM2406.86 499.05C2415.77 507.984 2453.08 510.738 2483.42 505.544C2485.02 505.28 2480.51 496.311 2482.05 495.642C2486.37 493.769 2533.65 483.626 2541.45 476.933C2547.42 471.815 2535.5 468.506 2533.29 467.664C2491.09 452.025 2395.41 487.63 2406.86 499.05ZM2019.79 984.963C2088.44 989.808 2083.78 1023.7 2202.94 1015.26C2222.63 1013.84 2221.72 1022.17 2237.38 1015.49C2277.05 998.53 2083.57 998.577 2068.74 990.562C2067.93 990.124 2063.07 991.419 2061.94 991.174C2040.18 986.162 2074.15 976.546 2045.6 972.576C2024.47 969.669 1977.4 981.95 2019.82 984.938L2019.79 984.963ZM1820.81 989.5C1844.79 987.809 1858.36 996.693 1869.76 995.116C1898.83 991.077 1871.5 983.085 1888.38 980.058C1902.66 977.47 1899.87 985.483 1902.88 985.434C1930.93 984.947 1975.77 997.783 1992.18 984.103C2001.47 976.28 1966.82 969.741 1945.75 966.441C1952.4 966.292 1958.04 966.394 1962.29 966.724C1919.1 963.115 1927.04 963.499 1945.75 966.441C1882.35 967.764 1719.39 989.697 1657.27 1000.85C1645.52 1002.97 1641.89 997.347 1629.62 999.998C1618.65 1002.33 1623.02 1008.43 1610.55 1011.72C1606.71 1012.76 1584.05 1008.87 1582.87 1010.88C1567.9 1036.5 1772.79 992.819 1820.84 989.474L1820.81 989.5ZM1536.68 1018.65C1543.7 1020.54 1476.24 1020.13 1475.46 1030.57C1475.21 1034.53 1558.4 1023.05 1536.68 1018.65ZM1290.08 1033.89C1292.64 1032.74 1264.6 1020.84 1274.65 1021.91C1218.03 1015.82 1244.48 1054.41 1290.08 1033.89ZM1228.39 985.975C1242.81 977.081 1216.44 973.952 1206.17 974.631C1185.99 975.957 1210.64 996.943 1228.39 985.975ZM1059.8 1171.71C1049.01 1173.15 1063.21 1152.95 1066.05 1157.09C1061.64 1146.79 1035.83 1140.11 1022.76 1141.47C1001.58 1143.68 1039.83 1174.83 1059.76 1171.73L1059.8 1171.71ZM974.753 1142.45C976.433 1140.95 958.025 1121.93 952.069 1116.23C952.565 1115.84 952.071 1115.31 950.246 1114.58C950.43 1114.64 951.137 1115.25 952.069 1116.23C948.95 1118.85 900.238 1114.11 922.14 1110.43C924.316 1110.06 910.475 1106.18 908.093 1108.37C890.69 1123.97 949.589 1164.73 974.798 1142.44L974.753 1142.45ZM783.706 905.716C782.296 904.335 762.853 901.219 756.091 904.86C743.636 911.585 800.743 922.112 783.706 905.716ZM673.481 357.664C662.749 354.067 653.965 344.609 632.283 358.03C602.688 376.237 717.226 372.269 673.481 357.664ZM639.662 1008.89C640.188 1009.31 618.89 1005.57 612.468 1011.34C600.293 1022.21 655.651 1021.29 639.662 1008.89Z" fill="#171717"/>
</svg>
