<svg width="524" height="603" viewBox="0 0 524 603" fill="none" xmlns="http://www.w3.org/2000/svg">
<path d="M287.019 39.1812C273.465 36.2015 259.968 33.5928 246.108 31.9457C239.134 31.1166 230.285 29.4394 222.948 30.9526C214.676 32.6592 206.618 38.5503 200.184 44.1672C183.569 58.6713 170.053 82.8722 165.584 104.324C161.656 123.175 161.662 144.031 166.007 162.183C172.119 187.722 192.595 208.531 209.472 226.557C226.639 244.892 253.149 264.911 280.86 256.564C294.447 252.473 308.876 241.453 311.722 226.305C316.117 202.914 303.33 176.955 288.244 162.11C271.974 146.099 250.057 155.369 232.752 168.561C211.739 184.578 201.23 214.089 203.407 239.329C205.262 260.864 210.924 283.629 220.798 302.179C226.643 313.161 233.719 325.358 243.784 332.599C248.423 335.937 254.62 339.21 260.659 336.611C264.31 335.038 267.341 330.149 269.717 326.921C275.873 318.565 263.231 311.21 257.928 307.978C241.56 298.001 224.157 290.052 203.998 293.596C182.882 297.31 169.991 326.139 164.668 344.837C160.016 361.18 156.125 379.048 155.636 395.805C154.87 422.041 164.398 442.553 181.515 460.164C198.518 477.657 218.364 490.222 239.274 502.244C257.073 512.477 276.397 520.815 296.928 524.356C303.288 525.453 309.518 525.675 315.918 523.748C317.708 523.209 319.615 522.058 321.321 522.121" stroke="#B9F43D" stroke-linecap="round"/>
<path d="M411.029 117.392C401.459 111.458 391.952 105.398 382.249 99.6803C375.399 95.6437 368.582 90.6889 361.177 87.7209C357.96 86.4317 354.609 85.353 351.269 84.4271C347.916 83.4977 344.441 83.7651 341.123 82.9536C330.248 80.2947 318.46 77.4048 307.599 81.9301C303.828 83.5012 300.817 85.7252 297.207 87.5291C294.048 89.1073 290.159 91.0301 287.725 93.7069C283.094 98.7991 278.971 106.034 275.942 112.214C273.832 116.518 274.185 121.312 272.591 125.758C271.256 129.48 271.511 134.904 271.541 138.865C271.628 149.73 273.156 161.407 277.967 171.148C280.166 175.602 281.75 179.931 284.585 184.06C286.343 186.621 288.079 189.676 289.385 192.48C292.894 200.012 300.425 204.215 305.046 210.72C307.839 214.653 312.206 217.969 316.051 221.212C321.722 225.995 326.978 230.959 332.712 235.703C339.582 241.387 344.058 249.666 349.851 256.317C354.786 261.983 360.91 270.836 361.892 278.432C362.906 286.284 363.613 293.939 361.701 301.767C360.146 308.126 358.945 314.046 356.594 320.202C353.406 328.544 349.936 335.746 345.403 343.438C338.36 355.389 329.147 366.1 317.463 373.574C306.554 380.554 295.241 384.042 282.878 387.237C268.666 390.909 252.023 387.969 237.956 384.879C229.208 382.956 221.814 379.523 213.927 375.39C201.351 368.802 187.976 362.087 176.851 353.206C161.132 340.662 146.048 325.591 136.962 307.337C131.725 296.817 136.356 286.291 141.951 277.067C145.944 270.481 156.469 265.795 164.066 265.735C171.573 265.676 176.058 267.295 182.361 271.009C185.856 273.069 189.133 275.562 192.103 278.335C194.409 280.49 195.48 283.395 197.91 285.471C219.887 304.255 218.527 336.89 210.261 361.715C208.664 366.512 205.246 371.003 202.681 375.356C199.923 380.036 197.025 383.475 192.605 386.647C188.532 389.573 183.146 391.93 178.502 393.731C173.2 395.788 168.688 398.315 163.101 399.759C153.835 402.153 145.7 406.221 136.143 407.485C134.448 407.71 133.101 408.759 131.427 409.046C128.93 409.474 126.329 409.418 123.801 409.809C118.785 410.583 113.704 411.248 108.768 412.38C95.1461 415.503 82.0125 418.134 68.9941 423.236C65.8731 424.459 63.0684 426.642 60.2563 428.433C56.6654 430.721 52.6226 432.378 49.237 434.956C42.7624 439.886 36.2624 444.541 30.0346 449.84C25.3128 453.859 21.297 459.115 17.5644 464.062C14.2692 468.43 11.4642 473.87 10.0648 479.125C9.30022 481.995 5.31112 490.032 7.20881 492.962" stroke="#4251DE" stroke-width="12" stroke-linecap="round"/>
</svg>
