<svg width="404" height="281" viewBox="0 0 404 281" fill="none" xmlns="http://www.w3.org/2000/svg">
<g style="mix-blend-mode:soft-light" opacity="0.3">
<path d="M279.218 345.276C278.239 348.754 277.321 352.359 276.635 356.16C272.246 380.249 272.934 405.276 278.917 429.017C288.166 465.731 309.004 493.06 335.616 518.903C359.703 542.265 383.115 559.256 414.573 572.683C461.64 592.778 533.037 601.866 572.937 563.773C609.468 528.891 619.372 480.765 627.489 432.741C628.373 427.557 629.556 421.816 633.886 418.856C638.829 415.466 656.439 425.06 662.098 426.625C695.905 435.96 725.285 431.716 747.407 410.152C781.961 376.459 786.723 327.519 767.549 267.681C764.442 258.024 760.693 248.451 757.6 238.768C751.03 218.232 773.983 221.941 787.801 219.005C807.214 214.873 826.009 207.176 841.994 195.291C865.207 178.036 882.078 151.405 884.404 122.592C885.606 107.408 882.895 92.225 879.849 77.2971C874.732 52.1654 869.715 26.0594 861.447 1.72493C853.301 -22.2313 840.06 -45.2582 828.109 -67.4715C814.306 -93.1189 789.161 -114.399 766.2 -131.997C749.524 -144.762 731.096 -156.223 710.672 -161.803C691.485 -167.055 670.341 -173.174 650.295 -172.266C636.581 -171.645 622.5 -165.987 609.041 -163.042C594.826 -159.977 580.103 -158.211 565.95 -154.956C550.53 -151.414 534.911 -149.188 517.783 -151.847C494.508 -155.452 488.277 -161.726 483.128 -188.625C479.03 -210.052 473.176 -231.219 460.71 -250.775C430.854 -297.675 393.167 -321.477 350.045 -322.921C312.013 -324.224 285.34 -306.03 271.32 -269.115C261.841 -244.141 264.375 -215.699 273.038 -185.468C275.166 -178.044 276.971 -170.452 277.747 -163.131C279.066 -150.549 270.483 -146.704 260.788 -155.322C256.641 -158.991 252.789 -163.489 249.271 -168.053C243.002 -176.24 237.145 -184.833 231.003 -193.144C194.595 -242.49 151.712 -263.614 105.372 -262.67C66.7466 -261.877 38.9358 -241.073 20.9182 -207.562C-2.87809 -163.275 -6.70748 -109.996 14.7279 -49.5761C36.5587 11.9279 74.6819 55.17 129.724 74.883C140.909 78.8934 152.13 81.3441 163.342 85.2415C172.406 88.3952 176.792 94.0158 178.761 104.357C180.159 111.789 180.908 119.223 181.407 126.529C185.19 181.846 207.618 230.163 249.487 271.284C257.406 279.079 265.548 286.53 273.525 294.243C291.492 311.608 284.473 326.345 279.187 345.307L279.199 345.345L279.218 345.276ZM469.669 279.313C471.483 278.973 473.662 279.622 477.787 280.014C474.999 283.852 473.672 286.649 471.596 288.434C436.318 318.43 393.551 328.921 342.482 317.223C337.645 316.122 332.584 313.693 327.852 310.926C320.5 306.607 318.252 300.352 322.562 294.7C326.783 289.16 331.762 284.148 337.442 280.581C353.061 270.781 371.411 268.522 391.831 273.706C418.709 280.53 444.867 283.801 469.669 279.313ZM395.079 265.053C400.828 254.057 455.533 256.432 465.679 268.103C458.664 280.349 409.733 278.226 395.079 265.053ZM415.318 253.057C406.525 252.597 397.909 253.063 389.17 253.025C364.713 252.986 343.855 238.886 326.632 213.789C297.713 171.625 288.545 129.446 298.758 87.7882C303.37 68.9409 315 59.1029 332.767 58.4572C361.427 57.3979 388.471 52.5979 412.125 38.9443C416.136 36.6115 420.875 35.4848 425.488 34.3574C440.104 30.7222 452.82 40.1334 464.36 54.154C470.183 61.2307 475.176 69.1638 479.87 75.73C511.053 132.219 517.284 184.582 502.816 233.924C497.672 251.396 484.16 257.517 467.028 256.513C449.807 255.495 432.502 253.961 415.3 253.063L415.318 253.057ZM373.177 1.45244C372.803 0.946795 372.423 0.422262 372.055 -0.0644943C356.691 9.10764 341.664 18.8607 325.835 27.1806C317.904 31.3562 308.87 34.0715 299.644 35.3011C292.729 36.2375 285.21 31.5338 278.878 24.372C269.255 13.4712 267.288 0.953227 273.741 -8.20132C280.36 -17.5561 290.407 -21.0826 301.016 -23.2027C322.11 -27.4437 344.549 -24.9265 367.651 -17.0393C372.497 -15.3975 377.282 -11.1833 382.069 -8.1832C379.097 -4.97558 376.124 -1.76796 373.171 1.43352L373.177 1.45244ZM405.381 7.73187C414.454 10.59 417.76 18.6128 412.944 25.6644C410.332 29.4657 407.075 32.8917 403.329 35.2011C385.544 46.188 365.745 52.5384 342.922 50.8993C338.294 50.5672 330.965 48.4375 328.631 44.6796C324.733 38.5023 330.14 34.4173 333.295 31.2549C338.407 26.0734 344.455 22.0932 350.079 17.5818C361.769 11.0089 374.121 6.08201 388.326 5.55155C393.782 5.34167 399.693 5.94622 405.387 7.75079L405.381 7.73187ZM261.623 -35.5487C260.562 -33.0898 258.974 -30.8356 257.145 -29.1931C251.436 -24.1098 245.505 -26.3186 241.479 -35.8432C238.667 -42.4788 236.664 -49.7132 235.778 -56.4747C233.417 -74.2414 236.101 -89.8239 242.847 -103.216C244.728 -106.884 247.547 -109.728 248.881 -111.543C254.748 -114.921 258.639 -113.386 261 -107.042C263.461 -100.522 265.554 -93.5892 266.297 -87.0739C268.418 -68.4344 268.136 -50.6221 261.642 -35.5549L261.623 -35.5487ZM463.672 44.085C459.05 37.9974 455.264 31.1352 451.061 24.6603C451.669 24.0227 452.271 23.3661 452.879 22.7284C455.053 24.0698 457.438 25.0289 459.358 26.809C483.055 49.1678 504.129 74.2019 518.427 104.897C526.23 121.643 526.807 137.982 522.624 152.756C521.928 155.243 519.622 156.706 518.042 158.665C516.355 155.867 514.077 153.179 513.096 150.298C510.926 143.641 509.36 136.913 507.593 130.208C499.328 98.6966 483.724 70.4774 463.678 44.1039L463.672 44.085ZM527.349 173.539C529.016 188.602 526.013 201.214 520.277 213.021C515.786 204.381 519.886 180.24 527.349 173.539ZM545.464 311.843C556.869 314.087 591.726 359.189 594.603 375.908C582.475 372.728 547.148 326.315 545.464 311.843ZM764.492 272.297C776.013 307.056 777.573 339.059 767.797 368.063C760.652 389.222 747.874 404.204 730.776 414.925C706.274 428.29 678.671 430.344 647.188 415.942C632.579 409.261 619.918 398.158 609.857 383.153C589.71 353.068 568.536 324.07 544.546 297.539C527.352 278.499 520.052 257.071 523.659 235.204C527.764 210.309 532.534 185.656 538.482 161.792C544.417 138.015 561.204 127.688 582.257 123.9C608.532 119.183 633.517 130.599 658.43 153.544C677.672 171.226 697.849 187.347 717.849 203.63C740.021 221.696 755.246 244.578 764.454 272.309L764.492 272.297ZM534.145 117.033C533.293 112.687 535.422 108.499 536.25 104.233C546.186 103.19 554.672 102.453 563.035 101.4C573.841 100.011 584.394 97.8466 595.347 97.1C600.011 96.7718 605.493 98.4994 610.475 100.62C612.84 101.648 616.391 105.93 616.708 108.379C617 110.752 614.399 114.006 612.194 114.495C604.62 116.107 596.596 116.338 588.917 117.691C577.119 119.759 565.486 122.401 553.775 124.671C551.047 125.226 548.207 125.503 545.344 125.516C540.538 125.472 535.411 123.356 534.182 117.083L534.145 117.033ZM665.471 149.721C675.2 150.42 705.093 175.864 710.879 188.35C701.659 187.862 670.815 161.62 665.471 149.721ZM571.033 -146.362C576.441 -151.535 583.264 -153.906 591.663 -151.833C597.266 -150.437 600.339 -146.146 598.555 -140.899C596.199 -133.939 592.378 -128.006 589.183 -121.63C588.633 -122.099 588.107 -122.555 587.563 -123.005C581.443 -119.567 574.359 -121.588 570.085 -127.956C565.737 -134.426 565.859 -141.432 571.052 -146.368L571.033 -146.362ZM605.644 -126.536C618.051 -143.364 630.588 -153.31 651.77 -157.537C657.9 -158.762 664.184 -159.388 670.463 -159.448C712.893 -159.87 758.481 -132.243 786.694 -102.004C804.517 -82.8977 818.082 -60.2903 830.721 -37.4434C846.754 -8.42262 861.666 21.6541 869.277 53.9227C876.876 86.2164 876.737 121.158 863.365 151.523C850.012 181.881 822.048 206.773 789.192 211.334C763.328 214.934 742.968 204.479 727.603 184.697C719.119 173.759 704.988 166.169 693.789 157.498C682.065 148.433 670.696 138.917 660.145 128.507C644.249 112.873 630.142 95.0239 620.424 74.8442C611.966 57.3085 613.887 38.1667 614.072 18.9635C614.372 -10.9262 606.806 -41.5148 599.152 -72.1797C594.263 -91.7995 593.415 -109.997 605.644 -126.536ZM597.529 36.0728C594.541 23.762 590.23 10.7318 588.547 -1.94159C586.12 -20.105 585.579 -38.0044 584.315 -56.003C584.207 -57.6832 584.288 -59.488 584.838 -60.818C586.048 -63.8484 587.62 -66.5996 589.048 -69.4713C591.393 -66.2606 594.72 -63.2448 595.962 -59.821C607.792 -27.1288 612.249 4.64123 608.27 35.0606C607.893 37.8825 605.695 40.0006 603.846 41.775C603.542 42.0624 600.494 38.7465 597.523 36.0538L597.529 36.0728ZM570.646 -105.439C577.577 -91.8828 579.184 -78.0965 579.203 -64.9433C579.205 -32.3279 583.25 0.747742 591.449 34.5612C592.93 40.7103 593.511 47.0485 593.471 52.9612C593.434 60.4842 588.689 62.4284 582.97 56.6985C575.401 49.145 568.627 40.3699 564.744 35.8408C542.268 -5.43143 534.548 -42.2045 536.496 -78.594C537.122 -90.3466 539.729 -101.866 543.702 -111.76C549.134 -125.205 562.323 -121.66 570.621 -105.452L570.646 -105.439ZM517.895 -144.059C528.034 -141.716 534.44 -134.264 534.805 -122.939C535.104 -113.099 534.103 -103.589 533.24 -94.1021C529.344 -51.4286 534.844 -8.36683 559.631 35.4366C566.023 46.763 573.23 57.6982 579.2 69.2043C584.778 79.8964 583.409 87.0586 575.547 91.3164C559.886 99.8324 542.103 96.4458 524.975 81.5271C499.24 59.0795 477.024 31.6981 462.045 -0.57433C441.782 -44.3043 442.728 -82.3547 464.184 -112.635C471.406 -122.773 479.816 -131.707 487.649 -141.186C488.105 -140.686 488.586 -140.173 489.042 -139.673C497.556 -144.436 506.945 -146.577 517.876 -144.053L517.895 -144.059ZM270.736 -218.4C265.528 -265.762 283.481 -295.298 316.49 -310.621C345.151 -323.94 376.858 -320.469 410.677 -297.938C429.92 -285.131 445.684 -267.655 456.33 -248.803C482.069 -205.352 484.369 -168.193 464.244 -135.626C458.978 -127.131 452.785 -119.421 446.225 -112.324C433.867 -98.9433 417.351 -102.743 399.834 -114.041C376.021 -129.437 351.761 -139.917 327.018 -146.035C290.333 -155.08 274.827 -180.946 270.71 -218.413L270.736 -218.4ZM400.974 -99.1192C400.655 -96.6932 397.063 -94.8106 394.363 -94.6835C377.242 -93.7254 359.937 -100.845 342.955 -111.146C335.385 -115.749 328.019 -121.716 321.134 -128.07C316.4 -132.448 316.469 -136.152 320.829 -138.892C322.837 -138.96 326.018 -139.537 329.324 -139.088C352.331 -135.856 374.776 -127.546 395.707 -108.47C398.152 -106.233 401.234 -101.338 400.967 -99.1381L400.974 -99.1192ZM293.022 -132.776C300.865 -130.416 309.091 -127.01 316.513 -122.024C342.908 -104.227 369.829 -92.5218 397.473 -85.6555C412.957 -81.8122 424.026 -73.4748 432.603 -59.5552C439.326 -46.7673 442.667 -31.7054 437.812 -18.0303C434.522 -8.73564 426.982 -4.64555 417.394 -6.70815C404.596 -9.43955 391.622 -13.2226 378.775 -18.0301C351.907 -28.0994 326.003 -31.9348 300.703 -29.9416C296.252 -29.5994 291.577 -29.6235 286.921 -30.5533C278.664 -32.1921 274.884 -36.0852 273.909 -45.5585C272.277 -61.2195 271.387 -76.7876 270.849 -92.2402C270.532 -101.363 270.65 -110.565 271.94 -119.061C273.678 -130.549 282.058 -136.105 293.035 -132.801L293.022 -132.776ZM133.76 71.5377C87.667 57.2548 52.6448 22.6254 29.0564 -27.2593C-4.45821 -98.2182 -1.6661 -159.172 29.1882 -210.76C38.0838 -225.648 50.3607 -236.199 64.4535 -244.518C99.785 -263.694 138.667 -263.378 182.238 -235.009C206.043 -219.506 225.372 -197.836 239.515 -170.375C250.025 -150.014 248.523 -132.411 241.554 -116.812C231.257 -93.7051 228.684 -67.3842 232.307 -38.0414C234.76 -18.192 230.714 -2.10243 221.025 11.0569C211.329 24.1973 202.177 37.9136 193.475 52.0481C180.149 73.7575 160.006 79.6969 133.767 71.5566L133.76 71.5377ZM242.779 21.9358C239.55 35.3321 231.419 43.9663 222.69 51.9171C220.803 53.641 218.63 54.9353 216.588 56.438C216.644 56.5453 216.705 56.6715 216.78 56.7727C213.631 58.2808 210.605 60.0412 207.269 61.1707C205.964 61.5963 203.575 61.2033 202.501 60.0892C201.558 59.0578 201.068 56.0793 201.53 54.7361C208.074 35.7818 218.173 20.606 234.892 12.8957C236.596 12.0891 240.052 12.9292 241.859 14.5576C243.022 15.6219 243.309 19.8383 242.785 21.9547L242.779 21.9358ZM252.246 267.874C222.678 239.124 202.176 204.74 191.833 164.993C184.552 137.01 181.825 110.095 194.098 88.8129C197.153 83.486 201.204 78.9644 205.472 74.916C218.89 62.152 232.52 49.7165 246.218 37.3632C258.232 26.5841 270.953 28.6294 284.191 42.8498C291.506 50.7162 294.541 59.7688 294.228 68.8878C293.81 80.6983 292.186 92.0859 291.196 103.685C287.667 144.921 298.684 184.615 327.247 222.48C331.407 227.985 335.555 233.454 339.544 239.078C350.452 254.497 350.69 260.236 340.284 269.654C335.631 273.869 330.311 277.194 326.536 279.994C315.782 286.68 306.534 293.105 293.989 292.049C278.614 290.722 264.986 280.311 252.208 267.886L252.246 267.874ZM306.213 328.964C321.616 326.013 335.865 336.661 350.699 341.784C367.51 347.579 386.137 346.235 403.215 341.232C420.293 336.228 436.104 327.789 451.815 319.424C469.672 309.878 487.337 298.972 505.772 290.619C515.56 286.172 520.773 289.452 525.783 297.757C533.318 310.279 539.429 324.271 546.276 337.248C553.29 350.548 560.617 367.051 571.848 377.427C579.608 384.605 589.702 388.155 598.422 393.911C607.029 399.578 613.596 407.395 619.46 415.818C631.377 432.854 621.386 452.472 614.906 470.276C606.029 494.593 600.666 521.342 584.35 542.101C567.141 563.968 540.356 577.199 512.828 581.09C485.274 584.968 456.987 580.048 430.883 570.461C354.147 542.235 294.868 471.14 280.922 390.621C278.814 378.442 277.691 365.753 281.3 353.907C284.896 342.086 294.11 331.32 306.263 328.99L306.213 328.964Z" fill="white"/>
</g>
</svg>
